# Blender 4.5.3 LTS
# www.blender.org
o BarricadeBody
v -0.314732 0.000000 0.225003
v 0.285269 0.000000 0.225003
v -0.314732 1.200000 -0.224997
v 0.285269 1.200000 -0.224997
v -0.314732 -0.000000 -0.224997
v 0.285269 -0.000000 -0.224997
v -0.314732 1.035189 0.225003
v -0.314732 1.035189 -0.224997
v 0.285269 1.035189 -0.224997
v 0.285269 1.035189 0.225003
v -0.314732 0.673963 0.225003
v -0.314732 0.673963 -0.224997
v 0.285269 0.673963 -0.224997
v 0.285269 0.673963 0.225003
v -0.314732 1.062641 0.225003
v -0.314732 1.200000 0.152250
v 0.285269 1.062641 0.225003
v 0.285269 1.200000 0.152250
v 0.285269 0.700966 -0.134319
v 0.285269 0.700966 0.134325
v 0.285269 1.008186 -0.134319
v 0.285269 1.008186 0.134325
v 0.164652 0.700966 -0.134319
v 0.164652 0.700966 0.134325
v 0.164652 1.008186 -0.134319
v 0.164652 1.008186 0.134325
v 0.164732 0.779079 -0.018734
v 0.164732 0.959079 -0.018734
v 0.164732 0.959079 -0.048734
v 0.164732 0.779079 -0.048734
v 0.312474 0.889113 -0.018734
v 0.305818 0.908133 -0.018734
v 0.295098 0.925195 -0.018734
v 0.280848 0.939445 -0.018734
v 0.263785 0.950168 -0.018734
v 0.244765 0.956823 -0.018734
v 0.224741 0.959079 -0.018734
v 0.314732 0.869088 -0.018734
v 0.314732 0.869088 -0.048734
v 0.224741 0.959079 -0.048734
v 0.244765 0.956823 -0.048734
v 0.263785 0.950168 -0.048734
v 0.280848 0.939445 -0.048734
v 0.295098 0.925195 -0.048734
v 0.305818 0.908133 -0.048734
v 0.312474 0.889113 -0.048734
v 0.244765 0.781335 -0.018734
v 0.263785 0.787991 -0.018734
v 0.280848 0.798712 -0.018734
v 0.295098 0.812961 -0.018734
v 0.305818 0.830024 -0.018734
v 0.312474 0.849045 -0.018734
v 0.314732 0.869070 -0.018734
v 0.224741 0.779079 -0.018734
v 0.312474 0.849045 -0.048734
v 0.305818 0.830024 -0.048734
v 0.295098 0.812961 -0.048734
v 0.280848 0.798712 -0.048734
v 0.263785 0.787991 -0.048734
v 0.244765 0.781335 -0.048734
v 0.224741 0.779079 -0.048734
v 0.314732 0.869070 -0.048734
v 0.164732 0.779085 0.048738
v 0.164732 0.959085 0.048738
v 0.164732 0.959085 0.018738
v 0.164732 0.779085 0.018738
v 0.312474 0.889119 0.048738
v 0.305818 0.908139 0.048738
v 0.295098 0.925203 0.048738
v 0.280848 0.939451 0.048738
v 0.263785 0.950173 0.048738
v 0.244765 0.956829 0.048738
v 0.224741 0.959085 0.048738
v 0.314732 0.869094 0.048738
v 0.314732 0.869094 0.018738
v 0.224741 0.959085 0.018738
v 0.244765 0.956829 0.018738
v 0.263785 0.950173 0.018738
v 0.280848 0.939451 0.018738
v 0.295098 0.925203 0.018738
v 0.305818 0.908139 0.018738
v 0.312474 0.889119 0.018738
v 0.244765 0.781341 0.048738
v 0.263785 0.787997 0.048738
v 0.280848 0.798718 0.048738
v 0.295098 0.812967 0.048738
v 0.305818 0.830031 0.048738
v 0.312474 0.849051 0.048738
v 0.314732 0.869076 0.048738
v 0.224741 0.779085 0.048738
v 0.312474 0.849051 0.018738
v 0.305818 0.830031 0.018738
v 0.295098 0.812967 0.018738
v 0.280848 0.798718 0.018738
v 0.263785 0.787997 0.018738
v 0.244765 0.781341 0.018738
v 0.224741 0.779085 0.018738
v 0.314732 0.869076 0.018738
vn -0.0000 -0.0000 1.0000
vn -0.0000 1.0000 -0.0000
vn -0.0000 -0.0000 -1.0000
vn -0.0000 -1.0000 -0.0000
vn 1.0000 -0.0000 -0.0000
vn -1.0000 -0.0000 -0.0000
vn -0.0000 0.4681 0.8837
vn 0.0282 0.9996 -0.0000
vn 0.0282 -0.9996 -0.0000
vn 0.9937 -0.1118 -0.0000
vn 0.9937 0.1118 -0.0000
vn 0.2225 0.9749 -0.0000
vn 0.4339 0.9010 -0.0000
vn 0.6235 0.7818 -0.0000
vn 0.7818 0.6235 -0.0000
vn 0.9010 0.4339 -0.0000
vn 0.9749 0.2226 -0.0000
vn 0.9749 -0.2225 -0.0000
vn 0.9010 -0.4339 -0.0000
vn 0.7818 -0.6235 -0.0000
vn 0.6235 -0.7818 -0.0000
vn 0.4339 -0.9010 -0.0000
vn 0.2225 -0.9749 -0.0000
vn 0.9749 -0.2226 -0.0000
vt 0.263248 0.046584
vt 0.487009 0.046595
vt 0.486997 0.297940
vt 0.263236 0.297929
vt 0.263226 0.500849
vt 0.486987 0.500859
vt 0.486981 0.641548
vt 0.263219 0.641538
vt 0.026422 0.242198
vt 0.250184 0.242209
vt 0.250171 0.493554
vt 0.026410 0.493543
vt 0.250163 0.661375
vt 0.026402 0.661364
vt 0.510818 0.046584
vt 0.691152 0.046613
vt 0.695117 0.325852
vt 0.503657 0.326520
vt 0.710352 0.046596
vt 0.878173 0.046584
vt 0.878190 0.297929
vt 0.710369 0.297941
vt 0.710379 0.432655
vt 0.878200 0.432643
vt 0.878201 0.442880
vt 0.710383 0.494119
vt 0.026432 0.046021
vt 0.250193 0.046032
vt 0.250190 0.107495
vt 0.026429 0.107484
vt 0.501312 0.491413
vt 0.698832 0.544664
vt 0.535814 0.545867
vt 0.263229 0.432643
vt 0.486991 0.432654
vt 0.486990 0.442891
vt 0.263229 0.442880
vt 0.520067 0.566793
vt 0.657147 0.566783
vt 0.657158 0.723548
vt 0.520078 0.723558
vt 0.656815 0.337282
vt 0.542015 0.337791
vt 0.698117 0.474134
vt 0.658842 0.463384
vt 0.502043 0.479220
vt 0.541980 0.466450
vt 0.912565 0.176538
vt 0.912580 0.045962
vt 0.971207 0.045968
vt 0.971193 0.176544
vt 0.912520 0.605768
vt 0.912536 0.456441
vt 0.971163 0.456448
vt 0.971147 0.605774
vt 0.912550 0.325865
vt 0.971177 0.325871
vt 0.851072 0.494109
vt 0.030170 0.683537
vt 0.052550 0.683533
vt 0.052552 0.694721
vt 0.030172 0.694725
vt 0.180151 0.694700
vt 0.157772 0.694704
vt 0.157770 0.683515
vt 0.180150 0.683512
vt 0.105163 0.683524
vt 0.105165 0.694712
vt 0.105158 0.694712
vt 0.105156 0.683524
vt 0.096568 0.701518
vt 0.096567 0.712706
vt 0.029439 0.712700
vt 0.029440 0.701512
vt 0.060065 0.683532
vt 0.060067 0.694720
vt 0.067580 0.683531
vt 0.067582 0.694719
vt 0.075095 0.683529
vt 0.075097 0.694717
vt 0.082611 0.683528
vt 0.082613 0.694716
vt 0.090126 0.683527
vt 0.090128 0.694715
vt 0.097641 0.683526
vt 0.097643 0.694714
vt 0.112678 0.683523
vt 0.112680 0.694711
vt 0.120194 0.683522
vt 0.120196 0.694710
vt 0.127709 0.683521
vt 0.127711 0.694709
vt 0.135224 0.683519
vt 0.135226 0.694707
vt 0.142739 0.683518
vt 0.142741 0.694706
vt 0.150255 0.683517
vt 0.150256 0.694705
vt 0.095696 0.751940
vt 0.030250 0.751941
vt 0.029409 0.744473
vt 0.096537 0.744472
vt 0.029408 0.722094
vt 0.096536 0.722092
vt 0.032732 0.759035
vt 0.093214 0.759033
vt 0.089216 0.765397
vt 0.036731 0.765398
vt 0.077538 0.774709
vt 0.070445 0.777192
vt 0.055502 0.777192
vt 0.048409 0.774710
vt 0.029408 0.722093
vt 0.096537 0.722092
vt 0.089215 0.765397
vt 0.036731 0.765397
vt 0.032732 0.759034
vt 0.083901 0.770711
vt 0.042045 0.770711
vt 0.062977 0.778033
vt 0.062970 0.778033
vt 0.048408 0.774710
vt 0.083902 0.770711
vt 0.042045 0.770712
vt 0.052550 0.683534
vt 0.052552 0.694722
vt 0.180151 0.694699
vt 0.157772 0.694703
vt 0.180149 0.683511
vt 0.105159 0.694712
vt 0.105157 0.683524
vt 0.075096 0.683530
vt 0.075098 0.694718
vt 0.112679 0.683523
vt 0.127709 0.683520
vt 0.127711 0.694708
vt 0.142740 0.683518
vt 0.142742 0.694706
vt 0.150257 0.694705
s 1
f 1/1/1 2/2/1 14/3/1 11/4/1
f 16/5/2 18/6/2 4/7/2 3/8/2
f 12/9/3 13/10/3 6/11/3 5/12/3
f 5/12/4 6/11/4 2/13/4 1/14/4
f 2/15/5 6/16/5 13/17/5 14/18/5
f 5/19/6 1/20/6 11/21/6 12/22/6
f 8/23/6 7/24/6 15/25/6 3/26/6
f 3/27/3 4/28/3 9/29/3 8/30/3
f 17/31/5 4/32/5 18/33/5
f 7/34/1 10/35/1 17/36/1 15/37/1
f 12/22/6 11/21/6 7/24/6 8/23/6
f 8/30/3 9/29/3 13/10/3 12/9/3
f 24/38/5 23/39/5 25/40/5 26/41/5
f 11/4/1 14/3/1 10/35/1 7/34/1
f 16/5/7 15/37/7 17/36/7 18/6/7
f 14/18/5 13/17/5 19/42/5 20/43/5
f 13/17/5 9/44/5 21/45/5 19/42/5
f 9/44/5 10/46/5 22/47/5 21/45/5
f 10/46/5 14/18/5 20/43/5 22/47/5
f 20/48/2 19/49/2 23/50/2 24/51/2
f 19/52/1 21/53/1 25/54/1 23/55/1
f 21/53/4 22/56/4 26/57/4 25/54/4
f 22/56/3 20/48/3 24/51/3 26/57/3
f 10/46/5 9/44/5 4/32/5 17/31/5
f 3/26/6 15/25/6 16/58/6
f 28/59/2 37/60/8 40/61/8 29/62/2
f 30/63/4 61/64/9 54/65/9 27/66/4
f 53/67/10 62/68/10 39/69/11 38/70/11
f 30/71/6 27/72/6 28/73/6 29/74/6
f 37/60/8 36/75/12 41/76/12 40/61/8
f 36/75/12 35/77/13 42/78/13 41/76/12
f 35/77/13 34/79/14 43/80/14 42/78/13
f 34/79/14 33/81/15 44/82/15 43/80/14
f 33/81/15 32/83/16 45/84/16 44/82/15
f 32/83/16 31/85/17 46/86/17 45/84/16
f 31/85/17 38/70/11 39/69/11 46/86/17
f 53/67/10 52/87/18 55/88/18 62/68/10
f 52/87/18 51/89/19 56/90/19 55/88/18
f 51/89/19 50/91/20 57/92/20 56/90/19
f 50/91/20 49/93/21 58/94/21 57/92/20
f 49/93/21 48/95/22 59/96/22 58/94/21
f 48/95/22 47/97/23 60/98/23 59/96/22
f 47/97/23 54/65/9 61/64/9 60/98/23
f 47/99/1 36/100/1 37/101/1 54/102/1
f 41/99/3 60/100/3 61/101/3 40/102/3
f 54/102/1 37/101/1 28/103/1 27/104/1
f 35/105/1 48/106/1 49/107/1 34/108/1
f 47/99/1 48/106/1 35/105/1 36/100/1
f 51/109/1 52/110/1 31/111/1 32/112/1
f 40/102/3 61/101/3 30/113/3 29/114/3
f 43/115/3 58/116/3 59/117/3 42/106/3
f 42/106/3 59/117/3 60/100/3 41/99/3
f 44/118/3 57/119/3 58/116/3 43/115/3
f 55/111/3 46/110/3 39/120/3 62/121/3
f 56/122/3 57/119/3 44/118/3 45/109/3
f 56/122/3 45/109/3 46/110/3 55/111/3
f 50/123/1 33/124/1 34/108/1 49/107/1
f 51/109/1 32/112/1 33/124/1 50/123/1
f 31/111/1 52/110/1 53/120/1 38/121/1
f 64/59/2 73/125/8 76/126/8 65/62/2
f 66/127/4 97/128/9 90/65/9 63/129/4
f 89/67/10 98/68/10 75/130/11 74/131/11
f 66/71/6 63/72/6 64/73/6 65/74/6
f 73/125/8 72/75/12 77/76/12 76/126/8
f 72/75/12 71/77/13 78/78/13 77/76/12
f 71/77/13 70/132/14 79/133/14 78/78/13
f 70/132/14 69/81/15 80/82/15 79/133/14
f 69/81/15 68/83/16 81/84/16 80/82/15
f 68/83/16 67/85/17 82/86/17 81/84/16
f 67/85/17 74/131/11 75/130/11 82/86/17
f 89/67/10 88/134/24 91/88/24 98/68/10
f 88/134/24 87/89/19 92/90/19 91/88/24
f 87/89/19 86/135/20 93/136/20 92/90/19
f 86/135/20 85/93/21 94/94/21 93/136/20
f 85/93/21 84/137/22 95/138/22 94/94/21
f 84/137/22 83/97/23 96/139/23 95/138/22
f 83/97/23 90/65/9 97/128/9 96/139/23
f 83/99/1 72/100/1 73/101/1 90/102/1
f 77/99/3 96/100/3 97/101/3 76/102/3
f 90/102/1 73/101/1 64/103/1 63/104/1
f 71/105/1 84/106/1 85/115/1 70/108/1
f 83/99/1 84/106/1 71/105/1 72/100/1
f 87/109/1 88/110/1 67/111/1 68/112/1
f 76/102/3 97/101/3 66/113/3 65/114/3
f 79/115/3 94/116/3 95/117/3 78/106/3
f 78/106/3 95/117/3 96/100/3 77/99/3
f 80/118/3 93/124/3 94/116/3 79/115/3
f 91/111/3 82/110/3 75/120/3 98/121/3
f 92/122/3 93/124/3 80/118/3 81/109/3
f 92/122/3 81/109/3 82/110/3 91/111/3
f 86/123/1 69/124/1 70/108/1 85/115/1
f 87/109/1 68/112/1 69/124/1 86/123/1
f 67/111/1 88/110/1 89/120/1 74/121/1
