# Blender 4.5.3 LTS
# www.blender.org
o ButtonBase
v -0.037500 0.000000 0.037500
v 0.037500 0.000000 0.037500
v -0.037500 0.009000 0.037500
v 0.037500 0.009000 0.037500
v -0.037500 0.009000 -0.037500
v 0.037500 0.009000 -0.037500
v -0.037500 -0.000000 -0.037500
v 0.037500 -0.000000 -0.037500
vn -0.0000 -0.0000 1.0000
vn -0.0000 1.0000 -0.0000
vn -0.0000 -0.0000 -1.0000
vn -0.0000 -1.0000 -0.0000
vn 1.0000 -0.0000 -0.0000
vn -1.0000 -0.0000 -0.0000
vt 0.642213 0.021332
vt 0.642341 0.490090
vt 0.586090 0.490105
vt 0.585962 0.021347
vt 0.031695 0.021332
vt 0.500452 0.021332
vt 0.500452 0.490090
vt 0.031695 0.490090
vt 0.722708 0.489554
vt 0.722652 0.020797
vt 0.778903 0.020790
vt 0.778959 0.489547
vt 0.031695 0.507518
vt 0.500452 0.507518
vt 0.500452 0.976275
vt 0.031695 0.976275
vt 0.573050 0.021332
vt 0.573178 0.490090
vt 0.516927 0.490105
vt 0.516799 0.021348
vt 0.710036 0.021332
vt 0.710164 0.490090
vt 0.653913 0.490105
vt 0.653785 0.021347
s 1
f 1/1/1 2/2/1 4/3/1 3/4/1
f 3/5/2 4/6/2 6/7/2 5/8/2
f 5/9/3 6/10/3 8/11/3 7/12/3
f 7/13/4 8/14/4 2/15/4 1/16/4
f 2/17/5 8/18/5 6/19/5 4/20/5
f 7/21/6 1/22/6 3/23/6 5/24/6
