# Blender 4.5.3 LTS
# www.blender.org
o Computer
v -0.375000 0.205087 0.018750
v 0.375000 0.205087 0.018750
v -0.375000 0.655087 0.018750
v 0.375000 0.655087 0.018750
v -0.375000 0.655087 -0.018750
v 0.375000 0.655087 -0.018750
v -0.375000 0.205087 -0.018750
v 0.375000 0.205087 -0.018750
v -0.359102 0.220087 0.018750
v 0.359102 0.220087 0.018750
v 0.359102 0.640087 0.018750
v -0.359102 0.640087 0.018750
v -0.359102 0.220087 0.003750
v 0.359102 0.220087 0.003750
v 0.359102 0.640087 0.003750
v -0.359102 0.640087 0.003750
v -0.120000 0.000000 0.060000
v 0.120000 0.000000 0.060000
v -0.120000 -0.000000 -0.060000
v 0.120000 -0.000000 -0.060000
v -0.120000 0.024002 0.060000
v -0.120000 0.024001 -0.060000
v 0.120000 0.024002 0.060000
v 0.120000 0.024001 -0.060000
v -0.114000 0.030000 0.054001
v 0.114000 0.030000 0.054001
v -0.114000 0.030000 -0.054002
v 0.114000 0.030000 -0.054002
v -0.040773 0.641603 -0.059409
v 0.040773 0.641603 -0.059409
v -0.040773 0.030000 -0.059409
v 0.040773 0.030000 -0.059409
v -0.040773 0.030000 -0.030867
v -0.028542 0.030000 -0.018636
v -0.040773 0.641603 -0.030867
v -0.028542 0.641603 -0.018636
v 0.040773 0.030000 -0.030867
v 0.028542 0.030000 -0.018636
v 0.040773 0.641603 -0.030867
v 0.028542 0.641603 -0.018636
vn -0.0000 -0.0000 1.0000
vn -0.0000 1.0000 -0.0000
vn -0.0000 -0.0000 -1.0000
vn -0.0000 -1.0000 -0.0000
vn 1.0000 -0.0000 -0.0000
vn -1.0000 -0.0000 -0.0000
vn -0.7070 0.7072 -0.0000
vn 0.7070 0.7072 -0.0000
vn -0.0000 0.7071 0.7071
vn -0.0000 0.7071 -0.7071
vn -0.7071 -0.0000 0.7071
vn 0.7071 -0.0000 0.7071
vt 0.136174 0.496493
vt 0.416197 0.496485
vt 0.416202 0.660240
vt 0.136179 0.660248
vt 0.101978 0.031878
vt 0.101978 0.324297
vt 0.087357 0.324297
vt 0.087357 0.031878
vt 0.137502 0.316939
vt 0.414863 0.316918
vt 0.414875 0.483335
vt 0.137514 0.483355
vt 0.087357 0.792169
vt 0.087357 0.499749
vt 0.101978 0.499749
vt 0.101978 0.792169
vt 0.101978 0.967621
vt 0.087357 0.967621
vt 0.136531 0.024571
vt 0.428951 0.024569
vt 0.422752 0.030417
vt 0.142730 0.030419
vt 0.428952 0.200020
vt 0.422754 0.194172
vt 0.136533 0.200023
vt 0.142731 0.194174
vt 0.493396 0.462303
vt 0.493396 0.195824
vt 0.498962 0.195824
vt 0.498962 0.462303
vt 0.513393 0.195824
vt 0.513393 0.351658
vt 0.507827 0.351658
vt 0.507827 0.195824
vt 0.136228 0.691860
vt 0.229803 0.691851
vt 0.229804 0.701208
vt 0.136229 0.701218
vt 0.582039 0.182974
vt 0.493143 0.182975
vt 0.493143 0.140865
vt 0.582039 0.140865
vt 0.492530 0.086792
vt 0.586104 0.086807
vt 0.586097 0.133594
vt 0.492522 0.133579
vt 0.276590 0.691846
vt 0.276591 0.701204
vt 0.370164 0.691839
vt 0.416951 0.691836
vt 0.416952 0.701194
vt 0.370165 0.701197
vt 0.492867 0.031878
vt 0.495848 0.035041
vt 0.495895 0.077409
vt 0.492864 0.080537
vt 0.585214 0.035010
vt 0.588244 0.031882
vt 0.588241 0.080541
vt 0.585261 0.077378
vt 0.152024 0.281861
vt 0.390483 0.281903
vt 0.390479 0.304160
vt 0.152020 0.304118
vt 0.152027 0.263989
vt 0.152033 0.232194
vt 0.390492 0.232235
vt 0.390486 0.264030
vt 0.401615 0.264032
vt 0.401620 0.232237
vt 0.406388 0.237007
vt 0.406385 0.259264
vt 0.152035 0.221066
vt 0.390494 0.221107
vt 0.390484 0.275159
vt 0.152025 0.275117
vt 0.140899 0.263987
vt 0.140904 0.232192
vt 0.390495 0.214363
vt 0.152036 0.214322
vt 0.136131 0.259217
vt 0.136135 0.236960
s 1
f 13/1/1 14/2/1 15/3/1 16/4/1
f 3/5/2 4/6/2 6/7/2 5/8/2
f 5/9/3 6/10/3 8/11/3 7/12/3
f 7/13/4 8/14/4 2/15/4 1/16/4
f 2/15/5 8/14/5 6/7/5 4/6/5
f 7/13/6 1/16/6 3/17/6 5/18/6
f 1/19/1 2/20/1 10/21/1 9/22/1
f 2/20/1 4/23/1 11/24/1 10/21/1
f 4/23/1 3/25/1 12/26/1 11/24/1
f 3/25/1 1/19/1 9/22/1 12/26/1
f 9/27/2 10/28/2 14/29/2 13/30/2
f 10/31/6 11/32/6 15/33/6 14/34/6
f 11/29/4 12/30/4 16/27/4 15/28/4
f 12/33/5 9/34/5 13/31/5 16/32/5
f 17/35/1 18/36/1 23/37/1 21/38/1
f 28/39/2 27/40/2 25/41/2 26/42/2
f 19/43/4 20/44/4 18/45/4 17/46/4
f 18/36/5 20/47/5 24/48/5 23/37/5
f 19/49/6 17/50/6 21/51/6 22/52/6
f 22/52/3 24/48/3 20/47/3 19/49/3
f 21/53/7 25/54/7 27/55/7 22/56/7
f 26/57/8 23/58/8 24/59/8 28/60/8
f 25/54/9 21/53/9 23/58/9 26/57/9
f 22/56/10 27/55/10 28/60/10 24/59/10
f 36/61/1 34/62/1 38/63/1 40/64/1
f 29/65/3 30/66/3 32/67/3 31/68/3
f 33/69/4 37/70/4 38/71/4 34/72/4
f 39/73/5 37/74/5 32/67/5 30/66/5
f 31/68/6 33/75/6 35/76/6 29/65/6
f 35/77/2 39/78/2 30/66/2 29/65/2
f 33/75/11 34/62/11 36/61/11 35/76/11
f 38/79/12 37/74/12 39/73/12 40/80/12
f 35/77/2 36/81/2 40/82/2 39/78/2
f 31/68/4 32/67/4 37/70/4 33/69/4
