# Blender 4.5.3 LTS
# www.blender.org
o Crate
v -0.450000 0.030000 0.450000
v 0.450000 0.030000 0.450000
v -0.450000 0.930000 0.450000
v 0.450000 0.930000 0.450000
v -0.450000 0.930000 -0.450000
v 0.450000 0.930000 -0.450000
v -0.450000 0.030000 -0.450000
v 0.450000 0.030000 -0.450000
v -0.450000 0.120000 0.450000
v -0.450000 0.120000 -0.450000
v 0.450000 0.120000 -0.450000
v 0.450000 0.120000 0.450000
v -0.450000 0.849000 -0.450000
v -0.450000 0.849000 0.450000
v 0.450000 0.849000 0.450000
v 0.450000 0.849000 -0.450000
v -0.450000 0.930000 0.360000
v -0.450000 0.849000 0.360000
v -0.450000 0.120000 0.360000
v -0.450000 0.030000 0.360000
v 0.450000 0.030000 0.360000
v 0.450000 0.120000 0.360000
v 0.450000 0.849000 0.360000
v 0.450000 0.930000 0.360000
v -0.450000 0.030000 -0.369000
v -0.450000 0.120000 -0.369000
v -0.450000 0.849000 -0.369000
v -0.450000 0.930000 -0.369000
v 0.450000 0.930000 -0.369000
v 0.450000 0.849000 -0.369000
v 0.450000 0.120000 -0.369000
v 0.450000 0.030000 -0.369000
v 0.360000 0.030000 0.450000
v 0.360000 0.120000 0.450000
v 0.360000 0.849000 0.450000
v 0.360000 0.930000 0.450000
v 0.360000 0.930000 0.360000
v 0.360000 0.930000 -0.369000
v 0.360000 0.930000 -0.450000
v 0.360000 0.849000 -0.450000
v 0.360000 0.120000 -0.450000
v 0.360000 0.030000 -0.450000
v 0.360000 0.030000 -0.369000
v 0.360000 0.030000 0.360000
v -0.369000 0.030000 0.450000
v -0.369000 0.120000 0.450000
v -0.369000 0.849000 0.450000
v -0.369000 0.930000 0.450000
v -0.369000 0.930000 0.360000
v -0.369000 0.930000 -0.369000
v -0.369000 0.930000 -0.450000
v -0.369000 0.849000 -0.450000
v -0.369000 0.120000 -0.450000
v -0.369000 0.030000 -0.450000
v -0.369000 0.030000 -0.369000
v -0.369000 0.030000 0.360000
v -0.420000 0.120000 -0.369000
v -0.420000 0.849000 -0.369000
v -0.420000 0.120000 0.360000
v -0.420000 0.849000 0.360000
v 0.420000 0.120000 0.360000
v 0.420000 0.849000 0.360000
v 0.420000 0.120000 -0.369000
v 0.420000 0.849000 -0.369000
v -0.369000 0.120000 0.420000
v -0.369000 0.849000 0.420000
v 0.360000 0.120000 0.420000
v 0.360000 0.849000 0.420000
v -0.369000 0.900000 0.360000
v -0.369000 0.900000 -0.369000
v 0.360000 0.900000 0.360000
v 0.360000 0.900000 -0.369000
v -0.369000 0.849000 -0.420000
v -0.369000 0.120000 -0.420000
v 0.360000 0.849000 -0.420000
v 0.360000 0.120000 -0.420000
v -0.369000 0.060000 -0.369000
v -0.369000 0.060000 0.360000
v 0.360000 0.060000 -0.369000
v 0.360000 0.060000 0.360000
v 0.300000 0.000000 0.480000
v 0.480000 0.000000 0.480000
v 0.300000 0.180000 0.480000
v 0.480000 0.180000 0.480000
v 0.300000 0.180000 0.300000
v 0.480000 0.180000 0.300000
v 0.300000 0.000000 0.300000
v 0.480000 0.000000 0.300000
v -0.480000 0.000000 0.480000
v -0.300000 0.000000 0.480000
v -0.480000 0.180000 0.480000
v -0.300000 0.180000 0.480000
v -0.480000 0.180000 0.300000
v -0.300000 0.180000 0.300000
v -0.480000 0.000000 0.300000
v -0.300000 0.000000 0.300000
v 0.300000 -0.000000 -0.300000
v 0.480000 -0.000000 -0.300000
v 0.300000 0.180000 -0.300000
v 0.480000 0.180000 -0.300000
v 0.300000 0.180000 -0.480000
v 0.480000 0.180000 -0.480000
v 0.300000 -0.000000 -0.480000
v 0.480000 -0.000000 -0.480000
v -0.480000 -0.000000 -0.300000
v -0.300000 -0.000000 -0.300000
v -0.480000 0.180000 -0.300000
v -0.300000 0.180000 -0.300000
v -0.480000 0.180000 -0.480000
v -0.300000 0.180000 -0.480000
v -0.480000 -0.000000 -0.480000
v -0.300000 -0.000000 -0.480000
v 0.300000 0.780000 -0.300000
v 0.480000 0.780000 -0.300000
v 0.300000 0.960000 -0.300000
v 0.480000 0.960000 -0.300000
v 0.300000 0.960000 -0.480000
v 0.480000 0.960000 -0.480000
v 0.300000 0.780000 -0.480000
v 0.480000 0.780000 -0.480000
v 0.300000 0.780000 0.480000
v 0.480000 0.780000 0.480000
v 0.300000 0.960000 0.480000
v 0.480000 0.960000 0.480000
v 0.300000 0.960000 0.300000
v 0.480000 0.960000 0.300000
v 0.300000 0.780000 0.300000
v 0.480000 0.780000 0.300000
v -0.480000 0.780000 0.480000
v -0.300000 0.780000 0.480000
v -0.480000 0.960000 0.480000
v -0.300000 0.960000 0.480000
v -0.480000 0.960000 0.300000
v -0.300000 0.960000 0.300000
v -0.480000 0.780000 0.300000
v -0.300000 0.780000 0.300000
v -0.480000 0.780000 -0.300000
v -0.300000 0.780000 -0.300000
v -0.480000 0.960000 -0.300000
v -0.300000 0.960000 -0.300000
v -0.480000 0.960000 -0.480000
v -0.300000 0.960000 -0.480000
v -0.480000 0.780000 -0.480000
v -0.300000 0.780000 -0.480000
v -0.318198 0.070736 0.441000
v 0.424264 0.813198 0.441000
v -0.424264 0.176802 0.441000
v 0.318198 0.919264 0.441000
v -0.424264 0.176802 0.411000
v 0.318198 0.919264 0.411000
v -0.318198 0.070736 0.411000
v 0.424264 0.813198 0.411000
v -0.424264 0.813198 -0.411000
v 0.318198 0.070736 -0.411000
v -0.318198 0.919264 -0.411000
v 0.424264 0.176802 -0.411000
v -0.318198 0.919264 -0.441000
v 0.424264 0.176802 -0.441000
v -0.424264 0.813198 -0.441000
v 0.318198 0.070736 -0.441000
v 0.441000 0.176802 -0.424264
v 0.441000 0.919264 0.318198
v 0.441000 0.070736 -0.318198
v 0.441000 0.813198 0.424264
v 0.411000 0.070736 -0.318198
v 0.411000 0.813198 0.424264
v 0.411000 0.176802 -0.424264
v 0.411000 0.919264 0.318198
v -0.411000 0.070736 0.318198
v -0.411000 0.813198 -0.424264
v -0.411000 0.176802 0.424264
v -0.411000 0.919264 -0.318198
v -0.441000 0.176802 0.424264
v -0.441000 0.919264 -0.318198
v -0.441000 0.070736 0.318198
v -0.441000 0.813198 -0.424264
v -0.424264 0.921000 -0.318198
v 0.318198 0.921000 0.424264
v -0.318198 0.921000 -0.424264
v 0.424264 0.921000 0.318198
v -0.318198 0.891000 -0.424264
v 0.424264 0.891000 0.318198
v -0.424264 0.891000 -0.318198
v 0.318198 0.891000 0.424264
v -0.318198 0.069000 0.424264
v 0.424264 0.069000 -0.318198
v -0.424264 0.069000 0.318198
v 0.318198 0.069000 -0.424264
v -0.424264 0.039000 0.318198
v 0.318198 0.039000 -0.424264
v -0.318198 0.039000 0.424264
v 0.424264 0.039000 -0.318198
vn -0.0000 -0.0000 1.0000
vn -0.0000 1.0000 -0.0000
vn -0.0000 -0.0000 -1.0000
vn -0.0000 -1.0000 -0.0000
vn 1.0000 -0.0000 -0.0000
vn -1.0000 -0.0000 -0.0000
vn -0.7071 0.7071 -0.0000
vn 0.7071 -0.7071 -0.0000
vn 0.7071 0.7071 -0.0000
vn -0.7071 -0.7071 -0.0000
vn -0.0000 -0.7071 0.7071
vn -0.0000 0.7071 -0.7071
vn -0.0000 0.7071 0.7071
vn -0.0000 -0.7071 -0.7071
vn 0.7071 -0.0000 -0.7071
vn -0.7071 -0.0000 0.7071
vn 0.7071 -0.0000 0.7071
vn -0.7071 -0.0000 -0.7071
vt 0.012704 0.023507
vt 0.039742 0.023561
vt 0.040050 0.053752
vt 0.012818 0.053805
vt 0.346947 0.025224
vt 0.373983 0.025281
vt 0.374288 0.055472
vt 0.347055 0.055529
vt 0.370986 0.347778
vt 0.370995 0.374999
vt 0.340721 0.375525
vt 0.340722 0.348265
vt 0.023786 0.629584
vt 0.050321 0.629573
vt 0.050837 0.659085
vt 0.024264 0.659086
vt 0.013839 0.673071
vt 0.043873 0.673130
vt 0.044180 0.703319
vt 0.013922 0.703380
vt 0.628888 0.698003
vt 0.628464 0.667751
vt 0.659064 0.668310
vt 0.659149 0.698840
vt 0.627644 0.978583
vt 0.627184 0.951345
vt 0.657409 0.952101
vt 0.657259 0.978839
vt 0.652659 0.347818
vt 0.652601 0.374839
vt 0.625426 0.375127
vt 0.625378 0.347895
vt 0.013644 0.957581
vt 0.043889 0.957607
vt 0.044314 0.984852
vt 0.014018 0.984790
vt 0.012644 0.308148
vt 0.039864 0.308152
vt 0.040308 0.335396
vt 0.013043 0.335363
vt 0.346855 0.952450
vt 0.374076 0.952452
vt 0.374515 0.979696
vt 0.347253 0.979664
vt 0.347054 0.698107
vt 0.374287 0.698051
vt 0.346941 0.667808
vt 0.373982 0.667859
vt 0.023822 0.354997
vt 0.050159 0.355057
vt 0.050440 0.381547
vt 0.023894 0.381596
vt 0.298742 0.703270
vt 0.298301 0.673016
vt 0.325821 0.673463
vt 0.325972 0.704009
vt 0.297024 0.956692
vt 0.324231 0.957392
vt 0.297483 0.983924
vt 0.324139 0.984113
vt 0.346856 0.309875
vt 0.374076 0.309875
vt 0.374517 0.337120
vt 0.347256 0.337089
vt 0.380520 0.945457
vt 0.381255 0.704512
vt 0.622401 0.704974
vt 0.620221 0.944884
vt 0.050337 0.950619
vt 0.051146 0.709778
vt 0.292254 0.710242
vt 0.290061 0.950226
vt 0.294634 0.053656
vt 0.294202 0.023404
vt 0.324801 0.023955
vt 0.324895 0.054485
vt 0.292986 0.306997
vt 0.323211 0.307725
vt 0.293476 0.334235
vt 0.323097 0.334451
vt 0.628901 0.055435
vt 0.628476 0.025183
vt 0.659075 0.025745
vt 0.659163 0.056281
vt 0.627174 0.308772
vt 0.657398 0.309528
vt 0.627637 0.336010
vt 0.657254 0.336263
vt 0.625457 0.629821
vt 0.652682 0.629457
vt 0.652063 0.660072
vt 0.624605 0.660084
vt 0.372150 0.628040
vt 0.371394 0.658271
vt 0.341891 0.628538
vt 0.341693 0.658160
vt 0.298731 0.381521
vt 0.298375 0.354983
vt 0.328218 0.355589
vt 0.328233 0.382360
vt 0.296979 0.628445
vt 0.326447 0.629181
vt 0.297468 0.657942
vt 0.326346 0.658131
vt 0.046308 0.301156
vt 0.047018 0.060212
vt 0.288149 0.060629
vt 0.286017 0.300543
vt 0.380521 0.302880
vt 0.381260 0.061928
vt 0.622409 0.062402
vt 0.620213 0.302311
vt 0.377991 0.381440
vt 0.618965 0.382099
vt 0.618487 0.623330
vt 0.378609 0.621081
vt 0.056600 0.622752
vt 0.057240 0.387842
vt 0.292399 0.388312
vt 0.290196 0.622148
vt 0.709818 0.526965
vt 0.808845 0.526965
vt 0.808845 0.625993
vt 0.709818 0.625993
vt 0.811630 0.526965
vt 0.910658 0.526965
vt 0.910658 0.625993
vt 0.811630 0.625993
vt 0.810946 0.629454
vt 0.909973 0.629454
vt 0.909973 0.728481
vt 0.810946 0.728481
vt 0.709587 0.629454
vt 0.808615 0.629454
vt 0.808615 0.728481
vt 0.709587 0.728481
vt 0.709818 0.731942
vt 0.808845 0.731942
vt 0.808845 0.830970
vt 0.709818 0.830970
vt 0.811630 0.731942
vt 0.910658 0.731942
vt 0.910658 0.830970
vt 0.811630 0.830970
vt 0.712270 0.495516
vt 0.712270 0.030280
vt 0.778732 0.030280
vt 0.778732 0.495516
vt 0.781490 0.495516
vt 0.781490 0.030280
vt 0.794782 0.030280
vt 0.794782 0.495516
vt 0.797706 0.495516
vt 0.797706 0.030280
vt 0.864169 0.030280
vt 0.864169 0.495516
vt 0.867695 0.495516
vt 0.867695 0.030280
vt 0.880987 0.030280
vt 0.880987 0.495516
vt 0.883911 0.030280
vt 0.897204 0.030280
vt 0.897204 0.096742
vt 0.883911 0.096742
vt 0.900128 0.030280
vt 0.913421 0.030280
vt 0.913421 0.096742
vt 0.900128 0.096742
s 1
f 1/1/1 45/2/1 46/3/1 9/4/1
f 3/5/2 48/6/2 49/7/2 17/8/2
f 10/9/3 53/10/3 54/11/3 7/12/3
f 20/13/4 56/14/4 45/15/4 1/16/4
f 2/17/5 21/18/5 22/19/5 12/20/5
f 19/21/6 20/22/6 1/23/6 9/24/6
f 17/25/6 18/26/6 14/27/6 3/28/6
f 5/29/3 51/30/3 52/31/3 13/32/3
f 15/33/5 23/34/5 24/35/5 4/36/5
f 14/37/1 47/38/1 48/39/1 3/40/1
f 18/26/6 19/21/6 9/24/6 14/27/6
f 9/4/1 46/3/1 47/38/1 14/37/1
f 12/20/5 22/19/5 23/34/5 15/33/5
f 13/32/3 52/31/3 53/10/3 10/9/3
f 13/41/6 27/42/6 28/43/6 5/44/6
f 10/45/6 26/46/6 27/42/6 13/41/6
f 7/47/6 25/48/6 26/46/6 10/45/6
f 7/49/4 54/50/4 55/51/4 25/52/4
f 31/53/5 32/54/5 8/55/5 11/56/5
f 30/57/5 31/53/5 11/56/5 16/58/5
f 29/59/5 30/57/5 16/58/5 6/60/5
f 28/61/2 50/62/2 51/63/2 5/64/2
f 26/46/6 25/48/6 20/22/6 19/21/6
f 58/65/6 57/66/6 59/67/6 60/68/6
f 28/43/6 27/42/6 18/26/6 17/25/6
f 17/8/2 49/7/2 50/62/2 28/61/2
f 24/35/5 23/34/5 30/57/5 29/59/5
f 62/69/5 61/70/5 63/71/5 64/72/5
f 22/19/5 21/18/5 32/54/5 31/53/5
f 25/52/4 55/51/4 56/14/4 20/13/4
f 34/73/1 33/74/1 2/75/1 12/76/1
f 35/77/1 34/73/1 12/76/1 15/78/1
f 36/79/1 35/77/1 15/78/1 4/80/1
f 37/81/2 36/82/2 4/83/2 24/84/2
f 38/85/2 37/81/2 24/84/2 29/86/2
f 39/87/2 38/85/2 29/86/2 6/88/2
f 40/89/3 39/90/3 6/91/3 16/92/3
f 41/93/3 40/89/3 16/92/3 11/94/3
f 42/95/3 41/93/3 11/94/3 8/96/3
f 43/97/4 42/98/4 8/99/4 32/100/4
f 44/101/4 43/97/4 32/100/4 21/102/4
f 33/103/4 44/101/4 21/102/4 2/104/4
f 46/3/1 45/2/1 33/74/1 34/73/1
f 66/105/1 65/106/1 67/107/1 68/108/1
f 48/39/1 47/38/1 35/77/1 36/79/1
f 49/7/2 48/6/2 36/82/2 37/81/2
f 70/109/2 69/110/2 71/111/2 72/112/2
f 51/63/2 50/62/2 38/85/2 39/87/2
f 52/31/3 51/30/3 39/90/3 40/89/3
f 74/113/3 73/114/3 75/115/3 76/116/3
f 54/11/3 53/10/3 41/93/3 42/95/3
f 55/51/4 54/50/4 42/98/4 43/97/4
f 78/117/4 77/118/4 79/119/4 80/120/4
f 45/15/4 56/14/4 44/101/4 33/103/4
f 27/42/1 26/46/1 57/66/1 58/65/1
f 26/46/2 19/21/2 59/67/2 57/66/2
f 19/21/3 18/26/3 60/68/3 59/67/3
f 18/26/4 27/42/4 58/65/4 60/68/4
f 23/34/3 22/19/3 61/70/3 62/69/3
f 22/19/2 31/53/2 63/71/2 61/70/2
f 31/53/1 30/57/1 64/72/1 63/71/1
f 30/57/4 23/34/4 62/69/4 64/72/4
f 47/38/5 46/3/5 65/106/5 66/105/5
f 46/3/2 34/73/2 67/107/2 65/106/2
f 34/73/6 35/77/6 68/108/6 67/107/6
f 35/77/4 47/38/4 66/105/4 68/108/4
f 50/62/5 49/7/5 69/110/5 70/109/5
f 49/7/3 37/81/3 71/111/3 69/110/3
f 37/81/6 38/85/6 72/112/6 71/111/6
f 38/85/1 50/62/1 70/109/1 72/112/1
f 53/10/5 52/31/5 73/114/5 74/113/5
f 52/31/4 40/89/4 75/115/4 73/114/4
f 40/89/6 41/93/6 76/116/6 75/115/6
f 41/93/2 53/10/2 74/113/2 76/116/2
f 56/14/5 55/51/5 77/118/5 78/117/5
f 55/51/1 43/97/1 79/119/1 77/118/1
f 43/97/6 44/101/6 80/120/6 79/119/6
f 44/101/3 56/14/3 78/117/3 80/120/3
f 81/121/1 82/122/1 84/123/1 83/124/1
f 83/125/2 84/126/2 86/127/2 85/128/2
f 85/129/3 86/130/3 88/131/3 87/132/3
f 87/133/4 88/134/4 82/135/4 81/136/4
f 82/137/5 88/138/5 86/139/5 84/140/5
f 87/141/6 81/142/6 83/143/6 85/144/6
f 89/121/1 90/122/1 92/123/1 91/124/1
f 91/125/2 92/126/2 94/127/2 93/128/2
f 93/129/3 94/130/3 96/131/3 95/132/3
f 95/133/4 96/134/4 90/135/4 89/136/4
f 90/137/5 96/138/5 94/139/5 92/140/5
f 95/141/6 89/142/6 91/143/6 93/144/6
f 97/121/1 98/122/1 100/123/1 99/124/1
f 99/125/2 100/126/2 102/127/2 101/128/2
f 101/129/3 102/130/3 104/131/3 103/132/3
f 103/133/4 104/134/4 98/135/4 97/136/4
f 98/137/5 104/138/5 102/139/5 100/140/5
f 103/141/6 97/142/6 99/143/6 101/144/6
f 105/121/1 106/122/1 108/123/1 107/124/1
f 107/125/2 108/126/2 110/127/2 109/128/2
f 109/129/3 110/130/3 112/131/3 111/132/3
f 111/133/4 112/134/4 106/135/4 105/136/4
f 106/137/5 112/138/5 110/139/5 108/140/5
f 111/141/6 105/142/6 107/143/6 109/144/6
f 113/121/1 114/122/1 116/123/1 115/124/1
f 115/125/2 116/126/2 118/127/2 117/128/2
f 117/129/3 118/130/3 120/131/3 119/132/3
f 119/133/4 120/134/4 114/135/4 113/136/4
f 114/137/5 120/138/5 118/139/5 116/140/5
f 119/141/6 113/142/6 115/143/6 117/144/6
f 121/121/1 122/122/1 124/123/1 123/124/1
f 123/125/2 124/126/2 126/127/2 125/128/2
f 125/129/3 126/130/3 128/131/3 127/132/3
f 127/133/4 128/134/4 122/135/4 121/136/4
f 122/137/5 128/138/5 126/139/5 124/140/5
f 127/141/6 121/142/6 123/143/6 125/144/6
f 129/121/1 130/122/1 132/123/1 131/124/1
f 131/125/2 132/126/2 134/127/2 133/128/2
f 133/129/3 134/130/3 136/131/3 135/132/3
f 135/133/4 136/134/4 130/135/4 129/136/4
f 130/137/5 136/138/5 134/139/5 132/140/5
f 135/141/6 129/142/6 131/143/6 133/144/6
f 137/121/1 138/122/1 140/123/1 139/124/1
f 139/125/2 140/126/2 142/127/2 141/128/2
f 141/129/3 142/130/3 144/131/3 143/132/3
f 143/133/4 144/134/4 138/135/4 137/136/4
f 138/137/5 144/138/5 142/139/5 140/140/5
f 143/141/6 137/142/6 139/143/6 141/144/6
f 145/145/1 146/146/1 148/147/1 147/148/1
f 147/149/7 148/150/7 150/151/7 149/152/7
f 149/153/3 150/154/3 152/155/3 151/156/3
f 151/157/8 152/158/8 146/159/8 145/160/8
f 146/161/9 152/162/9 150/163/9 148/164/9
f 151/165/10 145/166/10 147/167/10 149/168/10
f 153/145/1 154/146/1 156/147/1 155/148/1
f 155/149/9 156/150/9 158/151/9 157/152/9
f 157/153/3 158/154/3 160/155/3 159/156/3
f 159/157/10 160/158/10 154/159/10 153/160/10
f 154/161/8 160/162/8 158/163/8 156/164/8
f 159/165/7 153/166/7 155/167/7 157/168/7
f 161/145/5 162/146/5 164/147/5 163/148/5
f 163/149/11 164/150/11 166/151/11 165/152/11
f 165/153/6 166/154/6 168/155/6 167/156/6
f 167/157/12 168/158/12 162/159/12 161/160/12
f 162/161/13 168/162/13 166/163/13 164/164/13
f 167/165/14 161/166/14 163/167/14 165/168/14
f 169/145/5 170/146/5 172/147/5 171/148/5
f 171/149/13 172/150/13 174/151/13 173/152/13
f 173/153/6 174/154/6 176/155/6 175/156/6
f 175/157/14 176/158/14 170/159/14 169/160/14
f 170/161/12 176/162/12 174/163/12 172/164/12
f 175/165/11 169/166/11 171/167/11 173/168/11
f 177/145/2 178/146/2 180/147/2 179/148/2
f 179/149/15 180/150/15 182/151/15 181/152/15
f 181/153/4 182/154/4 184/155/4 183/156/4
f 183/157/16 184/158/16 178/159/16 177/160/16
f 178/161/17 184/162/17 182/163/17 180/164/17
f 183/165/18 177/166/18 179/167/18 181/168/18
f 185/145/2 186/146/2 188/147/2 187/148/2
f 187/149/18 188/150/18 190/151/18 189/152/18
f 189/153/4 190/154/4 192/155/4 191/156/4
f 191/157/17 192/158/17 186/159/17 185/160/17
f 186/161/15 192/162/15 190/163/15 188/164/15
f 191/165/16 185/166/16 187/167/16 189/168/16
