# Blender 4.5.3 LTS
# www.blender.org
o ElevatorDoor
v -0.225000 0.000000 0.030000
v 0.225000 0.000000 0.030000
v -0.225000 2.000000 0.030000
v 0.225000 2.000000 0.030000
v -0.225000 2.000000 -0.030000
v 0.225000 2.000000 -0.030000
v -0.225000 -0.000000 -0.030000
v 0.225000 -0.000000 -0.030000
v -0.177014 0.876498 0.030000
v 0.177014 0.876498 0.030000
v 0.177014 1.878073 0.030000
v -0.177014 1.878073 0.030000
v -0.177014 1.878073 -0.030000
v 0.177014 1.878073 -0.030000
v 0.177014 0.876498 -0.030000
v -0.177014 0.876498 -0.030000
vn -0.0000 1.0000 -0.0000
vn -0.0000 -1.0000 -0.0000
vn 1.0000 -0.0000 -0.0000
vn -1.0000 -0.0000 -0.0000
vn -0.0000 -0.0000 1.0000
vn -0.0000 -0.0000 -1.0000
vt 0.241144 0.115034
vt 0.241144 0.028711
vt 0.252654 0.028711
vt 0.252654 0.115034
vt 0.252653 0.028710
vt 0.200892 0.027619
vt 0.211443 0.027621
vt 0.211386 0.379333
vt 0.200835 0.379331
vt 0.200834 0.379331
vt 0.016807 0.032318
vt 0.095940 0.032311
vt 0.087515 0.186445
vt 0.025259 0.186450
vt 0.095970 0.384013
vt 0.087530 0.362573
vt 0.016837 0.384020
vt 0.025274 0.362579
vt 0.106298 0.032318
vt 0.185432 0.032311
vt 0.176995 0.053752
vt 0.114739 0.053758
vt 0.185463 0.384013
vt 0.177010 0.229881
vt 0.106329 0.384020
vt 0.114754 0.229886
vt 0.260211 0.096624
vt 0.260211 0.028710
vt 0.271721 0.028710
vt 0.271721 0.096623
vt 0.231335 0.028101
vt 0.231346 0.202608
vt 0.220892 0.202608
vt 0.220881 0.028102
vt 0.260211 0.096623
s 1
f 3/1/1 4/2/1 6/3/1 5/4/1
f 7/1/2 8/2/2 2/5/2 1/4/2
f 2/6/3 8/7/3 6/8/3 4/9/3
f 7/6/4 1/7/4 3/8/4 5/10/4
f 1/11/5 2/12/5 10/13/5 9/14/5
f 2/12/5 4/15/5 11/16/5 10/13/5
f 4/15/5 3/17/5 12/18/5 11/16/5
f 3/17/5 1/11/5 9/14/5 12/18/5
f 5/19/6 6/20/6 14/21/6 13/22/6
f 6/20/6 8/23/6 15/24/6 14/21/6
f 8/23/6 7/25/6 16/26/6 15/24/6
f 7/25/6 5/19/6 13/22/6 16/26/6
f 9/27/1 10/28/1 15/29/1 16/30/1
f 10/31/4 11/32/4 14/33/4 15/34/4
f 11/29/2 12/30/2 13/35/2 14/28/2
f 12/33/3 9/34/3 16/31/3 13/32/3
