# Blender 4.5.3 LTS
# www.blender.org
o Key
v 0.008000 0.028939 -0.056857
v 0.008000 0.026171 -0.063849
v 0.008000 0.021751 -0.069932
v 0.008000 0.015957 -0.074726
v 0.008000 0.009152 -0.077928
v 0.008000 0.001765 -0.079337
v 0.008000 -0.005740 -0.078865
v 0.008000 -0.012892 -0.076541
v 0.008000 -0.019241 -0.072511
v 0.008000 -0.024389 -0.067029
v 0.008000 -0.028012 -0.060440
v 0.008000 -0.029882 -0.053156
v 0.008000 -0.029882 -0.045636
v 0.008000 -0.028012 -0.038352
v 0.008000 -0.024389 -0.031762
v 0.008000 -0.019241 -0.026281
v 0.008000 -0.012892 -0.022251
v 0.008000 -0.005740 -0.019927
v 0.008000 0.001765 -0.019455
v 0.008000 0.009152 -0.020864
v 0.008000 0.015957 -0.024066
v 0.008000 0.021751 -0.028860
v 0.008000 0.026171 -0.034943
v 0.008000 0.028939 -0.041935
v 0.008000 0.029882 -0.049396
v -0.008000 0.028939 -0.056857
v -0.008000 0.026171 -0.063849
v -0.008000 0.021751 -0.069932
v -0.008000 0.015957 -0.074726
v -0.008000 0.009152 -0.077928
v -0.008000 0.001765 -0.079337
v -0.008000 -0.005740 -0.078865
v -0.008000 -0.012892 -0.076541
v -0.008000 -0.019241 -0.072511
v -0.008000 -0.024389 -0.067029
v -0.008000 -0.028012 -0.060440
v -0.008000 -0.029882 -0.053156
v -0.008000 -0.029882 -0.045636
v -0.008000 -0.028012 -0.038352
v -0.008000 -0.024389 -0.031762
v -0.008000 -0.019241 -0.026281
v -0.008000 -0.012892 -0.022251
v -0.008000 -0.005740 -0.019927
v -0.008000 0.001765 -0.019455
v -0.008000 0.009152 -0.020864
v -0.008000 0.015957 -0.024066
v -0.008000 0.021751 -0.028860
v -0.008000 0.026171 -0.034943
v -0.008000 0.028939 -0.041935
v -0.008000 0.029882 -0.049396
v 0.008000 -0.000118 -0.049396
v -0.008000 -0.000118 -0.049396
v 0.005706 0.001736 -0.020663
v 0.004854 0.003408 -0.020663
v 0.003527 0.004736 -0.020663
v 0.001854 0.005588 -0.020663
v 0.000000 0.005882 -0.020663
v -0.001854 0.005588 -0.020663
v -0.003527 0.004736 -0.020663
v -0.004854 0.003408 -0.020663
v -0.005706 0.001736 -0.020663
v -0.006000 -0.000118 -0.020663
v -0.005706 -0.001972 -0.020663
v -0.004854 -0.003645 -0.020663
v -0.003527 -0.004972 -0.020663
v -0.001854 -0.005825 -0.020663
v 0.000000 -0.006118 -0.020663
v 0.001854 -0.005825 -0.020663
v 0.003527 -0.004972 -0.020663
v 0.004854 -0.003645 -0.020663
v 0.005706 -0.001972 -0.020663
v 0.006000 -0.000118 -0.020663
v 0.005706 0.001736 0.079337
v 0.004854 0.003408 0.079337
v 0.003527 0.004736 0.079337
v 0.001854 0.005588 0.079337
v 0.000000 0.005882 0.079337
v -0.001854 0.005588 0.079337
v -0.003527 0.004736 0.079337
v -0.004854 0.003408 0.079337
v -0.005706 0.001736 0.079337
v -0.006000 -0.000118 0.079337
v -0.005706 -0.001972 0.079337
v -0.004854 -0.003645 0.079337
v -0.003527 -0.004972 0.079337
v -0.001854 -0.005825 0.079337
v 0.000000 -0.006118 0.079337
v 0.001854 -0.005825 0.079337
v 0.003527 -0.004972 0.079337
v 0.004854 -0.003645 0.079337
v 0.005706 -0.001972 0.079337
v 0.006000 -0.000118 0.079337
v 0.000000 -0.000118 -0.020663
v 0.000000 -0.000118 0.079337
v 0.005706 0.001736 0.069337
v 0.006000 -0.000118 0.069337
v 0.005706 -0.001972 0.069337
v 0.004854 -0.003645 0.069337
v 0.003527 -0.004972 0.069337
v 0.001854 -0.005825 0.069337
v 0.000000 -0.006118 0.069337
v -0.001854 -0.005825 0.069337
v -0.003527 -0.004972 0.069337
v -0.004854 -0.003645 0.069337
v -0.005706 -0.001972 0.069337
v -0.006000 -0.000118 0.069337
v -0.005706 0.001736 0.069337
v -0.004854 0.003408 0.069337
v -0.003527 0.004736 0.069337
v -0.001854 0.005588 0.069337
v 0.000000 0.005882 0.069337
v 0.001854 0.005588 0.069337
v 0.003527 0.004736 0.069337
v 0.004854 0.003408 0.069337
v 0.005706 0.001736 0.051337
v 0.006000 -0.000118 0.051337
v 0.005706 -0.001972 0.051337
v 0.004854 -0.003645 0.051337
v 0.003527 -0.004972 0.051337
v 0.001854 -0.005825 0.051337
v 0.000000 -0.006118 0.051337
v -0.001854 -0.005825 0.051337
v -0.003527 -0.004972 0.051337
v -0.004854 -0.003645 0.051337
v -0.005706 -0.001972 0.051337
v -0.006000 -0.000118 0.051337
v -0.005706 0.001736 0.051337
v -0.004854 0.003408 0.051337
v -0.003527 0.004736 0.051337
v -0.001854 0.005588 0.051337
v 0.000000 0.005882 0.051337
v 0.001854 0.005588 0.051337
v 0.003527 0.004736 0.051337
v 0.004854 0.003408 0.051337
v 0.001818 -0.014821 0.051337
v 0.000000 -0.014843 0.051337
v 0.001818 -0.014821 0.069337
v 0.000000 -0.014843 0.069337
v -0.001860 -0.014821 0.051337
v -0.001860 -0.014821 0.069337
v 0.005706 0.001736 0.065737
v 0.006000 -0.000118 0.065737
v 0.005706 -0.001972 0.065737
v 0.004854 -0.003645 0.065737
v 0.003527 -0.004972 0.065737
v 0.001854 -0.005825 0.065737
v 0.001818 -0.014821 0.065737
v 0.000000 -0.014843 0.065737
v -0.001860 -0.014821 0.065737
v -0.001854 -0.005825 0.065737
v -0.003527 -0.004972 0.065737
v -0.004854 -0.003645 0.065737
v -0.005706 -0.001972 0.065737
v -0.006000 -0.000118 0.065737
v -0.005706 0.001736 0.065737
v -0.004854 0.003408 0.065737
v -0.003527 0.004736 0.065737
v -0.001854 0.005588 0.065737
v 0.000000 0.005882 0.065737
v 0.001854 0.005588 0.065737
v 0.003527 0.004736 0.065737
v 0.004854 0.003408 0.065737
v 0.005706 0.001736 0.055657
v 0.006000 -0.000118 0.055657
v 0.005706 -0.001972 0.055657
v 0.004854 -0.003645 0.055657
v 0.003527 -0.004972 0.055657
v 0.001854 -0.005825 0.055657
v 0.001818 -0.014821 0.055657
v 0.000000 -0.014843 0.055657
v -0.001860 -0.014821 0.055657
v -0.001854 -0.005825 0.055657
v -0.003527 -0.004972 0.055657
v -0.004854 -0.003645 0.055657
v -0.005706 -0.001972 0.055657
v -0.006000 -0.000118 0.055657
v -0.005706 0.001736 0.055657
v -0.004854 0.003408 0.055657
v -0.003527 0.004736 0.055657
v -0.001854 0.005588 0.055657
v 0.000000 0.005882 0.055657
v 0.001854 0.005588 0.055657
v 0.003527 0.004736 0.055657
v 0.004854 0.003408 0.055657
v 0.001944 -0.025387 0.051337
v 0.000001 -0.025408 0.051337
v 0.001944 -0.025387 0.055657
v 0.000001 -0.025408 0.055657
v -0.001983 -0.025387 0.051337
v -0.001983 -0.025387 0.055657
v 0.001944 -0.025387 0.065737
v 0.000001 -0.025408 0.065737
v 0.001944 -0.025387 0.069337
v 0.000001 -0.025408 0.069337
v -0.001983 -0.025387 0.065737
v -0.001983 -0.025387 0.069337
vn -0.0000 0.9686 -0.2487
vn -0.0000 0.8763 -0.4818
vn -0.0000 0.7290 -0.6845
vn -0.0000 0.5358 -0.8443
vn -0.0000 0.3090 -0.9511
vn -0.0000 0.0628 -0.9980
vn -0.0000 -0.1874 -0.9823
vn -0.0000 -0.4258 -0.9048
vn -0.0000 -0.6374 -0.7705
vn -0.0000 -0.8090 -0.5878
vn -0.0000 -0.9298 -0.3681
vn -0.0000 -0.9921 -0.1253
vn -0.0000 -0.9921 0.1253
vn -0.0000 -0.9298 0.3681
vn -0.0000 -0.8090 0.5878
vn -0.0000 -0.6374 0.7705
vn -0.0000 -0.4258 0.9048
vn -0.0000 -0.1874 0.9823
vn -0.0000 0.0628 0.9980
vn -0.0000 0.3090 0.9511
vn -0.0000 0.5358 0.8443
vn -0.0000 0.7290 0.6845
vn -0.0000 0.8763 0.4818
vn -0.0000 0.9686 0.2487
vn -0.0000 1.0000 -0.0000
vn 1.0000 -0.0000 -0.0000
vn -1.0000 -0.0000 -0.0000
vn 0.9511 0.3090 -0.0000
vn 0.8090 0.5878 -0.0000
vn 0.5878 0.8090 -0.0000
vn 0.3090 0.9511 -0.0000
vn -0.3090 0.9511 -0.0000
vn -0.5878 0.8090 -0.0000
vn -0.8090 0.5878 -0.0000
vn -0.9511 0.3090 -0.0000
vn -0.9511 -0.3090 -0.0000
vn -0.8090 -0.5878 -0.0000
vn -0.5878 -0.8090 -0.0000
vn -0.3090 -0.9511 -0.0000
vn -0.3134 -0.9496 -0.0000
vn -0.0000 -1.0000 -0.0000
vn 0.3090 -0.9511 -0.0000
vn 0.3134 -0.9496 -0.0000
vn 0.5878 -0.8090 -0.0000
vn 0.8090 -0.5878 -0.0000
vn 0.9511 -0.3090 -0.0000
vn -0.0000 -0.0000 -1.0000
vn -0.0000 -0.0000 1.0000
vn 0.3319 -0.9433 -0.0000
vn -0.3319 -0.9433 -0.0000
vn 0.4540 -0.8910 -0.0000
vn 0.0001 -1.0000 -0.0000
vn 0.0112 -0.9999 -0.0000
vn -0.0109 -0.9999 -0.0000
vn -0.4540 -0.8910 -0.0000
vn 1.0000 -0.0040 -0.0000
vn 1.0000 0.0001 -0.0000
vn 1.0000 0.0044 -0.0000
vn -1.0000 0.0036 -0.0000
vn -1.0000 0.0006 -0.0000
vn -1.0000 0.0066 -0.0000
vn 1.0000 -0.0002 -0.0000
vn 1.0000 0.0046 -0.0000
vn -1.0000 0.0034 -0.0000
vn 0.0119 -0.9999 -0.0000
vn -0.0117 -0.9999 -0.0000
vn 0.9999 0.0119 -0.0000
vn -0.9999 0.0117 -0.0000
vt 0.886055 0.969849
vt 0.886055 0.932261
vt 0.966029 0.932261
vt 0.966029 0.969849
vt 0.886055 0.894673
vt 0.966029 0.894673
vt 0.886055 0.857085
vt 0.966029 0.857085
vt 0.886055 0.819498
vt 0.966029 0.819497
vt 0.886055 0.781909
vt 0.966029 0.781909
vt 0.886055 0.744322
vt 0.966029 0.744322
vt 0.886055 0.706734
vt 0.966029 0.706734
vt 0.886055 0.669146
vt 0.966029 0.669146
vt 0.886055 0.631558
vt 0.966029 0.631558
vt 0.886055 0.593970
vt 0.966029 0.593970
vt 0.886055 0.556382
vt 0.966029 0.556382
vt 0.886055 0.518794
vt 0.966029 0.518794
vt 0.886055 0.481206
vt 0.966029 0.481206
vt 0.886055 0.443618
vt 0.966029 0.443618
vt 0.886055 0.406030
vt 0.966029 0.406030
vt 0.886055 0.368442
vt 0.966029 0.368442
vt 0.886055 0.330854
vt 0.966029 0.330854
vt 0.886055 0.293266
vt 0.966029 0.293266
vt 0.886055 0.255678
vt 0.966029 0.255678
vt 0.886055 0.218090
vt 0.966029 0.218090
vt 0.886055 0.180502
vt 0.966029 0.180502
vt 0.886055 0.142915
vt 0.966029 0.142914
vt 0.886055 0.105327
vt 0.966029 0.105327
vt 0.886055 0.067739
vt 0.966029 0.067739
vt 0.886055 0.030151
vt 0.966029 0.030151
vt 0.631644 0.094267
vt 0.644734 0.127330
vt 0.507328 0.162610
vt 0.610742 0.065498
vt 0.583342 0.042831
vt 0.551166 0.027690
vt 0.516235 0.021027
vt 0.480745 0.023260
vt 0.446925 0.034249
vt 0.416901 0.053303
vt 0.392558 0.079225
vt 0.375426 0.110387
vt 0.366583 0.144830
vt 0.366583 0.180391
vt 0.375426 0.214834
vt 0.392558 0.245996
vt 0.416901 0.271918
vt 0.446925 0.290972
vt 0.480745 0.301961
vt 0.516235 0.304194
vt 0.551166 0.297531
vt 0.583342 0.282390
vt 0.610742 0.259723
vt 0.631644 0.230954
vt 0.644734 0.197890
vt 0.649191 0.162610
vt 0.325282 0.197537
vt 0.312192 0.230600
vt 0.187876 0.162257
vt 0.291290 0.259369
vt 0.263890 0.282036
vt 0.231714 0.297177
vt 0.196783 0.303840
vt 0.161293 0.301607
vt 0.127473 0.290619
vt 0.097449 0.271564
vt 0.073106 0.245642
vt 0.055974 0.214480
vt 0.047131 0.180037
vt 0.047131 0.144477
vt 0.055974 0.110033
vt 0.073106 0.078871
vt 0.097449 0.052949
vt 0.127473 0.033895
vt 0.161293 0.022906
vt 0.196783 0.020673
vt 0.231714 0.027336
vt 0.263890 0.042477
vt 0.291290 0.065144
vt 0.312192 0.093913
vt 0.325282 0.126977
vt 0.329739 0.162257
vt 0.068387 0.323490
vt 0.081133 0.323481
vt 0.040044 0.811154
vt 0.022522 0.811154
vt 0.093934 0.323472
vt 0.057567 0.811154
vt 0.106785 0.323464
vt 0.075089 0.811154
vt 0.119680 0.323455
vt 0.092612 0.811154
vt 0.132612 0.323447
vt 0.110134 0.811154
vt 0.145575 0.323440
vt 0.127657 0.811154
vt 0.158562 0.323432
vt 0.145179 0.811154
vt 0.171567 0.323424
vt 0.162702 0.811154
vt 0.184585 0.323417
vt 0.180224 0.811154
vt 0.197609 0.323410
vt 0.197747 0.811154
vt 0.210634 0.323403
vt 0.215269 0.811154
vt 0.223651 0.323396
vt 0.232792 0.811154
vt 0.236657 0.323390
vt 0.250282 0.809585
vt 0.249681 0.323389
vt 0.267837 0.808910
vt 0.262696 0.323390
vt 0.285404 0.809582
vt 0.275664 0.323392
vt 0.302882 0.811154
vt 0.288559 0.323395
vt 0.320404 0.811154
vt 0.301410 0.323398
vt 0.337927 0.811154
vt 0.314211 0.323402
vt 0.355449 0.811154
vt 0.326957 0.323406
vt 0.372972 0.811154
vt 0.830547 0.817710
vt 0.843056 0.842260
vt 0.759302 0.869473
vt 0.811065 0.798227
vt 0.786515 0.785719
vt 0.759302 0.781409
vt 0.732088 0.785719
vt 0.707539 0.798228
vt 0.688056 0.817710
vt 0.675547 0.842260
vt 0.671237 0.869473
vt 0.675547 0.896687
vt 0.688056 0.921236
vt 0.707539 0.940719
vt 0.732088 0.953228
vt 0.759302 0.957538
vt 0.786515 0.953228
vt 0.811065 0.940719
vt 0.830547 0.921236
vt 0.843056 0.896687
vt 0.847366 0.869473
vt 0.840611 0.694698
vt 0.828102 0.719247
vt 0.756856 0.667484
vt 0.808619 0.738730
vt 0.784070 0.751238
vt 0.756856 0.755548
vt 0.729643 0.751238
vt 0.705093 0.738730
vt 0.685611 0.719247
vt 0.673102 0.694698
vt 0.668792 0.667484
vt 0.673102 0.640271
vt 0.685611 0.615721
vt 0.705093 0.596238
vt 0.729643 0.583730
vt 0.756856 0.579419
vt 0.784070 0.583730
vt 0.808619 0.596238
vt 0.828102 0.615721
vt 0.840611 0.640271
vt 0.844921 0.667484
vt 0.355449 0.905776
vt 0.372972 0.905776
vt 0.355501 0.973539
vt 0.342151 0.973651
vt 0.337927 0.905776
vt 0.327834 0.973772
vt 0.320404 0.905776
vt 0.312777 0.973912
vt 0.302882 0.905776
vt 0.297155 0.974081
vt 0.285060 0.907544
vt 0.281104 0.974288
vt 0.267648 0.907592
vt 0.264596 0.974335
vt 0.250138 0.907503
vt 0.247900 0.974266
vt 0.232792 0.905776
vt 0.231041 0.974079
vt 0.215269 0.905776
vt 0.214260 0.973915
vt 0.197747 0.905776
vt 0.197434 0.973786
vt 0.180224 0.905776
vt 0.180611 0.973685
vt 0.162702 0.905776
vt 0.163837 0.973609
vt 0.145179 0.905776
vt 0.147162 0.973553
vt 0.127657 0.905776
vt 0.130645 0.973513
vt 0.110134 0.905776
vt 0.114352 0.973485
vt 0.092612 0.905776
vt 0.098368 0.973464
vt 0.075089 0.905776
vt 0.082800 0.973449
vt 0.057567 0.905776
vt 0.067783 0.973437
vt 0.040044 0.905776
vt 0.053493 0.973424
vt 0.022522 0.905776
vt 0.040156 0.973408
vt 0.372972 0.833863
vt 0.355449 0.833863
vt 0.337927 0.833863
vt 0.320404 0.833863
vt 0.302882 0.833863
vt 0.284949 0.834155
vt 0.748718 0.172041
vt 0.796822 0.172036
vt 0.796834 0.279012
vt 0.748730 0.279018
vt 0.699580 0.172046
vt 0.699592 0.279023
vt 0.250498 0.834052
vt 0.232792 0.833863
vt 0.215269 0.833863
vt 0.197747 0.833863
vt 0.180224 0.833863
vt 0.162702 0.833863
vt 0.145179 0.833863
vt 0.127657 0.833863
vt 0.110134 0.833863
vt 0.092612 0.833863
vt 0.075089 0.833863
vt 0.057567 0.833863
vt 0.040044 0.833863
vt 0.022522 0.833863
vt 0.520469 0.599360
vt 0.550370 0.594625
vt 0.549785 0.739707
vt 0.520469 0.740056
vt 0.629074 0.323210
vt 0.681761 0.323210
vt 0.681761 0.432929
vt 0.629074 0.432929
vt 0.633564 0.910449
vt 0.603663 0.905713
vt 0.603663 0.765018
vt 0.632979 0.765368
vt 0.490568 0.594625
vt 0.490480 0.739707
vt 0.573763 0.910449
vt 0.573674 0.765368
vt 0.548219 0.433701
vt 0.548227 0.323983
vt 0.600914 0.323987
vt 0.600905 0.433705
vt 0.355449 0.886852
vt 0.372972 0.886852
vt 0.337927 0.886852
vt 0.320404 0.886852
vt 0.302882 0.886852
vt 0.285355 0.886994
vt 0.804696 0.432929
vt 0.804696 0.323210
vt 0.848602 0.323210
vt 0.848602 0.432929
vt 0.749161 0.043918
vt 0.797265 0.043926
vt 0.797250 0.133073
vt 0.749147 0.133065
vt 0.700023 0.043910
vt 0.700009 0.133057
vt 0.381386 0.323970
vt 0.425292 0.323973
vt 0.425283 0.433692
vt 0.381378 0.433689
vt 0.232792 0.886852
vt 0.250212 0.887124
vt 0.215269 0.886852
vt 0.197747 0.886852
vt 0.180224 0.886852
vt 0.162702 0.886852
vt 0.145179 0.886852
vt 0.127657 0.886852
vt 0.110134 0.886852
vt 0.092612 0.886852
vt 0.075089 0.886852
vt 0.057567 0.886852
vt 0.040044 0.886852
vt 0.022522 0.886852
vt 0.390203 0.719151
vt 0.461068 0.720167
vt 0.457080 0.843045
vt 0.466729 0.842726
vt 0.399616 0.718693
vt 0.412191 0.841583
vt 0.551818 0.910100
vt 0.520492 0.910449
vt 0.681761 0.561790
vt 0.629074 0.561790
vt 0.443084 0.590319
vt 0.466766 0.591348
vt 0.488493 0.910100
vt 0.418874 0.589796
vt 0.600896 0.562566
vt 0.548209 0.562562
vt 0.454393 0.971962
vt 0.430693 0.971450
vt 0.848602 0.561790
vt 0.804696 0.561790
vt 0.603686 0.594624
vt 0.635012 0.594975
vt 0.406502 0.970400
vt 0.571687 0.594974
vt 0.425273 0.562553
vt 0.381368 0.562549
s 1
f 1/1/1 2/2/2 27/3/2 26/4/1
f 2/2/2 3/5/3 28/6/3 27/3/2
f 3/5/3 4/7/4 29/8/4 28/6/3
f 4/7/4 5/9/5 30/10/5 29/8/4
f 5/9/5 6/11/6 31/12/6 30/10/5
f 6/11/6 7/13/7 32/14/7 31/12/6
f 7/13/7 8/15/8 33/16/8 32/14/7
f 8/15/8 9/17/9 34/18/9 33/16/8
f 9/17/9 10/19/10 35/20/10 34/18/9
f 10/19/10 11/21/11 36/22/11 35/20/10
f 11/21/11 12/23/12 37/24/12 36/22/11
f 12/23/12 13/25/13 38/26/13 37/24/12
f 13/25/13 14/27/14 39/28/14 38/26/13
f 14/27/14 15/29/15 40/30/15 39/28/14
f 15/29/15 16/31/16 41/32/16 40/30/15
f 16/31/16 17/33/17 42/34/17 41/32/16
f 17/33/17 18/35/18 43/36/18 42/34/17
f 18/35/18 19/37/19 44/38/19 43/36/18
f 19/37/19 20/39/20 45/40/20 44/38/19
f 20/39/20 21/41/21 46/42/21 45/40/20
f 21/41/21 22/43/22 47/44/22 46/42/21
f 22/43/22 23/45/23 48/46/23 47/44/22
f 23/45/23 24/47/24 49/48/24 48/46/23
f 24/47/24 25/49/25 50/50/25 49/48/24
f 25/49/25 1/51/1 26/52/1 50/50/25
f 2/53/26 1/54/26 51/55/26
f 3/56/26 2/53/26 51/55/26
f 4/57/26 3/56/26 51/55/26
f 5/58/26 4/57/26 51/55/26
f 6/59/26 5/58/26 51/55/26
f 7/60/26 6/59/26 51/55/26
f 8/61/26 7/60/26 51/55/26
f 9/62/26 8/61/26 51/55/26
f 10/63/26 9/62/26 51/55/26
f 11/64/26 10/63/26 51/55/26
f 12/65/26 11/64/26 51/55/26
f 13/66/26 12/65/26 51/55/26
f 14/67/26 13/66/26 51/55/26
f 15/68/26 14/67/26 51/55/26
f 16/69/26 15/68/26 51/55/26
f 17/70/26 16/69/26 51/55/26
f 18/71/26 17/70/26 51/55/26
f 19/72/26 18/71/26 51/55/26
f 20/73/26 19/72/26 51/55/26
f 21/74/26 20/73/26 51/55/26
f 22/75/26 21/74/26 51/55/26
f 23/76/26 22/75/26 51/55/26
f 24/77/26 23/76/26 51/55/26
f 25/78/26 24/77/26 51/55/26
f 1/54/26 25/78/26 51/55/26
f 26/79/27 27/80/27 52/81/27
f 27/80/27 28/82/27 52/81/27
f 28/82/27 29/83/27 52/81/27
f 29/83/27 30/84/27 52/81/27
f 30/84/27 31/85/27 52/81/27
f 31/85/27 32/86/27 52/81/27
f 32/86/27 33/87/27 52/81/27
f 33/87/27 34/88/27 52/81/27
f 34/88/27 35/89/27 52/81/27
f 35/89/27 36/90/27 52/81/27
f 36/90/27 37/91/27 52/81/27
f 37/91/27 38/92/27 52/81/27
f 38/92/27 39/93/27 52/81/27
f 39/93/27 40/94/27 52/81/27
f 40/94/27 41/95/27 52/81/27
f 41/95/27 42/96/27 52/81/27
f 42/96/27 43/97/27 52/81/27
f 43/97/27 44/98/27 52/81/27
f 44/98/27 45/99/27 52/81/27
f 45/99/27 46/100/27 52/81/27
f 46/100/27 47/101/27 52/81/27
f 47/101/27 48/102/27 52/81/27
f 48/102/27 49/103/27 52/81/27
f 49/103/27 50/104/27 52/81/27
f 50/104/27 26/79/27 52/81/27
f 53/105/28 54/106/29 134/107/29 115/108/28
f 54/106/29 55/109/30 133/110/30 134/107/29
f 55/109/30 56/111/31 132/112/31 133/110/30
f 56/111/31 57/113/25 131/114/25 132/112/31
f 57/113/25 58/115/32 130/116/32 131/114/25
f 58/115/32 59/117/33 129/118/33 130/116/32
f 59/117/33 60/119/34 128/120/34 129/118/33
f 60/119/34 61/121/35 127/122/35 128/120/34
f 61/121/35 62/123/27 126/124/27 127/122/35
f 62/123/27 63/125/36 125/126/36 126/124/27
f 63/125/36 64/127/37 124/128/37 125/126/36
f 64/127/37 65/129/38 123/130/38 124/128/37
f 65/129/38 66/131/39 122/132/40 123/130/38
f 66/131/39 67/133/41 121/134/41 122/132/40
f 67/133/41 68/135/42 120/136/43 121/134/41
f 68/135/42 69/137/44 119/138/44 120/136/43
f 69/137/44 70/139/45 118/140/45 119/138/44
f 70/139/45 71/141/46 117/142/46 118/140/45
f 71/141/46 72/143/26 116/144/26 117/142/46
f 72/143/26 53/145/28 115/146/28 116/144/26
f 54/147/47 53/148/47 93/149/47
f 55/150/47 54/147/47 93/149/47
f 56/151/47 55/150/47 93/149/47
f 57/152/47 56/151/47 93/149/47
f 58/153/47 57/152/47 93/149/47
f 59/154/47 58/153/47 93/149/47
f 60/155/47 59/154/47 93/149/47
f 61/156/47 60/155/47 93/149/47
f 62/157/47 61/156/47 93/149/47
f 63/158/47 62/157/47 93/149/47
f 64/159/47 63/158/47 93/149/47
f 65/160/47 64/159/47 93/149/47
f 66/161/47 65/160/47 93/149/47
f 67/162/47 66/161/47 93/149/47
f 68/163/47 67/162/47 93/149/47
f 69/164/47 68/163/47 93/149/47
f 70/165/47 69/164/47 93/149/47
f 71/166/47 70/165/47 93/149/47
f 72/167/47 71/166/47 93/149/47
f 53/148/47 72/167/47 93/149/47
f 73/168/48 74/169/48 94/170/48
f 74/169/48 75/171/48 94/170/48
f 75/171/48 76/172/48 94/170/48
f 76/172/48 77/173/48 94/170/48
f 77/173/48 78/174/48 94/170/48
f 78/174/48 79/175/48 94/170/48
f 79/175/48 80/176/48 94/170/48
f 80/176/48 81/177/48 94/170/48
f 81/177/48 82/178/48 94/170/48
f 82/178/48 83/179/48 94/170/48
f 83/179/48 84/180/48 94/170/48
f 84/180/48 85/181/48 94/170/48
f 85/181/48 86/182/48 94/170/48
f 86/182/48 87/183/48 94/170/48
f 87/183/48 88/184/48 94/170/48
f 88/184/48 89/185/48 94/170/48
f 89/185/48 90/186/48 94/170/48
f 90/186/48 91/187/48 94/170/48
f 91/187/48 92/188/48 94/170/48
f 92/188/48 73/168/48 94/170/48
f 96/189/26 95/190/28 73/191/28 92/192/26
f 97/193/46 96/189/26 92/192/26 91/194/46
f 98/195/45 97/193/46 91/194/46 90/196/45
f 99/197/44 98/195/45 90/196/45 89/198/44
f 100/199/49 99/197/44 89/198/44 88/200/42
f 101/201/41 100/199/49 88/200/42 87/202/41
f 102/203/50 101/201/41 87/202/41 86/204/39
f 103/205/38 102/203/50 86/204/39 85/206/38
f 104/207/37 103/205/38 85/206/38 84/208/37
f 105/209/36 104/207/37 84/208/37 83/210/36
f 106/211/27 105/209/36 83/210/36 82/212/27
f 107/213/35 106/211/27 82/212/27 81/214/35
f 108/215/34 107/213/35 81/214/35 80/216/34
f 109/217/33 108/215/34 80/216/34 79/218/33
f 110/219/32 109/217/33 79/218/33 78/220/32
f 111/221/25 110/219/32 78/220/32 77/222/25
f 112/223/31 111/221/25 77/222/25 76/224/31
f 113/225/30 112/223/31 76/224/31 75/226/30
f 114/227/29 113/225/30 75/226/30 74/228/29
f 95/229/28 114/227/29 74/228/29 73/230/28
f 116/144/26 115/146/28 163/231/28 164/232/26
f 117/142/46 116/144/26 164/232/26 165/233/46
f 118/140/45 117/142/46 165/233/46 166/234/45
f 119/138/44 118/140/45 166/234/45 167/235/44
f 120/136/43 119/138/44 167/235/44 168/236/51
f 186/237/52 185/238/53 187/239/53 188/240/52
f 189/241/54 186/237/52 188/240/52 190/242/54
f 123/130/38 122/132/40 172/243/55 173/244/38
f 124/128/37 123/130/38 173/244/38 174/245/37
f 125/126/36 124/128/37 174/245/37 175/246/36
f 126/124/27 125/126/36 175/246/36 176/247/27
f 127/122/35 126/124/27 176/247/27 177/248/35
f 128/120/34 127/122/35 177/248/35 178/249/34
f 129/118/33 128/120/34 178/249/34 179/250/33
f 130/116/32 129/118/33 179/250/33 180/251/32
f 131/114/25 130/116/32 180/251/32 181/252/25
f 132/112/31 131/114/25 181/252/25 182/253/31
f 133/110/30 132/112/31 182/253/31 183/254/30
f 134/107/29 133/110/30 183/254/30 184/255/29
f 115/108/28 134/107/29 184/255/29 163/256/28
f 121/257/47 120/258/47 135/259/47 136/260/47
f 120/261/56 168/262/56 169/263/57 135/264/58
f 100/265/48 101/266/48 138/267/48 137/268/48
f 122/269/47 121/257/47 136/260/47 139/270/47
f 101/266/48 102/271/48 140/272/48 138/267/48
f 171/273/59 172/274/60 122/275/60 139/276/61
f 142/277/26 141/278/28 95/190/28 96/189/26
f 143/279/46 142/277/26 96/189/26 97/193/46
f 144/280/45 143/279/46 97/193/46 98/195/45
f 145/281/44 144/280/45 98/195/45 99/197/44
f 146/282/51 145/281/44 99/197/44 100/199/49
f 147/283/62 146/284/56 100/285/56 137/286/63
f 192/287/52 191/288/53 193/289/53 194/290/52
f 195/291/54 192/287/52 194/290/52 196/292/54
f 102/293/60 150/294/60 149/295/64 140/296/61
f 151/297/38 150/298/55 102/203/50 103/205/38
f 152/299/37 151/297/38 103/205/38 104/207/37
f 153/300/36 152/299/37 104/207/37 105/209/36
f 154/301/27 153/300/36 105/209/36 106/211/27
f 155/302/35 154/301/27 106/211/27 107/213/35
f 156/303/34 155/302/35 107/213/35 108/215/34
f 157/304/33 156/303/34 108/215/34 109/217/33
f 158/305/32 157/304/33 109/217/33 110/219/32
f 159/306/25 158/305/32 110/219/32 111/221/25
f 160/307/31 159/306/25 111/221/25 112/223/31
f 161/308/30 160/307/31 112/223/31 113/225/30
f 162/309/29 161/308/30 113/225/30 114/227/29
f 141/310/28 162/309/29 114/227/29 95/229/28
f 164/232/26 163/231/28 141/278/28 142/277/26
f 165/233/46 164/232/26 142/277/26 143/279/46
f 166/234/45 165/233/46 143/279/46 144/280/45
f 167/235/44 166/234/45 144/280/45 145/281/44
f 168/236/51 167/235/44 145/281/44 146/282/51
f 169/263/57 168/262/56 146/284/56 147/283/62
f 170/311/52 169/312/65 147/313/65 148/314/52
f 171/315/66 170/311/52 148/314/52 149/316/66
f 149/295/64 150/294/60 172/274/60 171/273/59
f 173/244/38 172/243/55 150/298/55 151/297/38
f 174/245/37 173/244/38 151/297/38 152/299/37
f 175/246/36 174/245/37 152/299/37 153/300/36
f 176/247/27 175/246/36 153/300/36 154/301/27
f 177/248/35 176/247/27 154/301/27 155/302/35
f 178/249/34 177/248/35 155/302/35 156/303/34
f 179/250/33 178/249/34 156/303/34 157/304/33
f 180/251/32 179/250/33 157/304/33 158/305/32
f 181/252/25 180/251/32 158/305/32 159/306/25
f 182/253/31 181/252/25 159/306/25 160/307/31
f 183/254/30 182/253/31 160/307/31 161/308/30
f 184/255/29 183/254/30 161/308/30 162/309/29
f 163/256/28 184/255/29 162/309/29 141/310/28
f 136/260/47 135/259/47 185/317/47 186/318/47
f 135/264/58 169/263/57 187/319/67 185/320/67
f 169/312/48 170/311/48 188/321/48 187/322/48
f 139/270/47 136/260/47 186/318/47 189/323/47
f 170/311/48 171/315/48 190/324/48 188/321/48
f 171/273/59 139/276/61 189/325/68 190/326/68
f 148/314/47 147/313/47 191/327/47 192/328/47
f 147/283/62 137/286/63 193/329/67 191/330/67
f 137/268/48 138/267/48 194/331/48 193/332/48
f 149/316/47 148/314/47 192/328/47 195/333/47
f 138/267/48 140/272/48 196/334/48 194/331/48
f 140/296/61 149/295/64 195/335/68 196/336/68
