# Blender 4.5.3 LTS
# www.blender.org
o LightBase
v 0.035213 -0.000000 -0.007485
v 0.032888 -0.000000 -0.014643
v 0.029125 -0.000000 -0.021160
v 0.024089 -0.000000 -0.026753
v 0.018000 -0.000000 -0.031177
v 0.011125 -0.000000 -0.034238
v 0.003763 -0.000000 -0.035803
v -0.003763 -0.000000 -0.035803
v -0.011125 -0.000000 -0.034238
v -0.018000 -0.000000 -0.031177
v -0.024089 -0.000000 -0.026753
v -0.029125 -0.000000 -0.021160
v -0.032888 -0.000000 -0.014643
v -0.035213 -0.000000 -0.007485
v -0.036000 0.000000 0.000000
v -0.035213 0.000000 0.007485
v -0.032888 0.000000 0.014643
v -0.029125 0.000000 0.021160
v -0.024089 0.000000 0.026753
v -0.018000 0.000000 0.031177
v -0.011125 0.000000 0.034238
v -0.003763 0.000000 0.035803
v 0.003763 0.000000 0.035803
v 0.011125 0.000000 0.034238
v 0.018000 0.000000 0.031177
v 0.024089 0.000000 0.026753
v 0.029125 0.000000 0.021160
v 0.032888 0.000000 0.014643
v 0.035213 0.000000 0.007485
v 0.036000 0.000000 0.000000
v 0.035213 0.012000 -0.007485
v 0.032888 0.012000 -0.014643
v 0.029125 0.012000 -0.021160
v 0.024089 0.012000 -0.026753
v 0.018000 0.012000 -0.031177
v 0.011125 0.012000 -0.034238
v 0.003763 0.012000 -0.035803
v -0.003763 0.012000 -0.035803
v -0.011125 0.012000 -0.034238
v -0.018000 0.012000 -0.031177
v -0.024089 0.012000 -0.026753
v -0.029125 0.012000 -0.021160
v -0.032888 0.012000 -0.014643
v -0.035213 0.012000 -0.007485
v -0.036000 0.012000 -0.000000
v -0.035213 0.012000 0.007485
v -0.032888 0.012000 0.014643
v -0.029125 0.012000 0.021160
v -0.024089 0.012000 0.026753
v -0.018000 0.012000 0.031177
v -0.011125 0.012000 0.034238
v -0.003763 0.012000 0.035803
v 0.003763 0.012000 0.035803
v 0.011125 0.012000 0.034238
v 0.018000 0.012000 0.031177
v 0.024089 0.012000 0.026753
v 0.029125 0.012000 0.021160
v 0.032888 0.012000 0.014643
v 0.035213 0.012000 0.007485
v 0.036000 0.012000 -0.000000
v 0.000000 0.000000 0.000000
v 0.000000 0.012000 -0.000000
vn 0.9781 -0.0000 -0.2079
vn 0.9135 -0.0000 -0.4067
vn 0.8090 -0.0000 -0.5878
vn 0.6691 -0.0000 -0.7431
vn 0.5000 -0.0000 -0.8660
vn 0.3090 -0.0000 -0.9511
vn 0.1045 -0.0000 -0.9945
vn -0.1045 -0.0000 -0.9945
vn -0.3090 -0.0000 -0.9511
vn -0.5000 -0.0000 -0.8660
vn -0.6691 -0.0000 -0.7431
vn -0.8090 -0.0000 -0.5878
vn -0.9135 -0.0000 -0.4067
vn -0.9781 -0.0000 -0.2079
vn -1.0000 -0.0000 -0.0000
vn -0.9781 -0.0000 0.2079
vn -0.9135 -0.0000 0.4067
vn -0.8090 -0.0000 0.5878
vn -0.6691 -0.0000 0.7431
vn -0.5000 -0.0000 0.8660
vn -0.3090 -0.0000 0.9511
vn -0.1045 -0.0000 0.9945
vn 0.1045 -0.0000 0.9945
vn 0.3090 -0.0000 0.9511
vn 0.5000 -0.0000 0.8660
vn 0.6691 -0.0000 0.7431
vn 0.8090 -0.0000 0.5878
vn 0.9135 -0.0000 0.4067
vn 0.9781 -0.0000 0.2079
vn 1.0000 -0.0000 -0.0000
vn -0.0000 -1.0000 -0.0000
vn -0.0000 1.0000 -0.0000
vt 0.572725 0.015492
vt 0.585551 0.015492
vt 0.585551 0.592688
vt 0.572725 0.592688
vt 0.598378 0.015492
vt 0.598378 0.592688
vt 0.611204 0.015492
vt 0.611204 0.592688
vt 0.624031 0.015492
vt 0.624031 0.592688
vt 0.636858 0.015492
vt 0.636858 0.592688
vt 0.649684 0.015492
vt 0.649684 0.592688
vt 0.662511 0.015492
vt 0.662511 0.592688
vt 0.675337 0.015492
vt 0.675337 0.592688
vt 0.688164 0.015492
vt 0.688164 0.592688
vt 0.700990 0.015492
vt 0.700990 0.592688
vt 0.713817 0.015492
vt 0.713817 0.592688
vt 0.726643 0.015492
vt 0.726643 0.592688
vt 0.739470 0.015492
vt 0.739470 0.592688
vt 0.752296 0.015492
vt 0.752296 0.592688
vt 0.765123 0.015492
vt 0.765123 0.592688
vt 0.777950 0.015492
vt 0.777950 0.592688
vt 0.790776 0.015492
vt 0.790776 0.592688
vt 0.803603 0.015492
vt 0.803603 0.592688
vt 0.816429 0.015492
vt 0.816429 0.592688
vt 0.829256 0.015492
vt 0.829256 0.592688
vt 0.842082 0.015492
vt 0.842082 0.592688
vt 0.854909 0.015492
vt 0.854909 0.592688
vt 0.867736 0.015492
vt 0.867736 0.592688
vt 0.880562 0.015492
vt 0.880562 0.592688
vt 0.893389 0.015492
vt 0.893389 0.592688
vt 0.906215 0.015492
vt 0.906215 0.592688
vt 0.919042 0.015492
vt 0.919042 0.592688
vt 0.931868 0.015492
vt 0.931868 0.592688
vt 0.944695 0.015492
vt 0.944695 0.592688
vt 0.957521 0.015492
vt 0.957521 0.592688
vt 0.499793 0.645767
vt 0.515230 0.693276
vt 0.281503 0.742956
vt 0.474816 0.602506
vt 0.441391 0.565383
vt 0.400977 0.536020
vt 0.355342 0.515702
vt 0.306480 0.505316
vt 0.256526 0.505316
vt 0.207663 0.515702
vt 0.162028 0.536020
vt 0.121614 0.565383
vt 0.088189 0.602506
vt 0.063212 0.645767
vt 0.047775 0.693276
vt 0.042554 0.742956
vt 0.047775 0.792637
vt 0.063212 0.840146
vt 0.088189 0.883407
vt 0.121614 0.920530
vt 0.162028 0.949892
vt 0.207663 0.970210
vt 0.256526 0.980596
vt 0.306480 0.980596
vt 0.355342 0.970210
vt 0.400977 0.949892
vt 0.441391 0.920530
vt 0.474816 0.883407
vt 0.499793 0.840146
vt 0.515230 0.792637
vt 0.520451 0.742956
vt 0.515230 0.303180
vt 0.499793 0.350689
vt 0.281503 0.253500
vt 0.474816 0.393950
vt 0.441391 0.431073
vt 0.400977 0.460435
vt 0.355342 0.480754
vt 0.306480 0.491140
vt 0.256526 0.491140
vt 0.207663 0.480754
vt 0.162028 0.460435
vt 0.121614 0.431073
vt 0.088189 0.393950
vt 0.063212 0.350689
vt 0.047775 0.303180
vt 0.042554 0.253500
vt 0.047775 0.203819
vt 0.063212 0.156310
vt 0.088189 0.113049
vt 0.121614 0.075926
vt 0.162028 0.046564
vt 0.207663 0.026245
vt 0.256526 0.015859
vt 0.306480 0.015859
vt 0.355342 0.026245
vt 0.400977 0.046564
vt 0.441391 0.075926
vt 0.474816 0.113049
vt 0.499793 0.156310
vt 0.515230 0.203819
vt 0.520451 0.253500
s 1
f 1/1/1 2/2/2 32/3/2 31/4/1
f 2/2/2 3/5/3 33/6/3 32/3/2
f 3/5/3 4/7/4 34/8/4 33/6/3
f 4/7/4 5/9/5 35/10/5 34/8/4
f 5/9/5 6/11/6 36/12/6 35/10/5
f 6/11/6 7/13/7 37/14/7 36/12/6
f 7/13/7 8/15/8 38/16/8 37/14/7
f 8/15/8 9/17/9 39/18/9 38/16/8
f 9/17/9 10/19/10 40/20/10 39/18/9
f 10/19/10 11/21/11 41/22/11 40/20/10
f 11/21/11 12/23/12 42/24/12 41/22/11
f 12/23/12 13/25/13 43/26/13 42/24/12
f 13/25/13 14/27/14 44/28/14 43/26/13
f 14/27/14 15/29/15 45/30/15 44/28/14
f 15/29/15 16/31/16 46/32/16 45/30/15
f 16/31/16 17/33/17 47/34/17 46/32/16
f 17/33/17 18/35/18 48/36/18 47/34/17
f 18/35/18 19/37/19 49/38/19 48/36/18
f 19/37/19 20/39/20 50/40/20 49/38/19
f 20/39/20 21/41/21 51/42/21 50/40/20
f 21/41/21 22/43/22 52/44/22 51/42/21
f 22/43/22 23/45/23 53/46/23 52/44/22
f 23/45/23 24/47/24 54/48/24 53/46/23
f 24/47/24 25/49/25 55/50/25 54/48/24
f 25/49/25 26/51/26 56/52/26 55/50/25
f 26/51/26 27/53/27 57/54/27 56/52/26
f 27/53/27 28/55/28 58/56/28 57/54/27
f 28/55/28 29/57/29 59/58/29 58/56/28
f 29/57/29 30/59/30 60/60/30 59/58/29
f 30/59/30 1/61/1 31/62/1 60/60/30
f 2/63/31 1/64/31 61/65/31
f 3/66/31 2/63/31 61/65/31
f 4/67/31 3/66/31 61/65/31
f 5/68/31 4/67/31 61/65/31
f 6/69/31 5/68/31 61/65/31
f 7/70/31 6/69/31 61/65/31
f 8/71/31 7/70/31 61/65/31
f 9/72/31 8/71/31 61/65/31
f 10/73/31 9/72/31 61/65/31
f 11/74/31 10/73/31 61/65/31
f 12/75/31 11/74/31 61/65/31
f 13/76/31 12/75/31 61/65/31
f 14/77/31 13/76/31 61/65/31
f 15/78/31 14/77/31 61/65/31
f 16/79/31 15/78/31 61/65/31
f 17/80/31 16/79/31 61/65/31
f 18/81/31 17/80/31 61/65/31
f 19/82/31 18/81/31 61/65/31
f 20/83/31 19/82/31 61/65/31
f 21/84/31 20/83/31 61/65/31
f 22/85/31 21/84/31 61/65/31
f 23/86/31 22/85/31 61/65/31
f 24/87/31 23/86/31 61/65/31
f 25/88/31 24/87/31 61/65/31
f 26/89/31 25/88/31 61/65/31
f 27/90/31 26/89/31 61/65/31
f 28/91/31 27/90/31 61/65/31
f 29/92/31 28/91/31 61/65/31
f 30/93/31 29/92/31 61/65/31
f 1/64/31 30/93/31 61/65/31
f 31/94/32 32/95/32 62/96/32
f 32/95/32 33/97/32 62/96/32
f 33/97/32 34/98/32 62/96/32
f 34/98/32 35/99/32 62/96/32
f 35/99/32 36/100/32 62/96/32
f 36/100/32 37/101/32 62/96/32
f 37/101/32 38/102/32 62/96/32
f 38/102/32 39/103/32 62/96/32
f 39/103/32 40/104/32 62/96/32
f 40/104/32 41/105/32 62/96/32
f 41/105/32 42/106/32 62/96/32
f 42/106/32 43/107/32 62/96/32
f 43/107/32 44/108/32 62/96/32
f 44/108/32 45/109/32 62/96/32
f 45/109/32 46/110/32 62/96/32
f 46/110/32 47/111/32 62/96/32
f 47/111/32 48/112/32 62/96/32
f 48/112/32 49/113/32 62/96/32
f 49/113/32 50/114/32 62/96/32
f 50/114/32 51/115/32 62/96/32
f 51/115/32 52/116/32 62/96/32
f 52/116/32 53/117/32 62/96/32
f 53/117/32 54/118/32 62/96/32
f 54/118/32 55/119/32 62/96/32
f 55/119/32 56/120/32 62/96/32
f 56/120/32 57/121/32 62/96/32
f 57/121/32 58/122/32 62/96/32
f 58/122/32 59/123/32 62/96/32
f 59/123/32 60/124/32 62/96/32
f 60/124/32 31/94/32 62/96/32
