# Blender 4.5.3 LTS
# www.blender.org
o PC
v 0.074085 0.397756 0.187500
v -0.074085 0.397756 0.187500
v 0.074085 0.431676 0.187500
v -0.074085 0.431676 0.187500
v 0.070668 0.400950 0.187500
v -0.070668 0.400950 0.187500
v 0.070668 0.428482 0.187500
v -0.070668 0.428482 0.187500
v -0.060319 0.339477 0.187500
v -0.074250 0.339477 0.187500
v -0.060319 0.366264 0.187500
v -0.074250 0.366264 0.187500
v -0.060319 0.295025 0.187500
v -0.074250 0.295025 0.187500
v -0.060319 0.321811 0.187500
v -0.074250 0.321811 0.187500
v -0.060319 0.339477 0.182250
v -0.074250 0.339477 0.182250
v -0.060319 0.366264 0.182250
v -0.074250 0.366264 0.182250
v -0.060319 0.295025 0.182250
v -0.074250 0.295025 0.182250
v -0.060319 0.321811 0.182250
v -0.074250 0.321811 0.182250
v 0.074085 0.397756 0.182250
v -0.074085 0.397756 0.182250
v 0.070668 0.400950 0.182250
v -0.070668 0.400950 0.182250
v 0.074085 0.431676 0.182250
v 0.070668 0.428482 0.182250
v -0.074085 0.431676 0.182250
v -0.070668 0.428482 0.182250
v -0.090000 0.000000 0.178502
v -0.081001 0.000000 0.187500
v -0.087364 0.000000 0.184864
v -0.090000 0.293537 0.178501
v -0.087364 0.293537 0.184864
v -0.081001 0.293537 0.187500
v 0.090000 0.000000 0.178502
v 0.087364 0.000000 0.184864
v 0.081001 0.000000 0.187500
v 0.090000 0.293537 0.178501
v 0.087364 0.293537 0.184864
v 0.081001 0.293537 0.187500
v -0.087364 0.450000 -0.184865
v -0.090000 0.450000 -0.178502
v -0.081001 0.450000 -0.187500
v -0.090000 0.434236 -0.178502
v -0.087364 0.434236 -0.184865
v -0.081001 0.434236 -0.187500
v 0.087364 0.450000 -0.184865
v 0.081001 0.450000 -0.187500
v 0.090000 0.450000 -0.178502
v 0.081001 0.434236 -0.187500
v 0.087364 0.434236 -0.184865
v 0.090000 0.434236 -0.178502
v -0.087364 0.450000 0.184864
v -0.081001 0.450000 0.187500
v -0.090000 0.450000 0.178501
v -0.090000 0.434236 0.178501
v -0.087364 0.434236 0.184864
v -0.081001 0.434236 0.187500
v -0.090000 0.395196 -0.178502
v -0.087364 0.395196 -0.184865
v -0.081001 0.395196 -0.187500
v 0.081001 0.395196 -0.187500
v 0.087364 0.395196 -0.184865
v 0.090000 0.395196 -0.178502
v 0.087364 0.450000 0.184864
v 0.090000 0.450000 0.178501
v 0.081001 0.450000 0.187500
v 0.090000 0.434236 0.178501
v 0.087364 0.434236 0.184864
v 0.081001 0.434236 0.187500
v -0.090000 0.395196 0.178501
v -0.087364 0.395196 0.184864
v -0.081001 0.395196 0.187500
v -0.090000 0.367752 -0.178502
v -0.087364 0.367752 -0.184865
v -0.081001 0.367752 -0.187500
v 0.081001 0.367752 -0.187500
v 0.087364 0.367752 -0.184865
v 0.090000 0.367752 -0.178502
v 0.090000 0.395196 0.178501
v 0.087364 0.395196 0.184864
v 0.081001 0.395196 0.187500
v -0.090000 0.367752 0.178501
v -0.087364 0.367752 0.184864
v -0.081001 0.367752 0.187500
v -0.090000 0.337989 -0.178502
v -0.087364 0.337989 -0.184865
v -0.081001 0.337989 -0.187500
v 0.081001 0.337989 -0.187500
v 0.087364 0.337989 -0.184865
v 0.090000 0.337989 -0.178502
v 0.090000 0.367752 0.178501
v 0.087364 0.367777 0.184864
v 0.081001 0.367840 0.187500
v -0.090000 0.337989 0.178501
v -0.087364 0.337989 0.184864
v -0.081001 0.337989 0.187500
v -0.090000 0.323299 -0.178502
v -0.087364 0.323299 -0.184865
v -0.081001 0.323299 -0.187500
v 0.081001 0.323299 -0.187500
v 0.087364 0.323299 -0.184865
v 0.090000 0.323299 -0.178502
v 0.090000 0.337989 0.178501
v 0.087364 0.337989 0.184864
v 0.081001 0.337989 0.187500
v -0.090000 0.323299 0.178501
v -0.087364 0.323299 0.184864
v -0.081001 0.323299 0.187500
v -0.090000 0.293537 -0.178502
v -0.087364 0.293537 -0.184865
v -0.081001 0.293537 -0.187500
v 0.081001 0.293537 -0.187500
v 0.087364 0.293537 -0.184865
v 0.090000 0.293537 -0.178502
v 0.090000 0.323299 0.178501
v 0.087364 0.323326 0.184864
v 0.081001 0.323390 0.187500
v -0.087364 -0.000000 -0.184864
v -0.081001 -0.000000 -0.187500
v -0.090000 -0.000000 -0.178502
v 0.087364 -0.000000 -0.184864
v 0.090000 -0.000000 -0.178502
v 0.081001 -0.000000 -0.187500
vn -0.0000 -0.0000 1.0000
vn -0.0000 1.0000 -0.0000
vn -1.0000 -0.0000 -0.0000
vn -0.0000 -1.0000 -0.0000
vn 1.0000 -0.0000 -0.0000
vn -1.0000 -0.0000 0.0073
vn -0.9239 -0.0000 0.3827
vn -0.3827 -0.0000 0.9239
vn -0.0157 -0.0000 0.9999
vn -0.0172 -0.0001 0.9999
vn -1.0000 -0.0001 -0.0073
vn -0.9239 -0.0000 -0.3827
vn -1.0000 -0.0000 -0.0073
vn -0.3827 -0.0000 -0.9239
vn -0.0157 -0.0000 -0.9999
vn 0.0157 -0.0000 -0.9999
vn 0.3827 -0.0000 -0.9239
vn 0.9239 -0.0000 -0.3827
vn 1.0000 -0.0000 -0.0073
vn 1.0000 -0.0001 0.0073
vn 0.9239 -0.0000 0.3827
vn 1.0000 -0.0000 0.0073
vn 0.3827 -0.0000 0.9239
vn 0.0157 -0.0000 0.9999
vn 0.0453 0.0001 0.9990
vn 0.0159 -0.0000 0.9999
vn -0.0453 -0.0000 0.9990
vn -0.0303 0.0001 0.9995
vn 0.0172 -0.0000 0.9999
vn 0.0340 -0.0000 0.9994
vn -0.0341 -0.0000 0.9994
vn -0.0413 0.0001 0.9991
vn 0.0177 -0.0000 0.9998
vn -0.0413 -0.0000 0.9991
vt 0.342735 0.660113
vt 0.448735 0.660124
vt 0.448733 0.680773
vt 0.342733 0.680762
vt 0.476607 0.684861
vt 0.627141 0.683764
vt 0.627213 0.693721
vt 0.476679 0.694818
vt 0.644581 0.686291
vt 0.790371 0.685061
vt 0.790452 0.694704
vt 0.644662 0.695933
vt 0.343334 0.693063
vt 0.448279 0.693055
vt 0.445859 0.695317
vt 0.345754 0.695324
vt 0.448280 0.717079
vt 0.445861 0.714817
vt 0.343336 0.717087
vt 0.345756 0.714825
vt 0.478143 0.662903
vt 0.625288 0.662893
vt 0.625677 0.715679
vt 0.478532 0.715689
vt 0.645134 0.661114
vt 0.789399 0.661113
vt 0.789899 0.719880
vt 0.645635 0.719882
vt -0.119423 -0.017573
vt 0.037412 0.345930
vt 0.041632 0.345930
vt 0.041613 0.538192
vt 0.037102 0.538191
vt 0.045852 0.345931
vt 0.046124 0.538192
vt 0.702968 0.645005
vt 0.701566 0.645005
vt 0.701566 0.633227
vt 0.706112 0.633227
vt 0.700165 0.645005
vt 0.697020 0.633227
vt 0.518885 0.646615
vt 0.517506 0.646615
vt 0.517508 0.634757
vt 0.522079 0.634758
vt 0.516127 0.646614
vt 0.512937 0.634757
vt 0.212388 0.641522
vt 0.207900 0.641522
vt 0.207936 0.631262
vt 0.212414 0.631262
vt 0.203560 0.641522
vt 0.203464 0.631262
vt 0.072079 0.540235
vt 0.072054 0.348726
vt 0.177747 0.348711
vt 0.177773 0.540221
vt 0.662648 0.542794
vt 0.554910 0.542791
vt 0.554914 0.347578
vt 0.662652 0.347580
vt 0.246941 0.540502
vt 0.247177 0.350271
vt 0.476661 0.348195
vt 0.476365 0.541371
vt 0.735081 0.542897
vt 0.735049 0.349051
vt 0.970807 0.349011
vt 0.970840 0.542857
vt 0.735097 0.635814
vt 0.970855 0.635773
vt 0.970857 0.646183
vt 0.735099 0.646223
vt 0.662646 0.636365
vt 0.662645 0.646848
vt 0.554908 0.646845
vt 0.554908 0.636362
vt 0.247273 0.631272
vt 0.476661 0.632284
vt 0.476710 0.642721
vt 0.247324 0.641407
vt 0.072092 0.632031
vt 0.177785 0.632017
vt 0.177787 0.642301
vt 0.072093 0.642315
vt 0.735093 0.610032
vt 0.970851 0.609992
vt 0.554909 0.610399
vt 0.662646 0.610402
vt 0.247152 0.606138
vt 0.476596 0.606781
vt 0.735090 0.591908
vt 0.970848 0.591868
vt 0.554909 0.592147
vt 0.662646 0.592150
vt 0.247075 0.588441
vt 0.476428 0.589040
vt 0.072086 0.588655
vt 0.177780 0.588699
vt 0.177782 0.606546
vt 0.072088 0.606560
vt 0.735087 0.572253
vt 0.970845 0.572213
vt 0.554909 0.572353
vt 0.662647 0.572356
vt 0.247011 0.569228
vt 0.476348 0.569907
vt 0.735085 0.562553
vt 0.970843 0.562513
vt 0.554909 0.562585
vt 0.662647 0.562588
vt 0.246969 0.559740
vt 0.476373 0.560480
vt 0.072082 0.559653
vt 0.177776 0.559697
vt 0.177777 0.569222
vt 0.072083 0.569237
vt 0.173270 0.608217
vt 0.076600 0.608230
vt 0.173273 0.630347
vt 0.076603 0.630360
vt 0.085577 0.570206
vt 0.076488 0.570207
vt 0.085579 0.587682
vt 0.076490 0.587683
vt 0.085573 0.541204
vt 0.076484 0.541205
vt 0.085575 0.558681
vt 0.076486 0.558682
vt 0.069871 0.669328
vt 0.177179 0.669335
vt 0.177164 0.882164
vt 0.069856 0.882156
vt 0.182326 0.318706
vt 0.180761 0.322502
vt 0.076596 0.322686
vt 0.075018 0.318895
vt 0.041610 0.557685
vt 0.037099 0.557685
vt 0.046121 0.557686
vt 0.203498 0.348896
vt 0.207870 0.348895
vt 0.207936 0.539770
vt 0.203457 0.539771
vt 0.212348 0.348894
vt 0.212414 0.539770
vt 0.701565 0.607459
vt 0.706111 0.607459
vt 0.697019 0.607460
vt 0.517512 0.608845
vt 0.522083 0.608846
vt 0.512941 0.608845
vt 0.043037 0.642009
vt 0.041595 0.642009
vt 0.041597 0.630344
vt 0.046108 0.630345
vt 0.040152 0.642009
vt 0.037086 0.630344
vt 0.701563 0.589346
vt 0.706108 0.589345
vt 0.697017 0.589346
vt 0.517515 0.590630
vt 0.522086 0.590631
vt 0.512944 0.590629
vt 0.207938 0.605876
vt 0.212416 0.605876
vt 0.203459 0.605875
vt 0.041601 0.604775
vt 0.046112 0.604776
vt 0.037090 0.604774
vt 0.701560 0.569701
vt 0.706105 0.569701
vt 0.697014 0.569702
vt 0.517519 0.570875
vt 0.522091 0.570876
vt 0.512948 0.570874
vt 0.207938 0.588047
vt 0.212417 0.588030
vt 0.203459 0.588087
vt 0.041605 0.586800
vt 0.046116 0.586801
vt 0.037094 0.586799
vt 0.701558 0.560007
vt 0.706104 0.560006
vt 0.697012 0.560008
vt 0.517521 0.561126
vt 0.522093 0.561127
vt 0.512950 0.561125
vt 0.207938 0.568676
vt 0.212417 0.568675
vt 0.203460 0.568676
vt 0.041608 0.567306
vt 0.046119 0.567307
vt 0.037097 0.567305
vt 0.701555 0.540363
vt 0.706101 0.540362
vt 0.697009 0.540363
vt 0.517526 0.541371
vt 0.522097 0.541373
vt 0.512954 0.541371
vt 0.207938 0.559141
vt 0.212416 0.559124
vt 0.203459 0.559183
vt 0.701527 0.346615
vt 0.705538 0.346615
vt 0.697517 0.346616
vt 0.517569 0.346517
vt 0.520982 0.346518
vt 0.514157 0.346517
vt 0.175608 0.665541
vt 0.071442 0.665534
vt 0.075236 0.663963
vt 0.171815 0.663970
vt 0.180373 0.102087
vt 0.181951 0.105877
vt 0.074643 0.106067
vt 0.076208 0.102270
vt 0.176971 0.324080
vt 0.080392 0.324250
vt 0.071427 0.885950
vt 0.175592 0.885958
vt 0.171799 0.887529
vt 0.075220 0.887522
vt 0.079998 0.100692
vt 0.176576 0.100522
s 1
f 6/1/1 5/2/1 7/3/1 8/4/1
f 18/5/1 17/6/1 19/7/1 20/8/1
f 22/9/1 21/10/1 23/11/1 24/12/1
f 26/13/1 25/14/1 27/15/1 28/16/1
f 25/14/1 29/17/1 30/18/1 27/15/1
f 29/17/1 31/19/1 32/20/1 30/18/1
f 31/19/1 26/13/1 28/16/1 32/20/1
f 10/21/2 9/22/2 17/6/2 18/5/2
f 9/22/3 11/23/3 19/7/3 17/6/3
f 11/23/4 12/24/4 20/8/4 19/7/4
f 12/24/5 10/21/5 18/5/5 20/8/5
f 14/25/2 13/26/2 21/10/2 22/9/2
f 13/26/3 15/27/3 23/11/3 21/10/3
f 15/27/4 16/28/4 24/12/4 23/11/4
f 16/28/5 14/25/5 22/9/5 24/12/5
f 2/29/2 1/29/2 25/29/2 26/29/2
f 5/29/4 6/29/4 28/29/4 27/29/4
f 1/29/3 3/29/3 29/29/3 25/29/3
f 7/29/5 5/29/5 27/29/5 30/29/5
f 3/29/4 4/29/4 31/29/4 29/29/4
f 8/29/2 7/29/2 30/29/2 32/29/2
f 4/29/5 2/29/5 26/29/5 31/29/5
f 6/29/3 8/29/3 32/29/3 28/29/3
f 33/30/6 35/31/7 37/32/7 36/33/6
f 35/31/8 34/34/9 38/35/10 37/32/8
f 46/36/11 45/37/12 49/38/12 48/39/13
f 45/37/14 47/40/15 50/41/15 49/38/14
f 52/42/16 51/43/17 55/44/17 54/45/16
f 51/43/18 53/46/19 56/47/19 55/44/18
f 70/48/20 69/49/21 73/50/21 72/51/22
f 69/49/23 71/52/24 74/53/25 73/50/23
f 38/54/10 34/55/9 41/56/24 44/57/26
f 116/58/15 117/59/16 128/60/16 124/61/15
f 42/62/22 39/63/22 127/64/19 119/65/19
f 114/66/13 125/67/13 33/68/6 36/69/6
f 48/70/13 60/71/6 59/72/6 46/73/11
f 50/74/15 47/75/15 52/76/16 54/77/16
f 72/78/22 56/79/19 53/80/19 70/81/20
f 62/82/27 74/83/25 71/84/24 58/85/9
f 63/86/13 75/87/6 60/71/6 48/70/13
f 50/74/15 54/77/16 66/88/16 65/89/15
f 84/90/22 68/91/19 56/79/19 72/78/22
f 78/92/13 87/93/6 75/87/6 63/86/13
f 65/89/15 66/88/16 81/94/16 80/95/15
f 96/96/22 83/97/19 68/91/19 84/90/22
f 89/98/28 98/99/29 86/100/30 77/101/31
f 90/102/13 99/103/6 87/93/6 78/92/13
f 80/95/15 81/94/16 93/104/16 92/105/15
f 108/106/22 95/107/19 83/97/19 96/96/22
f 102/108/13 111/109/6 99/103/6 90/102/13
f 92/105/15 93/104/16 105/110/16 104/111/15
f 120/112/22 107/113/19 95/107/19 108/106/22
f 113/114/32 122/115/33 110/116/33 101/117/34
f 114/66/13 36/69/6 111/109/6 102/108/13
f 104/111/15 105/110/16 117/59/16 116/58/15
f 42/62/22 119/65/19 107/113/19 120/112/22
f 77/101/31 86/100/30 1/118/1 2/119/1
f 86/100/30 74/83/25 3/120/1 1/118/1
f 74/83/25 62/82/27 4/121/1 3/120/1
f 62/82/27 77/101/31 2/119/1 4/121/1
f 101/117/34 110/116/33 9/122/1 10/123/1
f 110/116/33 98/99/29 11/124/1 9/122/1
f 98/99/29 89/98/28 12/125/1 11/124/1
f 89/98/28 101/117/34 10/123/1 12/125/1
f 38/54/10 44/57/26 13/126/1 14/127/1
f 44/57/26 122/115/33 15/128/1 13/126/1
f 122/115/33 113/114/32 16/129/1 15/128/1
f 113/114/32 38/54/10 14/127/1 16/129/1
f 59/130/2 70/131/2 53/132/2 46/133/2
f 39/134/4 40/135/4 35/136/4 33/137/4
f 36/33/6 37/32/7 112/138/7 111/139/6
f 37/32/8 38/35/10 113/140/32 112/138/8
f 41/141/24 40/142/23 43/143/23 44/144/26
f 40/142/21 39/145/22 42/146/22 43/143/21
f 48/39/13 49/38/12 64/147/12 63/148/13
f 49/38/14 50/41/15 65/149/15 64/147/14
f 54/45/16 55/44/17 67/150/17 66/151/16
f 55/44/18 56/47/19 68/152/19 67/150/18
f 58/153/9 57/154/8 61/155/8 62/156/27
f 57/154/7 59/157/6 60/158/6 61/155/7
f 63/148/13 64/147/12 79/159/12 78/160/13
f 64/147/14 65/149/15 80/161/15 79/159/14
f 66/151/16 67/150/17 82/162/17 81/163/16
f 67/150/18 68/152/19 83/164/19 82/162/18
f 72/51/22 73/50/21 85/165/21 84/166/22
f 73/50/23 74/53/25 86/167/30 85/165/23
f 62/156/27 61/155/8 76/168/8 77/169/31
f 61/155/7 60/158/6 75/170/6 76/168/7
f 78/160/13 79/159/12 91/171/12 90/172/13
f 79/159/14 80/161/15 92/173/15 91/171/14
f 81/163/16 82/162/17 94/174/17 93/175/16
f 82/162/18 83/164/19 95/176/19 94/174/18
f 84/166/22 85/165/21 97/177/21 96/178/22
f 85/165/23 86/167/30 98/179/29 97/177/23
f 77/169/31 76/168/8 88/180/8 89/181/28
f 76/168/7 75/170/6 87/182/6 88/180/7
f 90/172/13 91/171/12 103/183/12 102/184/13
f 91/171/14 92/173/15 104/185/15 103/183/14
f 93/175/16 94/174/17 106/186/17 105/187/16
f 94/174/18 95/176/19 107/188/19 106/186/18
f 96/178/22 97/177/21 109/189/21 108/190/22
f 97/177/23 98/179/29 110/191/33 109/189/23
f 89/181/28 88/180/8 100/192/8 101/193/34
f 88/180/7 87/182/6 99/194/6 100/192/7
f 102/184/13 103/183/12 115/195/12 114/196/13
f 103/183/14 104/185/15 116/197/15 115/195/14
f 105/187/16 106/186/17 118/198/17 117/199/16
f 106/186/18 107/188/19 119/200/19 118/198/18
f 108/190/22 109/189/21 121/201/21 120/202/22
f 109/189/23 110/191/33 122/203/33 121/201/23
f 101/193/34 100/192/8 112/138/8 113/140/32
f 100/192/7 99/194/6 111/139/6 112/138/7
f 114/196/13 115/195/12 123/204/12 125/205/13
f 115/195/14 116/197/15 124/206/15 123/204/14
f 117/199/16 118/198/17 126/207/17 128/208/16
f 118/198/18 119/200/19 127/209/19 126/207/18
f 44/144/26 43/143/23 121/201/23 122/203/33
f 43/143/21 42/146/22 120/202/22 121/201/21
f 69/210/2 57/211/2 58/212/2 71/213/2
f 69/210/2 70/131/2 59/130/2 57/211/2
f 126/214/4 127/215/4 125/216/4 123/217/4
f 35/136/4 40/135/4 41/218/4 34/219/4
f 45/220/2 51/221/2 52/222/2 47/223/2
f 46/133/2 53/132/2 51/221/2 45/220/2
f 126/214/4 123/217/4 124/224/4 128/225/4
f 39/134/4 33/137/4 125/216/4 127/215/4
