# This file uses centimeters as units for non-parametric coordinates.

mtllib rubble L.mtl
g default
v -7.000000 11.000000 11.999999
v 5.608019 2.000000 10.398857
v 6.580657 26.564939 -4.397910
v -1.831371 25.914057 -8.599477
v -3.804185 14.614910 -16.000000
v -5.916974 18.356861 -14.500001
v -5.062579 23.250353 -11.500003
v 0.125766 18.592688 10.578669
v -6.034035 23.772825 -6.668556
v -8.831343 19.924273 -4.000002
v -3.000000 17.500006 5.437351
v -4.411217 16.500002 9.660478
v -13.595272 10.530176 -7.310610
v -14.796059 9.039276 0.068172
v -14.104837 15.000002 5.000000
v -11.521612 17.182016 3.433725
v -8.006849 14.215305 -14.750001
v -11.332201 10.825689 -12.250001
v -9.873341 9.362513 12.353013
v -9.525345 6.612513 11.385255
v -11.482483 6.848162 -11.153314
v -11.972452 10.294527 10.292404
v -14.255119 8.960724 5.935843
v -3.603717 14.749998 11.829034
v 14.567909 15.600838 7.268535
v 7.583614 26.419302 4.149428
v 9.430328 24.028101 7.673958
v 12.455122 19.342785 9.024796
v 6.889614 8.165674 14.707296
v 3.737608 10.415674 15.107583
v 12.304840 15.305323 11.311022
v 8.979486 11.915707 14.532637
v 5.969892 24.426237 7.893571
v 10.497984 19.626984 -7.654200
v 9.806763 15.668068 -10.554722
v 5.812772 12.375549 -14.184909
v 1.910785 11.700691 -15.999999
v 15.227757 12.880796 -2.204788
v 12.945091 15.836489 -6.561349
v 3.722897 8.046963 -16.096687
v 15.077477 8.552214 0.081438
v 15.918795 12.452425 1.797252
v 0.846872 0.000000 -15.193377
v 5.383855 0.000001 -12.188745
v 9.263042 0.000000 -3.792731
v 9.803982 0.500001 2.903671
v 3.513921 2.011743 -16.314240
v 12.171347 2.138054 0.324316
v -2.804010 0.500000 8.696439
v -5.942339 0.000001 3.193412
v -6.610976 0.000000 -6.677696
v -4.997253 0.000000 -12.508281
v -8.079592 1.712041 -11.498265
v -6.587351 1.653128 8.943039
vt 0.176453 0.646354
vt 0.204937 0.600266
vt 0.233421 0.646354
vt 0.037297 0.574430
vt 0.336478 0.479605
vt 0.290389 0.668114
vt 0.077574 0.652853
vt 0.204937 0.521047
vt 0.290389 0.462000
vt 0.119484 0.668114
vt 0.233421 0.483760
vt 0.173345 0.482018
vt 0.311480 0.427517
vt 0.336478 0.650510
vt 0.102265 0.453618
vt 0.296691 0.380310
vt 0.389291 0.565057
vt 0.068253 0.476721
vt 0.103172 0.405469
vt 0.261216 0.339886
vt 0.152373 0.328104
vt 0.198034 0.302038
vt 0.421002 0.278815
vt 0.436237 0.211385
vt 0.470141 0.266802
vt 0.322798 0.285762
vt 0.518384 0.132960
vt 0.358677 0.350549
vt 0.369620 0.321882
vt 0.375253 0.140478
vt 0.443121 0.065147
vt 0.576698 0.144865
vt 0.522749 0.281056
vt 0.263406 0.184811
vt 0.409340 0.055282
vt 0.600707 0.200738
vt 0.566271 0.259035
vt 0.406531 0.399951
vt 0.246045 0.113459
vt 0.339167 0.081308
vt 0.377226 0.393485
vt 0.327980 0.033875
vt 0.283050 0.050830
vt 0.306413 0.023412
vt 0.298191 0.721502
vt 0.345896 0.739563
vt 0.297630 0.777375
vt 0.490227 0.799022
vt 0.457587 0.713569
vt 0.275560 0.835672
vt 0.293787 0.879095
vt 0.359624 0.911213
vt 0.246045 0.857693
vt 0.411454 0.898316
vt 0.377732 0.938741
vt 0.471223 0.851109
vt 0.369097 0.976588
vt 0.646800 0.303438
vt 0.639046 0.232086
vt 0.690506 0.284256
vt 0.827659 0.191628
vt 0.622093 0.366067
vt 0.804454 0.120376
vt 0.796920 0.289338
vt 0.737550 0.043012
vt 0.657945 0.392235
vt 0.675843 0.023412
vt 0.622820 0.393485
vt 0.793726 0.393485
vt 0.607067 0.131135
vt 0.828470 0.367761
vt 0.612269 0.066347
vt 0.856591 0.383021
vt 0.626243 0.744143
vt 0.671904 0.713569
vt 0.655547 0.775276
vt 0.624595 0.466679
vt 0.669856 0.516731
vt 0.611271 0.498142
vt 0.716578 0.403521
vt 0.618874 0.534899
vt 0.580797 0.424273
vt 0.738843 0.597541
vt 0.511512 0.540229
vt 0.779443 0.425088
vt 0.750959 0.642082
vt 0.528279 0.615492
vt 0.482307 0.506448
vt 0.779443 0.595994
vt 0.718319 0.694895
vt 0.558923 0.673806
vt 0.516361 0.425088
vt 0.606627 0.709999
vt 0.545673 0.403521
vt 0.620296 0.843276
vt 0.497244 0.727058
vt 0.544985 0.713569
vn -0.621977 0.763847 0.172283
vn -0.072287 0.993833 -0.084083
vn -0.208093 0.623327 -0.753764
vn 0.737117 -0.054942 0.673528
vn 0.962394 -0.025987 0.270412
vn 0.839888 0.534561 0.093984
vn -0.817546 -0.449734 -0.359664
vn -0.968225 -0.008175 -0.249947
vn -0.732562 0.111536 -0.671501
vn -0.001589 -0.234927 -0.972012
vn 0.421738 -0.882937 -0.206300
vn -0.035663 -0.978851 -0.201440
vn -0.667708 0.269344 0.693989
vn -0.342853 -0.423432 0.838545
vn -0.312600 0.081371 0.946393
vn 0.193768 0.332547 0.922966
vn -0.192464 -0.078716 0.978142
vn 0.558392 -0.489449 0.669805
vn -0.878553 -0.430438 0.207047
vn -0.774738 0.582826 0.245141
vn -0.909622 -0.410572 -0.063389
vn -0.540231 0.820254 0.187974
vn -0.373202 0.879564 0.295107
vn -0.742178 0.668649 0.045609
vn -0.434199 -0.086369 -0.896667
vn -0.065016 0.524175 -0.849125
vn 0.068154 0.286649 -0.955608
vn 0.613181 -0.063253 -0.787406
vn 0.250864 0.440014 -0.862238
vn 0.721838 -0.019487 -0.691788
vn -0.274973 0.405260 0.871868
vn -0.289841 0.625085 0.724749
vn -0.434830 0.746844 0.503138
vn -0.443503 0.592601 0.672406
vn -0.300386 0.725056 0.619727
vn 0.717261 0.635126 0.286619
vn -0.038849 0.997937 0.051120
vn -0.253810 0.272186 0.928168
vn 0.899482 -0.408433 -0.155292
vn 0.907554 0.010202 -0.419811
vn 0.896810 -0.267246 0.352577
vn -0.444655 0.831433 0.333169
vn 0.905256 0.201053 -0.374284
vn 0.628932 0.184657 -0.755213
vn 0.656317 0.563098 -0.502164
vn 0.338844 0.549691 -0.763560
vn 0.848380 0.521567 -0.090663
vn 0.902306 -0.413088 -0.123295
vn 0.223042 -0.957394 0.183436
vn 0.433098 -0.875977 -0.212344
vn 0.799786 -0.400961 0.446736
vn -0.593114 -0.733121 0.332790
vn -0.384533 -0.920731 0.066259
vn -0.032841 -0.867998 0.495480
vn -0.743501 -0.614717 -0.263305
vn -0.355205 -0.488203 -0.797174
vn -0.457994 -0.888845 -0.014006
vn -0.181118 -0.456754 0.870961
vn -0.084452 -0.301669 0.949665
vn 0.118682 -0.958744 0.258313
s 1
g rubble3
usemtl rubble_1
f 9/45/1 4/46/2 7/47/3
f 31/1/4 25/2/5 28/3/6
f 21/23/7 13/24/8 18/25/9
f 47/74/10 44/75/11 43/76/12
f 22/42/13 20/43/14 19/44/15
f 32/73/16 30/69/17 29/71/18
f 23/40/19 15/35/20 14/30/21
f 16/84/22 11/81/23 10/87/24
f 17/53/25 6/50/26 5/51/27
f 40/55/28 37/52/29 36/54/30
f 24/77/31 8/78/32 12/79/33
f 14/30/21 15/35/20 13/24/8
f 15/35/20 16/31/22 13/24/8
f 16/31/22 10/27/24 13/24/8
f 13/24/8 10/27/24 18/25/9
f 10/27/24 9/32/1 18/25/9
f 9/32/1 7/36/3 18/25/9
f 7/36/3 6/37/26 18/25/9
f 18/25/9 6/37/26 17/33/25
f 24/77/31 12/79/33 1/82/34
f 11/81/23 16/84/22 12/79/33
f 12/79/33 16/84/22 1/82/34
f 16/84/22 15/88/20 1/82/34
f 23/40/19 22/42/13 15/35/20
f 19/94/15 1/82/34 22/92/13
f 22/92/13 1/82/34 15/88/20
f 33/83/35 27/89/36 26/86/37
f 1/82/38 30/80/17 24/77/31
f 24/77/31 30/80/17 8/78/32
f 8/78/32 30/80/17 33/83/35
f 30/80/17 32/85/16 33/83/35
f 33/83/35 32/85/16 27/89/36
f 32/10/16 31/1/4 27/6/36
f 31/1/4 28/3/6 27/6/36
f 41/12/39 38/11/40 42/8/41
f 12/79/33 8/78/32 11/81/23
f 8/78/32 33/83/35 11/81/23
f 10/87/24 11/81/23 9/91/1
f 33/83/35 26/86/37 11/81/23
f 26/86/37 3/90/42 11/81/23
f 3/90/42 4/93/2 11/81/23
f 4/93/2 9/91/1 11/81/23
f 39/9/43 35/13/44 34/5/45
f 3/49/46 34/48/45 4/46/2
f 4/46/2 34/48/45 7/47/3
f 7/47/3 34/48/45 6/50/26
f 6/50/26 34/48/45 5/51/27
f 5/51/27 34/48/45 37/52/29
f 37/52/29 34/48/45 36/54/30
f 34/48/45 35/56/44 36/54/30
f 3/17/47 26/14/37 34/5/45
f 26/14/37 27/6/36 34/5/45
f 27/6/36 28/3/6 34/5/45
f 28/3/6 25/2/5 34/5/45
f 34/5/45 25/2/5 39/9/43
f 39/9/43 25/2/5 38/11/40
f 25/2/5 42/8/41 38/11/40
f 48/15/48 46/18/49 45/19/50
f 46/18/49 48/15/48 2/4/51
f 48/15/48 41/12/39 2/4/51
f 41/12/39 42/8/41 2/4/51
f 42/8/41 25/2/5 2/4/51
f 25/2/5 31/1/4 2/4/51
f 32/10/16 29/7/18 31/1/4
f 2/4/51 31/1/4 29/7/18
f 54/58/52 50/59/53 49/60/54
f 47/22/10 40/20/28 44/21/11
f 44/21/11 40/20/28 45/19/50
f 40/20/28 36/16/30 45/19/50
f 45/19/50 36/16/30 48/15/48
f 48/15/48 36/16/30 41/12/39
f 41/12/39 36/16/30 38/11/40
f 38/11/40 36/16/30 39/9/43
f 36/16/30 35/13/44 39/9/43
f 53/29/55 52/28/56 51/26/57
f 29/71/18 30/69/17 2/64/58
f 30/69/17 1/66/59 2/64/58
f 19/68/15 20/62/14 1/66/59
f 1/66/59 20/62/14 2/64/58
f 2/64/58 20/62/14 49/60/54
f 54/58/52 49/60/54 20/62/14
f 22/42/13 23/40/19 20/43/14
f 53/29/55 51/26/57 21/23/7
f 20/43/14 23/40/19 54/39/52
f 21/23/7 51/26/57 13/24/8
f 13/24/8 51/26/57 14/30/21
f 23/40/19 14/30/21 54/39/52
f 51/26/57 50/34/53 14/30/21
f 50/34/53 54/39/52 14/30/21
f 37/52/29 40/55/28 5/51/27
f 53/29/55 21/23/7 52/28/56
f 40/55/28 47/57/10 5/51/27
f 43/41/12 52/28/56 47/38/10
f 21/23/7 18/25/9 52/28/56
f 18/25/9 17/33/25 52/28/56
f 52/28/56 17/33/25 47/38/10
f 47/95/10 17/96/25 5/97/27
f 2/64/60 49/60/54 46/61/49
f 49/60/54 50/59/53 46/61/49
f 46/61/49 50/59/53 45/63/50
f 45/63/50 50/59/53 44/65/11
f 44/65/11 50/59/53 43/67/12
f 50/59/53 51/70/57 43/67/12
f 51/70/57 52/72/56 43/67/12
