# This file uses centimeters as units for non-parametric coordinates.

mtllib rubble S.mtl
g default
v 0.000000 1.050482 -12.061181
v 8.727553 7.391419 -5.393924
v -3.333629 7.313159 -5.393924
v -15.204965 1.050481 -5.393925
v 3.333628 14.245539 5.393924
v -1.959458 7.081072 -10.259853
v 5.129927 4.777592 -10.259853
v 7.089384 13.743385 0.000000
v 3.660942 13.189610 -2.262587
v -9.584472 5.472032 -2.262587
v 8.300396 0.000000 6.340938
v 8.300395 7.081072 6.340938
v 9.584472 8.014008 4.277495
v -3.170469 10.808182 6.340938
v -16.421715 3.383602 -0.012244
v 4.839345 0.827225 10.069935
v 5.923529 5.354178 9.584472
v 7.908469 12.035004 -2.696962
v 3.415706 13.466497 -4.301763
v 5.375163 13.466497 -1.131293
v 5.375163 13.466497 -1.131293
v 1.830471 13.586590 -1.131293
v 1.666814 14.114553 2.696962
v 5.211506 13.994461 2.696962
v 5.211506 13.994461 2.696962
v 8.336927 12.346298 1.131293
v 5.817012 12.130907 5.867431
v 0.081579 13.994461 5.867431
v 2.646543 12.130907 7.826889
v 10.186160 7.022299 5.843164
v 8.942433 7.547540 6.316671
v 8.960699 10.180153 3.711848
v -14.174817 4.220950 1.673912
v -14.704422 4.220950 2.848289
v -9.811041 1.050482 -8.727552
v -5.660842 0.525241 0.473506
v -15.734570 1.050481 -1.565669
v -15.734570 1.050481 -1.565669
v -9.811041 1.050482 3.333628
v 1.207076 7.780774 -9.753317
v 2.979422 7.204904 -9.753317
v 1.544445 9.934426 -6.104184
v 2.943499 10.109638 -7.151821
v 2.489558 8.712551 -8.773588
v 4.559740 9.953991 -6.104184
v 3.231778 11.472761 -5.831144
v -0.833408 10.114565 -1.348481
v 0.457617 11.682922 -0.282823
v 0.416703 11.814913 0.674240
v -0.915236 11.365701 0.565647
v -13.380845 2.664367 -4.974970
v -4.932511 5.785901 -9.753317
v -14.272170 2.342087 -3.758646
v -7.706179 4.709617 -7.151822
v -6.517746 5.139324 -8.773588
v -7.058704 5.199362 -6.104185
v -8.621415 4.739080 -5.321350
v -14.753698 2.708563 -2.787461
v -11.060486 3.740291 -6.022607
v -7.635848 4.816216 -8.397183
v -12.546028 3.203158 -3.995399
v -9.715607 4.064228 -5.559092
v -13.348576 3.813950 -2.004627
v -14.496161 3.501180 -1.020502
v -14.442767 3.139098 -2.242368
v -14.121748 2.894781 -2.889824
v -13.664130 2.880049 -3.618994
v -13.069914 3.094903 -4.429877
v -12.032364 2.664367 -5.808377
v -6.150446 7.250858 -1.559674
v -7.713157 6.790576 -0.776840
v -8.318011 7.351087 2.505095
v -7.498927 7.270423 0.647305
v -6.232275 8.501994 0.354454
v -4.518054 11.045800 1.626542
v -2.974516 12.079702 1.838352
v -7.338283 8.245609 4.160727
v -3.538325 11.940323 3.282175
v -7.286831 5.806185 5.590788
v -10.089369 6.598802 2.993970
v -10.221770 6.598802 3.287565
v -1.013663 0.994668 11.563370
v -3.016117 3.489907 10.631121
v -4.676260 1.050482 9.879292
v -4.045207 2.239408 10.443583
v 10.272775 6.370797 2.696962
v 10.165985 4.522942 5.630678
v 8.090886 4.785563 1.030148
v 10.165985 6.293210 5.630678
v 9.300722 4.729749 6.562927
v 10.637426 6.278517 5.506234
v 6.773895 1.982259 -9.753317
v 5.491414 1.050482 -10.203650
v 9.876779 2.635716 -6.104185
v 9.525361 1.050481 -7.151822
v 8.056376 1.050482 -8.773588
v 7.694890 1.050482 -7.770999
v 9.769989 0.787861 -3.170469
vt 0.609551 0.816972
vt 0.152490 0.851801
vt 0.158996 0.885531
vt 0.145983 0.899023
vt 0.199086 0.777425
vt 0.140348 0.962099
vt 0.136659 0.937307
vt 0.107571 0.973552
vt 0.501168 0.860924
vt 0.609824 0.837126
vt 0.470822 0.817623
vt 0.610096 0.857280
vt 0.491023 0.788337
vt 0.523453 0.562336
vt 0.460039 0.784599
vt 0.442204 0.472170
vt 0.518994 0.484229
vt 0.200079 0.729050
vt 0.155383 0.773275
vt 0.163303 0.738654
vt 0.233199 0.765647
vt 0.236856 0.685238
vt 0.264838 0.711820
vt 0.260575 0.666031
vt 0.231571 0.620242
vt 0.135404 0.711820
vt 0.133838 0.759515
vt 0.152732 0.574454
vt 0.104032 0.761628
vt 0.071991 0.562395
vt 0.040618 0.612203
vt 0.060896 0.500440
vt 0.027242 0.773687
vt 0.045077 0.534096
vt 0.045077 0.544608
vt 0.045077 0.517074
vt 0.108355 0.491840
vt 0.603752 0.816972
vt 0.567567 0.870586
vt 0.577171 0.833810
vt 0.424868 0.891355
vt 0.381056 0.854579
vt 0.350591 0.788337
vt 0.344870 0.800965
vt 0.235827 0.838928
vt 0.268147 0.853333
vt 0.206141 0.937762
vt 0.238068 0.822679
vt 0.232259 0.933126
vt 0.209200 0.857020
vt 0.277111 0.788337
vt 0.266108 0.907161
vt 0.284633 0.908334
vt 0.338461 0.788337
vt 0.326240 0.834083
vt 0.312783 0.864082
vt 0.284633 0.843338
vt 0.331551 0.850791
vt 0.320093 0.854827
vt 0.782096 0.499983
vt 0.827884 0.486076
vt 0.801303 0.529087
vt 0.885732 0.542931
vt 0.736307 0.531865
vt 0.873673 0.472170
vt 0.881096 0.565477
vt 0.956286 0.533250
vt 0.903518 0.570371
vt 0.885732 0.594124
vt 0.947686 0.569761
vt 0.931052 0.578078
vt 0.947686 0.599852
vt 0.956286 0.653613
vt 0.873673 0.676943
vt 0.804990 0.634495
vt 0.947686 0.704089
vt 0.808576 0.724767
vt 0.885732 0.740187
vt 0.776078 0.726156
vt 0.931052 0.731003
vt 0.872441 0.766719
vt 0.771106 0.747661
vt 0.795285 0.751298
vt 0.772492 0.635884
vt 0.924662 0.749986
vt 0.903518 0.751180
vt 0.876477 0.785296
vt 0.739564 0.761568
vt 0.731264 0.791641
vt 0.754480 0.697052
vt 0.770648 0.613271
vt 0.786897 0.612576
vt 0.849929 0.833350
vt 0.820510 0.783069
vt 0.750884 0.670846
vt 0.884347 0.808129
vt 0.857306 0.842245
vt 0.816130 0.846976
vt 0.711455 0.744934
vt 0.726371 0.680419
vt 0.843539 0.852333
vt 0.831159 0.860103
vt 0.726280 0.793889
vt 0.753676 0.861004
vt 0.736307 0.592046
vt 0.880710 0.824629
vt 0.866560 0.847524
vt 0.845909 0.862656
vt 0.820166 0.865553
vt 0.674440 0.674173
vt 0.799422 0.866459
vt 0.930271 0.786916
vt 0.873673 0.878493
vt 0.829421 0.870832
vt 0.733738 0.869995
vt 0.682479 0.618960
vt 0.782303 0.899151
vt 0.687176 0.744060
vt 0.690518 0.563748
vt 0.808677 0.887485
vt 0.649212 0.575413
vt 0.736307 0.531865
vt 0.682479 0.521585
vt 0.801303 0.589268
vt 0.561157 0.850240
vt 0.507329 0.877154
vt 0.526536 0.846076
vt 0.507329 0.816972
vt 0.616853 0.816972
vt 0.637968 0.825012
vt 0.627753 0.851593
vt 0.324802 0.367863
vt 0.481017 0.297401
vt 0.381400 0.459440
vt 0.268204 0.201292
vt 0.529575 0.367863
vt 0.490467 0.063926
vt 0.643944 0.119130
vt 0.446396 0.468432
vt 0.568574 0.028695
vt 0.580633 0.060369
vt 0.640707 0.280685
vt 0.669299 0.218502
vt 0.270584 0.472170
vt 0.401227 0.545008
vt 0.436458 0.623116
vt 0.411507 0.784599
vt 0.363817 0.503707
vt 0.407364 0.527986
vt 0.432305 0.555521
vt 0.643465 0.472170
vt 0.643465 0.515718
vt 0.627646 0.493944
vt 0.643465 0.608950
vt 0.580187 0.521855
vt 0.541079 0.642218
vt 0.643465 0.775521
vt 0.538976 0.558366
vt 0.563068 0.692694
vt 0.529199 0.588457
vt 0.579531 0.738591
vt 0.597798 0.796734
vt 0.616065 0.813234
vt 0.103721 0.051390
vt 0.130266 0.036699
vt 0.143642 0.068373
vt 0.100210 0.036699
vt 0.142644 0.036357
vt 0.114323 0.108727
vt 0.023420 0.068373
vt 0.037465 0.127134
vt 0.130016 0.028695
vt 0.151562 0.057473
vt 0.229377 0.164364
vt 0.229377 0.110536
vt 0.040308 0.226506
vt 0.082672 0.260504
vt 0.206920 0.263124
vt 0.061441 0.277975
vt 0.041255 0.288689
vt 0.121997 0.333011
vt 0.261017 0.207911
vt 0.163413 0.333885
vt 0.041255 0.375867
vt 0.135454 0.382840
vt 0.095083 0.458946
vt 0.041255 0.476436
vt 0.080867 0.488102
vt 0.707987 0.106228
vt 0.784777 0.137902
vt 0.775860 0.374934
vt 0.464513 0.868131
vt 0.430663 0.788337
vt 0.464513 0.814303
vn 0.136262 0.749670 -0.647632
vn 0.310025 0.461257 -0.831340
vn -0.061565 0.758232 -0.649072
vn -0.007433 0.757673 -0.652592
vn 0.423932 0.606075 -0.673019
vn 0.020076 0.726477 -0.686897
vn -0.476629 0.807443 -0.347650
vn -0.484947 0.812799 -0.322776
vn -0.556859 0.653572 -0.512593
vn -0.455574 0.599660 -0.657921
vn -0.453414 0.649249 -0.610648
vn 0.688594 -0.263937 -0.675408
vn 0.306262 -0.331217 -0.892468
vn 0.534653 0.134799 -0.834251
vn 0.268659 -0.960979 -0.065895
vn 0.056227 -0.995626 -0.074619
vn 0.747403 -0.604689 -0.275209
vn 0.945971 0.064635 -0.317745
vn 0.572329 0.760116 -0.307673
vn 0.763454 0.509565 -0.396839
vn 0.251584 0.782337 -0.569784
vn -0.748533 0.533014 -0.394456
vn -0.753861 0.570268 -0.326325
vn 0.268320 0.958346 0.097860
vn 0.171460 0.985141 -0.009933
vn -0.285687 0.941529 -0.178623
vn 0.224970 0.903818 0.364008
vn -0.715456 -0.522485 0.463823
vn 0.080221 -0.990181 0.114483
vn -0.825582 0.402616 0.395367
vn -0.999150 0.037298 0.017552
vn 0.938435 0.323954 -0.119970
vn 0.566969 0.536334 0.625213
vn 0.479502 0.463883 0.744910
vn 0.473715 0.427691 0.769854
vn 0.471960 0.815439 0.335131
vn -0.488754 0.802373 0.342516
vn -0.768308 0.601529 -0.218782
vn -0.432719 0.870777 -0.233456
vn -0.857618 0.504235 -0.101189
vn -0.020811 -0.998649 -0.047621
vn 0.203095 -0.978950 -0.020238
vn -0.027551 -0.998626 -0.044579
vn 0.684961 -0.140620 0.714881
vn 0.693633 -0.083121 0.715517
vn 0.665331 -0.013473 0.746427
vn 0.607877 0.298676 0.735716
vn 0.433099 0.083282 0.897491
vn 0.068945 0.445934 0.892407
vn -0.520807 -0.323734 0.789909
vn 0.000000 -1.000000 0.000000
vn 0.000000 -1.000000 0.000000
vn 0.700606 -0.180576 0.690322
vn 0.922248 -0.256080 0.289624
vn -0.071635 -0.993463 0.088885
vn -0.066326 -0.995638 0.065617
vn -0.088276 -0.994601 0.054558
vn 0.207448 0.228969 0.951072
vn 0.146264 0.314024 0.938081
vn 0.520413 0.406193 0.751118
vn 0.275946 0.955620 0.103176
vn 0.504708 0.815101 0.284397
vn 0.607465 0.711834 0.352532
vn 0.008220 0.990638 -0.136270
vn 0.686984 0.567841 0.453442
vn 0.557200 0.410543 0.721791
vn 0.870734 0.342806 0.352570
vn 0.835050 0.491250 0.247721
vn 0.865482 0.463734 0.189454
vn -0.949562 -0.213455 0.229714
vn -0.259755 0.952237 0.160537
vn 0.781997 0.393573 -0.483301
vn -0.259755 0.952237 0.160537
vn -0.239697 0.958523 -0.154207
vn 0.032468 0.958347 -0.283756
vn 0.032468 0.958347 -0.283756
vn 0.989718 0.139481 -0.031670
vn 0.831502 0.373450 -0.411265
vn 0.987503 0.129066 -0.090445
vn -0.409523 0.861339 -0.300642
vn -0.439454 0.868420 -0.229621
vn -0.383040 0.918473 -0.098429
vn -0.347550 0.931642 -0.106075
vn -0.505404 -0.640608 0.578091
vn -0.532735 -0.366204 0.762947
vn -0.966641 0.070519 -0.246236
vn -0.351618 0.737340 -0.576797
vn -0.532916 0.728923 -0.429735
vn -0.707532 0.629932 -0.320287
vn -0.480636 0.798719 -0.361990
vn 0.592376 0.444463 -0.671970
vn -0.101566 0.212978 -0.971764
vn -0.173184 0.223870 -0.959109
vn 0.207370 0.175088 -0.962467
vn -0.460563 0.854730 -0.239414
vn -0.405277 0.884489 -0.231150
vn -0.553548 0.774597 -0.305914
vn -0.523933 0.711334 -0.468506
vn -0.437723 0.825329 -0.356695
vn -0.452923 0.844312 -0.286351
vn -0.548185 0.492665 -0.675851
vn -0.395846 0.917541 -0.037736
vn -0.438716 0.667696 -0.601423
vn -0.420496 0.305496 -0.854316
vn -0.407520 0.631778 -0.659382
vn -0.421213 0.806384 -0.415119
vn -0.423694 0.841940 -0.334096
vn -0.490997 0.830917 -0.261723
vn -0.479683 0.804054 -0.351285
vn -0.554852 0.777039 -0.297237
vn -0.843655 0.534081 -0.054816
vn -0.426913 0.864050 -0.266764
vn -0.466953 0.821610 -0.326973
vn -0.950042 0.311177 -0.024294
vn -0.628611 0.224847 0.744508
vn -0.652192 0.599755 0.463615
vn -0.431413 0.641945 0.633869
vn -0.427365 0.877719 -0.216724
vn -0.591728 0.786680 -0.176047
vn -0.399334 0.855110 -0.330635
vn -0.558378 0.128742 0.819536
vn -0.277865 -0.924353 0.261464
vn 0.134612 -0.063465 0.988864
vn -0.315733 0.361433 0.877313
vn 0.000000 0.000000 0.000000
vn -0.485722 0.855657 0.178676
vn -0.170150 0.931578 -0.321266
vn -0.545528 0.715239 -0.436844
vn -0.360125 0.875168 -0.323096
vn -0.412690 0.881709 -0.228638
vn -0.362096 0.576144 0.732765
vn -0.622770 0.503054 0.599244
vn -0.092890 -0.986795 0.132691
vn -0.076437 -0.991210 0.107985
vn 0.361733 -0.288424 -0.886544
vn 0.924670 -0.363696 0.112743
vn 0.041537 -0.996355 -0.074501
vn 0.042359 -0.996210 -0.075975
s 1
g rubble2
usemtl rubble_1
f 44/71/1 41/70/2 40/72/3
f 46/66/4 45/63/5 43/68/6 42/69/7
f 68/97/8 59/96/9 69/106/10 51/107/11
f 96/151/12 93/152/13 92/153/14
f 98/31/15 97/34/16 95/35/17 94/30/18
f 8/60/19 18/61/20 21/62/21
f 19/125/22 22/126/23 9/127/24
f 24/122/25 23/105/26 5/119/27
s 9
f 88/14/28 1/15/29 11/16/30 87/17/31
s 1
f 26/22/32 18/25/20 8/24/19
f 27/123/33 24/122/25 5/119/27
f 31/129/34 30/130/35 13/131/36
f 23/105/26 28/116/37 5/119/27
f 38/57/38 33/54/39 4/53/40
s 9
f 35/132/41 36/133/42 4/134/43
s 1
f 16/171/44 90/164/45 17/169/46
f 17/169/46 90/164/45 12/166/47
f 90/164/45 89/165/48 12/166/47
f 29/121/49 27/123/33 5/119/27
f 28/116/37 29/121/49 5/119/27
f 39/136/50 38/139/51 4/134/52
f 11/170/53 87/167/54 90/164/45 16/171/44
f 36/133/55 39/136/56 4/134/57
f 16/171/58 17/169/59 29/174/49
f 17/169/59 12/166/60 29/174/49
f 12/166/60 27/175/33 29/174/49
f 8/24/61 25/23/62 26/22/63
f 21/62/64 25/64/62 8/60/61
f 32/18/65 31/19/66 13/20/67
f 30/38/68 32/39/69 13/40/70
f 20/128/71 19/125/72 9/127/73
f 22/126/74 20/128/75 9/127/76
f 24/6/25 27/8/33 25/7/62
f 25/23/62 27/21/33 26/22/63
f 26/22/63 27/21/33 32/18/65
f 12/166/60 31/173/66 27/175/33
f 27/21/33 31/19/66 32/18/65
f 31/173/34 12/166/47 30/168/35
f 91/172/77 30/168/35 89/165/48
f 12/166/47 89/165/48 30/168/35
f 2/28/78 18/25/20 86/26/79
f 18/25/20 26/22/32 86/26/79
f 86/26/79 26/22/32 91/27/77
f 26/41/32 32/42/69 91/43/77
f 91/43/77 32/42/69 30/44/68
f 57/81/80 56/78/81 54/86/82 62/87/83
f 37/187/84 34/186/85 15/188/86
f 50/84/87 49/91/88 48/92/89 47/75/90
f 20/3/71 21/4/21 19/2/72
f 2/65/78 45/63/5 18/61/20
f 18/61/20 45/63/5 21/62/21
f 45/63/5 46/66/4 21/62/21
f 21/192/21 46/193/4 19/194/72
f 2/65/78 7/67/91 45/63/5
f 7/67/91 41/70/2 45/63/5
f 41/70/2 44/71/1 45/63/5
f 43/68/6 45/63/5 44/71/1
f 1/154/92 6/156/93 7/155/94
f 7/155/94 6/156/93 41/158/2
f 6/156/93 40/160/3 41/158/2
f 3/74/95 42/69/7 6/73/96
f 6/73/96 42/69/7 40/72/3
f 40/72/3 42/69/7 44/71/1
f 42/69/7 43/68/6 44/71/1
f 20/3/75 22/5/74 21/4/64
f 25/7/62 21/4/64 24/6/25
f 24/122/25 21/62/64 23/105/26
f 21/62/64 22/124/74 23/105/26
f 48/45/89 49/48/88 22/46/74
f 49/48/88 23/51/26 22/46/74
f 3/74/95 47/75/90 42/69/7
f 47/50/90 48/45/89 42/47/7
f 48/45/89 22/46/23 42/47/7
f 42/47/7 22/46/23 46/49/4
f 46/49/4 22/46/23 19/52/22
f 73/82/97 74/79/98 70/77/99 71/83/100
f 60/85/101 55/80/102 52/76/103
f 6/73/96 52/76/103 3/74/95
f 3/74/95 52/76/103 56/78/81
f 52/76/103 55/80/102 56/78/81
f 54/86/82 56/78/81 55/80/102
f 1/154/92 35/157/104 6/156/93
f 6/156/93 35/157/104 52/159/103
f 69/163/10 59/162/9 35/157/104
f 52/159/103 35/157/104 60/161/101
f 35/157/104 59/162/9 60/161/101
f 51/107/11 69/106/10 35/112/104 4/113/105
f 66/102/106 61/93/107 67/101/108 53/108/109
f 67/101/108 61/93/107 68/97/8
f 55/80/102 60/85/101 54/86/82
f 61/93/107 62/87/83 68/97/8
f 68/97/8 62/87/83 59/96/9
f 59/96/9 62/87/83 60/85/101
f 62/87/83 54/86/82 60/85/101
f 67/101/108 68/97/8 53/108/109
f 4/113/110 53/108/109 51/107/11
f 53/108/109 68/97/8 51/107/11
f 64/55/111 63/58/112 65/59/113 58/56/114
f 79/181/115 77/183/116 81/185/117
f 81/103/117 77/99/116 80/89/118
f 77/99/116 72/88/119 80/89/118
f 65/109/113 63/98/112 66/102/106
f 66/102/106 63/98/112 61/93/107
f 10/94/120 57/81/80 63/98/112
f 63/98/112 57/81/80 61/93/107
f 57/81/80 62/87/83 61/93/107
f 4/113/110 58/114/114 53/108/109
f 53/108/109 58/114/114 66/102/106
f 58/114/114 65/109/113 66/102/106
f 4/53/40 33/54/39 64/55/111 58/56/114
f 85/179/121 84/180/122 82/176/123 83/177/124
f 37/10/125 15/1/86 38/12/38
f 38/120/38 15/117/86 33/104/39
f 80/89/118 33/104/39 81/103/117
f 81/103/117 33/104/39 34/115/85
f 15/117/86 34/115/85 33/104/39
f 78/100/126 76/95/127 75/90/128
f 10/94/129 71/83/100 57/81/80
f 71/83/100 70/77/99 57/81/80
f 3/74/95 56/78/81 70/77/99
f 70/77/99 56/78/81 57/81/80
f 64/111/111 33/104/39 63/98/112
f 33/104/39 80/89/118 63/98/112
f 63/98/112 80/89/118 10/94/130
f 10/94/130 80/89/118 71/83/100
f 71/83/100 80/89/118 73/82/97
f 80/89/118 72/88/119 73/82/97
f 28/116/37 23/105/26 14/110/131
f 14/110/131 23/105/26 78/100/126
f 23/105/26 49/91/88 78/100/126
f 78/100/126 49/91/88 76/95/127
f 49/91/88 50/84/87 76/95/127
f 3/74/95 70/77/99 47/75/90
f 70/77/99 74/79/98 47/75/90
f 47/75/90 74/79/98 50/84/87
f 74/79/98 75/90/128 50/84/87
f 50/84/87 75/90/128 76/95/127
f 73/82/97 72/88/119 74/79/98
f 74/79/98 72/88/119 75/90/128
f 75/90/128 72/88/119 78/100/126
f 72/88/119 77/99/116 78/100/126
f 77/99/116 14/110/132 78/100/126
f 38/11/51 39/13/50 37/9/84
f 85/179/121 79/181/115 84/180/122
f 37/187/84 39/184/50 34/186/85
f 84/180/122 79/181/115 39/184/50
f 39/184/50 79/181/115 34/186/85
f 79/118/115 81/103/117 34/115/85
f 11/141/133 16/138/134 36/133/55
f 36/133/55 16/138/134 39/136/56
f 39/136/56 16/138/134 84/142/122
f 16/138/134 82/143/123 84/142/122
f 28/182/37 14/178/131 29/174/49
f 14/178/131 83/177/124 29/174/49
f 16/171/58 29/174/49 82/176/123
f 29/174/49 83/177/124 82/176/123
f 85/179/121 83/177/124 79/181/115
f 83/177/124 14/178/132 79/181/115
f 14/178/132 77/183/116 79/181/115
f 86/26/79 91/27/77 87/29/54
f 90/164/45 87/167/54 89/165/48
f 87/167/54 91/172/77 89/165/48
s 9
f 35/132/41 1/135/29 36/133/42
f 1/135/29 88/137/28 36/133/42
f 88/137/28 87/140/31 36/133/42
f 87/189/31 11/190/135 36/191/42
s 1
f 2/28/78 86/26/79 94/30/18
f 11/33/136 98/31/15 87/29/54
f 94/30/18 86/26/79 98/31/15
f 98/31/15 86/26/79 87/29/54
f 1/144/137 97/145/16 98/146/15 11/147/138
f 1/144/137 93/148/13 97/145/16
f 93/148/13 96/149/12 97/145/16
f 95/150/17 97/145/16 96/149/12
f 1/154/92 7/155/94 92/153/14 93/152/13
f 7/37/91 2/28/78 92/32/14
f 2/28/78 94/30/18 92/32/14
f 92/32/14 94/30/18 96/36/12
f 94/30/18 95/35/17 96/36/12
