# This file uses centimeters as units for non-parametric coordinates.

mtllib rubble M.mtl
g default
v 3.941934 0.153426 6.378181
v -1.773870 10.384640 -9.869386
v 1.777122 12.173066 -5.915124
v -8.789868 10.886477 -6.378181
v 0.394193 16.928434 -0.837157
v -7.449933 14.379722 -0.837157
v 12.853340 8.674558 3.189090
v 12.147299 5.623502 3.189090
v 11.258795 9.833063 6.378181
v 9.533688 2.293981 6.018155
v 10.744262 6.572248 8.613229
v 5.536478 18.471519 3.189090
v 7.222514 15.053042 7.394929
v 0.376420 18.471519 6.378181
v 2.956449 16.597019 8.349147
v 2.410043 19.112289 4.100054
v 7.740086 13.121503 -8.349147
v 10.320114 11.247003 -6.378181
v -10.929176 13.121502 3.189090
v -9.602569 14.999596 4.943090
v 10.776911 13.590128 -3.986363
v -7.645980 15.864882 6.378181
v -10.320114 11.247002 6.378181
v 6.034065 7.498003 11.764476
v -7.740086 13.121502 8.349147
v -2.580029 9.372502 12.291079
v -2.580028 5.623502 12.291079
v 0.985484 4.200911 11.409548
v 8.715633 14.999597 -6.378181
v 9.152343 16.635319 -0.269093
v 1.445154 9.074812 12.783820
v -0.443467 8.345121 -12.669861
v -3.189090 7.498002 -12.291079
v -9.567270 7.498002 -8.349147
v -11.764738 8.345120 -6.378181
v -0.985483 5.661859 -12.291079
v -10.725512 5.661858 -7.142400
v 4.776810 5.623502 -12.291079
v 7.740085 1.874501 -8.349147
v 6.754601 0.038357 -6.378181
v -12.299564 8.903876 -3.986363
v -12.147299 6.334122 -1.690997
v 8.725569 0.038357 -3.189090
v 10.776910 1.405876 -3.986363
v 1.935021 8.903877 -12.783820
v 10.320113 2.811751 -6.378181
v -5.594639 1.530534 -6.378181
v -5.536479 0.115069 -3.189090
v -1.970967 0.153426 -3.189090
v -3.202821 2.231129 -8.383043
v -1.267800 0.124659 -6.378181
v -10.776910 3.083714 3.986363
v -10.710624 5.059319 6.378181
v -6.754601 0.038356 6.378181
v -8.385092 1.405875 7.856405
v -9.124205 0.028767 2.667628
v -9.030100 12.184252 7.363664
v -5.482560 3.514688 10.073742
v -7.256330 7.849470 8.718702
v -12.306271 5.642679 -4.783635
v -7.986892 0.071918 -1.373722
v 2.743401 0.081508 -6.378181
v 0.797272 5.642680 -12.291079
v 2.177136 1.699642 -8.098657
vt 0.799392 0.859079
vt 0.720872 0.799594
vt 0.777783 0.799594
vt 0.738569 0.900769
vt 0.658767 0.852364
vt 0.642201 0.665751
vt 0.668425 0.621137
vt 0.869472 0.665751
vt 0.926273 0.735089
vt 0.616693 0.680623
vt 0.896759 0.878045
vt 0.755837 0.959549
vt 0.616693 0.621137
vt 0.650942 0.584373
vt 0.825766 0.621137
vt 0.895762 0.621137
vt 0.960524 0.799594
vt 0.720872 0.510845
vt 0.860731 0.584373
vt 0.782060 0.501654
vt 0.433244 0.780841
vt 0.481177 0.823656
vt 0.470755 0.868270
vt 0.420347 0.838528
vt 0.524883 0.630328
vt 0.559848 0.689814
vt 0.518158 0.868270
vt 0.454954 0.905035
vt 0.420705 0.882525
vt 0.316436 0.774923
vt 0.315632 0.699541
vt 0.372615 0.674942
vt 0.409466 0.630328
vt 0.542366 0.611946
vt 0.594880 0.657097
vt 0.595081 0.737402
vt 0.341318 0.602755
vt 0.461510 0.586671
vt 0.559848 0.593564
vt 0.611020 0.630328
vt 0.315810 0.630328
vt 0.380654 0.561396
vt 0.489919 0.520036
vt 0.419989 0.520036
vt 0.119960 0.265994
vt 0.292070 0.388224
vt 0.225834 0.461983
vt 0.094966 0.396862
vt 0.266275 0.265994
vt 0.295016 0.516345
vt 0.250650 0.514219
vt 0.080465 0.433626
vt 0.039477 0.396862
vt 0.079807 0.185688
vt 0.116303 0.158920
vt 0.429639 0.282910
vt 0.421493 0.396862
vt 0.199437 0.507154
vt 0.403296 0.433626
vt 0.265943 0.158920
vt 0.303876 0.201413
vt 0.362193 0.218405
vt 0.314068 0.122156
vt 0.114548 0.122156
vt 0.210797 0.048627
vt 0.285878 0.039436
vt 0.393642 0.139954
vt 0.828456 0.209214
vt 0.843530 0.380955
vt 0.739228 0.387671
vt 0.684082 0.481520
vt 0.716872 0.149729
vt 0.791692 0.149729
vt 0.866111 0.429361
vt 0.778252 0.488140
vt 0.563435 0.456603
vt 0.617575 0.497963
vt 0.628936 0.209214
vt 0.642052 0.149729
vt 0.706310 0.117637
vt 0.810074 0.112965
vt 0.509294 0.415244
vt 0.539708 0.387671
vt 0.561344 0.149729
vt 0.605958 0.112332
vt 0.562429 0.209214
vt 0.516722 0.243076
vt 0.680571 0.039436
vt 0.754801 0.039436
vt 0.495508 0.318458
vt 0.465639 0.135474
vt 0.647318 0.039436
vt 0.436153 0.179471
vt 0.297900 0.532094
vt 0.297542 0.606324
vt 0.297185 0.639577
vt 0.262935 0.680681
vt 0.297185 0.821256
vt 0.262935 0.799652
vt 0.247134 0.629467
vt 0.236712 0.585101
vt 0.135332 0.610948
vt 0.060251 0.546571
vt 0.126758 0.520036
vt 0.220928 0.581536
vt 0.060251 0.616501
vt 0.243096 0.722459
vt 0.163522 0.751258
vn -0.325077 0.871329 -0.367575
vn -0.165128 0.851369 -0.497900
vn -0.150744 0.841983 -0.518016
vn -0.310576 0.799728 -0.513788
vn 0.811041 0.368110 0.454652
vn 0.928820 -0.359596 0.089351
vn 0.980782 0.193236 -0.026939
vn -0.094387 0.987780 -0.124026
vn -0.243411 0.923557 0.296299
vn 0.093842 0.588560 0.802989
vn 0.442755 0.896581 0.010538
vn 0.523471 0.844424 -0.113691
vn 0.957136 0.234736 -0.169678
vn -0.001937 0.844389 -0.535727
vn -0.506708 0.857250 -0.091486
vn -0.664014 0.125220 0.737161
vn -0.353081 0.420838 0.835601
vn -0.347102 0.905533 0.243988
vn 0.861211 -0.172206 -0.478185
vn 0.854025 -0.511994 -0.092211
vn 0.354989 -0.934847 0.006663
vn 0.112758 -0.971811 -0.207047
vn 0.553558 -0.392446 -0.734547
vn 0.459668 -0.227593 -0.858433
vn -0.015391 -0.627155 -0.778742
vn -0.209189 -0.569442 -0.794969
vn -0.443547 0.224209 -0.867754
vn -0.196777 0.877869 -0.436606
vn 0.075329 0.346761 0.934924
vn -0.236811 -0.434004 0.869230
vn 0.115340 -0.607372 0.786000
vn 0.433785 -0.059967 0.899019
vn 0.576747 -0.685592 0.444214
vn 0.669748 -0.176298 0.721357
vn 0.586118 0.543095 0.601260
vn -0.977954 -0.194063 0.077110
vn -0.884701 0.448424 -0.127358
vn -0.686209 0.514955 -0.513749
vn -0.781934 -0.544720 -0.303081
vn 0.166721 0.510501 -0.843560
vn 0.157748 0.650311 -0.743109
vn -0.895445 0.443615 -0.037215
vn -0.489206 0.161737 -0.857041
vn 0.361616 -0.912389 0.191781
vn -0.077011 -0.972110 -0.221522
vn -0.021421 -0.999279 -0.031345
vn -0.400588 -0.715400 -0.572478
vn -0.290589 -0.685777 -0.667284
vn 0.878635 0.062933 -0.473329
vn -0.010757 -0.999920 0.006648
vn -0.010757 -0.999920 0.006648
vn -0.957044 -0.233564 0.171796
vn -0.387920 -0.559739 0.732264
vn -0.894916 -0.024764 0.445548
vn -0.520857 -0.560583 -0.643782
vn -0.014040 -0.723374 -0.690314
vn -0.014954 -0.727748 -0.685681
vn 0.011313 -0.999914 -0.006600
vn 0.011309 -0.999915 -0.006540
vn -0.080196 -0.948492 0.306483
vn -0.312851 -0.949644 0.017325
vn -0.016426 -0.742927 0.669171
vn -0.025881 -0.747883 0.663326
vn -0.595688 0.004171 0.803205
vn -0.898884 0.071538 0.432309
vn -0.267260 0.417835 0.868324
vn -0.592419 -0.004033 0.805620
vn -0.702379 -0.661769 -0.262157
vn -0.142344 -0.975302 -0.168892
vn 0.294735 -0.652518 0.698106
vn -0.151458 0.523000 -0.838768
s 1
g rubble1
usemtl rubble_1
f 6/45/1 3/46/2 2/47/3 4/48/4
f 9/1/5 8/2/6 7/3/7
f 16/61/8 14/60/9 15/63/10 12/62/11
f 30/9/12 21/8/13 29/16/14
f 20/35/15 57/34/16 25/39/17 22/40/18
f 21/8/13 30/9/12 9/1/5 7/3/7
f 46/7/19 44/6/20 43/10/21 40/13/22 39/14/23
f 38/94/24 63/95/25 36/96/26 33/97/27
f 30/56/12 29/57/14 3/46/2 5/49/28
f 31/102/29 27/103/30 28/104/31 24/105/32
f 5/49/28 6/45/1 20/54/15 22/55/18
f 15/63/10 14/60/9 22/55/18 25/64/17
f 28/71/31 10/69/33 11/74/34 24/75/32
f 24/105/32 13/107/35 15/108/10 31/102/29
f 42/21/36 41/22/37 35/23/38 60/24/39
f 45/50/40 3/46/2 29/57/14 17/59/41
f 6/36/1 4/27/4 19/26/42 20/35/15
f 2/47/3 34/52/43 35/53/38 4/48/4
f 44/6/20 46/7/19 7/3/7 8/2/6
f 43/68/21 10/69/33 1/70/44
f 51/79/45 49/78/46 47/84/47 50/85/48
f 38/18/24 45/20/40 17/19/41 18/15/49
f 1/70/50 62/72/51 40/73/22 43/68/21
f 52/32/52 55/37/53 53/33/54
f 37/91/55 36/92/26 50/85/48 47/84/47
f 62/72/56 64/80/57 39/81/23 40/73/22
f 61/87/58 1/70/59 54/83/60 56/90/61
f 58/76/62 1/70/63 28/71/31 27/77/30
f 53/33/54 59/38/64 57/34/16 23/25/65
f 41/22/37 42/21/36 23/25/65 19/26/42
f 42/21/36 56/31/61 52/32/52
f 23/25/65 57/34/16 20/35/15 19/26/42
f 25/39/17 57/34/16 59/38/64 26/43/66
f 58/42/67 59/38/64 53/33/54 55/37/53
f 26/43/66 59/38/64 58/42/67 27/44/30
f 15/63/10 25/64/17 26/65/66 31/66/29
f 23/25/65 42/21/36 52/32/52 53/33/54
f 60/24/39 35/23/38 34/28/43 37/29/55
f 61/87/68 60/93/39 37/91/55 48/86/69
f 48/86/69 37/91/55 47/84/47
f 42/21/36 60/24/39 61/30/68 56/31/61
f 55/82/53 54/83/60 1/70/63 58/76/62
f 1/70/70 10/69/33 28/71/31
f 43/10/21 44/6/20 8/2/6 10/5/33
f 49/78/46 51/79/45 62/72/51 1/70/50
f 50/85/48 64/80/57 62/72/56 51/79/45
f 48/86/69 49/78/46 1/70/59 61/87/58
f 36/92/26 63/88/25 64/80/57 50/85/48
f 39/81/23 64/80/57 63/88/25 38/89/24
f 47/84/47 49/78/46 48/86/69
f 33/97/27 36/96/26 37/98/55 34/99/43
f 38/18/24 18/15/49 46/7/19 39/14/23
f 7/3/7 46/7/19 18/15/49 21/8/13
f 9/1/5 30/9/12 12/17/11 13/11/35
f 11/4/34 9/1/5 13/11/35 24/12/32
f 6/45/1 5/49/28 3/46/2
f 30/56/12 5/49/28 16/61/8 12/62/11
f 5/49/28 22/55/18 14/60/9 16/61/8
f 19/26/42 4/27/4 35/23/38 41/22/37
f 45/50/40 32/51/71 2/47/3 3/46/2
f 32/51/71 33/58/27 34/52/43 2/47/3
f 29/16/14 21/8/13 18/15/49 17/19/41
f 12/62/11 15/63/10 13/67/35
f 11/4/34 10/5/33 8/2/6 9/1/5
f 31/102/29 26/106/66 27/103/30
f 56/31/61 54/41/60 55/37/53 52/32/52
f 38/94/24 33/97/27 32/100/71 45/101/40
