# Blender 4.5.3 LTS
# www.blender.org
o SwitchFlipper
v 0.011250 0.020079 -0.010153
v 0.011250 0.015959 -0.015861
v 0.011250 0.010277 -0.020016
v 0.011250 0.003589 -0.022212
v 0.011250 -0.003451 -0.022234
v 0.011250 -0.010153 -0.020079
v 0.011250 -0.015861 -0.015959
v 0.011250 -0.020016 -0.010277
v 0.011250 -0.022212 -0.003589
v 0.011250 -0.022234 0.003451
v 0.011250 -0.020079 0.010153
v 0.011250 -0.015959 0.015861
v 0.011250 -0.010277 0.020016
v 0.011250 -0.003589 0.022212
v 0.011250 0.003451 0.022234
v 0.011250 0.010153 0.020079
v 0.011250 0.015861 0.015959
v 0.011250 0.020016 0.010277
v 0.011250 0.022212 0.003589
v 0.011250 0.022234 -0.003451
v -0.011250 0.020079 -0.010153
v -0.011250 0.015959 -0.015861
v -0.011250 0.010277 -0.020016
v -0.011250 0.003589 -0.022212
v -0.011250 -0.003451 -0.022234
v -0.011250 -0.010153 -0.020079
v -0.011250 -0.015861 -0.015959
v -0.011250 -0.020016 -0.010277
v -0.011250 -0.022212 -0.003589
v -0.011250 -0.022234 0.003451
v -0.011250 -0.020079 0.010153
v -0.011250 -0.015959 0.015861
v -0.011250 -0.010277 0.020016
v -0.011250 -0.003589 0.022212
v -0.011250 0.003451 0.022234
v -0.011250 0.010153 0.020079
v -0.011250 0.015861 0.015959
v -0.011250 0.020016 0.010277
v -0.011250 0.022212 0.003589
v -0.011250 0.022234 -0.003451
v 0.011250 0.000000 0.000000
v -0.011250 0.000000 0.000000
v 0.011250 0.040212 0.003644
v 0.011250 0.040234 -0.003395
v -0.011250 0.040234 -0.003395
v -0.011250 0.040212 0.003644
vn -0.0000 0.8924 -0.4512
vn -0.0000 0.7093 -0.7049
vn -0.0000 0.4567 -0.8896
vn -0.0000 0.1595 -0.9872
vn -0.0000 -0.1534 -0.9882
vn -0.0000 -0.4512 -0.8924
vn -0.0000 -0.7049 -0.7093
vn -0.0000 -0.8896 -0.4567
vn -0.0000 -0.9872 -0.1595
vn -0.0000 -0.9882 0.1534
vn -0.0000 -0.8924 0.4512
vn -0.0000 -0.7093 0.7049
vn -0.0000 -0.4567 0.8896
vn -0.0000 -0.1595 0.9872
vn -0.0000 0.1534 0.9882
vn -0.0000 0.4512 0.8924
vn -0.0000 0.7049 0.7093
vn -0.0000 0.8896 0.4567
vn -0.0000 0.9501 0.3120
vn -0.0000 1.0000 0.0031
vn -0.0000 0.9520 -0.3061
vn 1.0000 -0.0000 -0.0000
vn -1.0000 -0.0000 -0.0000
vn -0.0000 0.0031 -1.0000
vn -0.0000 -0.0031 1.0000
vt 0.021045 0.027562
vt 0.046632 0.027562
vt 0.046632 0.795164
vt 0.021045 0.795164
vt 0.072219 0.027562
vt 0.072219 0.795164
vt 0.097806 0.027562
vt 0.097806 0.795164
vt 0.123392 0.027562
vt 0.123392 0.795164
vt 0.148979 0.027562
vt 0.148979 0.795164
vt 0.174566 0.027562
vt 0.174566 0.795164
vt 0.200152 0.027562
vt 0.200152 0.795164
vt 0.225739 0.027562
vt 0.225739 0.795164
vt 0.251326 0.027562
vt 0.251326 0.795164
vt 0.276913 0.027562
vt 0.276913 0.795164
vt 0.302499 0.027562
vt 0.302499 0.795164
vt 0.328086 0.027562
vt 0.328086 0.795164
vt 0.353673 0.027562
vt 0.353673 0.795164
vt 0.379259 0.027562
vt 0.379259 0.795164
vt 0.404846 0.027562
vt 0.404846 0.795164
vt 0.430433 0.027562
vt 0.430433 0.795164
vt 0.456019 0.027562
vt 0.456019 0.795164
vt 0.481606 0.027562
vt 0.481606 0.795164
vt 0.507193 0.027562
vt 0.507193 0.795164
vt 0.532780 0.027562
vt 0.532780 0.795164
vt 0.980621 0.722073
vt 0.959661 0.786580
vt 0.766499 0.688160
vt 0.980621 0.654246
vt 0.959661 0.589739
vt 0.919793 0.534866
vt 0.864920 0.494998
vt 0.800413 0.474038
vt 0.732586 0.474038
vt 0.668079 0.494998
vt 0.613205 0.534866
vt 0.573338 0.589739
vt 0.552378 0.654246
vt 0.552378 0.722073
vt 0.573338 0.786581
vt 0.613206 0.841454
vt 0.668079 0.881321
vt 0.732586 0.902281
vt 0.800413 0.902281
vt 0.864920 0.881321
vt 0.919793 0.841454
vt 0.864920 0.434845
vt 0.800413 0.455804
vt 0.766499 0.241683
vt 0.732586 0.455804
vt 0.668079 0.434844
vt 0.613205 0.394977
vt 0.573338 0.340104
vt 0.552378 0.275596
vt 0.552378 0.207769
vt 0.573338 0.143262
vt 0.613205 0.088389
vt 0.668079 0.048521
vt 0.732586 0.027562
vt 0.800413 0.027562
vt 0.864920 0.048521
vt 0.919793 0.088389
vt 0.959661 0.143262
vt 0.980621 0.207769
vt 0.980621 0.275596
vt 0.959661 0.340104
vt 0.919793 0.394977
s 1
f 1/1/1 2/2/2 22/3/2 21/4/1
f 2/2/2 3/5/3 23/6/3 22/3/2
f 3/5/3 4/7/4 24/8/4 23/6/3
f 4/7/4 5/9/5 25/10/5 24/8/4
f 5/9/5 6/11/6 26/12/6 25/10/5
f 6/11/6 7/13/7 27/14/7 26/12/6
f 7/13/7 8/15/8 28/16/8 27/14/7
f 8/15/8 9/17/9 29/18/9 28/16/8
f 9/17/9 10/19/10 30/20/10 29/18/9
f 10/19/10 11/21/11 31/22/11 30/20/10
f 11/21/11 12/23/12 32/24/12 31/22/11
f 12/23/12 13/25/13 33/26/13 32/24/12
f 13/25/13 14/27/14 34/28/14 33/26/13
f 14/27/14 15/29/15 35/30/15 34/28/14
f 15/29/15 16/31/16 36/32/16 35/30/15
f 16/31/16 17/33/17 37/34/17 36/32/16
f 17/33/17 18/35/18 38/36/18 37/34/17
f 18/35/18 19/37/19 39/38/19 38/36/18
f 43/37/20 44/39/20 45/40/20 46/38/20
f 20/39/21 1/41/1 21/42/1 40/40/21
f 2/43/22 1/44/22 41/45/22
f 3/46/22 2/43/22 41/45/22
f 4/47/22 3/46/22 41/45/22
f 5/48/22 4/47/22 41/45/22
f 6/49/22 5/48/22 41/45/22
f 7/50/22 6/49/22 41/45/22
f 8/51/22 7/50/22 41/45/22
f 9/52/22 8/51/22 41/45/22
f 10/53/22 9/52/22 41/45/22
f 11/54/22 10/53/22 41/45/22
f 12/55/22 11/54/22 41/45/22
f 13/56/22 12/55/22 41/45/22
f 14/57/22 13/56/22 41/45/22
f 15/58/22 14/57/22 41/45/22
f 16/59/22 15/58/22 41/45/22
f 17/60/22 16/59/22 41/45/22
f 18/61/22 17/60/22 41/45/22
f 19/62/22 18/61/22 41/45/22
f 20/63/22 19/62/22 41/45/22
f 1/44/22 20/63/22 41/45/22
f 21/64/23 22/65/23 42/66/23
f 22/65/23 23/67/23 42/66/23
f 23/67/23 24/68/23 42/66/23
f 24/68/23 25/69/23 42/66/23
f 25/69/23 26/70/23 42/66/23
f 26/70/23 27/71/23 42/66/23
f 27/71/23 28/72/23 42/66/23
f 28/72/23 29/73/23 42/66/23
f 29/73/23 30/74/23 42/66/23
f 30/74/23 31/75/23 42/66/23
f 31/75/23 32/76/23 42/66/23
f 32/76/23 33/77/23 42/66/23
f 33/77/23 34/78/23 42/66/23
f 34/78/23 35/79/23 42/66/23
f 35/79/23 36/80/23 42/66/23
f 36/80/23 37/81/23 42/66/23
f 37/81/23 38/82/23 42/66/23
f 38/82/23 39/83/23 42/66/23
f 39/83/23 40/84/23 42/66/23
f 40/84/23 21/64/23 42/66/23
f 19/37/22 20/39/22 44/39/22 43/37/22
f 20/39/24 40/40/24 45/40/24 44/39/24
f 40/40/23 39/38/23 46/38/23 45/40/23
f 39/38/25 19/37/25 43/37/25 46/38/25
