# Blender 4.5.3 LTS
# www.blender.org
o TrainTrackPast
v -0.559524 0.077646 -3.808768
v -0.680496 0.077646 -3.808768
v -0.559524 0.119510 -3.808768
v -0.600154 0.119510 -3.808768
v -0.559524 0.119510 -3.734056
v -0.600154 0.119510 -3.734056
v -0.559524 0.077646 -3.734056
v -0.680496 0.077646 -3.734056
v -0.559524 0.077646 -3.048768
v -0.680496 0.077646 -3.048768
v -0.559524 0.119510 -3.048768
v -0.600154 0.119510 -3.048768
v -0.559524 0.119510 -2.974056
v -0.600154 0.119510 -2.974056
v -0.559524 0.077646 -2.974056
v -0.680496 0.077646 -2.974056
v -0.559524 0.077646 -2.283380
v -0.680496 0.077646 -2.283380
v -0.559524 0.119510 -2.283380
v -0.600154 0.119510 -2.283380
v -0.559524 0.119510 -2.208666
v -0.600154 0.119510 -2.208666
v -0.559524 0.077646 -2.208666
v -0.680496 0.077646 -2.208666
v -0.559524 0.077646 -1.535928
v -0.680496 0.077646 -1.535928
v -0.559524 0.119510 -1.535928
v -0.600154 0.119510 -1.535928
v -0.559524 0.119510 -1.461216
v -0.600154 0.119510 -1.461216
v -0.559524 0.077646 -1.461216
v -0.680496 0.077646 -1.461216
v -0.559524 0.077646 -0.777348
v -0.680496 0.077646 -0.777348
v -0.559524 0.119510 -0.777348
v -0.600154 0.119510 -0.777348
v -0.559524 0.119510 -0.702636
v -0.600154 0.119510 -0.702636
v -0.559524 0.077646 -0.702636
v -0.680496 0.077646 -0.702636
v -0.559524 0.077646 -0.035780
v -0.680496 0.077646 -0.035780
v -0.559524 0.119510 -0.035780
v -0.600154 0.119510 -0.035780
v -0.559524 0.119510 0.038934
v -0.600154 0.119510 0.038934
v -0.559524 0.077646 0.038934
v -0.680496 0.077646 0.038934
v -0.559524 0.077646 0.722800
v -0.680496 0.077646 0.722800
v -0.559524 0.119510 0.722800
v -0.600154 0.119510 0.722800
v -0.559524 0.119510 0.797512
v -0.600154 0.119510 0.797512
v -0.559524 0.077646 0.797512
v -0.680496 0.077646 0.797512
v -0.559524 0.077646 1.481380
v -0.680496 0.077646 1.481380
v -0.559524 0.119510 1.481380
v -0.600154 0.119510 1.481380
v -0.559524 0.119510 1.556092
v -0.600154 0.119510 1.556092
v -0.559524 0.077646 1.556092
v -0.680496 0.077646 1.556092
v -0.559524 0.077646 2.239958
v -0.680496 0.077646 2.239958
v -0.559524 0.119510 2.239958
v -0.600154 0.119510 2.239958
v -0.559524 0.119510 2.314672
v -0.600154 0.119510 2.314672
v -0.559524 0.077646 2.314672
v -0.680496 0.077646 2.314672
v -0.559524 0.077646 2.998538
v -0.680496 0.077646 2.998538
v -0.559524 0.119510 2.998538
v -0.600154 0.119510 2.998538
v -0.559524 0.119510 3.073250
v -0.600154 0.119510 3.073250
v -0.559524 0.077646 3.073250
v -0.680496 0.077646 3.073250
v -0.559524 0.077646 3.757118
v -0.680496 0.077646 3.757118
v -0.559524 0.119510 3.757118
v -0.600154 0.119510 3.757118
v -0.559524 0.119510 3.831830
v -0.600154 0.119510 3.831830
v -0.559524 0.077646 3.831830
v -0.680496 0.077646 3.831830
v 0.389962 0.077646 -3.734056
v 0.510934 0.077646 -3.734056
v 0.389962 0.119510 -3.734056
v 0.430592 0.119510 -3.734056
v 0.389962 0.119510 -3.808768
v 0.430592 0.119510 -3.808768
v 0.389962 0.077646 -3.808768
v 0.510934 0.077646 -3.808768
v 0.389962 0.077646 -2.974056
v 0.510934 0.077646 -2.974056
v 0.389962 0.119510 -2.974056
v 0.430592 0.119510 -2.974056
v 0.389962 0.119510 -3.048768
v 0.430592 0.119510 -3.048768
v 0.389962 0.077646 -3.048768
v 0.510934 0.077646 -3.048768
v 0.389962 0.077646 -2.208666
v 0.510934 0.077646 -2.208666
v 0.389962 0.119510 -2.208666
v 0.430592 0.119510 -2.208666
v 0.389962 0.119510 -2.283380
v 0.430592 0.119510 -2.283380
v 0.389962 0.077646 -2.283380
v 0.510934 0.077646 -2.283380
v 0.389962 0.077646 -1.461216
v 0.510934 0.077646 -1.461216
v 0.389962 0.119510 -1.461216
v 0.430592 0.119510 -1.461216
v 0.389962 0.119510 -1.535928
v 0.430592 0.119510 -1.535928
v 0.389962 0.077646 -1.535928
v 0.510934 0.077646 -1.535928
v 0.389962 0.077646 -0.702636
v 0.510934 0.077646 -0.702636
v 0.389962 0.119510 -0.702636
v 0.430592 0.119510 -0.702636
v 0.389962 0.119510 -0.777348
v 0.430592 0.119510 -0.777348
v 0.389962 0.077646 -0.777348
v 0.510934 0.077646 -0.777348
v 0.389962 0.077646 0.038934
v 0.510934 0.077646 0.038934
v 0.389962 0.119510 0.038934
v 0.430592 0.119510 0.038934
v 0.389962 0.119510 -0.035780
v 0.430592 0.119510 -0.035780
v 0.389962 0.077646 -0.035780
v 0.510934 0.077646 -0.035780
v 0.389962 0.077646 0.797512
v 0.510934 0.077646 0.797512
v 0.389962 0.119510 0.797512
v 0.430592 0.119510 0.797512
v 0.389962 0.119510 0.722800
v 0.430592 0.119510 0.722800
v 0.389962 0.077646 0.722800
v 0.510934 0.077646 0.722800
v 0.389962 0.077646 1.556092
v 0.510934 0.077646 1.556092
v 0.389962 0.119510 1.556092
v 0.430592 0.119510 1.556092
v 0.389962 0.119510 1.481380
v 0.430592 0.119510 1.481380
v 0.389962 0.077646 1.481380
v 0.510934 0.077646 1.481380
v 0.389962 0.077646 2.314672
v 0.510934 0.077646 2.314672
v 0.389962 0.119510 2.314672
v 0.430592 0.119510 2.314672
v 0.389962 0.119510 2.239958
v 0.430592 0.119510 2.239958
v 0.389962 0.077646 2.239958
v 0.510934 0.077646 2.239958
v 0.389962 0.077646 3.073250
v 0.510934 0.077646 3.073250
v 0.389962 0.119510 3.073250
v 0.430592 0.119510 3.073250
v 0.389962 0.119510 2.998538
v 0.430592 0.119510 2.998538
v 0.389962 0.077646 2.998538
v 0.510934 0.077646 2.998538
v 0.389962 0.077646 3.831830
v 0.510934 0.077646 3.831830
v 0.389962 0.119510 3.831830
v 0.430592 0.119510 3.831830
v 0.389962 0.119510 3.757118
v 0.430592 0.119510 3.757118
v 0.389962 0.077646 3.757118
v 0.510934 0.077646 3.757118
v 0.312550 0.077646 4.184492
v 0.390196 0.077646 4.184492
v 0.312550 0.155292 4.184492
v 0.390196 0.155292 4.184492
v 0.312550 0.155292 -4.162406
v 0.390196 0.155292 -4.162406
v 0.312550 0.077646 -4.162406
v 0.390196 0.077646 -4.162406
v -0.557818 0.077646 4.184492
v -0.480172 0.077646 4.184492
v -0.557818 0.155292 4.184492
v -0.480172 0.155292 4.184492
v -0.557818 0.155292 -4.162406
v -0.480172 0.155292 -4.162406
v -0.557818 0.077646 -4.162406
v -0.480172 0.077646 -4.162406
v -0.769754 -0.000000 -3.572470
v 0.589044 -0.000000 -3.572470
v -0.716174 0.077646 -3.572470
v 0.535464 0.077646 -3.572470
v -0.716174 0.077646 -3.960698
v 0.535464 0.077646 -3.960698
v -0.769754 -0.000000 -3.960698
v 0.589044 -0.000000 -3.960698
v -0.769754 -0.000000 -2.817572
v 0.589044 -0.000000 -2.817572
v -0.716174 0.077646 -2.817572
v 0.535464 0.077646 -2.817572
v -0.716174 0.077646 -3.205800
v 0.535464 0.077646 -3.205800
v -0.769754 -0.000000 -3.205800
v 0.589044 -0.000000 -3.205800
v -0.769754 -0.000000 -2.062672
v 0.589044 -0.000000 -2.062672
v -0.716174 0.077646 -2.062672
v 0.535464 0.077646 -2.062672
v -0.716174 0.077646 -2.450900
v 0.535464 0.077646 -2.450900
v -0.769754 -0.000000 -2.450900
v 0.589044 -0.000000 -2.450900
v -0.769754 -0.000000 -1.307772
v 0.589044 -0.000000 -1.307772
v -0.716174 0.077646 -1.307772
v 0.535464 0.077646 -1.307772
v -0.716174 0.077646 -1.696000
v 0.535464 0.077646 -1.696000
v -0.769754 -0.000000 -1.696000
v 0.589044 -0.000000 -1.696000
v -0.769754 -0.000000 -0.552872
v 0.589044 -0.000000 -0.552872
v -0.716174 0.077646 -0.552872
v 0.535464 0.077646 -0.552872
v -0.716174 0.077646 -0.941100
v 0.535464 0.077646 -0.941100
v -0.769754 -0.000000 -0.941100
v 0.589044 -0.000000 -0.941100
v -0.769754 0.000000 0.202026
v 0.589044 0.000000 0.202026
v -0.716174 0.077646 0.202026
v 0.535464 0.077646 0.202026
v -0.716174 0.077646 -0.186202
v 0.535464 0.077646 -0.186202
v -0.769754 -0.000000 -0.186202
v 0.589044 -0.000000 -0.186202
v -0.769754 0.000000 0.956926
v 0.589044 0.000000 0.956926
v -0.716174 0.077646 0.956926
v 0.535464 0.077646 0.956926
v -0.716174 0.077646 0.568698
v 0.535464 0.077646 0.568698
v -0.769754 0.000000 0.568698
v 0.589044 0.000000 0.568698
v -0.769754 0.000000 1.711826
v 0.589044 0.000000 1.711826
v -0.716174 0.077646 1.711826
v 0.535464 0.077646 1.711826
v -0.716174 0.077646 1.323598
v 0.535464 0.077646 1.323598
v -0.769754 0.000000 1.323598
v 0.589044 0.000000 1.323598
v -0.769754 0.000000 2.466726
v 0.589044 0.000000 2.466726
v -0.716174 0.077646 2.466726
v 0.535464 0.077646 2.466726
v -0.716174 0.077646 2.078498
v 0.535464 0.077646 2.078498
v -0.769754 0.000000 2.078498
v 0.589044 0.000000 2.078498
v -0.769754 0.000000 3.221626
v 0.589044 0.000000 3.221626
v -0.716174 0.077646 3.221626
v 0.535464 0.077646 3.221626
v -0.716174 0.077646 2.833396
v 0.535464 0.077646 2.833396
v -0.769754 0.000000 2.833396
v 0.589044 0.000000 2.833396
v -0.769754 0.000000 3.976524
v 0.589044 0.000000 3.976524
v -0.716174 0.077646 3.976524
v 0.535464 0.077646 3.976524
v -0.716174 0.077646 3.588296
v 0.535464 0.077646 3.588296
v -0.769754 0.000000 3.588296
v 0.589044 0.000000 3.588296
vn -0.0000 -0.0000 -1.0000
vn -0.0000 1.0000 -0.0000
vn -0.0000 -0.0000 1.0000
vn -0.0000 -1.0000 -0.0000
vn -0.4621 0.8868 -0.0000
vn 1.0000 -0.0000 -0.0000
vn 0.4621 0.8868 -0.0000
vn -1.0000 -0.0000 -0.0000
vn 0.8231 0.5680 -0.0000
vn -0.8231 0.5680 -0.0000
vt 0.278688 0.031298
vt 0.278688 0.044980
vt 0.273953 0.035893
vt 0.273953 0.031298
vt 0.270521 0.031523
vt 0.270521 0.036118
vt 0.262071 0.036118
vt 0.262071 0.031523
vt 0.226129 0.031574
vt 0.226129 0.036169
vt 0.221394 0.045255
vt 0.221394 0.031574
vt 0.250332 0.031495
vt 0.250332 0.045177
vt 0.241882 0.045177
vt 0.241882 0.031495
vt 0.270521 0.046364
vt 0.262071 0.046364
vt 0.253534 0.039980
vt 0.253534 0.031530
vt 0.258269 0.031530
vt 0.258269 0.039980
vt 0.262072 0.046364
vt 0.270521 0.031522
vt 0.270521 0.036117
vt 0.270522 0.046364
vt 0.229809 0.031572
vt 0.238591 0.031572
vt 0.238591 0.040353
vt 0.229809 0.040353
vt 0.056836 0.972003
vt 0.048055 0.972003
vt 0.048055 0.027997
vt 0.056836 0.027997
vt 0.048055 0.027996
vt 0.056836 0.027996
vt 0.238590 0.031572
vt 0.238590 0.040353
vt 0.196532 0.181768
vt 0.196532 0.028092
vt 0.205313 0.034152
vt 0.205313 0.175708
vt 0.076477 0.182190
vt 0.076477 0.040634
vt 0.120384 0.040634
vt 0.120384 0.182190
vt 0.137129 0.183640
vt 0.137129 0.029965
vt 0.181036 0.029965
vt 0.181036 0.183640
vt 0.076477 0.029965
vt 0.120384 0.029965
vt 0.120384 0.192859
vt 0.076477 0.192859
vt 0.196531 0.181768
vt 0.196531 0.028092
vt 0.076464 0.182186
vt 0.076490 0.040630
vt 0.120397 0.040638
vt 0.120371 0.182194
vt 0.076492 0.029961
vt 0.120399 0.029969
vt 0.120369 0.192863
vt 0.076462 0.192855
vt 0.205314 0.034152
s 1
f 1/1/1 2/2/1 4/3/1 3/4/1
f 3/5/2 4/6/2 6/7/2 5/8/2
f 5/9/3 6/10/3 8/11/3 7/12/3
f 7/13/4 8/14/4 2/15/4 1/16/4
f 2/17/5 8/18/5 6/7/5 4/6/5
f 7/19/6 1/20/6 3/21/6 5/22/6
f 9/1/1 10/2/1 12/3/1 11/4/1
f 11/5/2 12/6/2 14/7/2 13/8/2
f 13/9/3 14/10/3 16/11/3 15/12/3
f 15/13/4 16/14/4 10/15/4 9/16/4
f 10/17/5 16/18/5 14/7/5 12/6/5
f 15/19/6 9/20/6 11/21/6 13/22/6
f 17/1/1 18/2/1 20/3/1 19/4/1
f 19/5/2 20/6/2 22/7/2 21/8/2
f 21/9/3 22/10/3 24/11/3 23/12/3
f 23/13/4 24/14/4 18/15/4 17/16/4
f 18/17/5 24/18/5 22/7/5 20/6/5
f 23/19/6 17/20/6 19/21/6 21/22/6
f 25/1/1 26/2/1 28/3/1 27/4/1
f 27/5/2 28/6/2 30/7/2 29/8/2
f 29/9/3 30/10/3 32/11/3 31/12/3
f 31/13/4 32/14/4 26/15/4 25/16/4
f 26/17/5 32/18/5 30/7/5 28/6/5
f 31/19/6 25/20/6 27/21/6 29/22/6
f 33/1/1 34/2/1 36/3/1 35/4/1
f 35/5/2 36/6/2 38/7/2 37/8/2
f 37/9/3 38/10/3 40/11/3 39/12/3
f 39/13/4 40/14/4 34/15/4 33/16/4
f 34/17/5 40/18/5 38/7/5 36/6/5
f 39/19/6 33/20/6 35/21/6 37/22/6
f 41/1/1 42/2/1 44/3/1 43/4/1
f 43/5/2 44/6/2 46/7/2 45/8/2
f 45/9/3 46/10/3 48/11/3 47/12/3
f 47/13/4 48/14/4 42/15/4 41/16/4
f 42/17/5 48/18/5 46/7/5 44/6/5
f 47/19/6 41/20/6 43/21/6 45/22/6
f 49/1/1 50/2/1 52/3/1 51/4/1
f 51/5/2 52/6/2 54/7/2 53/8/2
f 53/9/3 54/10/3 56/11/3 55/12/3
f 55/13/4 56/14/4 50/15/4 49/16/4
f 50/17/5 56/18/5 54/7/5 52/6/5
f 55/19/6 49/20/6 51/21/6 53/22/6
f 57/1/1 58/2/1 60/3/1 59/4/1
f 59/5/2 60/6/2 62/7/2 61/8/2
f 61/9/3 62/10/3 64/11/3 63/12/3
f 63/13/4 64/14/4 58/15/4 57/16/4
f 58/17/5 64/23/5 62/7/5 60/6/5
f 63/19/6 57/20/6 59/21/6 61/22/6
f 65/1/1 66/2/1 68/3/1 67/4/1
f 67/5/2 68/6/2 70/7/2 69/8/2
f 69/9/3 70/10/3 72/11/3 71/12/3
f 71/13/4 72/14/4 66/15/4 65/16/4
f 66/17/5 72/18/5 70/7/5 68/6/5
f 71/19/6 65/20/6 67/21/6 69/22/6
f 73/1/1 74/2/1 76/3/1 75/4/1
f 75/5/2 76/6/2 78/7/2 77/8/2
f 77/9/3 78/10/3 80/11/3 79/12/3
f 79/13/4 80/14/4 74/15/4 73/16/4
f 74/17/5 80/18/5 78/7/5 76/6/5
f 79/19/6 73/20/6 75/21/6 77/22/6
f 81/1/1 82/2/1 84/3/1 83/4/1
f 83/5/2 84/6/2 86/7/2 85/8/2
f 85/9/3 86/10/3 88/11/3 87/12/3
f 87/13/4 88/14/4 82/15/4 81/16/4
f 82/17/5 88/18/5 86/7/5 84/6/5
f 87/19/6 81/20/6 83/21/6 85/22/6
f 89/1/3 90/2/3 92/3/3 91/4/3
f 91/5/2 92/6/2 94/7/2 93/8/2
f 93/9/1 94/10/1 96/11/1 95/12/1
f 95/13/4 96/14/4 90/15/4 89/16/4
f 90/17/7 96/18/7 94/7/7 92/6/7
f 95/19/8 89/20/8 91/21/8 93/22/8
f 97/1/3 98/2/3 100/3/3 99/4/3
f 99/5/2 100/6/2 102/7/2 101/8/2
f 101/9/1 102/10/1 104/11/1 103/12/1
f 103/13/4 104/14/4 98/15/4 97/16/4
f 98/17/7 104/18/7 102/7/7 100/6/7
f 103/19/8 97/20/8 99/21/8 101/22/8
f 105/1/3 106/2/3 108/3/3 107/4/3
f 107/5/2 108/6/2 110/7/2 109/8/2
f 109/9/1 110/10/1 112/11/1 111/12/1
f 111/13/4 112/14/4 106/15/4 105/16/4
f 106/17/7 112/18/7 110/7/7 108/6/7
f 111/19/8 105/20/8 107/21/8 109/22/8
f 113/1/3 114/2/3 116/3/3 115/4/3
f 115/5/2 116/6/2 118/7/2 117/8/2
f 117/9/1 118/10/1 120/11/1 119/12/1
f 119/13/4 120/14/4 114/15/4 113/16/4
f 114/17/7 120/18/7 118/7/7 116/6/7
f 119/19/8 113/20/8 115/21/8 117/22/8
f 121/1/3 122/2/3 124/3/3 123/4/3
f 123/5/2 124/6/2 126/7/2 125/8/2
f 125/9/1 126/10/1 128/11/1 127/12/1
f 127/13/4 128/14/4 122/15/4 121/16/4
f 122/17/7 128/18/7 126/7/7 124/6/7
f 127/19/8 121/20/8 123/21/8 125/22/8
f 129/1/3 130/2/3 132/3/3 131/4/3
f 131/5/2 132/6/2 134/7/2 133/8/2
f 133/9/1 134/10/1 136/11/1 135/12/1
f 135/13/4 136/14/4 130/15/4 129/16/4
f 130/17/7 136/18/7 134/7/7 132/6/7
f 135/19/8 129/20/8 131/21/8 133/22/8
f 137/1/3 138/2/3 140/3/3 139/4/3
f 139/5/2 140/6/2 142/7/2 141/8/2
f 141/9/1 142/10/1 144/11/1 143/12/1
f 143/13/4 144/14/4 138/15/4 137/16/4
f 138/17/7 144/18/7 142/7/7 140/6/7
f 143/19/8 137/20/8 139/21/8 141/22/8
f 145/1/3 146/2/3 148/3/3 147/4/3
f 147/5/2 148/6/2 150/7/2 149/8/2
f 149/9/1 150/10/1 152/11/1 151/12/1
f 151/13/4 152/14/4 146/15/4 145/16/4
f 146/17/7 152/18/7 150/7/7 148/6/7
f 151/19/8 145/20/8 147/21/8 149/22/8
f 153/1/3 154/2/3 156/3/3 155/4/3
f 155/5/2 156/6/2 158/7/2 157/8/2
f 157/9/1 158/10/1 160/11/1 159/12/1
f 159/13/4 160/14/4 154/15/4 153/16/4
f 154/17/7 160/18/7 158/7/7 156/6/7
f 159/19/8 153/20/8 155/21/8 157/22/8
f 161/1/3 162/2/3 164/3/3 163/4/3
f 163/5/2 164/6/2 166/7/2 165/8/2
f 165/9/1 166/10/1 168/11/1 167/12/1
f 167/13/4 168/14/4 162/15/4 161/16/4
f 162/17/7 168/18/7 166/7/7 164/6/7
f 167/19/8 161/20/8 163/21/8 165/22/8
f 169/1/3 170/2/3 172/3/3 171/4/3
f 171/24/2 172/25/2 174/7/2 173/8/2
f 173/9/1 174/10/1 176/11/1 175/12/1
f 175/13/4 176/14/4 170/15/4 169/16/4
f 170/26/7 176/23/7 174/7/7 172/25/7
f 175/19/8 169/20/8 171/21/8 173/22/8
f 177/27/3 178/28/3 180/29/3 179/30/3
f 179/31/2 180/32/2 182/33/2 181/34/2
f 181/29/1 182/30/1 184/27/1 183/28/1
f 183/35/4 184/36/4 178/31/4 177/32/4
f 178/32/6 184/33/6 182/34/6 180/31/6
f 183/36/8 177/31/8 179/32/8 181/35/8
f 185/27/3 186/37/3 188/38/3 187/30/3
f 187/31/2 188/32/2 190/35/2 189/36/2
f 189/38/1 190/30/1 192/27/1 191/37/1
f 191/35/4 192/36/4 186/31/4 185/32/4
f 186/32/6 192/33/6 190/34/6 188/31/6
f 191/36/8 185/31/8 187/32/8 189/35/8
f 193/39/3 194/40/3 196/41/3 195/42/3
f 195/43/2 196/44/2 198/45/2 197/46/2
f 197/41/1 198/42/1 200/39/1 199/40/1
f 199/47/4 200/48/4 194/49/4 193/50/4
f 194/51/9 200/52/9 198/45/9 196/44/9
f 199/53/10 193/54/10 195/43/10 197/46/10
f 201/39/3 202/40/3 204/41/3 203/42/3
f 203/43/2 204/44/2 206/45/2 205/46/2
f 205/41/1 206/42/1 208/39/1 207/40/1
f 207/47/4 208/48/4 202/49/4 201/50/4
f 202/51/9 208/52/9 206/45/9 204/44/9
f 207/53/10 201/54/10 203/43/10 205/46/10
f 209/39/3 210/40/3 212/41/3 211/42/3
f 211/43/2 212/44/2 214/45/2 213/46/2
f 213/41/1 214/42/1 216/39/1 215/40/1
f 215/47/4 216/48/4 210/49/4 209/50/4
f 210/51/9 216/52/9 214/45/9 212/44/9
f 215/53/10 209/54/10 211/43/10 213/46/10
f 217/39/3 218/40/3 220/41/3 219/42/3
f 219/43/2 220/44/2 222/45/2 221/46/2
f 221/41/1 222/42/1 224/39/1 223/40/1
f 223/47/4 224/48/4 218/49/4 217/50/4
f 218/51/9 224/52/9 222/45/9 220/44/9
f 223/53/10 217/54/10 219/43/10 221/46/10
f 225/39/3 226/40/3 228/41/3 227/42/3
f 227/43/2 228/44/2 230/45/2 229/46/2
f 229/41/1 230/42/1 232/39/1 231/40/1
f 231/47/4 232/48/4 226/49/4 225/50/4
f 226/51/9 232/52/9 230/45/9 228/44/9
f 231/53/10 225/54/10 227/43/10 229/46/10
f 233/39/3 234/40/3 236/41/3 235/42/3
f 235/43/2 236/44/2 238/45/2 237/46/2
f 237/41/1 238/42/1 240/55/1 239/56/1
f 239/47/4 240/48/4 234/49/4 233/50/4
f 234/51/9 240/52/9 238/45/9 236/44/9
f 239/53/10 233/54/10 235/43/10 237/46/10
f 241/39/3 242/56/3 244/41/3 243/42/3
f 243/43/2 244/44/2 246/45/2 245/46/2
f 245/41/1 246/42/1 248/55/1 247/56/1
f 247/47/4 248/48/4 242/49/4 241/50/4
f 242/51/9 248/52/9 246/45/9 244/44/9
f 247/53/10 241/54/10 243/43/10 245/46/10
f 249/39/3 250/56/3 252/41/3 251/42/3
f 251/43/2 252/44/2 254/45/2 253/46/2
f 253/41/1 254/42/1 256/39/1 255/40/1
f 255/47/4 256/48/4 250/49/4 249/50/4
f 250/51/9 256/52/9 254/45/9 252/44/9
f 255/53/10 249/54/10 251/43/10 253/46/10
f 257/39/3 258/56/3 260/41/3 259/42/3
f 259/57/2 260/58/2 262/59/2 261/60/2
f 261/41/1 262/42/1 264/55/1 263/40/1
f 263/47/4 264/48/4 258/49/4 257/50/4
f 258/61/9 264/62/9 262/59/9 260/58/9
f 263/63/10 257/64/10 259/57/10 261/60/10
f 265/39/3 266/40/3 268/41/3 267/42/3
f 267/57/2 268/58/2 270/59/2 269/60/2
f 269/41/1 270/42/1 272/55/1 271/40/1
f 271/47/4 272/48/4 266/49/4 265/50/4
f 266/61/9 272/62/9 270/59/9 268/58/9
f 271/63/10 265/64/10 267/57/10 269/60/10
f 273/39/3 274/40/3 276/41/3 275/42/3
f 275/43/2 276/44/2 278/45/2 277/46/2
f 277/65/1 278/42/1 280/55/1 279/40/1
f 279/47/4 280/48/4 274/49/4 273/50/4
f 274/51/9 280/52/9 278/45/9 276/44/9
f 279/53/10 273/54/10 275/43/10 277/46/10
