# Blender 4.5.3 LTS
# www.blender.org
o TrainTrackPresent
v -0.559524 0.077646 -3.808768
v -0.680496 0.077646 -3.808768
v -0.559524 0.119510 -3.808768
v -0.600154 0.119510 -3.808768
v -0.559524 0.119510 -3.734056
v -0.600154 0.119510 -3.734056
v -0.559524 0.077646 -3.734056
v -0.680496 0.077646 -3.734056
v -0.559524 0.077646 -3.048768
v -0.680496 0.077646 -3.048768
v -0.559524 0.119510 -3.048768
v -0.600154 0.119510 -3.048768
v -0.559524 0.119510 -2.974056
v -0.600154 0.119510 -2.974056
v -0.559524 0.077646 -2.974056
v -0.680496 0.077646 -2.974056
v -0.559524 0.077646 -2.283380
v -0.680496 0.077646 -2.283380
v -0.559524 0.119510 -2.283380
v -0.600154 0.119510 -2.283380
v -0.559524 0.119510 -2.208666
v -0.600154 0.119510 -2.208666
v -0.559524 0.077646 -2.208666
v -0.680496 0.077646 -2.208666
v -0.559524 0.077646 -1.535928
v -0.680496 0.077646 -1.535928
v -0.559524 0.119510 -1.535928
v -0.600154 0.119510 -1.535928
v -0.559524 0.119510 -1.461216
v -0.600154 0.119510 -1.461216
v -0.559524 0.077646 -1.461216
v -0.680496 0.077646 -1.461216
v -0.559524 0.077646 -0.777348
v -0.680496 0.077646 -0.777348
v -0.559524 0.119510 -0.777348
v -0.600154 0.119510 -0.777348
v -0.559524 0.119510 -0.702636
v -0.600154 0.119510 -0.702636
v -0.559524 0.077646 -0.702636
v -0.680496 0.077646 -0.702636
v -0.559524 0.077646 -0.035780
v -0.680496 0.077646 -0.035780
v -0.559524 0.119510 -0.035780
v -0.600154 0.119510 -0.035780
v -0.559524 0.119510 0.038934
v -0.600154 0.119510 0.038934
v -0.559524 0.077646 0.038934
v -0.680496 0.077646 0.038934
v -0.559524 0.077646 1.481380
v -0.680496 0.077646 1.481380
v -0.559524 0.119510 1.481380
v -0.600154 0.119510 1.481380
v -0.559524 0.119510 1.556092
v -0.600154 0.119510 1.556092
v -0.559524 0.077646 1.556092
v -0.680496 0.077646 1.556092
v -0.559524 0.077646 2.239958
v -0.680496 0.077646 2.239958
v -0.559524 0.119510 2.239958
v -0.600154 0.119510 2.239958
v -0.559524 0.119510 2.314672
v -0.600154 0.119510 2.314672
v -0.559524 0.077646 2.314672
v -0.680496 0.077646 2.314672
v -0.559524 0.077646 2.998538
v -0.680496 0.077646 2.998538
v -0.559524 0.119510 2.998538
v -0.600154 0.119510 2.998538
v -0.559524 0.119510 3.073250
v -0.600154 0.119510 3.073250
v -0.559524 0.077646 3.073250
v -0.680496 0.077646 3.073250
v -0.559524 0.077646 3.757118
v -0.680496 0.077646 3.757118
v -0.559524 0.119510 3.757118
v -0.600154 0.119510 3.757118
v -0.559524 0.119510 3.831830
v -0.600154 0.119510 3.831830
v -0.559524 0.077646 3.831830
v -0.680496 0.077646 3.831830
v 0.389962 0.077646 -3.734056
v 0.510934 0.077646 -3.734056
v 0.389962 0.119510 -3.734056
v 0.430592 0.119510 -3.734056
v 0.389962 0.119510 -3.808768
v 0.430592 0.119510 -3.808768
v 0.389962 0.077646 -3.808768
v 0.510934 0.077646 -3.808768
v 0.389962 0.077646 -2.974056
v 0.510934 0.077646 -2.974056
v 0.389962 0.119510 -2.974056
v 0.430592 0.119510 -2.974056
v 0.389962 0.119510 -3.048768
v 0.430592 0.119510 -3.048768
v 0.389962 0.077646 -3.048768
v 0.510934 0.077646 -3.048768
v 0.389962 0.077646 -2.208666
v 0.510934 0.077646 -2.208666
v 0.389962 0.119510 -2.208666
v 0.430592 0.119510 -2.208666
v 0.389962 0.119510 -2.283380
v 0.430592 0.119510 -2.283380
v 0.389962 0.077646 -2.283380
v 0.510934 0.077646 -2.283380
v 0.389962 0.077646 -1.461216
v 0.510934 0.077646 -1.461216
v 0.389962 0.119510 -1.461216
v 0.430592 0.119510 -1.461216
v 0.389962 0.119510 -1.535928
v 0.430592 0.119510 -1.535928
v 0.389962 0.077646 -1.535928
v 0.510934 0.077646 -1.535928
v 0.389962 0.077646 -0.702636
v 0.510934 0.077646 -0.702636
v 0.389962 0.119510 -0.702636
v 0.430592 0.119510 -0.702636
v 0.389962 0.119510 -0.777348
v 0.430592 0.119510 -0.777348
v 0.389962 0.077646 -0.777348
v 0.510934 0.077646 -0.777348
v 0.389962 0.077646 0.038934
v 0.510934 0.077646 0.038934
v 0.389962 0.119510 0.038934
v 0.430592 0.119510 0.038934
v 0.389962 0.119510 -0.035780
v 0.430592 0.119510 -0.035780
v 0.389962 0.077646 -0.035780
v 0.510934 0.077646 -0.035780
v 0.389962 0.077646 1.556092
v 0.510934 0.077646 1.556092
v 0.389962 0.119510 1.556092
v 0.430592 0.119510 1.556092
v 0.389962 0.119510 1.481380
v 0.430592 0.119510 1.481380
v 0.389962 0.077646 1.481380
v 0.510934 0.077646 1.481380
v 0.389962 0.077646 2.314672
v 0.510934 0.077646 2.314672
v 0.389962 0.119510 2.314672
v 0.430592 0.119510 2.314672
v 0.389962 0.119510 2.239958
v 0.430592 0.119510 2.239958
v 0.389962 0.077646 2.239958
v 0.510934 0.077646 2.239958
v 0.389962 0.077646 3.073250
v 0.510934 0.077646 3.073250
v 0.389962 0.119510 3.073250
v 0.430592 0.119510 3.073250
v 0.389962 0.119510 2.998538
v 0.430592 0.119510 2.998538
v 0.389962 0.077646 2.998538
v 0.510934 0.077646 2.998538
v 0.389962 0.077646 3.831830
v 0.510934 0.077646 3.831830
v 0.389962 0.119510 3.831830
v 0.430592 0.119510 3.831830
v 0.389962 0.119510 3.757118
v 0.430592 0.119510 3.757118
v 0.389962 0.077646 3.757118
v 0.510934 0.077646 3.757118
v 0.312550 0.077646 4.184492
v 0.390196 0.077646 4.184492
v 0.312550 0.155292 4.184492
v 0.390196 0.155292 4.184492
v 0.312550 0.155292 -4.162406
v 0.390196 0.155292 -4.162406
v 0.312550 0.077646 -4.162406
v 0.390196 0.077646 -4.162406
v -0.557818 0.077646 4.184492
v -0.480172 0.077646 4.184492
v -0.557818 0.155292 4.184492
v -0.480172 0.155292 4.184492
v -0.557818 0.155292 -4.162406
v -0.480172 0.155292 -4.162406
v -0.557818 0.077646 -4.162406
v -0.480172 0.077646 -4.162406
v -0.769754 -0.000000 -3.572470
v 0.589044 -0.000000 -3.572470
v -0.716174 0.077646 -3.572470
v 0.535464 0.077646 -3.572470
v -0.716174 0.077646 -3.960698
v 0.535464 0.077646 -3.960698
v -0.769754 -0.000000 -3.960698
v 0.589044 -0.000000 -3.960698
v -0.769754 -0.000000 -2.817572
v 0.589044 -0.000000 -2.817572
v -0.716174 0.077646 -2.817572
v 0.535464 0.077646 -2.817572
v -0.716174 0.077646 -3.205800
v 0.535464 0.077646 -3.205800
v -0.769754 -0.000000 -3.205800
v 0.589044 -0.000000 -3.205800
v -0.769754 -0.000000 -2.062672
v 0.589044 -0.000000 -2.062672
v -0.716174 0.077646 -2.062672
v 0.535464 0.077646 -2.062672
v -0.716174 0.077646 -2.450900
v 0.535464 0.077646 -2.450900
v -0.769754 -0.000000 -2.450900
v 0.589044 -0.000000 -2.450900
v -0.769754 -0.000000 -1.307772
v 0.589044 -0.000000 -1.307772
v -0.716174 0.077646 -1.307772
v 0.535464 0.077646 -1.307772
v -0.716174 0.077646 -1.696000
v 0.535464 0.077646 -1.696000
v -0.769754 -0.000000 -1.696000
v 0.589044 -0.000000 -1.696000
v -0.769754 -0.000000 -0.552872
v 0.589044 -0.000000 -0.552872
v -0.716174 0.077646 -0.552872
v 0.535464 0.077646 -0.552872
v -0.716174 0.077646 -0.941100
v 0.535464 0.077646 -0.941100
v -0.769754 -0.000000 -0.941100
v 0.589044 -0.000000 -0.941100
v -0.769754 0.000000 0.202026
v 0.589044 0.000000 0.202026
v -0.716174 0.077646 0.202026
v 0.535464 0.077646 0.202026
v -0.716174 0.077646 -0.186202
v 0.535464 0.077646 -0.186202
v -0.769754 -0.000000 -0.186202
v 0.589044 -0.000000 -0.186202
v -0.769754 0.000000 0.956926
v 0.589044 0.000000 0.956926
v -0.716174 0.077646 0.956926
v 0.535464 0.077646 0.956926
v -0.716174 0.077646 0.568698
v 0.535464 0.077646 0.568698
v -0.769754 0.000000 0.568698
v 0.589044 0.000000 0.647806
v -0.769754 0.000000 1.711826
v 0.589044 0.000000 1.711826
v -0.716174 0.077646 1.711826
v 0.535464 0.077646 1.711826
v -0.716174 0.077646 1.323598
v 0.535464 0.077646 1.323598
v -0.769754 0.000000 1.323598
v 0.589044 0.000000 1.323598
v -0.769754 0.000000 2.466726
v 0.589044 0.000000 2.466726
v -0.716174 0.077646 2.466726
v 0.535464 0.077646 2.466726
v -0.716174 0.077646 2.078498
v 0.535464 0.077646 2.078498
v -0.769754 0.000000 2.078498
v 0.589044 0.000000 2.078498
v -0.769754 0.000000 3.221626
v 0.589044 0.000000 3.221626
v -0.716174 0.077646 3.221626
v 0.535464 0.077646 3.221626
v -0.716174 0.077646 2.833396
v 0.535464 0.077646 2.833396
v -0.769754 0.000000 2.833396
v 0.589044 0.000000 2.833396
v -0.769754 0.000000 3.976524
v 0.589044 0.000000 3.976524
v -0.716174 0.077646 3.976524
v 0.535464 0.077646 3.976524
v -0.716174 0.077646 3.588296
v 0.535464 0.077646 3.588296
v -0.769754 0.000000 3.588296
v 0.589044 0.000000 3.588296
v 0.312550 0.155292 0.842930
v 0.390196 0.155292 0.848826
v 0.312550 0.077646 0.830522
v 0.390196 0.077646 0.836416
v -0.557818 0.155292 0.776840
v -0.480172 0.155292 0.782736
v -0.557818 0.077646 0.764432
v -0.480172 0.077646 0.770328
v -0.769754 0.000000 0.735930
v 0.589044 0.000000 0.839108
v -0.769754 0.000000 0.645002
v 0.312550 0.077646 0.711008
v 0.390196 0.077646 0.715050
v -0.557818 0.077646 0.665684
v -0.480172 0.077646 0.669728
v 0.535464 0.077646 0.722614
v 0.312550 0.155292 0.720654
v 0.390196 0.155292 0.724698
v -0.716174 0.077646 0.657438
v -0.557818 0.155292 0.675332
v -0.480172 0.155292 0.679374
v 0.390196 0.155292 0.848826
v 0.312550 0.155292 0.842930
v 0.390196 0.155232 0.848378
v 0.312550 0.155232 0.842482
v -0.479642 0.154724 0.679298
v -0.557288 0.154724 0.675256
v 0.535464 0.077646 0.722614
v -0.716174 0.077646 0.657438
v -0.480172 0.155564 0.782364
v -0.557818 0.155564 0.776468
v 0.389762 0.155596 0.725056
v 0.312116 0.155596 0.721014
vn -0.0000 -0.0000 -1.0000
vn -0.0000 1.0000 -0.0000
vn -0.0000 -0.0000 1.0000
vn -0.0000 -1.0000 -0.0000
vn -0.4621 0.8868 -0.0000
vn 1.0000 -0.0000 -0.0000
vn 0.4621 0.8868 -0.0000
vn -1.0000 -0.0000 -0.0000
vn 0.8231 0.5680 -0.0000
vn -0.8231 0.5680 -0.0000
vn 0.0165 0.9089 -0.4166
vn 0.0270 -0.4537 -0.8907
vn 0.0748 0.1519 -0.9856
vn -0.0516 -0.1227 0.9911
vn -0.0227 -0.4897 0.8716
vn 0.0748 0.1522 -0.9855
vn -0.0516 -0.1274 0.9905
vn 0.9637 -0.2668 0.0058
vt 0.354636 0.582808
vt 0.354636 0.589601
vt 0.352285 0.585090
vt 0.352285 0.582808
vt 0.341753 0.582749
vt 0.341753 0.585031
vt 0.337558 0.585031
vt 0.337558 0.582749
vt 0.345749 0.582749
vt 0.345749 0.585031
vt 0.343398 0.589542
vt 0.343398 0.582749
vt 0.351035 0.582749
vt 0.351035 0.589542
vt 0.346840 0.589542
vt 0.346840 0.582749
vt 0.341753 0.589542
vt 0.337558 0.589542
vt 0.334027 0.587163
vt 0.334027 0.582968
vt 0.336378 0.582968
vt 0.336378 0.587163
vt 0.497902 0.487792
vt 0.029231 0.487792
vt 0.029231 0.019128
vt 0.497902 0.019128
vt 0.395450 0.690038
vt 0.391086 0.690038
vt 0.391086 0.502546
vt 0.395450 0.502214
vt 0.497900 0.487795
vt 0.029234 0.487795
vt 0.029234 0.019125
vt 0.497900 0.019125
vt 0.408564 0.776236
vt 0.404202 0.776236
vt 0.404202 0.502204
vt 0.408564 0.502432
vt 0.391088 0.690121
vt 0.391088 0.502131
vt 0.395448 0.502828
vt 0.395448 0.690121
vt 0.404203 0.776309
vt 0.404203 0.502673
vt 0.408563 0.502131
vt 0.408563 0.776309
vt 0.395409 0.690078
vt 0.391127 0.690078
vt 0.391127 0.502500
vt 0.395409 0.502174
vt 0.497901 0.487793
vt 0.029232 0.487793
vt 0.029232 0.019127
vt 0.497901 0.019127
vt 0.408584 0.776216
vt 0.404181 0.776216
vt 0.404181 0.502224
vt 0.408584 0.502453
vt 0.391129 0.690160
vt 0.391129 0.502093
vt 0.395407 0.502777
vt 0.395407 0.690160
vt 0.404183 0.776290
vt 0.404183 0.502697
vt 0.408583 0.502150
vt 0.408583 0.776290
vt 0.360805 0.578426
vt 0.360805 0.502131
vt 0.365164 0.505140
vt 0.365164 0.575418
vt 0.333610 0.575418
vt 0.333610 0.505140
vt 0.355408 0.505140
vt 0.355408 0.575418
vt 0.307429 0.578426
vt 0.307429 0.502131
vt 0.329227 0.502131
vt 0.329227 0.578426
vt 0.333610 0.502131
vt 0.355408 0.502131
vt 0.355408 0.578426
vt 0.333610 0.578426
vt 0.244729 0.574832
vt 0.244729 0.504555
vt 0.251344 0.501546
vt 0.257137 0.577841
vt 0.115746 0.574832
vt 0.115746 0.504555
vt 0.124003 0.501546
vt 0.115746 0.577841
vt 0.244729 0.501546
vt 0.301372 0.574832
vt 0.301372 0.577841
vt 0.297087 0.577841
vt 0.296389 0.574832
vt 0.365164 0.575417
vt 0.391094 0.502207
vt 0.395442 0.502537
vt 0.395442 0.690046
vt 0.391094 0.690046
vt 0.391092 0.502823
vt 0.395444 0.502128
vt 0.395444 0.690125
vt 0.391092 0.690125
vt 0.391135 0.502167
vt 0.395401 0.502491
vt 0.395401 0.690086
vt 0.391135 0.690086
vt 0.391133 0.502772
vt 0.395403 0.502090
vt 0.395403 0.690163
vt 0.391133 0.690163
vt 0.227896 0.577799
vt 0.233690 0.501504
vt 0.240305 0.501504
vt 0.240305 0.577799
vt 0.244729 0.577841
vt 0.404206 0.502427
vt 0.408560 0.502200
vt 0.408560 0.776240
vt 0.404206 0.776240
vt 0.404205 0.502130
vt 0.408561 0.502671
vt 0.408561 0.776311
vt 0.404205 0.776311
vt 0.292730 0.504555
vt 0.301372 0.504555
vt 0.293115 0.501546
vt 0.404186 0.502448
vt 0.408580 0.502220
vt 0.408580 0.776220
vt 0.404186 0.776220
vt 0.404185 0.502149
vt 0.408581 0.502695
vt 0.408581 0.776292
vt 0.404185 0.776292
vt 0.029233 0.019126
vt 0.497900 0.019126
vt 0.497900 0.487794
vt 0.029233 0.487794
vt 0.029147 0.019213
vt 0.497987 0.019213
vt 0.497987 0.487707
vt 0.029147 0.487707
vt 0.026765 0.019989
vt 0.497135 0.019989
vt 0.500368 0.486931
vt 0.029976 0.486931
vt 0.217324 0.575418
vt 0.212964 0.578426
vt 0.212964 0.502131
vt 0.217324 0.505140
vt 0.636169 0.487794
vt 0.519002 0.019126
vt 0.753335 0.019126
vt 0.753335 0.487794
vt 0.537433 0.504176
vt 0.654600 0.504174
vt 0.654599 0.972840
vt 0.688310 0.972841
vt 0.922643 0.504177
vt 0.922643 0.972842
vt 0.029647 0.018712
vt 0.497486 0.018712
vt 0.497486 0.488208
vt 0.029647 0.488208
vt 0.030993 0.018672
vt 0.498744 0.018668
vt 0.496133 0.488249
vt 0.028390 0.488252
s 1
f 1/1/1 2/2/1 4/3/1 3/4/1
f 3/5/2 4/6/2 6/7/2 5/8/2
f 5/9/3 6/10/3 8/11/3 7/12/3
f 7/13/4 8/14/4 2/15/4 1/16/4
f 2/17/5 8/18/5 6/7/5 4/6/5
f 7/19/6 1/20/6 3/21/6 5/22/6
f 9/1/1 10/2/1 12/3/1 11/4/1
f 11/5/2 12/6/2 14/7/2 13/8/2
f 13/9/3 14/10/3 16/11/3 15/12/3
f 15/13/4 16/14/4 10/15/4 9/16/4
f 10/17/5 16/18/5 14/7/5 12/6/5
f 15/19/6 9/20/6 11/21/6 13/22/6
f 17/1/1 18/2/1 20/3/1 19/4/1
f 19/5/2 20/6/2 22/7/2 21/8/2
f 21/9/3 22/10/3 24/11/3 23/12/3
f 23/13/4 24/14/4 18/15/4 17/16/4
f 18/17/5 24/18/5 22/7/5 20/6/5
f 23/19/6 17/20/6 19/21/6 21/22/6
f 25/1/1 26/2/1 28/3/1 27/4/1
f 27/5/2 28/6/2 30/7/2 29/8/2
f 29/9/3 30/10/3 32/11/3 31/12/3
f 31/13/4 32/14/4 26/15/4 25/16/4
f 26/17/5 32/18/5 30/7/5 28/6/5
f 31/19/6 25/20/6 27/21/6 29/22/6
f 33/1/1 34/2/1 36/3/1 35/4/1
f 35/5/2 36/6/2 38/7/2 37/8/2
f 37/9/3 38/10/3 40/11/3 39/12/3
f 39/13/4 40/14/4 34/15/4 33/16/4
f 34/17/5 40/18/5 38/7/5 36/6/5
f 39/19/6 33/20/6 35/21/6 37/22/6
f 41/1/1 42/2/1 44/3/1 43/4/1
f 43/5/2 44/6/2 46/7/2 45/8/2
f 45/9/3 46/10/3 48/11/3 47/12/3
f 47/13/4 48/14/4 42/15/4 41/16/4
f 42/17/5 48/18/5 46/7/5 44/6/5
f 47/19/6 41/20/6 43/21/6 45/22/6
f 49/1/1 50/2/1 52/3/1 51/4/1
f 51/5/2 52/6/2 54/7/2 53/8/2
f 53/9/3 54/10/3 56/11/3 55/12/3
f 55/13/4 56/14/4 50/15/4 49/16/4
f 50/17/5 56/18/5 54/7/5 52/6/5
f 55/19/6 49/20/6 51/21/6 53/22/6
f 57/1/1 58/2/1 60/3/1 59/4/1
f 59/5/2 60/6/2 62/7/2 61/8/2
f 61/9/3 62/10/3 64/11/3 63/12/3
f 63/13/4 64/14/4 58/15/4 57/16/4
f 58/17/5 64/18/5 62/7/5 60/6/5
f 63/19/6 57/20/6 59/21/6 61/22/6
f 65/1/1 66/2/1 68/3/1 67/4/1
f 67/5/2 68/6/2 70/7/2 69/8/2
f 69/9/3 70/10/3 72/11/3 71/12/3
f 71/13/4 72/14/4 66/15/4 65/16/4
f 66/17/5 72/18/5 70/7/5 68/6/5
f 71/19/6 65/20/6 67/21/6 69/22/6
f 73/1/1 74/2/1 76/3/1 75/4/1
f 75/5/2 76/6/2 78/7/2 77/8/2
f 77/9/3 78/10/3 80/11/3 79/12/3
f 79/13/4 80/14/4 74/15/4 73/16/4
f 74/17/5 80/18/5 78/7/5 76/6/5
f 79/19/6 73/20/6 75/21/6 77/22/6
f 81/1/3 82/2/3 84/3/3 83/4/3
f 83/5/2 84/6/2 86/7/2 85/8/2
f 85/9/1 86/10/1 88/11/1 87/12/1
f 87/13/4 88/14/4 82/15/4 81/16/4
f 82/17/7 88/18/7 86/7/7 84/6/7
f 87/19/8 81/20/8 83/21/8 85/22/8
f 89/1/3 90/2/3 92/3/3 91/4/3
f 91/5/2 92/6/2 94/7/2 93/8/2
f 93/9/1 94/10/1 96/11/1 95/12/1
f 95/13/4 96/14/4 90/15/4 89/16/4
f 90/17/7 96/18/7 94/7/7 92/6/7
f 95/19/8 89/20/8 91/21/8 93/22/8
f 97/1/3 98/2/3 100/3/3 99/4/3
f 99/5/2 100/6/2 102/7/2 101/8/2
f 101/9/1 102/10/1 104/11/1 103/12/1
f 103/13/4 104/14/4 98/15/4 97/16/4
f 98/17/7 104/18/7 102/7/7 100/6/7
f 103/19/8 97/20/8 99/21/8 101/22/8
f 105/1/3 106/2/3 108/3/3 107/4/3
f 107/5/2 108/6/2 110/7/2 109/8/2
f 109/9/1 110/10/1 112/11/1 111/12/1
f 111/13/4 112/14/4 106/15/4 105/16/4
f 106/17/7 112/18/7 110/7/7 108/6/7
f 111/19/8 105/20/8 107/21/8 109/22/8
f 113/1/3 114/2/3 116/3/3 115/4/3
f 115/5/2 116/6/2 118/7/2 117/8/2
f 117/9/1 118/10/1 120/11/1 119/12/1
f 119/13/4 120/14/4 114/15/4 113/16/4
f 114/17/7 120/18/7 118/7/7 116/6/7
f 119/19/8 113/20/8 115/21/8 117/22/8
f 121/1/3 122/2/3 124/3/3 123/4/3
f 123/5/2 124/6/2 126/7/2 125/8/2
f 125/9/1 126/10/1 128/11/1 127/12/1
f 127/13/4 128/14/4 122/15/4 121/16/4
f 122/17/7 128/18/7 126/7/7 124/6/7
f 127/19/8 121/20/8 123/21/8 125/22/8
f 129/1/3 130/2/3 132/3/3 131/4/3
f 131/5/2 132/6/2 134/7/2 133/8/2
f 133/9/1 134/10/1 136/11/1 135/12/1
f 135/13/4 136/14/4 130/15/4 129/16/4
f 130/17/7 136/18/7 134/7/7 132/6/7
f 135/19/8 129/20/8 131/21/8 133/22/8
f 137/1/3 138/2/3 140/3/3 139/4/3
f 139/5/2 140/6/2 142/7/2 141/8/2
f 141/9/1 142/10/1 144/11/1 143/12/1
f 143/13/4 144/14/4 138/15/4 137/16/4
f 138/17/7 144/18/7 142/7/7 140/6/7
f 143/19/8 137/20/8 139/21/8 141/22/8
f 145/1/3 146/2/3 148/3/3 147/4/3
f 147/5/2 148/6/2 150/7/2 149/8/2
f 149/9/1 150/10/1 152/11/1 151/12/1
f 151/13/4 152/14/4 146/15/4 145/16/4
f 146/17/7 152/18/7 150/7/7 148/6/7
f 151/19/8 145/20/8 147/21/8 149/22/8
f 153/1/3 154/2/3 156/3/3 155/4/3
f 155/5/2 156/6/2 158/7/2 157/8/2
f 157/9/1 158/10/1 160/11/1 159/12/1
f 159/13/4 160/14/4 154/15/4 153/16/4
f 154/17/7 160/18/7 158/7/7 156/6/7
f 159/19/8 153/20/8 155/21/8 157/22/8
f 161/23/3 162/24/3 164/25/3 163/26/3
f 163/27/2 164/28/2 266/29/2 265/30/2
f 165/31/1 166/32/1 168/33/1 167/34/1
f 167/35/4 168/36/4 277/37/4 276/38/4
f 162/39/6 268/40/6 266/41/6 164/42/6
f 167/43/8 276/44/8 281/45/8 165/46/8
f 169/23/3 170/24/3 172/25/3 171/26/3
f 171/47/2 172/48/2 270/49/2 269/50/2
f 173/51/1 174/52/1 176/53/1 175/54/1
f 175/55/4 176/56/4 279/57/4 278/58/4
f 170/59/6 272/60/6 270/61/6 172/62/6
f 175/63/8 278/64/8 284/65/8 173/66/8
f 177/67/3 178/68/3 180/69/3 179/70/3
f 179/71/2 180/72/2 182/73/2 181/74/2
f 181/69/1 182/70/1 184/67/1 183/68/1
f 183/75/4 184/76/4 178/77/4 177/78/4
f 178/79/9 184/80/9 182/73/9 180/72/9
f 183/81/10 177/82/10 179/71/10 181/74/10
f 185/67/3 186/68/3 188/69/3 187/70/3
f 187/71/2 188/72/2 190/73/2 189/74/2
f 189/69/1 190/70/1 192/67/1 191/68/1
f 191/75/4 192/76/4 186/77/4 185/78/4
f 186/79/9 192/80/9 190/73/9 188/72/9
f 191/81/10 185/82/10 187/71/10 189/74/10
f 193/67/3 194/68/3 196/69/3 195/70/3
f 195/71/2 196/72/2 198/73/2 197/74/2
f 197/69/1 198/70/1 200/67/1 199/68/1
f 199/75/4 200/76/4 194/77/4 193/78/4
f 194/79/9 200/80/9 198/73/9 196/72/9
f 199/81/10 193/82/10 195/71/10 197/74/10
f 201/67/3 202/68/3 204/69/3 203/70/3
f 203/71/2 204/72/2 206/73/2 205/74/2
f 205/69/1 206/70/1 208/67/1 207/68/1
f 207/75/4 208/76/4 202/77/4 201/78/4
f 202/79/9 208/80/9 206/73/9 204/72/9
f 207/81/10 201/82/10 203/71/10 205/74/10
f 209/67/3 210/68/3 212/69/3 211/70/3
f 211/71/2 212/72/2 214/73/2 213/74/2
f 213/69/1 214/70/1 216/67/1 215/68/1
f 215/75/4 216/76/4 210/77/4 209/78/4
f 210/79/9 216/80/9 214/73/9 212/72/9
f 215/81/10 209/82/10 211/71/10 213/74/10
f 217/67/3 218/68/3 220/69/3 219/70/3
f 219/71/2 220/72/2 222/73/2 221/74/2
f 221/69/1 222/70/1 224/67/1 223/68/1
f 223/75/4 224/76/4 218/77/4 217/78/4
f 218/79/9 224/80/9 222/73/9 220/72/9
f 223/81/10 217/82/10 219/71/10 221/74/10
f 225/67/3 226/68/3 228/69/3 227/70/3
f 227/83/11 228/84/11 274/85/11 273/86/11
f 229/87/12 230/88/12 232/89/12 231/90/12
f 226/91/9 274/85/9 228/84/9
f 229/92/10 231/93/10 275/94/10 283/95/10
f 233/67/3 234/68/3 236/69/3 235/70/3
f 235/71/2 236/72/2 238/73/2 237/74/2
f 237/69/1 238/70/1 240/67/1 239/68/1
f 239/75/4 240/76/4 234/77/4 233/78/4
f 234/79/9 240/80/9 238/73/9 236/72/9
f 239/81/10 233/82/10 235/71/10 237/74/10
f 241/67/3 242/68/3 244/69/3 243/70/3
f 243/71/2 244/72/2 246/73/2 245/74/2
f 245/69/1 246/70/1 248/67/1 247/68/1
f 247/75/4 248/76/4 242/77/4 241/78/4
f 242/79/9 248/80/9 246/73/9 244/72/9
f 247/81/10 241/82/10 243/71/10 245/74/10
f 249/67/3 250/68/3 252/69/3 251/96/3
f 251/71/2 252/72/2 254/73/2 253/74/2
f 253/69/1 254/70/1 256/67/1 255/68/1
f 255/75/4 256/76/4 250/77/4 249/78/4
f 250/79/9 256/80/9 254/73/9 252/72/9
f 255/81/10 249/82/10 251/71/10 253/74/10
f 257/67/3 258/68/3 260/69/3 259/70/3
f 259/71/2 260/72/2 262/73/2 261/74/2
f 261/69/1 262/70/1 264/67/1 263/68/1
f 263/75/4 264/76/4 258/77/4 257/78/4
f 258/79/9 264/80/9 262/73/9 260/72/9
f 263/81/10 257/82/10 259/71/10 261/74/10
f 267/97/4 268/98/4 162/99/4 161/100/4
f 265/101/8 267/102/8 161/103/8 163/104/8
f 271/105/4 272/106/4 170/107/4 169/108/4
f 269/109/8 271/110/8 169/111/8 171/112/8
f 273/113/4 274/114/4 226/115/4 225/116/4
f 273/86/10 225/117/10 227/83/10
f 281/118/2 282/119/2 166/120/2 165/121/2
f 282/122/6 277/123/6 168/124/6 166/125/6
f 283/95/2 280/126/2 230/127/2 229/92/2
f 280/126/9 232/128/9 230/127/9
f 284/129/2 285/130/2 174/131/2 173/132/2
f 285/133/6 279/134/6 176/135/6 174/136/6
s 0
f 265/137/3 266/138/3 286/139/3 287/140/3
s 1
f 268/141/13 267/142/13 289/143/13 288/144/13
f 278/145/14 279/146/14 290/147/14 291/148/14
f 283/149/15 275/150/15 232/151/15 280/152/15
s 0
f 280/153/3 283/154/3 293/155/3 292/156/3
f 280/157/3 292/158/3 232/159/3
f 283/160/3 275/161/3 293/162/3
s 1
f 272/163/16 271/164/16 295/165/16 294/166/16
f 276/167/17 277/168/17 296/169/17 297/170/17
f 232/89/18 275/150/4 231/90/4
