# This file uses centimeters as units for non-parametric coordinates.

mtllib TrainTrackPast.mtl
g default
v -0.279762 0.038823 -1.904384
v -0.340248 0.038823 -1.904384
v -0.279762 0.059755 -1.904384
v -0.300077 0.059755 -1.904384
v -0.279762 0.059755 -1.867028
v -0.300077 0.059755 -1.867028
v -0.279762 0.038823 -1.867028
v -0.340248 0.038823 -1.867028
v -0.279762 0.038823 -1.524384
v -0.340248 0.038823 -1.524384
v -0.279762 0.059755 -1.524384
v -0.300077 0.059755 -1.524384
v -0.279762 0.059755 -1.487028
v -0.300077 0.059755 -1.487028
v -0.279762 0.038823 -1.487028
v -0.340248 0.038823 -1.487028
v -0.279762 0.038823 -1.141690
v -0.340248 0.038823 -1.141690
v -0.279762 0.059755 -1.141690
v -0.300077 0.059755 -1.141690
v -0.279762 0.059755 -1.104333
v -0.300077 0.059755 -1.104333
v -0.279762 0.038823 -1.104333
v -0.340248 0.038823 -1.104333
v -0.279762 0.038823 -0.767964
v -0.340248 0.038823 -0.767964
v -0.279762 0.059755 -0.767964
v -0.300077 0.059755 -0.767964
v -0.279762 0.059755 -0.730608
v -0.300077 0.059755 -0.730608
v -0.279762 0.038823 -0.730608
v -0.340248 0.038823 -0.730608
v -0.279762 0.038823 -0.388674
v -0.340248 0.038823 -0.388674
v -0.279762 0.059755 -0.388674
v -0.300077 0.059755 -0.388674
v -0.279762 0.059755 -0.351318
v -0.300077 0.059755 -0.351318
v -0.279762 0.038823 -0.351318
v -0.340248 0.038823 -0.351318
v -0.279762 0.038823 -0.017890
v -0.340248 0.038823 -0.017890
v -0.279762 0.059755 -0.017890
v -0.300077 0.059755 -0.017890
v -0.279762 0.059755 0.019467
v -0.300077 0.059755 0.019467
v -0.279762 0.038823 0.019467
v -0.340248 0.038823 0.019467
v -0.279762 0.038823 0.361400
v -0.340248 0.038823 0.361400
v -0.279762 0.059755 0.361400
v -0.300077 0.059755 0.361400
v -0.279762 0.059755 0.398756
v -0.300077 0.059755 0.398756
v -0.279762 0.038823 0.398756
v -0.340248 0.038823 0.398756
v -0.279762 0.038823 0.740690
v -0.340248 0.038823 0.740690
v -0.279762 0.059755 0.740690
v -0.300077 0.059755 0.740690
v -0.279762 0.059755 0.778046
v -0.300077 0.059755 0.778046
v -0.279762 0.038823 0.778046
v -0.340248 0.038823 0.778046
v -0.279762 0.038823 1.119979
v -0.340248 0.038823 1.119979
v -0.279762 0.059755 1.119979
v -0.300077 0.059755 1.119979
v -0.279762 0.059755 1.157336
v -0.300077 0.059755 1.157336
v -0.279762 0.038823 1.157336
v -0.340248 0.038823 1.157336
v -0.279762 0.038823 1.499269
v -0.340248 0.038823 1.499269
v -0.279762 0.059755 1.499269
v -0.300077 0.059755 1.499269
v -0.279762 0.059755 1.536625
v -0.300077 0.059755 1.536625
v -0.279762 0.038823 1.536625
v -0.340248 0.038823 1.536625
v -0.279762 0.038823 1.878559
v -0.340248 0.038823 1.878559
v -0.279762 0.059755 1.878559
v -0.300077 0.059755 1.878559
v -0.279762 0.059755 1.915915
v -0.300077 0.059755 1.915915
v -0.279762 0.038823 1.915915
v -0.340248 0.038823 1.915915
v 0.194981 0.038823 -1.867028
v 0.255467 0.038823 -1.867028
v 0.194981 0.059755 -1.867028
v 0.215296 0.059755 -1.867028
v 0.194981 0.059755 -1.904384
v 0.215296 0.059755 -1.904384
v 0.194981 0.038823 -1.904384
v 0.255467 0.038823 -1.904384
v 0.194981 0.038823 -1.487028
v 0.255467 0.038823 -1.487028
v 0.194981 0.059755 -1.487028
v 0.215296 0.059755 -1.487028
v 0.194981 0.059755 -1.524384
v 0.215296 0.059755 -1.524384
v 0.194981 0.038823 -1.524384
v 0.255467 0.038823 -1.524384
v 0.194981 0.038823 -1.104333
v 0.255467 0.038823 -1.104333
v 0.194981 0.059755 -1.104333
v 0.215296 0.059755 -1.104333
v 0.194981 0.059755 -1.141690
v 0.215296 0.059755 -1.141690
v 0.194981 0.038823 -1.141690
v 0.255467 0.038823 -1.141690
v 0.194981 0.038823 -0.730608
v 0.255467 0.038823 -0.730608
v 0.194981 0.059755 -0.730608
v 0.215296 0.059755 -0.730608
v 0.194981 0.059755 -0.767964
v 0.215296 0.059755 -0.767964
v 0.194981 0.038823 -0.767964
v 0.255467 0.038823 -0.767964
v 0.194981 0.038823 -0.351318
v 0.255467 0.038823 -0.351318
v 0.194981 0.059755 -0.351318
v 0.215296 0.059755 -0.351318
v 0.194981 0.059755 -0.388674
v 0.215296 0.059755 -0.388674
v 0.194981 0.038823 -0.388674
v 0.255467 0.038823 -0.388674
v 0.194981 0.038823 0.019467
v 0.255467 0.038823 0.019467
v 0.194981 0.059755 0.019467
v 0.215296 0.059755 0.019467
v 0.194981 0.059755 -0.017890
v 0.215296 0.059755 -0.017890
v 0.194981 0.038823 -0.017890
v 0.255467 0.038823 -0.017890
v 0.194981 0.038823 0.398756
v 0.255467 0.038823 0.398756
v 0.194981 0.059755 0.398756
v 0.215296 0.059755 0.398756
v 0.194981 0.059755 0.361400
v 0.215296 0.059755 0.361400
v 0.194981 0.038823 0.361400
v 0.255467 0.038823 0.361400
v 0.194981 0.038823 0.778046
v 0.255467 0.038823 0.778046
v 0.194981 0.059755 0.778046
v 0.215296 0.059755 0.778046
v 0.194981 0.059755 0.740690
v 0.215296 0.059755 0.740690
v 0.194981 0.038823 0.740690
v 0.255467 0.038823 0.740690
v 0.194981 0.038823 1.157336
v 0.255467 0.038823 1.157336
v 0.194981 0.059755 1.157336
v 0.215296 0.059755 1.157336
v 0.194981 0.059755 1.119979
v 0.215296 0.059755 1.119979
v 0.194981 0.038823 1.119979
v 0.255467 0.038823 1.119979
v 0.194981 0.038823 1.536625
v 0.255467 0.038823 1.536625
v 0.194981 0.059755 1.536625
v 0.215296 0.059755 1.536625
v 0.194981 0.059755 1.499269
v 0.215296 0.059755 1.499269
v 0.194981 0.038823 1.499269
v 0.255467 0.038823 1.499269
v 0.194981 0.038823 1.915915
v 0.255467 0.038823 1.915915
v 0.194981 0.059755 1.915915
v 0.215296 0.059755 1.915915
v 0.194981 0.059755 1.878559
v 0.215296 0.059755 1.878559
v 0.194981 0.038823 1.878559
v 0.255467 0.038823 1.878559
v 0.156275 0.038823 2.092246
v 0.195098 0.038823 2.092246
v 0.156275 0.077646 2.092246
v 0.195098 0.077646 2.092246
v 0.156275 0.077646 -2.081203
v 0.195098 0.077646 -2.081203
v 0.156275 0.038823 -2.081203
v 0.195098 0.038823 -2.081203
v -0.278909 0.038823 2.092246
v -0.240086 0.038823 2.092246
v -0.278909 0.077646 2.092246
v -0.240086 0.077646 2.092246
v -0.278909 0.077646 -2.081203
v -0.240086 0.077646 -2.081203
v -0.278909 0.038823 -2.081203
v -0.240086 0.038823 -2.081203
v -0.384877 0.000000 -1.786235
v 0.294522 0.000000 -1.786235
v -0.358087 0.038823 -1.786235
v 0.267732 0.038823 -1.786235
v -0.358087 0.038823 -1.980349
v 0.267732 0.038823 -1.980349
v -0.384877 0.000000 -1.980349
v 0.294522 0.000000 -1.980349
v -0.384877 0.000000 -1.408786
v 0.294522 0.000000 -1.408786
v -0.358087 0.038823 -1.408786
v 0.267732 0.038823 -1.408786
v -0.358087 0.038823 -1.602900
v 0.267732 0.038823 -1.602900
v -0.384877 0.000000 -1.602900
v 0.294522 0.000000 -1.602900
v -0.384877 0.000000 -1.031336
v 0.294522 0.000000 -1.031336
v -0.358087 0.038823 -1.031336
v 0.267732 0.038823 -1.031336
v -0.358087 0.038823 -1.225450
v 0.267732 0.038823 -1.225450
v -0.384877 0.000000 -1.225450
v 0.294522 0.000000 -1.225450
v -0.384877 0.000000 -0.653886
v 0.294522 0.000000 -0.653886
v -0.358087 0.038823 -0.653886
v 0.267732 0.038823 -0.653886
v -0.358087 0.038823 -0.848000
v 0.267732 0.038823 -0.848000
v -0.384877 0.000000 -0.848000
v 0.294522 0.000000 -0.848000
v -0.384877 0.000000 -0.276436
v 0.294522 0.000000 -0.276436
v -0.358087 0.038823 -0.276436
v 0.267732 0.038823 -0.276436
v -0.358087 0.038823 -0.470550
v 0.267732 0.038823 -0.470550
v -0.384877 0.000000 -0.470550
v 0.294522 0.000000 -0.470550
v -0.384877 0.000000 0.101013
v 0.294522 0.000000 0.101013
v -0.358087 0.038823 0.101013
v 0.267732 0.038823 0.101013
v -0.358087 0.038823 -0.093101
v 0.267732 0.038823 -0.093101
v -0.384877 0.000000 -0.093101
v 0.294522 0.000000 -0.093101
v -0.384877 0.000000 0.478463
v 0.294522 0.000000 0.478463
v -0.358087 0.038823 0.478463
v 0.267732 0.038823 0.478463
v -0.358087 0.038823 0.284349
v 0.267732 0.038823 0.284349
v -0.384877 0.000000 0.284349
v 0.294522 0.000000 0.284349
v -0.384877 0.000000 0.855913
v 0.294522 0.000000 0.855913
v -0.358087 0.038823 0.855913
v 0.267732 0.038823 0.855913
v -0.358087 0.038823 0.661799
v 0.267732 0.038823 0.661799
v -0.384877 0.000000 0.661799
v 0.294522 0.000000 0.661799
v -0.384877 0.000000 1.233363
v 0.294522 0.000000 1.233363
v -0.358087 0.038823 1.233363
v 0.267732 0.038823 1.233363
v -0.358087 0.038823 1.039249
v 0.267732 0.038823 1.039249
v -0.384877 0.000000 1.039249
v 0.294522 0.000000 1.039249
v -0.384877 0.000000 1.610813
v 0.294522 0.000000 1.610813
v -0.358087 0.038823 1.610813
v 0.267732 0.038823 1.610813
v -0.358087 0.038823 1.416698
v 0.267732 0.038823 1.416698
v -0.384877 0.000000 1.416698
v 0.294522 0.000000 1.416698
v -0.384877 0.000000 1.988262
v 0.294522 0.000000 1.988262
v -0.358087 0.038823 1.988262
v 0.267732 0.038823 1.988262
v -0.358087 0.038823 1.794148
v 0.267732 0.038823 1.794148
v -0.384877 0.000000 1.794148
v 0.294522 0.000000 1.794148
vt 0.253534 0.039980
vt 0.253534 0.031530
vt 0.258269 0.031530
vt 0.258269 0.039980
vt 0.253534 0.039980
vt 0.253534 0.031530
vt 0.258269 0.031530
vt 0.258269 0.039980
vt 0.253534 0.039980
vt 0.253534 0.031530
vt 0.258269 0.031530
vt 0.258269 0.039980
vt 0.253534 0.039980
vt 0.253534 0.031530
vt 0.258269 0.031530
vt 0.258269 0.039980
vt 0.253534 0.039980
vt 0.253534 0.031530
vt 0.258269 0.031530
vt 0.258269 0.039980
vt 0.253534 0.039980
vt 0.253534 0.031530
vt 0.258269 0.031530
vt 0.258269 0.039980
vt 0.253534 0.039980
vt 0.253534 0.031530
vt 0.258269 0.031530
vt 0.258269 0.039980
vt 0.253534 0.039980
vt 0.253534 0.031530
vt 0.258269 0.031530
vt 0.258269 0.039980
vt 0.253534 0.039980
vt 0.253534 0.031530
vt 0.258269 0.031530
vt 0.258269 0.039980
vt 0.253534 0.039980
vt 0.253534 0.031530
vt 0.258269 0.031530
vt 0.258269 0.039980
vt 0.253534 0.039980
vt 0.253534 0.031530
vt 0.258269 0.031530
vt 0.258269 0.039980
vt 0.253534 0.039980
vt 0.253534 0.031530
vt 0.258269 0.031530
vt 0.258269 0.039980
vt 0.253534 0.039980
vt 0.253534 0.031530
vt 0.258269 0.031530
vt 0.258269 0.039980
vt 0.253534 0.039980
vt 0.253534 0.031530
vt 0.258269 0.031530
vt 0.258269 0.039980
vt 0.253534 0.039980
vt 0.253534 0.031530
vt 0.258269 0.031530
vt 0.258269 0.039980
vt 0.253534 0.039980
vt 0.253534 0.031530
vt 0.258269 0.031530
vt 0.258269 0.039980
vt 0.253534 0.039980
vt 0.253534 0.031530
vt 0.258269 0.031530
vt 0.258269 0.039980
vt 0.253534 0.039980
vt 0.253534 0.031530
vt 0.258269 0.031530
vt 0.258269 0.039980
vt 0.253534 0.039980
vt 0.253534 0.031530
vt 0.258269 0.031530
vt 0.258269 0.039980
vt 0.253534 0.039980
vt 0.253534 0.031530
vt 0.258269 0.031530
vt 0.258269 0.039980
vt 0.253534 0.039980
vt 0.253534 0.031530
vt 0.258269 0.031530
vt 0.258269 0.039980
vt 0.253534 0.039980
vt 0.253534 0.031530
vt 0.258269 0.031530
vt 0.258269 0.039980
vt 0.048055 0.972003
vt 0.048055 0.027997
vt 0.056836 0.027997
vt 0.056836 0.972003
vt 0.056836 0.027996
vt 0.056836 0.972003
vt 0.048055 0.972003
vt 0.048055 0.027996
vt 0.048055 0.972003
vt 0.048055 0.027997
vt 0.056836 0.027997
vt 0.056836 0.972003
vt 0.056836 0.027996
vt 0.056836 0.972003
vt 0.048055 0.972003
vt 0.048055 0.027996
vt 0.270521 0.031523
vt 0.270521 0.036118
vt 0.262071 0.036118
vt 0.262071 0.031523
vt 0.270521 0.046364
vt 0.262071 0.046364
vt 0.250332 0.031495
vt 0.250332 0.045177
vt 0.241882 0.045177
vt 0.241882 0.031495
vt 0.270521 0.031523
vt 0.270521 0.036118
vt 0.262071 0.036118
vt 0.262071 0.031523
vt 0.270521 0.046364
vt 0.262071 0.046364
vt 0.250332 0.031495
vt 0.250332 0.045177
vt 0.241882 0.045177
vt 0.241882 0.031495
vt 0.270521 0.031523
vt 0.270521 0.036118
vt 0.262071 0.036118
vt 0.262071 0.031523
vt 0.270521 0.046364
vt 0.262071 0.046364
vt 0.250332 0.031495
vt 0.250332 0.045177
vt 0.241882 0.045177
vt 0.241882 0.031495
vt 0.270521 0.031523
vt 0.270521 0.036118
vt 0.262071 0.036118
vt 0.262071 0.031523
vt 0.270521 0.046364
vt 0.262071 0.046364
vt 0.250332 0.031495
vt 0.250332 0.045177
vt 0.241882 0.045177
vt 0.241882 0.031495
vt 0.270521 0.031523
vt 0.270521 0.036118
vt 0.262071 0.036118
vt 0.262071 0.031523
vt 0.270521 0.046364
vt 0.262071 0.046364
vt 0.250332 0.031495
vt 0.250332 0.045177
vt 0.241882 0.045177
vt 0.241882 0.031495
vt 0.270521 0.031523
vt 0.270521 0.036118
vt 0.262071 0.036118
vt 0.262071 0.031523
vt 0.270521 0.046364
vt 0.262071 0.046364
vt 0.250332 0.031495
vt 0.250332 0.045177
vt 0.241882 0.045177
vt 0.241882 0.031495
vt 0.270521 0.031523
vt 0.270521 0.036118
vt 0.262071 0.036118
vt 0.262071 0.031523
vt 0.270521 0.046364
vt 0.262071 0.046364
vt 0.250332 0.031495
vt 0.250332 0.045177
vt 0.241882 0.045177
vt 0.241882 0.031495
vt 0.270521 0.031523
vt 0.270521 0.036118
vt 0.262071 0.036118
vt 0.262071 0.031523
vt 0.270521 0.046364
vt 0.262072 0.046364
vt 0.250332 0.031495
vt 0.250332 0.045177
vt 0.241882 0.045177
vt 0.241882 0.031495
vt 0.270521 0.031523
vt 0.270521 0.036118
vt 0.262071 0.036118
vt 0.262071 0.031523
vt 0.270521 0.046364
vt 0.262071 0.046364
vt 0.250332 0.031495
vt 0.250332 0.045177
vt 0.241882 0.045177
vt 0.241882 0.031495
vt 0.270521 0.031523
vt 0.270521 0.036118
vt 0.262071 0.036118
vt 0.262071 0.031523
vt 0.270521 0.046364
vt 0.262071 0.046364
vt 0.250332 0.031495
vt 0.250332 0.045177
vt 0.241882 0.045177
vt 0.241882 0.031495
vt 0.270521 0.031523
vt 0.270521 0.036118
vt 0.262071 0.036118
vt 0.262071 0.031523
vt 0.270521 0.046364
vt 0.262071 0.046364
vt 0.250332 0.031495
vt 0.250332 0.045177
vt 0.241882 0.045177
vt 0.241882 0.031495
vt 0.270521 0.031523
vt 0.270521 0.036118
vt 0.262071 0.036118
vt 0.262071 0.031523
vt 0.270521 0.046364
vt 0.262071 0.046364
vt 0.250332 0.031495
vt 0.250332 0.045177
vt 0.241882 0.045177
vt 0.241882 0.031495
vt 0.270521 0.031523
vt 0.270521 0.036118
vt 0.262071 0.036118
vt 0.262071 0.031523
vt 0.270521 0.046364
vt 0.262071 0.046364
vt 0.250332 0.031495
vt 0.250332 0.045177
vt 0.241882 0.045177
vt 0.241882 0.031495
vt 0.270521 0.031523
vt 0.270521 0.036118
vt 0.262071 0.036118
vt 0.262071 0.031523
vt 0.270521 0.046364
vt 0.262071 0.046364
vt 0.250332 0.031495
vt 0.250332 0.045177
vt 0.241882 0.045177
vt 0.241882 0.031495
vt 0.270521 0.031523
vt 0.270521 0.036118
vt 0.262071 0.036118
vt 0.262071 0.031523
vt 0.270521 0.046364
vt 0.262071 0.046364
vt 0.250332 0.031495
vt 0.250332 0.045177
vt 0.241882 0.045177
vt 0.241882 0.031495
vt 0.270521 0.031523
vt 0.270521 0.036118
vt 0.262071 0.036118
vt 0.262071 0.031523
vt 0.270521 0.046364
vt 0.262071 0.046364
vt 0.250332 0.031495
vt 0.250332 0.045177
vt 0.241882 0.045177
vt 0.241882 0.031495
vt 0.270521 0.031523
vt 0.270521 0.036118
vt 0.262071 0.036118
vt 0.262071 0.031523
vt 0.270521 0.046364
vt 0.262071 0.046364
vt 0.250332 0.031495
vt 0.250332 0.045177
vt 0.241882 0.045177
vt 0.241882 0.031495
vt 0.270521 0.031523
vt 0.270521 0.036118
vt 0.262071 0.036118
vt 0.262071 0.031523
vt 0.270521 0.046364
vt 0.262071 0.046364
vt 0.250332 0.031495
vt 0.250332 0.045177
vt 0.241882 0.045177
vt 0.241882 0.031495
vt 0.270521 0.031523
vt 0.270521 0.036118
vt 0.262071 0.036118
vt 0.262071 0.031523
vt 0.270521 0.046364
vt 0.262071 0.046364
vt 0.250332 0.031495
vt 0.250332 0.045177
vt 0.241882 0.045177
vt 0.241882 0.031495
vt 0.270521 0.031523
vt 0.270521 0.036118
vt 0.262071 0.036118
vt 0.262071 0.031523
vt 0.270521 0.046364
vt 0.262071 0.046364
vt 0.250332 0.031495
vt 0.250332 0.045177
vt 0.241882 0.045177
vt 0.241882 0.031495
vt 0.270521 0.031523
vt 0.270521 0.036118
vt 0.262071 0.036118
vt 0.262071 0.031523
vt 0.270521 0.046364
vt 0.262071 0.046364
vt 0.250332 0.031495
vt 0.250332 0.045177
vt 0.241882 0.045177
vt 0.241882 0.031495
vt 0.270521 0.031522
vt 0.270521 0.036117
vt 0.262071 0.036118
vt 0.262071 0.031523
vt 0.270522 0.046364
vt 0.262072 0.046364
vt 0.250332 0.031495
vt 0.250332 0.045177
vt 0.241882 0.045177
vt 0.241882 0.031495
vt 0.056836 0.972003
vt 0.048055 0.972003
vt 0.048055 0.027997
vt 0.056836 0.027997
vt 0.048055 0.027996
vt 0.056836 0.027996
vt 0.056836 0.972003
vt 0.048055 0.972003
vt 0.056836 0.972003
vt 0.048055 0.972003
vt 0.048055 0.027996
vt 0.056836 0.027996
vt 0.048055 0.027996
vt 0.056836 0.027996
vt 0.056836 0.972003
vt 0.048055 0.972003
vt 0.076477 0.182190
vt 0.076477 0.040634
vt 0.120384 0.040634
vt 0.120384 0.182190
vt 0.076477 0.029965
vt 0.120384 0.029965
vt 0.120384 0.192859
vt 0.076477 0.192859
vt 0.137129 0.183640
vt 0.137129 0.029965
vt 0.181036 0.029965
vt 0.181036 0.183640
vt 0.076477 0.182190
vt 0.076477 0.040634
vt 0.120384 0.040634
vt 0.120384 0.182190
vt 0.076477 0.029965
vt 0.120384 0.029965
vt 0.120384 0.192859
vt 0.076477 0.192859
vt 0.137129 0.183640
vt 0.137129 0.029965
vt 0.181036 0.029965
vt 0.181036 0.183640
vt 0.076477 0.182190
vt 0.076477 0.040634
vt 0.120384 0.040634
vt 0.120384 0.182190
vt 0.076477 0.029965
vt 0.120384 0.029965
vt 0.120384 0.192859
vt 0.076477 0.192859
vt 0.137129 0.183640
vt 0.137129 0.029965
vt 0.181036 0.029965
vt 0.181036 0.183640
vt 0.076477 0.182190
vt 0.076477 0.040634
vt 0.120384 0.040634
vt 0.120384 0.182190
vt 0.076477 0.029965
vt 0.120384 0.029965
vt 0.120384 0.192859
vt 0.076477 0.192859
vt 0.137129 0.183640
vt 0.137129 0.029965
vt 0.181036 0.029965
vt 0.181036 0.183640
vt 0.076477 0.182190
vt 0.076477 0.040634
vt 0.120384 0.040634
vt 0.120384 0.182190
vt 0.076477 0.029965
vt 0.120384 0.029965
vt 0.120384 0.192859
vt 0.076477 0.192859
vt 0.137129 0.183640
vt 0.137129 0.029965
vt 0.181036 0.029965
vt 0.181036 0.183640
vt 0.076477 0.182190
vt 0.076477 0.040634
vt 0.120384 0.040634
vt 0.120384 0.182190
vt 0.076477 0.029965
vt 0.120384 0.029965
vt 0.120384 0.192859
vt 0.076477 0.192859
vt 0.137129 0.183640
vt 0.137129 0.029965
vt 0.181036 0.029965
vt 0.181036 0.183640
vt 0.076477 0.182190
vt 0.076477 0.040634
vt 0.120384 0.040634
vt 0.120384 0.182190
vt 0.076477 0.029965
vt 0.120384 0.029965
vt 0.120384 0.192859
vt 0.076477 0.192859
vt 0.137129 0.183640
vt 0.137129 0.029965
vt 0.181036 0.029965
vt 0.181036 0.183640
vt 0.076477 0.182190
vt 0.076477 0.040634
vt 0.120384 0.040634
vt 0.120384 0.182190
vt 0.076477 0.029965
vt 0.120384 0.029965
vt 0.120384 0.192859
vt 0.076477 0.192859
vt 0.137129 0.183640
vt 0.137129 0.029965
vt 0.181036 0.029965
vt 0.181036 0.183640
vt 0.076464 0.182186
vt 0.076490 0.040630
vt 0.120397 0.040638
vt 0.120371 0.182194
vt 0.076492 0.029961
vt 0.120399 0.029969
vt 0.120369 0.192863
vt 0.076462 0.192855
vt 0.137129 0.183640
vt 0.137129 0.029965
vt 0.181036 0.029965
vt 0.181036 0.183640
vt 0.076464 0.182186
vt 0.076490 0.040630
vt 0.120397 0.040638
vt 0.120371 0.182194
vt 0.076492 0.029961
vt 0.120399 0.029969
vt 0.120369 0.192863
vt 0.076462 0.192855
vt 0.137129 0.183640
vt 0.137129 0.029965
vt 0.181036 0.029965
vt 0.181036 0.183640
vt 0.076477 0.182190
vt 0.076477 0.040634
vt 0.120384 0.040634
vt 0.120384 0.182190
vt 0.076477 0.029965
vt 0.120384 0.029965
vt 0.120384 0.192859
vt 0.076477 0.192859
vt 0.137129 0.183640
vt 0.137129 0.029965
vt 0.181036 0.029965
vt 0.181036 0.183640
vt 0.278688 0.031298
vt 0.278688 0.044980
vt 0.273953 0.035893
vt 0.273953 0.031298
vt 0.226129 0.031574
vt 0.226129 0.036169
vt 0.221394 0.045255
vt 0.221394 0.031574
vt 0.278688 0.031298
vt 0.278688 0.044980
vt 0.273953 0.035893
vt 0.273953 0.031298
vt 0.226129 0.031574
vt 0.226129 0.036169
vt 0.221394 0.045255
vt 0.221394 0.031574
vt 0.278688 0.031298
vt 0.278688 0.044980
vt 0.273953 0.035893
vt 0.273953 0.031298
vt 0.226129 0.031574
vt 0.226129 0.036169
vt 0.221394 0.045255
vt 0.221394 0.031574
vt 0.278688 0.031298
vt 0.278688 0.044980
vt 0.273953 0.035893
vt 0.273953 0.031298
vt 0.226129 0.031574
vt 0.226129 0.036169
vt 0.221394 0.045255
vt 0.221394 0.031574
vt 0.278688 0.031298
vt 0.278688 0.044980
vt 0.273953 0.035893
vt 0.273953 0.031298
vt 0.226129 0.031574
vt 0.226129 0.036169
vt 0.221394 0.045255
vt 0.221394 0.031574
vt 0.278688 0.031298
vt 0.278688 0.044980
vt 0.273953 0.035893
vt 0.273953 0.031298
vt 0.226129 0.031574
vt 0.226129 0.036169
vt 0.221394 0.045255
vt 0.221394 0.031574
vt 0.278688 0.031298
vt 0.278688 0.044980
vt 0.273953 0.035893
vt 0.273953 0.031298
vt 0.226129 0.031574
vt 0.226129 0.036169
vt 0.221394 0.045255
vt 0.221394 0.031574
vt 0.278688 0.031298
vt 0.278688 0.044980
vt 0.273953 0.035893
vt 0.273953 0.031298
vt 0.226129 0.031574
vt 0.226129 0.036169
vt 0.221394 0.045255
vt 0.221394 0.031574
vt 0.278688 0.031298
vt 0.278688 0.044980
vt 0.273953 0.035893
vt 0.273953 0.031298
vt 0.226129 0.031574
vt 0.226129 0.036169
vt 0.221394 0.045255
vt 0.221394 0.031574
vt 0.278688 0.031298
vt 0.278688 0.044980
vt 0.273953 0.035893
vt 0.273953 0.031298
vt 0.226129 0.031574
vt 0.226129 0.036169
vt 0.221394 0.045255
vt 0.221394 0.031574
vt 0.278688 0.031298
vt 0.278688 0.044980
vt 0.273953 0.035893
vt 0.273953 0.031298
vt 0.226129 0.031574
vt 0.226129 0.036169
vt 0.221394 0.045255
vt 0.221394 0.031574
vt 0.278688 0.031298
vt 0.278688 0.044980
vt 0.273953 0.035893
vt 0.273953 0.031298
vt 0.226129 0.031574
vt 0.226129 0.036169
vt 0.221394 0.045255
vt 0.221394 0.031574
vt 0.278688 0.031298
vt 0.278688 0.044980
vt 0.273953 0.035893
vt 0.273953 0.031298
vt 0.226129 0.031574
vt 0.226129 0.036169
vt 0.221394 0.045255
vt 0.221394 0.031574
vt 0.278688 0.031298
vt 0.278688 0.044980
vt 0.273953 0.035893
vt 0.273953 0.031298
vt 0.226129 0.031574
vt 0.226129 0.036169
vt 0.221394 0.045255
vt 0.221394 0.031574
vt 0.278688 0.031298
vt 0.278688 0.044980
vt 0.273953 0.035893
vt 0.273953 0.031298
vt 0.226129 0.031574
vt 0.226129 0.036169
vt 0.221394 0.045255
vt 0.221394 0.031574
vt 0.278688 0.031298
vt 0.278688 0.044980
vt 0.273953 0.035893
vt 0.273953 0.031298
vt 0.226129 0.031574
vt 0.226129 0.036169
vt 0.221394 0.045255
vt 0.221394 0.031574
vt 0.278688 0.031298
vt 0.278688 0.044980
vt 0.273953 0.035893
vt 0.273953 0.031298
vt 0.226129 0.031574
vt 0.226129 0.036169
vt 0.221394 0.045255
vt 0.221394 0.031574
vt 0.278688 0.031298
vt 0.278688 0.044980
vt 0.273953 0.035893
vt 0.273953 0.031298
vt 0.226129 0.031574
vt 0.226129 0.036169
vt 0.221394 0.045255
vt 0.221394 0.031574
vt 0.278688 0.031298
vt 0.278688 0.044980
vt 0.273953 0.035893
vt 0.273953 0.031298
vt 0.226129 0.031574
vt 0.226129 0.036169
vt 0.221394 0.045255
vt 0.221394 0.031574
vt 0.278688 0.031298
vt 0.278688 0.044980
vt 0.273953 0.035893
vt 0.273953 0.031298
vt 0.226129 0.031574
vt 0.226129 0.036169
vt 0.221394 0.045255
vt 0.221394 0.031574
vt 0.278688 0.031298
vt 0.278688 0.044980
vt 0.273953 0.035893
vt 0.273953 0.031298
vt 0.226129 0.031574
vt 0.226129 0.036169
vt 0.221394 0.045255
vt 0.221394 0.031574
vt 0.278688 0.031298
vt 0.278688 0.044980
vt 0.273953 0.035893
vt 0.273953 0.031298
vt 0.226129 0.031574
vt 0.226129 0.036169
vt 0.221394 0.045255
vt 0.221394 0.031574
vt 0.229809 0.031572
vt 0.238591 0.031572
vt 0.238591 0.040353
vt 0.229809 0.040353
vt 0.238591 0.040353
vt 0.229809 0.040353
vt 0.229809 0.031572
vt 0.238591 0.031572
vt 0.229809 0.031572
vt 0.238590 0.031572
vt 0.238590 0.040353
vt 0.229809 0.040353
vt 0.238590 0.040353
vt 0.229809 0.040353
vt 0.229809 0.031572
vt 0.238590 0.031572
vt 0.196532 0.181768
vt 0.196532 0.028092
vt 0.205313 0.034152
vt 0.205313 0.175708
vt 0.205313 0.034152
vt 0.205313 0.175708
vt 0.196532 0.181768
vt 0.196532 0.028092
vt 0.196532 0.181768
vt 0.196532 0.028092
vt 0.205313 0.034152
vt 0.205313 0.175708
vt 0.205313 0.034152
vt 0.205313 0.175708
vt 0.196532 0.181768
vt 0.196532 0.028092
vt 0.196532 0.181768
vt 0.196532 0.028092
vt 0.205313 0.034152
vt 0.205313 0.175708
vt 0.205313 0.034152
vt 0.205313 0.175708
vt 0.196532 0.181768
vt 0.196532 0.028092
vt 0.196532 0.181768
vt 0.196532 0.028092
vt 0.205313 0.034152
vt 0.205313 0.175708
vt 0.205313 0.034152
vt 0.205313 0.175708
vt 0.196532 0.181768
vt 0.196532 0.028092
vt 0.196532 0.181768
vt 0.196532 0.028092
vt 0.205313 0.034152
vt 0.205313 0.175708
vt 0.205313 0.034152
vt 0.205313 0.175708
vt 0.196532 0.181768
vt 0.196532 0.028092
vt 0.196532 0.181768
vt 0.196532 0.028092
vt 0.205313 0.034152
vt 0.205313 0.175708
vt 0.205313 0.034152
vt 0.205313 0.175708
vt 0.196531 0.181768
vt 0.196531 0.028092
vt 0.196532 0.181768
vt 0.196531 0.028092
vt 0.205313 0.034152
vt 0.205313 0.175708
vt 0.205313 0.034152
vt 0.205313 0.175708
vt 0.196531 0.181768
vt 0.196531 0.028092
vt 0.196532 0.181768
vt 0.196531 0.028092
vt 0.205313 0.034152
vt 0.205313 0.175708
vt 0.205313 0.034152
vt 0.205313 0.175708
vt 0.196532 0.181768
vt 0.196532 0.028092
vt 0.196532 0.181768
vt 0.196531 0.028092
vt 0.205313 0.034152
vt 0.205313 0.175708
vt 0.205313 0.034152
vt 0.205313 0.175708
vt 0.196531 0.181768
vt 0.196532 0.028092
vt 0.196532 0.181768
vt 0.196532 0.028092
vt 0.205313 0.034152
vt 0.205313 0.175708
vt 0.205313 0.034152
vt 0.205313 0.175708
vt 0.196531 0.181768
vt 0.196532 0.028092
vt 0.196532 0.181768
vt 0.196532 0.028092
vt 0.205313 0.034152
vt 0.205313 0.175708
vt 0.205314 0.034152
vt 0.205313 0.175708
vt 0.196531 0.181768
vt 0.196532 0.028092
vn 0.000000 0.000000 -1.000000
vn 0.000000 0.000000 -1.000000
vn 0.000000 0.000000 -1.000000
vn 0.000000 0.000000 -1.000000
vn 0.000000 1.000000 0.000000
vn 0.000000 1.000000 0.000000
vn 0.000000 1.000000 0.000000
vn 0.000000 1.000000 0.000000
vn 0.000000 0.000000 1.000000
vn 0.000000 0.000000 1.000000
vn 0.000000 0.000000 1.000000
vn 0.000000 0.000000 1.000000
vn 0.000000 -1.000000 0.000000
vn 0.000000 -1.000000 0.000000
vn 0.000000 -1.000000 0.000000
vn 0.000000 -1.000000 0.000000
vn -0.462110 0.886823 0.000000
vn -0.462110 0.886823 0.000000
vn -0.462110 0.886823 0.000000
vn -0.462110 0.886823 0.000000
vn 1.000000 0.000000 0.000000
vn 1.000000 0.000000 0.000000
vn 1.000000 0.000000 0.000000
vn 1.000000 0.000000 0.000000
vn 0.000000 0.000000 -1.000000
vn 0.000000 0.000000 -1.000000
vn 0.000000 0.000000 -1.000000
vn 0.000000 0.000000 -1.000000
vn 0.000000 1.000000 0.000000
vn 0.000000 1.000000 0.000000
vn 0.000000 1.000000 0.000000
vn 0.000000 1.000000 0.000000
vn 0.000000 0.000000 1.000000
vn 0.000000 0.000000 1.000000
vn 0.000000 0.000000 1.000000
vn 0.000000 0.000000 1.000000
vn 0.000000 -1.000000 0.000000
vn 0.000000 -1.000000 0.000000
vn 0.000000 -1.000000 0.000000
vn 0.000000 -1.000000 0.000000
vn -0.462110 0.886823 0.000000
vn -0.462110 0.886823 0.000000
vn -0.462110 0.886823 0.000000
vn -0.462110 0.886823 0.000000
vn 1.000000 0.000000 0.000000
vn 1.000000 0.000000 0.000000
vn 1.000000 0.000000 0.000000
vn 1.000000 0.000000 0.000000
vn 0.000000 0.000000 -1.000000
vn 0.000000 0.000000 -1.000000
vn 0.000000 0.000000 -1.000000
vn 0.000000 0.000000 -1.000000
vn 0.000000 1.000000 0.000000
vn 0.000000 1.000000 0.000000
vn 0.000000 1.000000 0.000000
vn 0.000000 1.000000 0.000000
vn 0.000000 0.000000 1.000000
vn 0.000000 0.000000 1.000000
vn 0.000000 0.000000 1.000000
vn 0.000000 0.000000 1.000000
vn 0.000000 -1.000000 0.000000
vn 0.000000 -1.000000 0.000000
vn 0.000000 -1.000000 0.000000
vn 0.000000 -1.000000 0.000000
vn -0.462110 0.886823 0.000000
vn -0.462110 0.886823 0.000000
vn -0.462110 0.886823 0.000000
vn -0.462110 0.886823 0.000000
vn 1.000000 0.000000 0.000000
vn 1.000000 0.000000 0.000000
vn 1.000000 0.000000 0.000000
vn 1.000000 0.000000 0.000000
vn 0.000000 0.000000 -1.000000
vn 0.000000 0.000000 -1.000000
vn 0.000000 0.000000 -1.000000
vn 0.000000 0.000000 -1.000000
vn 0.000000 1.000000 0.000000
vn 0.000000 1.000000 0.000000
vn 0.000000 1.000000 0.000000
vn 0.000000 1.000000 0.000000
vn 0.000000 0.000000 1.000000
vn 0.000000 0.000000 1.000000
vn 0.000000 0.000000 1.000000
vn 0.000000 0.000000 1.000000
vn 0.000000 -1.000000 0.000000
vn 0.000000 -1.000000 0.000000
vn 0.000000 -1.000000 0.000000
vn 0.000000 -1.000000 0.000000
vn -0.462110 0.886823 0.000000
vn -0.462110 0.886823 0.000000
vn -0.462110 0.886823 0.000000
vn -0.462110 0.886823 0.000000
vn 1.000000 0.000000 0.000000
vn 1.000000 0.000000 0.000000
vn 1.000000 0.000000 0.000000
vn 1.000000 0.000000 0.000000
vn 0.000000 0.000000 -1.000000
vn 0.000000 0.000000 -1.000000
vn 0.000000 0.000000 -1.000000
vn 0.000000 0.000000 -1.000000
vn 0.000000 1.000000 0.000000
vn 0.000000 1.000000 0.000000
vn 0.000000 1.000000 0.000000
vn 0.000000 1.000000 0.000000
vn 0.000000 0.000000 1.000000
vn 0.000000 0.000000 1.000000
vn 0.000000 0.000000 1.000000
vn 0.000000 0.000000 1.000000
vn 0.000000 -1.000000 0.000000
vn 0.000000 -1.000000 0.000000
vn 0.000000 -1.000000 0.000000
vn 0.000000 -1.000000 0.000000
vn -0.462110 0.886823 0.000000
vn -0.462110 0.886823 0.000000
vn -0.462110 0.886823 0.000000
vn -0.462110 0.886823 0.000000
vn 1.000000 0.000000 0.000000
vn 1.000000 0.000000 0.000000
vn 1.000000 0.000000 0.000000
vn 1.000000 0.000000 0.000000
vn 0.000000 0.000000 -1.000000
vn 0.000000 0.000000 -1.000000
vn 0.000000 0.000000 -1.000000
vn 0.000000 0.000000 -1.000000
vn 0.000000 1.000000 0.000000
vn 0.000000 1.000000 0.000000
vn 0.000000 1.000000 0.000000
vn 0.000000 1.000000 0.000000
vn 0.000000 0.000000 1.000000
vn 0.000000 0.000000 1.000000
vn 0.000000 0.000000 1.000000
vn 0.000000 0.000000 1.000000
vn 0.000000 -1.000000 0.000000
vn 0.000000 -1.000000 0.000000
vn 0.000000 -1.000000 0.000000
vn 0.000000 -1.000000 0.000000
vn -0.462110 0.886823 0.000000
vn -0.462110 0.886823 0.000000
vn -0.462110 0.886823 0.000000
vn -0.462110 0.886823 0.000000
vn 1.000000 0.000000 0.000000
vn 1.000000 0.000000 0.000000
vn 1.000000 0.000000 0.000000
vn 1.000000 0.000000 0.000000
vn 0.000000 0.000001 -1.000000
vn 0.000000 0.000001 -1.000000
vn 0.000000 0.000001 -1.000000
vn 0.000000 0.000001 -1.000000
vn 0.000000 1.000000 0.000000
vn 0.000000 1.000000 0.000000
vn 0.000000 1.000000 0.000000
vn 0.000000 1.000000 0.000000
vn 0.000000 0.000001 1.000000
vn 0.000000 0.000001 1.000000
vn 0.000000 0.000001 1.000000
vn 0.000000 0.000001 1.000000
vn 0.000000 -1.000000 0.000000
vn 0.000000 -1.000000 0.000000
vn 0.000000 -1.000000 0.000000
vn 0.000000 -1.000000 0.000000
vn -0.462110 0.886823 0.000000
vn -0.462110 0.886823 0.000000
vn -0.462110 0.886822 0.000000
vn -0.462110 0.886822 0.000000
vn 1.000000 0.000000 0.000000
vn 1.000000 0.000000 0.000000
vn 1.000000 0.000000 0.000000
vn 1.000000 0.000000 0.000000
vn 0.000000 0.000000 -1.000000
vn 0.000000 0.000000 -1.000000
vn 0.000000 0.000000 -1.000000
vn 0.000000 0.000000 -1.000000
vn 0.000000 1.000000 0.000000
vn 0.000000 1.000000 0.000000
vn 0.000000 1.000000 0.000000
vn 0.000000 1.000000 0.000000
vn 0.000000 0.000000 1.000000
vn 0.000000 0.000000 1.000000
vn 0.000000 0.000000 1.000000
vn 0.000000 0.000000 1.000000
vn 0.000000 -1.000000 0.000000
vn 0.000000 -1.000000 0.000000
vn 0.000000 -1.000000 0.000000
vn 0.000000 -1.000000 0.000000
vn -0.462110 0.886823 0.000000
vn -0.462110 0.886823 0.000000
vn -0.462110 0.886823 0.000000
vn -0.462110 0.886823 0.000000
vn 1.000000 0.000000 0.000000
vn 1.000000 0.000000 0.000000
vn 1.000000 0.000000 0.000000
vn 1.000000 0.000000 0.000000
vn 0.000000 0.000000 -1.000000
vn 0.000000 0.000000 -1.000000
vn 0.000000 0.000000 -1.000000
vn 0.000000 0.000000 -1.000000
vn 0.000000 1.000000 0.000000
vn 0.000000 1.000000 0.000000
vn 0.000000 1.000000 0.000000
vn 0.000000 1.000000 0.000000
vn 0.000000 0.000000 1.000000
vn 0.000000 0.000000 1.000000
vn 0.000000 0.000000 1.000000
vn 0.000000 0.000000 1.000000
vn 0.000000 -1.000000 0.000000
vn 0.000000 -1.000000 0.000000
vn 0.000000 -1.000000 0.000000
vn 0.000000 -1.000000 0.000000
vn -0.462110 0.886823 0.000000
vn -0.462110 0.886823 0.000000
vn -0.462110 0.886823 0.000000
vn -0.462110 0.886823 0.000000
vn 1.000000 0.000000 0.000000
vn 1.000000 0.000000 0.000000
vn 1.000000 0.000000 0.000000
vn 1.000000 0.000000 0.000000
vn 0.000000 0.000000 -1.000000
vn 0.000000 0.000000 -1.000000
vn 0.000000 0.000000 -1.000000
vn 0.000000 0.000000 -1.000000
vn 0.000000 1.000000 0.000000
vn 0.000000 1.000000 0.000000
vn 0.000000 1.000000 0.000000
vn 0.000000 1.000000 0.000000
vn 0.000000 0.000000 1.000000
vn 0.000000 0.000000 1.000000
vn 0.000000 0.000000 1.000000
vn 0.000000 0.000000 1.000000
vn 0.000000 -1.000000 0.000000
vn 0.000000 -1.000000 0.000000
vn 0.000000 -1.000000 0.000000
vn 0.000000 -1.000000 0.000000
vn -0.462110 0.886823 0.000000
vn -0.462110 0.886823 0.000000
vn -0.462110 0.886823 0.000000
vn -0.462110 0.886823 0.000000
vn 1.000000 0.000000 0.000000
vn 1.000000 0.000000 0.000000
vn 1.000000 0.000000 0.000000
vn 1.000000 0.000000 0.000000
vn 0.000000 0.000000 -1.000000
vn 0.000000 0.000000 -1.000000
vn 0.000000 0.000000 -1.000000
vn 0.000000 0.000000 -1.000000
vn 0.000000 1.000000 0.000000
vn 0.000000 1.000000 0.000000
vn 0.000000 1.000000 0.000000
vn 0.000000 1.000000 0.000000
vn 0.000000 0.000000 1.000000
vn 0.000000 0.000000 1.000000
vn 0.000000 0.000000 1.000000
vn 0.000000 0.000000 1.000000
vn 0.000000 -1.000000 0.000000
vn 0.000000 -1.000000 0.000000
vn 0.000000 -1.000000 0.000000
vn 0.000000 -1.000000 0.000000
vn -0.462110 0.886823 0.000000
vn -0.462110 0.886823 0.000000
vn -0.462110 0.886823 0.000000
vn -0.462110 0.886823 0.000000
vn 1.000000 0.000000 0.000000
vn 1.000000 0.000000 0.000000
vn 1.000000 0.000000 0.000000
vn 1.000000 0.000000 0.000000
vn 0.000000 0.000000 1.000000
vn 0.000000 0.000000 1.000000
vn 0.000000 0.000000 1.000000
vn 0.000000 0.000000 1.000000
vn 0.000000 1.000000 0.000000
vn 0.000000 1.000000 0.000000
vn 0.000000 1.000000 0.000000
vn 0.000000 1.000000 0.000000
vn 0.000000 0.000000 -1.000000
vn 0.000000 0.000000 -1.000000
vn 0.000000 0.000000 -1.000000
vn 0.000000 0.000000 -1.000000
vn 0.000000 -1.000000 0.000000
vn 0.000000 -1.000000 0.000000
vn 0.000000 -1.000000 0.000000
vn 0.000000 -1.000000 0.000000
vn 0.462110 0.886823 0.000000
vn 0.462110 0.886823 0.000000
vn 0.462110 0.886823 0.000000
vn 0.462110 0.886823 0.000000
vn -1.000000 0.000000 0.000000
vn -1.000000 0.000000 0.000000
vn -1.000000 0.000000 0.000000
vn -1.000000 0.000000 0.000000
vn 0.000000 0.000000 1.000000
vn 0.000000 0.000000 1.000000
vn 0.000000 0.000000 1.000000
vn 0.000000 0.000000 1.000000
vn 0.000000 1.000000 0.000000
vn 0.000000 1.000000 0.000000
vn 0.000000 1.000000 0.000000
vn 0.000000 1.000000 0.000000
vn 0.000000 0.000000 -1.000000
vn 0.000000 0.000000 -1.000000
vn 0.000000 0.000000 -1.000000
vn 0.000000 0.000000 -1.000000
vn 0.000000 -1.000000 0.000000
vn 0.000000 -1.000000 0.000000
vn 0.000000 -1.000000 0.000000
vn 0.000000 -1.000000 0.000000
vn 0.462110 0.886823 0.000000
vn 0.462110 0.886823 0.000000
vn 0.462110 0.886823 0.000000
vn 0.462110 0.886823 0.000000
vn -1.000000 0.000000 0.000000
vn -1.000000 0.000000 0.000000
vn -1.000000 0.000000 0.000000
vn -1.000000 0.000000 0.000000
vn 0.000000 0.000000 1.000000
vn 0.000000 0.000000 1.000000
vn 0.000000 0.000000 1.000000
vn 0.000000 0.000000 1.000000
vn 0.000000 1.000000 0.000000
vn 0.000000 1.000000 0.000000
vn 0.000000 1.000000 0.000000
vn 0.000000 1.000000 0.000000
vn 0.000000 0.000000 -1.000000
vn 0.000000 0.000000 -1.000000
vn 0.000000 0.000000 -1.000000
vn 0.000000 0.000000 -1.000000
vn 0.000000 -1.000000 0.000000
vn 0.000000 -1.000000 0.000000
vn 0.000000 -1.000000 0.000000
vn 0.000000 -1.000000 0.000000
vn 0.462110 0.886823 0.000000
vn 0.462110 0.886823 0.000000
vn 0.462110 0.886823 0.000000
vn 0.462110 0.886823 0.000000
vn -1.000000 0.000000 0.000000
vn -1.000000 0.000000 0.000000
vn -1.000000 0.000000 0.000000
vn -1.000000 0.000000 0.000000
vn 0.000000 0.000000 1.000000
vn 0.000000 0.000000 1.000000
vn 0.000000 0.000000 1.000000
vn 0.000000 0.000000 1.000000
vn 0.000000 1.000000 0.000000
vn 0.000000 1.000000 0.000000
vn 0.000000 1.000000 0.000000
vn 0.000000 1.000000 0.000000
vn 0.000000 0.000000 -1.000000
vn 0.000000 0.000000 -1.000000
vn 0.000000 0.000000 -1.000000
vn 0.000000 0.000000 -1.000000
vn 0.000000 -1.000000 0.000000
vn 0.000000 -1.000000 0.000000
vn 0.000000 -1.000000 0.000000
vn 0.000000 -1.000000 0.000000
vn 0.462110 0.886823 0.000000
vn 0.462110 0.886823 0.000000
vn 0.462110 0.886823 0.000000
vn 0.462110 0.886823 0.000000
vn -1.000000 0.000000 0.000000
vn -1.000000 0.000000 0.000000
vn -1.000000 0.000000 0.000000
vn -1.000000 0.000000 0.000000
vn 0.000000 0.000000 1.000000
vn 0.000000 0.000000 1.000000
vn 0.000000 0.000000 1.000000
vn 0.000000 0.000000 1.000000
vn 0.000000 1.000000 0.000000
vn 0.000000 1.000000 0.000000
vn 0.000000 1.000000 0.000000
vn 0.000000 1.000000 0.000000
vn 0.000000 0.000000 -1.000000
vn 0.000000 0.000000 -1.000000
vn 0.000000 0.000000 -1.000000
vn 0.000000 0.000000 -1.000000
vn 0.000000 -1.000000 0.000000
vn 0.000000 -1.000000 0.000000
vn 0.000000 -1.000000 0.000000
vn 0.000000 -1.000000 0.000000
vn 0.462110 0.886823 0.000000
vn 0.462110 0.886823 0.000000
vn 0.462110 0.886823 0.000000
vn 0.462110 0.886823 0.000000
vn -1.000000 0.000000 0.000000
vn -1.000000 0.000000 0.000000
vn -1.000000 0.000000 0.000000
vn -1.000000 0.000000 0.000000
vn 0.000000 0.000000 1.000000
vn 0.000000 0.000000 1.000000
vn 0.000000 0.000000 1.000000
vn 0.000000 0.000000 1.000000
vn 0.000000 1.000000 0.000000
vn 0.000000 1.000000 0.000000
vn 0.000000 1.000000 0.000000
vn 0.000000 1.000000 0.000000
vn 0.000000 0.000000 -1.000000
vn 0.000000 0.000000 -1.000000
vn 0.000000 0.000000 -1.000000
vn 0.000000 0.000000 -1.000000
vn 0.000000 -1.000000 0.000000
vn 0.000000 -1.000000 0.000000
vn 0.000000 -1.000000 0.000000
vn 0.000000 -1.000000 0.000000
vn 0.462110 0.886823 0.000000
vn 0.462110 0.886823 0.000000
vn 0.462110 0.886823 0.000000
vn 0.462110 0.886823 0.000000
vn -1.000000 0.000000 0.000000
vn -1.000000 0.000000 0.000000
vn -1.000000 0.000000 0.000000
vn -1.000000 0.000000 0.000000
vn 0.000000 0.000001 1.000000
vn 0.000000 0.000001 1.000000
vn 0.000000 0.000001 1.000000
vn 0.000000 0.000001 1.000000
vn 0.000000 1.000000 0.000000
vn 0.000000 1.000000 0.000000
vn 0.000000 1.000000 0.000000
vn 0.000000 1.000000 0.000000
vn 0.000000 0.000001 -1.000000
vn 0.000000 0.000001 -1.000000
vn 0.000000 0.000001 -1.000000
vn 0.000000 0.000001 -1.000000
vn 0.000000 -1.000000 0.000000
vn 0.000000 -1.000000 0.000000
vn 0.000000 -1.000000 0.000000
vn 0.000000 -1.000000 0.000000
vn 0.462110 0.886822 0.000000
vn 0.462110 0.886822 0.000000
vn 0.462110 0.886823 0.000000
vn 0.462110 0.886823 0.000000
vn -1.000000 0.000000 0.000000
vn -1.000000 0.000000 0.000000
vn -1.000000 0.000000 0.000000
vn -1.000000 0.000000 0.000000
vn 0.000000 0.000000 1.000000
vn 0.000000 0.000000 1.000000
vn 0.000000 0.000000 1.000000
vn 0.000000 0.000000 1.000000
vn 0.000000 1.000000 0.000000
vn 0.000000 1.000000 0.000000
vn 0.000000 1.000000 0.000000
vn 0.000000 1.000000 0.000000
vn 0.000000 0.000000 -1.000000
vn 0.000000 0.000000 -1.000000
vn 0.000000 0.000000 -1.000000
vn 0.000000 0.000000 -1.000000
vn 0.000000 -1.000000 0.000000
vn 0.000000 -1.000000 0.000000
vn 0.000000 -1.000000 0.000000
vn 0.000000 -1.000000 0.000000
vn 0.462110 0.886823 0.000000
vn 0.462110 0.886823 0.000000
vn 0.462110 0.886823 0.000000
vn 0.462110 0.886823 0.000000
vn -1.000000 0.000000 0.000000
vn -1.000000 0.000000 0.000000
vn -1.000000 0.000000 0.000000
vn -1.000000 0.000000 0.000000
vn 0.000000 0.000000 1.000000
vn 0.000000 0.000000 1.000000
vn 0.000000 0.000000 1.000000
vn 0.000000 0.000000 1.000000
vn 0.000000 1.000000 0.000000
vn 0.000000 1.000000 0.000000
vn 0.000000 1.000000 0.000000
vn 0.000000 1.000000 0.000000
vn 0.000000 0.000000 -1.000000
vn 0.000000 0.000000 -1.000000
vn 0.000000 0.000000 -1.000000
vn 0.000000 0.000000 -1.000000
vn 0.000000 -1.000000 0.000000
vn 0.000000 -1.000000 0.000000
vn 0.000000 -1.000000 0.000000
vn 0.000000 -1.000000 0.000000
vn 0.462110 0.886823 0.000000
vn 0.462110 0.886823 0.000000
vn 0.462110 0.886823 0.000000
vn 0.462110 0.886823 0.000000
vn -1.000000 0.000000 0.000000
vn -1.000000 0.000000 0.000000
vn -1.000000 0.000000 0.000000
vn -1.000000 0.000000 0.000000
vn 0.000000 0.000000 1.000000
vn 0.000000 0.000000 1.000000
vn 0.000000 0.000000 1.000000
vn 0.000000 0.000000 1.000000
vn 0.000000 1.000000 0.000000
vn 0.000000 1.000000 0.000000
vn 0.000000 1.000000 0.000000
vn 0.000000 1.000000 0.000000
vn 0.000000 0.000000 -1.000000
vn 0.000000 0.000000 -1.000000
vn 0.000000 0.000000 -1.000000
vn 0.000000 0.000000 -1.000000
vn 0.000000 -1.000000 0.000000
vn 0.000000 -1.000000 0.000000
vn 0.000000 -1.000000 0.000000
vn 0.000000 -1.000000 0.000000
vn 0.462110 0.886823 0.000000
vn 0.462110 0.886823 0.000000
vn 0.462110 0.886823 0.000000
vn 0.462110 0.886823 0.000000
vn -1.000000 0.000000 0.000000
vn -1.000000 0.000000 0.000000
vn -1.000000 0.000000 0.000000
vn -1.000000 0.000000 0.000000
vn 0.000000 0.000000 1.000000
vn 0.000000 0.000000 1.000000
vn 0.000000 0.000000 1.000000
vn 0.000000 0.000000 1.000000
vn 0.000000 1.000000 0.000000
vn 0.000000 1.000000 0.000000
vn 0.000000 1.000000 0.000000
vn 0.000000 1.000000 0.000000
vn 0.000000 0.000000 -1.000000
vn 0.000000 0.000000 -1.000000
vn 0.000000 0.000000 -1.000000
vn 0.000000 0.000000 -1.000000
vn 0.000000 -1.000000 0.000000
vn 0.000000 -1.000000 0.000000
vn 0.000000 -1.000000 0.000000
vn 0.000000 -1.000000 0.000000
vn 0.462110 0.886823 0.000000
vn 0.462110 0.886823 0.000000
vn 0.462110 0.886823 0.000000
vn 0.462110 0.886823 0.000000
vn -1.000000 0.000000 0.000000
vn -1.000000 0.000000 0.000000
vn -1.000000 0.000000 0.000000
vn -1.000000 0.000000 0.000000
vn 0.000000 0.000000 1.000000
vn 0.000000 0.000000 1.000000
vn 0.000000 0.000000 1.000000
vn 0.000000 0.000000 1.000000
vn 0.000000 1.000000 0.000000
vn 0.000000 1.000000 0.000000
vn 0.000000 1.000000 0.000000
vn 0.000000 1.000000 0.000000
vn 0.000000 0.000000 -1.000000
vn 0.000000 0.000000 -1.000000
vn 0.000000 0.000000 -1.000000
vn 0.000000 0.000000 -1.000000
vn 0.000000 -1.000000 0.000000
vn 0.000000 -1.000000 0.000000
vn 0.000000 -1.000000 0.000000
vn 0.000000 -1.000000 0.000000
vn 1.000000 0.000000 0.000000
vn 1.000000 0.000000 0.000000
vn 1.000000 0.000000 0.000000
vn 1.000000 0.000000 0.000000
vn -1.000000 0.000000 0.000000
vn -1.000000 0.000000 0.000000
vn -1.000000 0.000000 0.000000
vn -1.000000 0.000000 0.000000
vn 0.000000 0.000000 1.000000
vn 0.000000 0.000000 1.000000
vn 0.000000 0.000000 1.000000
vn 0.000000 0.000000 1.000000
vn 0.000000 1.000000 0.000000
vn 0.000000 1.000000 0.000000
vn 0.000000 1.000000 0.000000
vn 0.000000 1.000000 0.000000
vn 0.000000 0.000000 -1.000000
vn 0.000000 0.000000 -1.000000
vn 0.000000 0.000000 -1.000000
vn 0.000000 0.000000 -1.000000
vn 0.000000 -1.000000 0.000000
vn 0.000000 -1.000000 0.000000
vn 0.000000 -1.000000 0.000000
vn 0.000000 -1.000000 0.000000
vn 1.000000 0.000000 0.000000
vn 1.000000 0.000000 0.000000
vn 1.000000 0.000000 0.000000
vn 1.000000 0.000000 0.000000
vn -1.000000 0.000000 0.000000
vn -1.000000 0.000000 0.000000
vn -1.000000 0.000000 0.000000
vn -1.000000 0.000000 0.000000
vn 0.000000 0.000000 1.000000
vn 0.000000 0.000000 1.000000
vn 0.000000 0.000000 1.000000
vn 0.000000 0.000000 1.000000
vn 0.000000 1.000000 0.000000
vn 0.000000 1.000000 0.000000
vn 0.000000 1.000000 0.000000
vn 0.000000 1.000000 0.000000
vn 0.000000 0.000000 -1.000000
vn 0.000000 0.000000 -1.000000
vn 0.000000 0.000000 -1.000000
vn 0.000000 0.000000 -1.000000
vn 0.000000 -1.000000 0.000000
vn 0.000000 -1.000000 0.000000
vn 0.000000 -1.000000 0.000000
vn 0.000000 -1.000000 0.000000
vn 0.823055 0.567962 0.000000
vn 0.823055 0.567962 0.000000
vn 0.823055 0.567962 0.000000
vn 0.823055 0.567962 0.000000
vn -0.823054 0.567963 0.000000
vn -0.823054 0.567963 0.000000
vn -0.823054 0.567963 0.000000
vn -0.823054 0.567963 0.000000
vn 0.000000 0.000000 1.000000
vn 0.000000 0.000000 1.000000
vn 0.000000 0.000000 1.000000
vn 0.000000 0.000000 1.000000
vn 0.000000 1.000000 0.000000
vn 0.000000 1.000000 0.000000
vn 0.000000 1.000000 0.000000
vn 0.000000 1.000000 0.000000
vn 0.000000 0.000000 -1.000000
vn 0.000000 0.000000 -1.000000
vn 0.000000 0.000000 -1.000000
vn 0.000000 0.000000 -1.000000
vn 0.000000 -1.000000 0.000000
vn 0.000000 -1.000000 0.000000
vn 0.000000 -1.000000 0.000000
vn 0.000000 -1.000000 0.000000
vn 0.823054 0.567963 0.000000
vn 0.823054 0.567963 0.000000
vn 0.823054 0.567963 0.000000
vn 0.823054 0.567963 0.000000
vn -0.823054 0.567963 0.000000
vn -0.823054 0.567963 0.000000
vn -0.823054 0.567963 0.000000
vn -0.823054 0.567963 0.000000
vn 0.000000 0.000000 1.000000
vn 0.000000 0.000000 1.000000
vn 0.000000 0.000000 1.000000
vn 0.000000 0.000000 1.000000
vn 0.000000 1.000000 0.000000
vn 0.000000 1.000000 0.000000
vn 0.000000 1.000000 0.000000
vn 0.000000 1.000000 0.000000
vn 0.000000 0.000000 -1.000000
vn 0.000000 0.000000 -1.000000
vn 0.000000 0.000000 -1.000000
vn 0.000000 0.000000 -1.000000
vn 0.000000 -1.000000 0.000000
vn 0.000000 -1.000000 0.000000
vn 0.000000 -1.000000 0.000000
vn 0.000000 -1.000000 0.000000
vn 0.823054 0.567963 0.000000
vn 0.823054 0.567963 0.000000
vn 0.823054 0.567963 0.000000
vn 0.823054 0.567963 0.000000
vn -0.823054 0.567963 0.000000
vn -0.823054 0.567963 0.000000
vn -0.823054 0.567963 0.000000
vn -0.823054 0.567963 0.000000
vn 0.000000 0.000000 1.000000
vn 0.000000 0.000000 1.000000
vn 0.000000 0.000000 1.000000
vn 0.000000 0.000000 1.000000
vn 0.000000 1.000000 0.000000
vn 0.000000 1.000000 0.000000
vn 0.000000 1.000000 0.000000
vn 0.000000 1.000000 0.000000
vn 0.000000 0.000000 -1.000000
vn 0.000000 0.000000 -1.000000
vn 0.000000 0.000000 -1.000000
vn 0.000000 0.000000 -1.000000
vn 0.000000 -1.000000 0.000000
vn 0.000000 -1.000000 0.000000
vn 0.000000 -1.000000 0.000000
vn 0.000000 -1.000000 0.000000
vn 0.823054 0.567963 0.000000
vn 0.823054 0.567963 0.000000
vn 0.823054 0.567963 0.000000
vn 0.823054 0.567963 0.000000
vn -0.823054 0.567963 0.000000
vn -0.823054 0.567963 0.000000
vn -0.823054 0.567963 0.000000
vn -0.823054 0.567963 0.000000
vn 0.000000 0.000000 1.000000
vn 0.000000 0.000000 1.000000
vn 0.000000 0.000000 1.000000
vn 0.000000 0.000000 1.000000
vn 0.000000 1.000000 0.000000
vn 0.000000 1.000000 0.000000
vn 0.000000 1.000000 0.000000
vn 0.000000 1.000000 0.000000
vn 0.000000 0.000000 -1.000000
vn 0.000000 0.000000 -1.000000
vn 0.000000 0.000000 -1.000000
vn 0.000000 0.000000 -1.000000
vn 0.000000 -1.000000 0.000000
vn 0.000000 -1.000000 0.000000
vn 0.000000 -1.000000 0.000000
vn 0.000000 -1.000000 0.000000
vn 0.823054 0.567963 0.000000
vn 0.823054 0.567963 0.000000
vn 0.823054 0.567963 0.000000
vn 0.823054 0.567963 0.000000
vn -0.823054 0.567963 0.000000
vn -0.823054 0.567963 0.000000
vn -0.823054 0.567963 0.000000
vn -0.823054 0.567963 0.000000
vn 0.000000 0.000000 1.000000
vn 0.000000 0.000000 1.000000
vn 0.000000 0.000000 1.000000
vn 0.000000 0.000000 1.000000
vn 0.000000 1.000000 0.000000
vn 0.000000 1.000000 0.000000
vn 0.000000 1.000000 0.000000
vn 0.000000 1.000000 0.000000
vn 0.000000 0.000000 -1.000000
vn 0.000000 0.000000 -1.000000
vn 0.000000 0.000000 -1.000000
vn 0.000000 0.000000 -1.000000
vn 0.000000 -1.000000 0.000000
vn 0.000000 -1.000000 0.000000
vn 0.000000 -1.000000 0.000000
vn 0.000000 -1.000000 0.000000
vn 0.823054 0.567963 0.000000
vn 0.823054 0.567963 0.000000
vn 0.823054 0.567963 0.000000
vn 0.823054 0.567963 0.000000
vn -0.823054 0.567963 0.000000
vn -0.823054 0.567963 0.000000
vn -0.823054 0.567963 0.000000
vn -0.823054 0.567963 0.000000
vn 0.000000 0.000000 1.000000
vn 0.000000 0.000000 1.000000
vn 0.000000 0.000000 1.000000
vn 0.000000 0.000000 1.000000
vn 0.000000 1.000000 0.000000
vn 0.000000 1.000000 0.000000
vn 0.000000 1.000000 0.000000
vn 0.000000 1.000000 0.000000
vn 0.000000 0.000000 -1.000000
vn 0.000000 0.000000 -1.000000
vn 0.000000 0.000000 -1.000000
vn 0.000000 0.000000 -1.000000
vn 0.000000 -1.000000 0.000000
vn 0.000000 -1.000000 0.000000
vn 0.000000 -1.000000 0.000000
vn 0.000000 -1.000000 0.000000
vn 0.823054 0.567963 0.000000
vn 0.823054 0.567963 0.000000
vn 0.823054 0.567963 0.000000
vn 0.823054 0.567963 0.000000
vn -0.823054 0.567963 0.000000
vn -0.823054 0.567963 0.000000
vn -0.823054 0.567963 0.000000
vn -0.823054 0.567963 0.000000
vn 0.000000 0.000000 1.000000
vn 0.000000 0.000000 1.000000
vn 0.000000 0.000000 1.000000
vn 0.000000 0.000000 1.000000
vn 0.000000 1.000000 0.000000
vn 0.000000 1.000000 0.000000
vn 0.000000 1.000000 0.000000
vn 0.000000 1.000000 0.000000
vn 0.000000 0.000000 -1.000000
vn 0.000000 0.000000 -1.000000
vn 0.000000 0.000000 -1.000000
vn 0.000000 0.000000 -1.000000
vn 0.000000 -1.000000 0.000000
vn 0.000000 -1.000000 0.000000
vn 0.000000 -1.000000 0.000000
vn 0.000000 -1.000000 0.000000
vn 0.823054 0.567963 0.000000
vn 0.823054 0.567963 0.000000
vn 0.823054 0.567963 0.000000
vn 0.823054 0.567963 0.000000
vn -0.823054 0.567963 0.000000
vn -0.823054 0.567963 0.000000
vn -0.823054 0.567963 0.000000
vn -0.823054 0.567963 0.000000
vn 0.000000 0.000000 1.000000
vn 0.000000 0.000000 1.000000
vn 0.000000 0.000000 1.000000
vn 0.000000 0.000000 1.000000
vn 0.000000 1.000000 0.000000
vn 0.000000 1.000000 0.000000
vn 0.000000 1.000000 0.000000
vn 0.000000 1.000000 0.000000
vn 0.000000 0.000000 -1.000000
vn 0.000000 0.000000 -1.000000
vn 0.000000 0.000000 -1.000000
vn 0.000000 0.000000 -1.000000
vn 0.000000 -1.000000 0.000000
vn 0.000000 -1.000000 0.000000
vn 0.000000 -1.000000 0.000000
vn 0.000000 -1.000000 0.000000
vn 0.823054 0.567963 0.000000
vn 0.823054 0.567963 0.000000
vn 0.823054 0.567963 0.000000
vn 0.823054 0.567963 0.000000
vn -0.823054 0.567963 0.000000
vn -0.823054 0.567963 0.000000
vn -0.823054 0.567963 0.000000
vn -0.823054 0.567963 0.000000
vn 0.000000 0.000000 1.000000
vn 0.000000 0.000000 1.000000
vn 0.000000 0.000000 1.000000
vn 0.000000 0.000000 1.000000
vn 0.000000 1.000000 0.000000
vn 0.000000 1.000000 0.000000
vn 0.000000 1.000000 0.000000
vn 0.000000 1.000000 0.000000
vn 0.000000 0.000000 -1.000000
vn 0.000000 0.000000 -1.000000
vn 0.000000 0.000000 -1.000000
vn 0.000000 0.000000 -1.000000
vn 0.000000 -1.000000 0.000000
vn 0.000000 -1.000000 0.000000
vn 0.000000 -1.000000 0.000000
vn 0.000000 -1.000000 0.000000
vn 0.823055 0.567962 0.000000
vn 0.823055 0.567962 0.000000
vn 0.823055 0.567962 0.000000
vn 0.823055 0.567962 0.000000
vn -0.823054 0.567963 0.000000
vn -0.823054 0.567963 0.000000
vn -0.823054 0.567963 0.000000
vn -0.823054 0.567963 0.000000
vn 0.000000 0.000000 1.000000
vn 0.000000 0.000000 1.000000
vn 0.000000 0.000000 1.000000
vn 0.000000 0.000000 1.000000
vn 0.000000 1.000000 0.000000
vn 0.000000 1.000000 0.000000
vn 0.000000 1.000000 0.000000
vn 0.000000 1.000000 0.000000
vn 0.000000 0.000000 -1.000000
vn 0.000000 0.000000 -1.000000
vn 0.000000 0.000000 -1.000000
vn 0.000000 0.000000 -1.000000
vn 0.000000 -1.000000 0.000000
vn 0.000000 -1.000000 0.000000
vn 0.000000 -1.000000 0.000000
vn 0.000000 -1.000000 0.000000
vn 0.823054 0.567963 0.000000
vn 0.823054 0.567963 0.000000
vn 0.823054 0.567963 0.000000
vn 0.823054 0.567963 0.000000
vn -0.823054 0.567963 0.000000
vn -0.823054 0.567963 0.000000
vn -0.823054 0.567963 0.000000
vn -0.823054 0.567963 0.000000
s off
g TrainTrackPast
usemtl initialShadingGroup
f 1/473/1 2/474/2 4/475/3 3/476/4
f 3/105/5 4/106/6 6/107/7 5/108/8
f 5/477/9 6/478/10 8/479/11 7/480/12
f 7/111/13 8/112/14 2/113/15 1/114/16
f 2/109/17 8/110/18 6/107/19 4/106/20
f 7/1/21 1/2/22 3/3/23 5/4/24
f 9/481/25 10/482/26 12/483/27 11/484/28
f 11/115/29 12/116/30 14/117/31 13/118/32
f 13/485/33 14/486/34 16/487/35 15/488/36
f 15/121/37 16/122/38 10/123/39 9/124/40
f 10/119/41 16/120/42 14/117/43 12/116/44
f 15/5/45 9/6/46 11/7/47 13/8/48
f 17/489/49 18/490/50 20/491/51 19/492/52
f 19/125/53 20/126/54 22/127/55 21/128/56
f 21/493/57 22/494/58 24/495/59 23/496/60
f 23/131/61 24/132/62 18/133/63 17/134/64
f 18/129/65 24/130/66 22/127/67 20/126/68
f 23/9/69 17/10/70 19/11/71 21/12/72
f 25/497/73 26/498/74 28/499/75 27/500/76
f 27/135/77 28/136/78 30/137/79 29/138/80
f 29/501/81 30/502/82 32/503/83 31/504/84
f 31/141/85 32/142/86 26/143/87 25/144/88
f 26/139/89 32/140/90 30/137/91 28/136/92
f 31/13/93 25/14/94 27/15/95 29/16/96
f 33/505/97 34/506/98 36/507/99 35/508/100
f 35/145/101 36/146/102 38/147/103 37/148/104
f 37/509/105 38/510/106 40/511/107 39/512/108
f 39/151/109 40/152/110 34/153/111 33/154/112
f 34/149/113 40/150/114 38/147/115 36/146/116
f 39/17/117 33/18/118 35/19/119 37/20/120
f 41/513/121 42/514/122 44/515/123 43/516/124
f 43/155/125 44/156/126 46/157/127 45/158/128
f 45/517/129 46/518/130 48/519/131 47/520/132
f 47/161/133 48/162/134 42/163/135 41/164/136
f 42/159/137 48/160/138 46/157/139 44/156/140
f 47/21/141 41/22/142 43/23/143 45/24/144
f 49/521/145 50/522/146 52/523/147 51/524/148
f 51/165/149 52/166/150 54/167/151 53/168/152
f 53/525/153 54/526/154 56/527/155 55/528/156
f 55/171/157 56/172/158 50/173/159 49/174/160
f 50/169/161 56/170/162 54/167/163 52/166/164
f 55/25/165 49/26/166 51/27/167 53/28/168
f 57/529/169 58/530/170 60/531/171 59/532/172
f 59/175/173 60/176/174 62/177/175 61/178/176
f 61/533/177 62/534/178 64/535/179 63/536/180
f 63/181/181 64/182/182 58/183/183 57/184/184
f 58/179/185 64/180/186 62/177/187 60/176/188
f 63/29/189 57/30/190 59/31/191 61/32/192
f 65/537/193 66/538/194 68/539/195 67/540/196
f 67/185/197 68/186/198 70/187/199 69/188/200
f 69/541/201 70/542/202 72/543/203 71/544/204
f 71/191/205 72/192/206 66/193/207 65/194/208
f 66/189/209 72/190/210 70/187/211 68/186/212
f 71/33/213 65/34/214 67/35/215 69/36/216
f 73/545/217 74/546/218 76/547/219 75/548/220
f 75/195/221 76/196/222 78/197/223 77/198/224
f 77/549/225 78/550/226 80/551/227 79/552/228
f 79/201/229 80/202/230 74/203/231 73/204/232
f 74/199/233 80/200/234 78/197/235 76/196/236
f 79/37/237 73/38/238 75/39/239 77/40/240
f 81/553/241 82/554/242 84/555/243 83/556/244
f 83/205/245 84/206/246 86/207/247 85/208/248
f 85/557/249 86/558/250 88/559/251 87/560/252
f 87/211/253 88/212/254 82/213/255 81/214/256
f 82/209/257 88/210/258 86/207/259 84/206/260
f 87/41/261 81/42/262 83/43/263 85/44/264
f 89/561/265 90/562/266 92/563/267 91/564/268
f 91/215/269 92/216/270 94/217/271 93/218/272
f 93/565/273 94/566/274 96/567/275 95/568/276
f 95/221/277 96/222/278 90/223/279 89/224/280
f 90/219/281 96/220/282 94/217/283 92/216/284
f 95/45/285 89/46/286 91/47/287 93/48/288
f 97/569/289 98/570/290 100/571/291 99/572/292
f 99/225/293 100/226/294 102/227/295 101/228/296
f 101/573/297 102/574/298 104/575/299 103/576/300
f 103/231/301 104/232/302 98/233/303 97/234/304
f 98/229/305 104/230/306 102/227/307 100/226/308
f 103/49/309 97/50/310 99/51/311 101/52/312
f 105/577/313 106/578/314 108/579/315 107/580/316
f 107/235/317 108/236/318 110/237/319 109/238/320
f 109/581/321 110/582/322 112/583/323 111/584/324
f 111/241/325 112/242/326 106/243/327 105/244/328
f 106/239/329 112/240/330 110/237/331 108/236/332
f 111/53/333 105/54/334 107/55/335 109/56/336
f 113/585/337 114/586/338 116/587/339 115/588/340
f 115/245/341 116/246/342 118/247/343 117/248/344
f 117/589/345 118/590/346 120/591/347 119/592/348
f 119/251/349 120/252/350 114/253/351 113/254/352
f 114/249/353 120/250/354 118/247/355 116/246/356
f 119/57/357 113/58/358 115/59/359 117/60/360
f 121/593/361 122/594/362 124/595/363 123/596/364
f 123/255/365 124/256/366 126/257/367 125/258/368
f 125/597/369 126/598/370 128/599/371 127/600/372
f 127/261/373 128/262/374 122/263/375 121/264/376
f 122/259/377 128/260/378 126/257/379 124/256/380
f 127/61/381 121/62/382 123/63/383 125/64/384
f 129/601/385 130/602/386 132/603/387 131/604/388
f 131/265/389 132/266/390 134/267/391 133/268/392
f 133/605/393 134/606/394 136/607/395 135/608/396
f 135/271/397 136/272/398 130/273/399 129/274/400
f 130/269/401 136/270/402 134/267/403 132/266/404
f 135/65/405 129/66/406 131/67/407 133/68/408
f 137/609/409 138/610/410 140/611/411 139/612/412
f 139/275/413 140/276/414 142/277/415 141/278/416
f 141/613/417 142/614/418 144/615/419 143/616/420
f 143/281/421 144/282/422 138/283/423 137/284/424
f 138/279/425 144/280/426 142/277/427 140/276/428
f 143/69/429 137/70/430 139/71/431 141/72/432
f 145/617/433 146/618/434 148/619/435 147/620/436
f 147/285/437 148/286/438 150/287/439 149/288/440
f 149/621/441 150/622/442 152/623/443 151/624/444
f 151/291/445 152/292/446 146/293/447 145/294/448
f 146/289/449 152/290/450 150/287/451 148/286/452
f 151/73/453 145/74/454 147/75/455 149/76/456
f 153/625/457 154/626/458 156/627/459 155/628/460
f 155/295/461 156/296/462 158/297/463 157/298/464
f 157/629/465 158/630/466 160/631/467 159/632/468
f 159/301/469 160/302/470 154/303/471 153/304/472
f 154/299/473 160/300/474 158/297/475 156/296/476
f 159/77/477 153/78/478 155/79/479 157/80/480
f 161/633/481 162/634/482 164/635/483 163/636/484
f 163/305/485 164/306/486 166/307/487 165/308/488
f 165/637/489 166/638/490 168/639/491 167/640/492
f 167/311/493 168/312/494 162/313/495 161/314/496
f 162/309/497 168/310/498 166/307/499 164/306/500
f 167/81/501 161/82/502 163/83/503 165/84/504
f 169/641/505 170/642/506 172/643/507 171/644/508
f 171/315/509 172/316/510 174/317/511 173/318/512
f 173/645/513 174/646/514 176/647/515 175/648/516
f 175/321/517 176/322/518 170/323/519 169/324/520
f 170/319/521 176/320/522 174/317/523 172/316/524
f 175/85/525 169/86/526 171/87/527 173/88/528
f 177/649/529 178/650/530 180/651/531 179/652/532
f 179/325/533 180/326/534 182/327/535 181/328/536
f 181/653/537 182/654/538 184/655/539 183/656/540
f 183/329/541 184/330/542 178/331/543 177/332/544
f 178/89/545 184/90/546 182/91/547 180/92/548
f 183/93/549 177/94/550 179/95/551 181/96/552
f 185/657/553 186/658/554 188/659/555 187/660/556
f 187/333/557 188/334/558 190/335/559 189/336/560
f 189/661/561 190/662/562 192/663/563 191/664/564
f 191/337/565 192/338/566 186/339/567 185/340/568
f 186/97/569 192/98/570 190/99/571 188/100/572
f 191/101/573 185/102/574 187/103/575 189/104/576
f 193/665/577 194/666/578 196/667/579 195/668/580
f 195/341/581 196/342/582 198/343/583 197/344/584
f 197/669/585 198/670/586 200/671/587 199/672/588
f 199/349/589 200/350/590 194/351/591 193/352/592
f 194/345/593 200/346/594 198/343/595 196/342/596
f 199/347/597 193/348/598 195/341/599 197/344/600
f 201/673/601 202/674/602 204/675/603 203/676/604
f 203/353/605 204/354/606 206/355/607 205/356/608
f 205/677/609 206/678/610 208/679/611 207/680/612
f 207/361/613 208/362/614 202/363/615 201/364/616
f 202/357/617 208/358/618 206/355/619 204/354/620
f 207/359/621 201/360/622 203/353/623 205/356/624
f 209/681/625 210/682/626 212/683/627 211/684/628
f 211/365/629 212/366/630 214/367/631 213/368/632
f 213/685/633 214/686/634 216/687/635 215/688/636
f 215/373/637 216/374/638 210/375/639 209/376/640
f 210/369/641 216/370/642 214/367/643 212/366/644
f 215/371/645 209/372/646 211/365/647 213/368/648
f 217/689/649 218/690/650 220/691/651 219/692/652
f 219/377/653 220/378/654 222/379/655 221/380/656
f 221/693/657 222/694/658 224/695/659 223/696/660
f 223/385/661 224/386/662 218/387/663 217/388/664
f 218/381/665 224/382/666 222/379/667 220/378/668
f 223/383/669 217/384/670 219/377/671 221/380/672
f 225/697/673 226/698/674 228/699/675 227/700/676
f 227/389/677 228/390/678 230/391/679 229/392/680
f 229/701/681 230/702/682 232/703/683 231/704/684
f 231/397/685 232/398/686 226/399/687 225/400/688
f 226/393/689 232/394/690 230/391/691 228/390/692
f 231/395/693 225/396/694 227/389/695 229/392/696
f 233/705/697 234/706/698 236/707/699 235/708/700
f 235/401/701 236/402/702 238/403/703 237/404/704
f 237/709/705 238/710/706 240/711/707 239/712/708
f 239/409/709 240/410/710 234/411/711 233/412/712
f 234/405/713 240/406/714 238/403/715 236/402/716
f 239/407/717 233/408/718 235/401/719 237/404/720
f 241/713/721 242/714/722 244/715/723 243/716/724
f 243/413/725 244/414/726 246/415/727 245/416/728
f 245/717/729 246/718/730 248/719/731 247/720/732
f 247/421/733 248/422/734 242/423/735 241/424/736
f 242/417/737 248/418/738 246/415/739 244/414/740
f 247/419/741 241/420/742 243/413/743 245/416/744
f 249/721/745 250/722/746 252/723/747 251/724/748
f 251/425/749 252/426/750 254/427/751 253/428/752
f 253/725/753 254/726/754 256/727/755 255/728/756
f 255/433/757 256/434/758 250/435/759 249/436/760
f 250/429/761 256/430/762 254/427/763 252/426/764
f 255/431/765 249/432/766 251/425/767 253/428/768
f 257/729/769 258/730/770 260/731/771 259/732/772
f 259/437/773 260/438/774 262/439/775 261/440/776
f 261/733/777 262/734/778 264/735/779 263/736/780
f 263/445/781 264/446/782 258/447/783 257/448/784
f 258/441/785 264/442/786 262/439/787 260/438/788
f 263/443/789 257/444/790 259/437/791 261/440/792
f 265/737/793 266/738/794 268/739/795 267/740/796
f 267/449/797 268/450/798 270/451/799 269/452/800
f 269/741/801 270/742/802 272/743/803 271/744/804
f 271/457/805 272/458/806 266/459/807 265/460/808
f 266/453/809 272/454/810 270/451/811 268/450/812
f 271/455/813 265/456/814 267/449/815 269/452/816
f 273/745/817 274/746/818 276/747/819 275/748/820
f 275/461/821 276/462/822 278/463/823 277/464/824
f 277/749/825 278/750/826 280/751/827 279/752/828
f 279/469/829 280/470/830 274/471/831 273/472/832
f 274/465/833 280/466/834 278/463/835 276/462/836
f 279/467/837 273/468/838 275/461/839 277/464/840
