# This file uses centimeters as units for non-parametric coordinates.

mtllib TrainTrackPresent.mtl
g default
v -0.279762 0.038823 -1.904384
v -0.340248 0.038823 -1.904384
v -0.279762 0.059755 -1.904384
v -0.300077 0.059755 -1.904384
v -0.279762 0.059755 -1.867028
v -0.300077 0.059755 -1.867028
v -0.279762 0.038823 -1.867028
v -0.340248 0.038823 -1.867028
v -0.279762 0.038823 -1.524384
v -0.340248 0.038823 -1.524384
v -0.279762 0.059755 -1.524384
v -0.300077 0.059755 -1.524384
v -0.279762 0.059755 -1.487028
v -0.300077 0.059755 -1.487028
v -0.279762 0.038823 -1.487028
v -0.340248 0.038823 -1.487028
v -0.279762 0.038823 -1.141690
v -0.340248 0.038823 -1.141690
v -0.279762 0.059755 -1.141690
v -0.300077 0.059755 -1.141690
v -0.279762 0.059755 -1.104333
v -0.300077 0.059755 -1.104333
v -0.279762 0.038823 -1.104333
v -0.340248 0.038823 -1.104333
v -0.279762 0.038823 -0.767964
v -0.340248 0.038823 -0.767964
v -0.279762 0.059755 -0.767964
v -0.300077 0.059755 -0.767964
v -0.279762 0.059755 -0.730608
v -0.300077 0.059755 -0.730608
v -0.279762 0.038823 -0.730608
v -0.340248 0.038823 -0.730608
v -0.279762 0.038823 -0.388674
v -0.340248 0.038823 -0.388674
v -0.279762 0.059755 -0.388674
v -0.300077 0.059755 -0.388674
v -0.279762 0.059755 -0.351318
v -0.300077 0.059755 -0.351318
v -0.279762 0.038823 -0.351318
v -0.340248 0.038823 -0.351318
v -0.279762 0.038823 -0.017890
v -0.340248 0.038823 -0.017890
v -0.279762 0.059755 -0.017890
v -0.300077 0.059755 -0.017890
v -0.279762 0.059755 0.019467
v -0.300077 0.059755 0.019467
v -0.279762 0.038823 0.019467
v -0.340248 0.038823 0.019467
v -0.279762 0.038823 0.740690
v -0.340248 0.038823 0.740690
v -0.279762 0.059755 0.740690
v -0.300077 0.059755 0.740690
v -0.279762 0.059755 0.778046
v -0.300077 0.059755 0.778046
v -0.279762 0.038823 0.778046
v -0.340248 0.038823 0.778046
v -0.279762 0.038823 1.119979
v -0.340248 0.038823 1.119979
v -0.279762 0.059755 1.119979
v -0.300077 0.059755 1.119979
v -0.279762 0.059755 1.157336
v -0.300077 0.059755 1.157336
v -0.279762 0.038823 1.157336
v -0.340248 0.038823 1.157336
v -0.279762 0.038823 1.499269
v -0.340248 0.038823 1.499269
v -0.279762 0.059755 1.499269
v -0.300077 0.059755 1.499269
v -0.279762 0.059755 1.536625
v -0.300077 0.059755 1.536625
v -0.279762 0.038823 1.536625
v -0.340248 0.038823 1.536625
v -0.279762 0.038823 1.878559
v -0.340248 0.038823 1.878559
v -0.279762 0.059755 1.878559
v -0.300077 0.059755 1.878559
v -0.279762 0.059755 1.915915
v -0.300077 0.059755 1.915915
v -0.279762 0.038823 1.915915
v -0.340248 0.038823 1.915915
v 0.194981 0.038823 -1.867028
v 0.255467 0.038823 -1.867028
v 0.194981 0.059755 -1.867028
v 0.215296 0.059755 -1.867028
v 0.194981 0.059755 -1.904384
v 0.215296 0.059755 -1.904384
v 0.194981 0.038823 -1.904384
v 0.255467 0.038823 -1.904384
v 0.194981 0.038823 -1.487028
v 0.255467 0.038823 -1.487028
v 0.194981 0.059755 -1.487028
v 0.215296 0.059755 -1.487028
v 0.194981 0.059755 -1.524384
v 0.215296 0.059755 -1.524384
v 0.194981 0.038823 -1.524384
v 0.255467 0.038823 -1.524384
v 0.194981 0.038823 -1.104333
v 0.255467 0.038823 -1.104333
v 0.194981 0.059755 -1.104333
v 0.215296 0.059755 -1.104333
v 0.194981 0.059755 -1.141690
v 0.215296 0.059755 -1.141690
v 0.194981 0.038823 -1.141690
v 0.255467 0.038823 -1.141690
v 0.194981 0.038823 -0.730608
v 0.255467 0.038823 -0.730608
v 0.194981 0.059755 -0.730608
v 0.215296 0.059755 -0.730608
v 0.194981 0.059755 -0.767964
v 0.215296 0.059755 -0.767964
v 0.194981 0.038823 -0.767964
v 0.255467 0.038823 -0.767964
v 0.194981 0.038823 -0.351318
v 0.255467 0.038823 -0.351318
v 0.194981 0.059755 -0.351318
v 0.215296 0.059755 -0.351318
v 0.194981 0.059755 -0.388674
v 0.215296 0.059755 -0.388674
v 0.194981 0.038823 -0.388674
v 0.255467 0.038823 -0.388674
v 0.194981 0.038823 0.019467
v 0.255467 0.038823 0.019467
v 0.194981 0.059755 0.019467
v 0.215296 0.059755 0.019467
v 0.194981 0.059755 -0.017890
v 0.215296 0.059755 -0.017890
v 0.194981 0.038823 -0.017890
v 0.255467 0.038823 -0.017890
v 0.194981 0.038823 0.778046
v 0.255467 0.038823 0.778046
v 0.194981 0.059755 0.778046
v 0.215296 0.059755 0.778046
v 0.194981 0.059755 0.740690
v 0.215296 0.059755 0.740690
v 0.194981 0.038823 0.740690
v 0.255467 0.038823 0.740690
v 0.194981 0.038823 1.157336
v 0.255467 0.038823 1.157336
v 0.194981 0.059755 1.157336
v 0.215296 0.059755 1.157336
v 0.194981 0.059755 1.119979
v 0.215296 0.059755 1.119979
v 0.194981 0.038823 1.119979
v 0.255467 0.038823 1.119979
v 0.194981 0.038823 1.536625
v 0.255467 0.038823 1.536625
v 0.194981 0.059755 1.536625
v 0.215296 0.059755 1.536625
v 0.194981 0.059755 1.499269
v 0.215296 0.059755 1.499269
v 0.194981 0.038823 1.499269
v 0.255467 0.038823 1.499269
v 0.194981 0.038823 1.915915
v 0.255467 0.038823 1.915915
v 0.194981 0.059755 1.915915
v 0.215296 0.059755 1.915915
v 0.194981 0.059755 1.878559
v 0.215296 0.059755 1.878559
v 0.194981 0.038823 1.878559
v 0.255467 0.038823 1.878559
v 0.156275 0.038823 2.092246
v 0.195098 0.038823 2.092246
v 0.156275 0.077646 2.092246
v 0.195098 0.077646 2.092246
v 0.156275 0.077646 -2.081203
v 0.195098 0.077646 -2.081203
v 0.156275 0.038823 -2.081203
v 0.195098 0.038823 -2.081203
v -0.278909 0.038823 2.092246
v -0.240086 0.038823 2.092246
v -0.278909 0.077646 2.092246
v -0.240086 0.077646 2.092246
v -0.278909 0.077646 -2.081203
v -0.240086 0.077646 -2.081203
v -0.278909 0.038823 -2.081203
v -0.240086 0.038823 -2.081203
v -0.384877 0.000000 -1.786235
v 0.294522 0.000000 -1.786235
v -0.358087 0.038823 -1.786235
v 0.267732 0.038823 -1.786235
v -0.358087 0.038823 -1.980349
v 0.267732 0.038823 -1.980349
v -0.384877 0.000000 -1.980349
v 0.294522 0.000000 -1.980349
v -0.384877 0.000000 -1.408786
v 0.294522 0.000000 -1.408786
v -0.358087 0.038823 -1.408786
v 0.267732 0.038823 -1.408786
v -0.358087 0.038823 -1.602900
v 0.267732 0.038823 -1.602900
v -0.384877 0.000000 -1.602900
v 0.294522 0.000000 -1.602900
v -0.384877 0.000000 -1.031336
v 0.294522 0.000000 -1.031336
v -0.358087 0.038823 -1.031336
v 0.267732 0.038823 -1.031336
v -0.358087 0.038823 -1.225450
v 0.267732 0.038823 -1.225450
v -0.384877 0.000000 -1.225450
v 0.294522 0.000000 -1.225450
v -0.384877 0.000000 -0.653886
v 0.294522 0.000000 -0.653886
v -0.358087 0.038823 -0.653886
v 0.267732 0.038823 -0.653886
v -0.358087 0.038823 -0.848000
v 0.267732 0.038823 -0.848000
v -0.384877 0.000000 -0.848000
v 0.294522 0.000000 -0.848000
v -0.384877 0.000000 -0.276436
v 0.294522 0.000000 -0.276436
v -0.358087 0.038823 -0.276436
v 0.267732 0.038823 -0.276436
v -0.358087 0.038823 -0.470550
v 0.267732 0.038823 -0.470550
v -0.384877 0.000000 -0.470550
v 0.294522 0.000000 -0.470550
v -0.384877 0.000000 0.101013
v 0.294522 0.000000 0.101013
v -0.358087 0.038823 0.101013
v 0.267732 0.038823 0.101013
v -0.358087 0.038823 -0.093101
v 0.267732 0.038823 -0.093101
v -0.384877 0.000000 -0.093101
v 0.294522 0.000000 -0.093101
v -0.384877 0.000000 0.478463
v 0.294522 0.000000 0.478463
v -0.358087 0.038823 0.478463
v 0.267732 0.038823 0.478463
v -0.358087 0.038823 0.284349
v 0.267732 0.038823 0.284349
v -0.384877 0.000000 0.284349
v 0.294522 0.000000 0.323903
v -0.384877 0.000000 0.855913
v 0.294522 0.000000 0.855913
v -0.358087 0.038823 0.855913
v 0.267732 0.038823 0.855913
v -0.358087 0.038823 0.661799
v 0.267732 0.038823 0.661799
v -0.384877 0.000000 0.661799
v 0.294522 0.000000 0.661799
v -0.384877 0.000000 1.233363
v 0.294522 0.000000 1.233363
v -0.358087 0.038823 1.233363
v 0.267732 0.038823 1.233363
v -0.358087 0.038823 1.039249
v 0.267732 0.038823 1.039249
v -0.384877 0.000000 1.039249
v 0.294522 0.000000 1.039249
v -0.384877 0.000000 1.610813
v 0.294522 0.000000 1.610813
v -0.358087 0.038823 1.610813
v 0.267732 0.038823 1.610813
v -0.358087 0.038823 1.416698
v 0.267732 0.038823 1.416698
v -0.384877 0.000000 1.416698
v 0.294522 0.000000 1.416698
v -0.384877 0.000000 1.988262
v 0.294522 0.000000 1.988262
v -0.358087 0.038823 1.988262
v 0.267732 0.038823 1.988262
v -0.358087 0.038823 1.794148
v 0.267732 0.038823 1.794148
v -0.384877 0.000000 1.794148
v 0.294522 0.000000 1.794148
v 0.156275 0.077646 0.421465
v 0.195098 0.077646 0.424413
v 0.156275 0.038823 0.415261
v 0.195098 0.038823 0.418208
v -0.278909 0.077646 0.388420
v -0.240086 0.077646 0.391368
v -0.278909 0.038823 0.382216
v -0.240086 0.038823 0.385164
v -0.384877 0.000000 0.367965
v 0.294522 0.000000 0.419554
v -0.384877 0.000000 0.322501
v 0.156275 0.038823 0.355504
v 0.195098 0.038823 0.357525
v -0.278909 0.038823 0.332842
v -0.240086 0.038823 0.334864
v 0.267732 0.038823 0.361307
v 0.156275 0.077646 0.360327
v 0.195098 0.077646 0.362349
v -0.358087 0.038823 0.328719
v -0.278909 0.077646 0.337666
v -0.240086 0.077646 0.339687
v 0.195098 0.077646 0.424413
v 0.156275 0.077646 0.421465
v 0.195098 0.077616 0.424189
v 0.156275 0.077616 0.421241
v -0.239821 0.077362 0.339649
v -0.278644 0.077362 0.337628
v 0.267732 0.038823 0.361307
v -0.358087 0.038823 0.328719
v -0.240086 0.077782 0.391182
v -0.278909 0.077782 0.388234
v 0.194881 0.077798 0.362528
v 0.156058 0.077798 0.360507
vt 0.029233 0.019126
vt 0.497900 0.019126
vt 0.497900 0.487794
vt 0.029233 0.487794
vt 0.636169 0.487794
vt 0.519002 0.019126
vt 0.753335 0.019126
vt 0.753335 0.487794
vt 0.537433 0.504176
vt 0.654600 0.504174
vt 0.654599 0.972840
vt 0.688310 0.972841
vt 0.922643 0.504177
vt 0.922643 0.972842
vt 0.334027 0.587163
vt 0.334027 0.582968
vt 0.336378 0.582968
vt 0.336378 0.587163
vt 0.334027 0.587163
vt 0.334027 0.582968
vt 0.336378 0.582968
vt 0.336378 0.587163
vt 0.334027 0.587163
vt 0.334027 0.582968
vt 0.336378 0.582968
vt 0.336378 0.587163
vt 0.334027 0.587163
vt 0.334027 0.582968
vt 0.336378 0.582968
vt 0.336378 0.587163
vt 0.334027 0.587163
vt 0.334027 0.582968
vt 0.336378 0.582968
vt 0.336378 0.587163
vt 0.334027 0.587163
vt 0.334027 0.582968
vt 0.336378 0.582968
vt 0.336378 0.587163
vt 0.334027 0.587163
vt 0.334027 0.582968
vt 0.336378 0.582968
vt 0.336378 0.587163
vt 0.334027 0.587163
vt 0.334027 0.582968
vt 0.336378 0.582968
vt 0.336378 0.587163
vt 0.334027 0.587163
vt 0.334027 0.582968
vt 0.336378 0.582968
vt 0.336378 0.587163
vt 0.334027 0.587163
vt 0.334027 0.582968
vt 0.336378 0.582968
vt 0.336378 0.587163
vt 0.334027 0.587163
vt 0.334027 0.582968
vt 0.336378 0.582968
vt 0.336378 0.587163
vt 0.334027 0.587163
vt 0.334027 0.582968
vt 0.336378 0.582968
vt 0.336378 0.587163
vt 0.334027 0.587163
vt 0.334027 0.582968
vt 0.336378 0.582968
vt 0.336378 0.587163
vt 0.334027 0.587163
vt 0.334027 0.582968
vt 0.336378 0.582968
vt 0.336378 0.587163
vt 0.334027 0.587163
vt 0.334027 0.582968
vt 0.336378 0.582968
vt 0.336378 0.587163
vt 0.334027 0.587163
vt 0.334027 0.582968
vt 0.336378 0.582968
vt 0.336378 0.587163
vt 0.334027 0.587163
vt 0.334027 0.582968
vt 0.336378 0.582968
vt 0.336378 0.587163
vt 0.334027 0.587163
vt 0.334027 0.582968
vt 0.336378 0.582968
vt 0.336378 0.587163
vt 0.334027 0.587163
vt 0.334027 0.582968
vt 0.336378 0.582968
vt 0.336378 0.587163
vt 0.334027 0.587163
vt 0.334027 0.582968
vt 0.336378 0.582968
vt 0.336378 0.587163
vt 0.391088 0.690121
vt 0.391088 0.502131
vt 0.395448 0.502828
vt 0.395448 0.690121
vt 0.404203 0.776309
vt 0.404203 0.502673
vt 0.408563 0.502131
vt 0.408563 0.776309
vt 0.391129 0.690160
vt 0.391129 0.502093
vt 0.395407 0.502777
vt 0.395407 0.690160
vt 0.404183 0.776290
vt 0.404183 0.502697
vt 0.408583 0.502150
vt 0.408583 0.776290
vt 0.391092 0.502823
vt 0.395444 0.502128
vt 0.395444 0.690125
vt 0.391092 0.690125
vt 0.391133 0.502772
vt 0.395403 0.502090
vt 0.395403 0.690163
vt 0.391133 0.690163
vt 0.404205 0.502130
vt 0.408561 0.502671
vt 0.408561 0.776311
vt 0.404205 0.776311
vt 0.404185 0.502149
vt 0.408581 0.502695
vt 0.408581 0.776292
vt 0.404185 0.776292
vt 0.341753 0.582749
vt 0.341753 0.585031
vt 0.337558 0.585031
vt 0.337558 0.582749
vt 0.341753 0.589542
vt 0.337558 0.589542
vt 0.351035 0.582749
vt 0.351035 0.589542
vt 0.346840 0.589542
vt 0.346840 0.582749
vt 0.341753 0.582749
vt 0.341753 0.585031
vt 0.337558 0.585031
vt 0.337558 0.582749
vt 0.341753 0.589542
vt 0.337558 0.589542
vt 0.351035 0.582749
vt 0.351035 0.589542
vt 0.346840 0.589542
vt 0.346840 0.582749
vt 0.341753 0.582749
vt 0.341753 0.585031
vt 0.337558 0.585031
vt 0.337558 0.582749
vt 0.341753 0.589542
vt 0.337558 0.589542
vt 0.351035 0.582749
vt 0.351035 0.589542
vt 0.346840 0.589542
vt 0.346840 0.582749
vt 0.341753 0.582749
vt 0.341753 0.585031
vt 0.337558 0.585031
vt 0.337558 0.582749
vt 0.341753 0.589542
vt 0.337558 0.589542
vt 0.351035 0.582749
vt 0.351035 0.589542
vt 0.346840 0.589542
vt 0.346840 0.582749
vt 0.341753 0.582749
vt 0.341753 0.585031
vt 0.337558 0.585031
vt 0.337558 0.582749
vt 0.341753 0.589542
vt 0.337558 0.589542
vt 0.351035 0.582749
vt 0.351035 0.589542
vt 0.346840 0.589542
vt 0.346840 0.582749
vt 0.341753 0.582749
vt 0.341753 0.585031
vt 0.337558 0.585031
vt 0.337558 0.582749
vt 0.341753 0.589542
vt 0.337558 0.589542
vt 0.351035 0.582749
vt 0.351035 0.589542
vt 0.346840 0.589542
vt 0.346840 0.582749
vt 0.341753 0.582749
vt 0.341753 0.585031
vt 0.337558 0.585031
vt 0.337558 0.582749
vt 0.341753 0.589542
vt 0.337558 0.589542
vt 0.351035 0.582749
vt 0.351035 0.589542
vt 0.346840 0.589542
vt 0.346840 0.582749
vt 0.341753 0.582749
vt 0.341753 0.585031
vt 0.337558 0.585031
vt 0.337558 0.582749
vt 0.341753 0.589542
vt 0.337558 0.589542
vt 0.351035 0.582749
vt 0.351035 0.589542
vt 0.346840 0.589542
vt 0.346840 0.582749
vt 0.341753 0.582749
vt 0.341753 0.585031
vt 0.337558 0.585031
vt 0.337558 0.582749
vt 0.341753 0.589542
vt 0.337558 0.589542
vt 0.351035 0.582749
vt 0.351035 0.589542
vt 0.346840 0.589542
vt 0.346840 0.582749
vt 0.341753 0.582749
vt 0.341753 0.585031
vt 0.337558 0.585031
vt 0.337558 0.582749
vt 0.341753 0.589542
vt 0.337558 0.589542
vt 0.351035 0.582749
vt 0.351035 0.589542
vt 0.346840 0.589542
vt 0.346840 0.582749
vt 0.341753 0.582749
vt 0.341753 0.585031
vt 0.337558 0.585031
vt 0.337558 0.582749
vt 0.341753 0.589542
vt 0.337558 0.589542
vt 0.351035 0.582749
vt 0.351035 0.589542
vt 0.346840 0.589542
vt 0.346840 0.582749
vt 0.341753 0.582749
vt 0.341753 0.585031
vt 0.337558 0.585031
vt 0.337558 0.582749
vt 0.341753 0.589542
vt 0.337558 0.589542
vt 0.351035 0.582749
vt 0.351035 0.589542
vt 0.346840 0.589542
vt 0.346840 0.582749
vt 0.341753 0.582749
vt 0.341753 0.585031
vt 0.337558 0.585031
vt 0.337558 0.582749
vt 0.341753 0.589542
vt 0.337558 0.589542
vt 0.351035 0.582749
vt 0.351035 0.589542
vt 0.346840 0.589542
vt 0.346840 0.582749
vt 0.341753 0.582749
vt 0.341753 0.585031
vt 0.337558 0.585031
vt 0.337558 0.582749
vt 0.341753 0.589542
vt 0.337558 0.589542
vt 0.351035 0.582749
vt 0.351035 0.589542
vt 0.346840 0.589542
vt 0.346840 0.582749
vt 0.341753 0.582749
vt 0.341753 0.585031
vt 0.337558 0.585031
vt 0.337558 0.582749
vt 0.341753 0.589542
vt 0.337558 0.589542
vt 0.351035 0.582749
vt 0.351035 0.589542
vt 0.346840 0.589542
vt 0.346840 0.582749
vt 0.341753 0.582749
vt 0.341753 0.585031
vt 0.337558 0.585031
vt 0.337558 0.582749
vt 0.341753 0.589542
vt 0.337558 0.589542
vt 0.351035 0.582749
vt 0.351035 0.589542
vt 0.346840 0.589542
vt 0.346840 0.582749
vt 0.341753 0.582749
vt 0.341753 0.585031
vt 0.337558 0.585031
vt 0.337558 0.582749
vt 0.341753 0.589542
vt 0.337558 0.589542
vt 0.351035 0.582749
vt 0.351035 0.589542
vt 0.346840 0.589542
vt 0.346840 0.582749
vt 0.341753 0.582749
vt 0.341753 0.585031
vt 0.337558 0.585031
vt 0.337558 0.582749
vt 0.341753 0.589542
vt 0.337558 0.589542
vt 0.351035 0.582749
vt 0.351035 0.589542
vt 0.346840 0.589542
vt 0.346840 0.582749
vt 0.341753 0.582749
vt 0.341753 0.585031
vt 0.337558 0.585031
vt 0.337558 0.582749
vt 0.341753 0.589542
vt 0.337558 0.589542
vt 0.351035 0.582749
vt 0.351035 0.589542
vt 0.346840 0.589542
vt 0.346840 0.582749
vt 0.341753 0.582749
vt 0.341753 0.585031
vt 0.337558 0.585031
vt 0.337558 0.582749
vt 0.341753 0.589542
vt 0.337558 0.589542
vt 0.351035 0.582749
vt 0.351035 0.589542
vt 0.346840 0.589542
vt 0.346840 0.582749
vt 0.395450 0.690038
vt 0.391086 0.690038
vt 0.391086 0.502546
vt 0.395450 0.502214
vt 0.408564 0.776236
vt 0.404202 0.776236
vt 0.404202 0.502204
vt 0.408564 0.502432
vt 0.395409 0.690078
vt 0.391127 0.690078
vt 0.391127 0.502500
vt 0.395409 0.502174
vt 0.408584 0.776216
vt 0.404181 0.776216
vt 0.404181 0.502224
vt 0.408584 0.502453
vt 0.333610 0.575418
vt 0.333610 0.505140
vt 0.355408 0.505140
vt 0.355408 0.575418
vt 0.333610 0.502131
vt 0.355408 0.502131
vt 0.355408 0.578426
vt 0.333610 0.578426
vt 0.307429 0.578426
vt 0.307429 0.502131
vt 0.329227 0.502131
vt 0.329227 0.578426
vt 0.333610 0.575418
vt 0.333610 0.505140
vt 0.355408 0.505140
vt 0.355408 0.575418
vt 0.333610 0.502131
vt 0.355408 0.502131
vt 0.355408 0.578426
vt 0.333610 0.578426
vt 0.307429 0.578426
vt 0.307429 0.502131
vt 0.329227 0.502131
vt 0.329227 0.578426
vt 0.333610 0.575418
vt 0.333610 0.505140
vt 0.355408 0.505140
vt 0.355408 0.575418
vt 0.333610 0.502131
vt 0.355408 0.502131
vt 0.355408 0.578426
vt 0.333610 0.578426
vt 0.307429 0.578426
vt 0.307429 0.502131
vt 0.329227 0.502131
vt 0.329227 0.578426
vt 0.333610 0.575418
vt 0.333610 0.505140
vt 0.355408 0.505140
vt 0.355408 0.575418
vt 0.333610 0.502131
vt 0.355408 0.502131
vt 0.355408 0.578426
vt 0.333610 0.578426
vt 0.307429 0.578426
vt 0.307429 0.502131
vt 0.329227 0.502131
vt 0.329227 0.578426
vt 0.333610 0.575418
vt 0.333610 0.505140
vt 0.355408 0.505140
vt 0.355408 0.575418
vt 0.333610 0.502131
vt 0.355408 0.502131
vt 0.355408 0.578426
vt 0.333610 0.578426
vt 0.307429 0.578426
vt 0.307429 0.502131
vt 0.329227 0.502131
vt 0.329227 0.578426
vt 0.333610 0.575418
vt 0.333610 0.505140
vt 0.355408 0.505140
vt 0.355408 0.575418
vt 0.333610 0.502131
vt 0.355408 0.502131
vt 0.355408 0.578426
vt 0.333610 0.578426
vt 0.307429 0.578426
vt 0.307429 0.502131
vt 0.329227 0.502131
vt 0.329227 0.578426
vt 0.244729 0.574832
vt 0.244729 0.504555
vt 0.251344 0.501546
vt 0.257137 0.577841
vt 0.244729 0.501546
vt 0.244729 0.577841
vt 0.333610 0.575418
vt 0.333610 0.505140
vt 0.355408 0.505140
vt 0.355408 0.575418
vt 0.333610 0.502131
vt 0.355408 0.502131
vt 0.355408 0.578426
vt 0.333610 0.578426
vt 0.307429 0.578426
vt 0.307429 0.502131
vt 0.329227 0.502131
vt 0.329227 0.578426
vt 0.333610 0.575418
vt 0.333610 0.505140
vt 0.355408 0.505140
vt 0.355408 0.575418
vt 0.333610 0.502131
vt 0.355408 0.502131
vt 0.355408 0.578426
vt 0.333610 0.578426
vt 0.307429 0.578426
vt 0.307429 0.502131
vt 0.329227 0.502131
vt 0.329227 0.578426
vt 0.333610 0.575418
vt 0.333610 0.505140
vt 0.355408 0.505140
vt 0.355408 0.575418
vt 0.333610 0.502131
vt 0.355408 0.502131
vt 0.355408 0.578426
vt 0.333610 0.578426
vt 0.307429 0.578426
vt 0.307429 0.502131
vt 0.329227 0.502131
vt 0.329227 0.578426
vt 0.333610 0.575418
vt 0.333610 0.505140
vt 0.355408 0.505140
vt 0.355408 0.575418
vt 0.333610 0.502131
vt 0.355408 0.502131
vt 0.355408 0.578426
vt 0.333610 0.578426
vt 0.307429 0.578426
vt 0.307429 0.502131
vt 0.329227 0.502131
vt 0.329227 0.578426
vt 0.391094 0.502207
vt 0.395442 0.502537
vt 0.395442 0.690046
vt 0.391094 0.690046
vt 0.391135 0.502167
vt 0.395401 0.502491
vt 0.395401 0.690086
vt 0.391135 0.690086
vt 0.227896 0.577799
vt 0.233690 0.501504
vt 0.240305 0.501504
vt 0.240305 0.577799
vt 0.404206 0.502427
vt 0.408560 0.502200
vt 0.408560 0.776240
vt 0.404206 0.776240
vt 0.296389 0.574832
vt 0.292730 0.504555
vt 0.301372 0.504555
vt 0.301372 0.574832
vt 0.293115 0.501546
vt 0.301372 0.577841
vt 0.297087 0.577841
vt 0.404186 0.502448
vt 0.408580 0.502220
vt 0.408580 0.776220
vt 0.404186 0.776220
vt 0.354636 0.582808
vt 0.354636 0.589601
vt 0.352285 0.585090
vt 0.352285 0.582808
vt 0.345749 0.582749
vt 0.345749 0.585031
vt 0.343398 0.589542
vt 0.343398 0.582749
vt 0.354636 0.582808
vt 0.354636 0.589601
vt 0.352285 0.585090
vt 0.352285 0.582808
vt 0.345749 0.582749
vt 0.345749 0.585031
vt 0.343398 0.589542
vt 0.343398 0.582749
vt 0.354636 0.582808
vt 0.354636 0.589601
vt 0.352285 0.585090
vt 0.352285 0.582808
vt 0.345749 0.582749
vt 0.345749 0.585031
vt 0.343398 0.589542
vt 0.343398 0.582749
vt 0.354636 0.582808
vt 0.354636 0.589601
vt 0.352285 0.585090
vt 0.352285 0.582808
vt 0.345749 0.582749
vt 0.345749 0.585031
vt 0.343398 0.589542
vt 0.343398 0.582749
vt 0.354636 0.582808
vt 0.354636 0.589601
vt 0.352285 0.585090
vt 0.352285 0.582808
vt 0.345749 0.582749
vt 0.345749 0.585031
vt 0.343398 0.589542
vt 0.343398 0.582749
vt 0.354636 0.582808
vt 0.354636 0.589601
vt 0.352285 0.585090
vt 0.352285 0.582808
vt 0.345749 0.582749
vt 0.345749 0.585031
vt 0.343398 0.589542
vt 0.343398 0.582749
vt 0.354636 0.582808
vt 0.354636 0.589601
vt 0.352285 0.585090
vt 0.352285 0.582808
vt 0.345749 0.582749
vt 0.345749 0.585031
vt 0.343398 0.589542
vt 0.343398 0.582749
vt 0.354636 0.582808
vt 0.354636 0.589601
vt 0.352285 0.585090
vt 0.352285 0.582808
vt 0.345749 0.582749
vt 0.345749 0.585031
vt 0.343398 0.589542
vt 0.343398 0.582749
vt 0.354636 0.582808
vt 0.354636 0.589601
vt 0.352285 0.585090
vt 0.352285 0.582808
vt 0.345749 0.582749
vt 0.345749 0.585031
vt 0.343398 0.589542
vt 0.343398 0.582749
vt 0.354636 0.582808
vt 0.354636 0.589601
vt 0.352285 0.585090
vt 0.352285 0.582808
vt 0.345749 0.582749
vt 0.345749 0.585031
vt 0.343398 0.589542
vt 0.343398 0.582749
vt 0.354636 0.582808
vt 0.354636 0.589601
vt 0.352285 0.585090
vt 0.352285 0.582808
vt 0.345749 0.582749
vt 0.345749 0.585031
vt 0.343398 0.589542
vt 0.343398 0.582749
vt 0.354636 0.582808
vt 0.354636 0.589601
vt 0.352285 0.585090
vt 0.352285 0.582808
vt 0.345749 0.582749
vt 0.345749 0.585031
vt 0.343398 0.589542
vt 0.343398 0.582749
vt 0.354636 0.582808
vt 0.354636 0.589601
vt 0.352285 0.585090
vt 0.352285 0.582808
vt 0.345749 0.582749
vt 0.345749 0.585031
vt 0.343398 0.589542
vt 0.343398 0.582749
vt 0.354636 0.582808
vt 0.354636 0.589601
vt 0.352285 0.585090
vt 0.352285 0.582808
vt 0.345749 0.582749
vt 0.345749 0.585031
vt 0.343398 0.589542
vt 0.343398 0.582749
vt 0.354636 0.582808
vt 0.354636 0.589601
vt 0.352285 0.585090
vt 0.352285 0.582808
vt 0.345749 0.582749
vt 0.345749 0.585031
vt 0.343398 0.589542
vt 0.343398 0.582749
vt 0.354636 0.582808
vt 0.354636 0.589601
vt 0.352285 0.585090
vt 0.352285 0.582808
vt 0.345749 0.582749
vt 0.345749 0.585031
vt 0.343398 0.589542
vt 0.343398 0.582749
vt 0.354636 0.582808
vt 0.354636 0.589601
vt 0.352285 0.585090
vt 0.352285 0.582808
vt 0.345749 0.582749
vt 0.345749 0.585031
vt 0.343398 0.589542
vt 0.343398 0.582749
vt 0.354636 0.582808
vt 0.354636 0.589601
vt 0.352285 0.585090
vt 0.352285 0.582808
vt 0.345749 0.582749
vt 0.345749 0.585031
vt 0.343398 0.589542
vt 0.343398 0.582749
vt 0.354636 0.582808
vt 0.354636 0.589601
vt 0.352285 0.585090
vt 0.352285 0.582808
vt 0.345749 0.582749
vt 0.345749 0.585031
vt 0.343398 0.589542
vt 0.343398 0.582749
vt 0.354636 0.582808
vt 0.354636 0.589601
vt 0.352285 0.585090
vt 0.352285 0.582808
vt 0.345749 0.582749
vt 0.345749 0.585031
vt 0.343398 0.589542
vt 0.343398 0.582749
vt 0.497902 0.487792
vt 0.029231 0.487792
vt 0.029231 0.019128
vt 0.497902 0.019128
vt 0.497900 0.487795
vt 0.029234 0.487795
vt 0.029234 0.019125
vt 0.497900 0.019125
vt 0.497902 0.487792
vt 0.029231 0.487792
vt 0.029231 0.019128
vt 0.497902 0.019128
vt 0.497901 0.487793
vt 0.029232 0.487793
vt 0.029232 0.019127
vt 0.497901 0.019127
vt 0.360805 0.578426
vt 0.360805 0.502131
vt 0.365164 0.505140
vt 0.365164 0.575418
vt 0.365164 0.505140
vt 0.365164 0.575418
vt 0.360805 0.578426
vt 0.360805 0.502131
vt 0.360805 0.578426
vt 0.360805 0.502131
vt 0.365164 0.505140
vt 0.365164 0.575418
vt 0.365164 0.505140
vt 0.365164 0.575418
vt 0.360805 0.578426
vt 0.360805 0.502131
vt 0.360805 0.578426
vt 0.360805 0.502131
vt 0.365164 0.505140
vt 0.365164 0.575418
vt 0.365164 0.505140
vt 0.365164 0.575418
vt 0.360805 0.578426
vt 0.360805 0.502131
vt 0.360805 0.578426
vt 0.360805 0.502131
vt 0.365164 0.505140
vt 0.365164 0.575418
vt 0.365164 0.505140
vt 0.365164 0.575418
vt 0.360805 0.578426
vt 0.360805 0.502131
vt 0.360805 0.578426
vt 0.360805 0.502131
vt 0.365164 0.505140
vt 0.365164 0.575418
vt 0.365164 0.505140
vt 0.365164 0.575418
vt 0.360805 0.578426
vt 0.360805 0.502131
vt 0.360805 0.578426
vt 0.360805 0.502131
vt 0.365164 0.505140
vt 0.365164 0.575418
vt 0.365164 0.505140
vt 0.365164 0.575418
vt 0.360805 0.578426
vt 0.360805 0.502131
vt 0.360805 0.578426
vt 0.360805 0.502131
vt 0.365164 0.505140
vt 0.365164 0.575418
vt 0.360805 0.578426
vt 0.360805 0.502131
vt 0.365164 0.505140
vt 0.365164 0.575418
vt 0.365164 0.505140
vt 0.365164 0.575418
vt 0.360805 0.578426
vt 0.360805 0.502131
vt 0.360805 0.578426
vt 0.360805 0.502131
vt 0.365164 0.505140
vt 0.365164 0.575418
vt 0.365164 0.505140
vt 0.365164 0.575418
vt 0.360805 0.578426
vt 0.360805 0.502131
vt 0.360805 0.578426
vt 0.360805 0.502131
vt 0.365164 0.505140
vt 0.365164 0.575417
vt 0.365164 0.505140
vt 0.365164 0.575418
vt 0.360805 0.578426
vt 0.360805 0.502131
vt 0.360805 0.578426
vt 0.360805 0.502131
vt 0.365164 0.505140
vt 0.365164 0.575418
vt 0.365164 0.505140
vt 0.365164 0.575418
vt 0.360805 0.578426
vt 0.360805 0.502131
vt 0.029147 0.019213
vt 0.497987 0.019213
vt 0.497987 0.487707
vt 0.029147 0.487707
vt 0.026765 0.019989
vt 0.497135 0.019989
vt 0.500368 0.486931
vt 0.029976 0.486931
vt 0.217324 0.575418
vt 0.212964 0.578426
vt 0.212964 0.502131
vt 0.217324 0.505140
vt 0.029647 0.018712
vt 0.497486 0.018712
vt 0.497486 0.488208
vt 0.029647 0.488208
vt 0.030993 0.018672
vt 0.498744 0.018668
vt 0.496133 0.488249
vt 0.028390 0.488252
vt 0.115746 0.574832
vt 0.115746 0.504555
vt 0.124003 0.501546
vt 0.115746 0.577841
vn 0.000000 0.000000 -1.000000
vn 0.000000 0.000000 -1.000000
vn 0.000000 0.000000 -1.000000
vn 0.000000 0.000000 -1.000000
vn 0.000000 1.000000 0.000000
vn 0.000000 1.000000 0.000000
vn 0.000000 1.000000 0.000000
vn 0.000000 1.000000 0.000000
vn 0.000000 0.000000 1.000000
vn 0.000000 0.000000 1.000000
vn 0.000000 0.000000 1.000000
vn 0.000000 0.000000 1.000000
vn 0.000000 -1.000000 0.000000
vn 0.000000 -1.000000 0.000000
vn 0.000000 -1.000000 0.000000
vn 0.000000 -1.000000 0.000000
vn -0.462108 0.886823 0.000000
vn -0.462108 0.886823 0.000000
vn -0.462108 0.886823 0.000000
vn -0.462108 0.886823 0.000000
vn 1.000000 0.000000 0.000000
vn 1.000000 0.000000 0.000000
vn 1.000000 0.000000 0.000000
vn 1.000000 0.000000 0.000000
vn 0.000000 0.000000 -1.000000
vn 0.000000 0.000000 -1.000000
vn 0.000000 0.000000 -1.000000
vn 0.000000 0.000000 -1.000000
vn 0.000000 1.000000 0.000000
vn 0.000000 1.000000 0.000000
vn 0.000000 1.000000 0.000000
vn 0.000000 1.000000 0.000000
vn 0.000000 0.000000 1.000000
vn 0.000000 0.000000 1.000000
vn 0.000000 0.000000 1.000000
vn 0.000000 0.000000 1.000000
vn 0.000000 -1.000000 0.000000
vn 0.000000 -1.000000 0.000000
vn 0.000000 -1.000000 0.000000
vn 0.000000 -1.000000 0.000000
vn -0.462110 0.886823 0.000000
vn -0.462110 0.886823 0.000000
vn -0.462110 0.886823 0.000000
vn -0.462110 0.886823 0.000000
vn 1.000000 0.000000 0.000000
vn 1.000000 0.000000 0.000000
vn 1.000000 0.000000 0.000000
vn 1.000000 0.000000 0.000000
vn 0.000000 0.000000 -1.000000
vn 0.000000 0.000000 -1.000000
vn 0.000000 0.000000 -1.000000
vn 0.000000 0.000000 -1.000000
vn 0.000000 1.000000 0.000000
vn 0.000000 1.000000 0.000000
vn 0.000000 1.000000 0.000000
vn 0.000000 1.000000 0.000000
vn 0.000000 0.000000 1.000000
vn 0.000000 0.000000 1.000000
vn 0.000000 0.000000 1.000000
vn 0.000000 0.000000 1.000000
vn 0.000000 -1.000000 0.000000
vn 0.000000 -1.000000 0.000000
vn 0.000000 -1.000000 0.000000
vn 0.000000 -1.000000 0.000000
vn -0.462110 0.886823 0.000000
vn -0.462110 0.886823 0.000000
vn -0.462110 0.886823 0.000000
vn -0.462110 0.886823 0.000000
vn 1.000000 0.000000 0.000000
vn 1.000000 0.000000 0.000000
vn 1.000000 0.000000 0.000000
vn 1.000000 0.000000 0.000000
vn 0.000000 0.000000 -1.000000
vn 0.000000 0.000000 -1.000000
vn 0.000000 0.000000 -1.000000
vn 0.000000 0.000000 -1.000000
vn 0.000000 1.000000 0.000000
vn 0.000000 1.000000 0.000000
vn 0.000000 1.000000 0.000000
vn 0.000000 1.000000 0.000000
vn 0.000000 0.000000 1.000000
vn 0.000000 0.000000 1.000000
vn 0.000000 0.000000 1.000000
vn 0.000000 0.000000 1.000000
vn 0.000000 -1.000000 0.000000
vn 0.000000 -1.000000 0.000000
vn 0.000000 -1.000000 0.000000
vn 0.000000 -1.000000 0.000000
vn -0.462110 0.886823 0.000000
vn -0.462110 0.886823 0.000000
vn -0.462110 0.886823 0.000000
vn -0.462110 0.886823 0.000000
vn 1.000000 0.000000 0.000000
vn 1.000000 0.000000 0.000000
vn 1.000000 0.000000 0.000000
vn 1.000000 0.000000 0.000000
vn 0.000000 0.000000 -1.000000
vn 0.000000 0.000000 -1.000000
vn 0.000000 0.000000 -1.000000
vn 0.000000 0.000000 -1.000000
vn 0.000000 1.000000 0.000000
vn 0.000000 1.000000 0.000000
vn 0.000000 1.000000 0.000000
vn 0.000000 1.000000 0.000000
vn 0.000000 0.000000 1.000000
vn 0.000000 0.000000 1.000000
vn 0.000000 0.000000 1.000000
vn 0.000000 0.000000 1.000000
vn 0.000000 -1.000000 0.000000
vn 0.000000 -1.000000 0.000000
vn 0.000000 -1.000000 0.000000
vn 0.000000 -1.000000 0.000000
vn -0.462110 0.886823 0.000000
vn -0.462110 0.886823 0.000000
vn -0.462110 0.886823 0.000000
vn -0.462110 0.886823 0.000000
vn 1.000000 0.000000 0.000000
vn 1.000000 0.000000 0.000000
vn 1.000000 0.000000 0.000000
vn 1.000000 0.000000 0.000000
vn 0.000000 0.000000 -1.000000
vn 0.000000 0.000000 -1.000000
vn 0.000000 0.000000 -1.000000
vn 0.000000 0.000000 -1.000000
vn 0.000000 1.000000 0.000000
vn 0.000000 1.000000 0.000000
vn 0.000000 1.000000 0.000000
vn 0.000000 1.000000 0.000000
vn 0.000000 0.000000 1.000000
vn 0.000000 0.000000 1.000000
vn 0.000000 0.000000 1.000000
vn 0.000000 0.000000 1.000000
vn 0.000000 -1.000000 0.000000
vn 0.000000 -1.000000 0.000000
vn 0.000000 -1.000000 0.000000
vn 0.000000 -1.000000 0.000000
vn -0.462110 0.886823 0.000000
vn -0.462110 0.886823 0.000000
vn -0.462110 0.886823 0.000000
vn -0.462110 0.886823 0.000000
vn 1.000000 0.000000 0.000000
vn 1.000000 0.000000 0.000000
vn 1.000000 0.000000 0.000000
vn 1.000000 0.000000 0.000000
vn 0.000000 0.000000 -1.000000
vn 0.000000 0.000000 -1.000000
vn 0.000000 0.000000 -1.000000
vn 0.000000 0.000000 -1.000000
vn 0.000000 1.000000 0.000000
vn 0.000000 1.000000 0.000000
vn 0.000000 1.000000 0.000000
vn 0.000000 1.000000 0.000000
vn 0.000000 0.000000 1.000000
vn 0.000000 0.000000 1.000000
vn 0.000000 0.000000 1.000000
vn 0.000000 0.000000 1.000000
vn 0.000000 -1.000000 0.000000
vn 0.000000 -1.000000 0.000000
vn 0.000000 -1.000000 0.000000
vn 0.000000 -1.000000 0.000000
vn -0.462110 0.886823 0.000000
vn -0.462110 0.886823 0.000000
vn -0.462110 0.886823 0.000000
vn -0.462110 0.886823 0.000000
vn 1.000000 0.000000 0.000000
vn 1.000000 0.000000 0.000000
vn 1.000000 0.000000 0.000000
vn 1.000000 0.000000 0.000000
vn 0.000000 0.000000 -1.000000
vn 0.000000 0.000000 -1.000000
vn 0.000000 0.000000 -1.000000
vn 0.000000 0.000000 -1.000000
vn 0.000000 1.000000 0.000000
vn 0.000000 1.000000 0.000000
vn 0.000000 1.000000 0.000000
vn 0.000000 1.000000 0.000000
vn 0.000000 0.000000 1.000000
vn 0.000000 0.000000 1.000000
vn 0.000000 0.000000 1.000000
vn 0.000000 0.000000 1.000000
vn 0.000000 -1.000000 0.000000
vn 0.000000 -1.000000 0.000000
vn 0.000000 -1.000000 0.000000
vn 0.000000 -1.000000 0.000000
vn -0.462110 0.886823 0.000000
vn -0.462110 0.886823 0.000000
vn -0.462110 0.886823 0.000000
vn -0.462110 0.886823 0.000000
vn 1.000000 0.000000 0.000000
vn 1.000000 0.000000 0.000000
vn 1.000000 0.000000 0.000000
vn 1.000000 0.000000 0.000000
vn 0.000000 0.000000 -1.000000
vn 0.000000 0.000000 -1.000000
vn 0.000000 0.000000 -1.000000
vn 0.000000 0.000000 -1.000000
vn 0.000000 1.000000 0.000000
vn 0.000000 1.000000 0.000000
vn 0.000000 1.000000 0.000000
vn 0.000000 1.000000 0.000000
vn 0.000000 0.000000 1.000000
vn 0.000000 0.000000 1.000000
vn 0.000000 0.000000 1.000000
vn 0.000000 0.000000 1.000000
vn 0.000000 -1.000000 0.000000
vn 0.000000 -1.000000 0.000000
vn 0.000000 -1.000000 0.000000
vn 0.000000 -1.000000 0.000000
vn -0.462110 0.886823 0.000000
vn -0.462110 0.886823 0.000000
vn -0.462110 0.886823 0.000000
vn -0.462110 0.886823 0.000000
vn 1.000000 0.000000 0.000000
vn 1.000000 0.000000 0.000000
vn 1.000000 0.000000 0.000000
vn 1.000000 0.000000 0.000000
vn 0.000000 0.000000 -1.000000
vn 0.000000 0.000000 -1.000000
vn 0.000000 0.000000 -1.000000
vn 0.000000 0.000000 -1.000000
vn 0.000000 1.000000 0.000000
vn 0.000000 1.000000 0.000000
vn 0.000000 1.000000 0.000000
vn 0.000000 1.000000 0.000000
vn 0.000000 0.000000 1.000000
vn 0.000000 0.000000 1.000000
vn 0.000000 0.000000 1.000000
vn 0.000000 0.000000 1.000000
vn 0.000000 -1.000000 0.000000
vn 0.000000 -1.000000 0.000000
vn 0.000000 -1.000000 0.000000
vn 0.000000 -1.000000 0.000000
vn -0.462110 0.886823 0.000000
vn -0.462110 0.886823 0.000000
vn -0.462110 0.886823 0.000000
vn -0.462110 0.886823 0.000000
vn 1.000000 0.000000 0.000000
vn 1.000000 0.000000 0.000000
vn 1.000000 0.000000 0.000000
vn 1.000000 0.000000 0.000000
vn 0.000000 0.000000 1.000000
vn 0.000000 0.000000 1.000000
vn 0.000000 0.000000 1.000000
vn 0.000000 0.000000 1.000000
vn 0.000000 1.000000 0.000000
vn 0.000000 1.000000 0.000000
vn 0.000000 1.000000 0.000000
vn 0.000000 1.000000 0.000000
vn 0.000000 0.000000 -1.000000
vn 0.000000 0.000000 -1.000000
vn 0.000000 0.000000 -1.000000
vn 0.000000 0.000000 -1.000000
vn 0.000000 -1.000000 0.000000
vn 0.000000 -1.000000 0.000000
vn 0.000000 -1.000000 0.000000
vn 0.000000 -1.000000 0.000000
vn 0.462108 0.886823 0.000000
vn 0.462108 0.886823 0.000000
vn 0.462108 0.886823 0.000000
vn 0.462108 0.886823 0.000000
vn -1.000000 0.000000 0.000000
vn -1.000000 0.000000 0.000000
vn -1.000000 0.000000 0.000000
vn -1.000000 0.000000 0.000000
vn 0.000000 0.000000 1.000000
vn 0.000000 0.000000 1.000000
vn 0.000000 0.000000 1.000000
vn 0.000000 0.000000 1.000000
vn 0.000000 1.000000 0.000000
vn 0.000000 1.000000 0.000000
vn 0.000000 1.000000 0.000000
vn 0.000000 1.000000 0.000000
vn 0.000000 0.000000 -1.000000
vn 0.000000 0.000000 -1.000000
vn 0.000000 0.000000 -1.000000
vn 0.000000 0.000000 -1.000000
vn 0.000000 -1.000000 0.000000
vn 0.000000 -1.000000 0.000000
vn 0.000000 -1.000000 0.000000
vn 0.000000 -1.000000 0.000000
vn 0.462110 0.886823 0.000000
vn 0.462110 0.886823 0.000000
vn 0.462110 0.886823 0.000000
vn 0.462110 0.886823 0.000000
vn -1.000000 0.000000 0.000000
vn -1.000000 0.000000 0.000000
vn -1.000000 0.000000 0.000000
vn -1.000000 0.000000 0.000000
vn 0.000000 0.000000 1.000000
vn 0.000000 0.000000 1.000000
vn 0.000000 0.000000 1.000000
vn 0.000000 0.000000 1.000000
vn 0.000000 1.000000 0.000000
vn 0.000000 1.000000 0.000000
vn 0.000000 1.000000 0.000000
vn 0.000000 1.000000 0.000000
vn 0.000000 0.000000 -1.000000
vn 0.000000 0.000000 -1.000000
vn 0.000000 0.000000 -1.000000
vn 0.000000 0.000000 -1.000000
vn 0.000000 -1.000000 0.000000
vn 0.000000 -1.000000 0.000000
vn 0.000000 -1.000000 0.000000
vn 0.000000 -1.000000 0.000000
vn 0.462110 0.886823 0.000000
vn 0.462110 0.886823 0.000000
vn 0.462110 0.886823 0.000000
vn 0.462110 0.886823 0.000000
vn -1.000000 0.000000 0.000000
vn -1.000000 0.000000 0.000000
vn -1.000000 0.000000 0.000000
vn -1.000000 0.000000 0.000000
vn 0.000000 0.000000 1.000000
vn 0.000000 0.000000 1.000000
vn 0.000000 0.000000 1.000000
vn 0.000000 0.000000 1.000000
vn 0.000000 1.000000 0.000000
vn 0.000000 1.000000 0.000000
vn 0.000000 1.000000 0.000000
vn 0.000000 1.000000 0.000000
vn 0.000000 0.000000 -1.000000
vn 0.000000 0.000000 -1.000000
vn 0.000000 0.000000 -1.000000
vn 0.000000 0.000000 -1.000000
vn 0.000000 -1.000000 0.000000
vn 0.000000 -1.000000 0.000000
vn 0.000000 -1.000000 0.000000
vn 0.000000 -1.000000 0.000000
vn 0.462110 0.886823 0.000000
vn 0.462110 0.886823 0.000000
vn 0.462110 0.886823 0.000000
vn 0.462110 0.886823 0.000000
vn -1.000000 0.000000 0.000000
vn -1.000000 0.000000 0.000000
vn -1.000000 0.000000 0.000000
vn -1.000000 0.000000 0.000000
vn 0.000000 0.000000 1.000000
vn 0.000000 0.000000 1.000000
vn 0.000000 0.000000 1.000000
vn 0.000000 0.000000 1.000000
vn 0.000000 1.000000 0.000000
vn 0.000000 1.000000 0.000000
vn 0.000000 1.000000 0.000000
vn 0.000000 1.000000 0.000000
vn 0.000000 0.000000 -1.000000
vn 0.000000 0.000000 -1.000000
vn 0.000000 0.000000 -1.000000
vn 0.000000 0.000000 -1.000000
vn 0.000000 -1.000000 0.000000
vn 0.000000 -1.000000 0.000000
vn 0.000000 -1.000000 0.000000
vn 0.000000 -1.000000 0.000000
vn 0.462110 0.886823 0.000000
vn 0.462110 0.886823 0.000000
vn 0.462110 0.886823 0.000000
vn 0.462110 0.886823 0.000000
vn -1.000000 0.000000 0.000000
vn -1.000000 0.000000 0.000000
vn -1.000000 0.000000 0.000000
vn -1.000000 0.000000 0.000000
vn 0.000000 0.000000 1.000000
vn 0.000000 0.000000 1.000000
vn 0.000000 0.000000 1.000000
vn 0.000000 0.000000 1.000000
vn 0.000000 1.000000 0.000000
vn 0.000000 1.000000 0.000000
vn 0.000000 1.000000 0.000000
vn 0.000000 1.000000 0.000000
vn 0.000000 0.000000 -1.000000
vn 0.000000 0.000000 -1.000000
vn 0.000000 0.000000 -1.000000
vn 0.000000 0.000000 -1.000000
vn 0.000000 -1.000000 0.000000
vn 0.000000 -1.000000 0.000000
vn 0.000000 -1.000000 0.000000
vn 0.000000 -1.000000 0.000000
vn 0.462110 0.886823 0.000000
vn 0.462110 0.886823 0.000000
vn 0.462110 0.886823 0.000000
vn 0.462110 0.886823 0.000000
vn -1.000000 0.000000 0.000000
vn -1.000000 0.000000 0.000000
vn -1.000000 0.000000 0.000000
vn -1.000000 0.000000 0.000000
vn 0.000000 0.000000 1.000000
vn 0.000000 0.000000 1.000000
vn 0.000000 0.000000 1.000000
vn 0.000000 0.000000 1.000000
vn 0.000000 1.000000 0.000000
vn 0.000000 1.000000 0.000000
vn 0.000000 1.000000 0.000000
vn 0.000000 1.000000 0.000000
vn 0.000000 0.000000 -1.000000
vn 0.000000 0.000000 -1.000000
vn 0.000000 0.000000 -1.000000
vn 0.000000 0.000000 -1.000000
vn 0.000000 -1.000000 0.000000
vn 0.000000 -1.000000 0.000000
vn 0.000000 -1.000000 0.000000
vn 0.000000 -1.000000 0.000000
vn 0.462110 0.886823 0.000000
vn 0.462110 0.886823 0.000000
vn 0.462110 0.886823 0.000000
vn 0.462110 0.886823 0.000000
vn -1.000000 0.000000 0.000000
vn -1.000000 0.000000 0.000000
vn -1.000000 0.000000 0.000000
vn -1.000000 0.000000 0.000000
vn 0.000000 0.000000 1.000000
vn 0.000000 0.000000 1.000000
vn 0.000000 0.000000 1.000000
vn 0.000000 0.000000 1.000000
vn 0.000000 1.000000 0.000000
vn 0.000000 1.000000 0.000000
vn 0.000000 1.000000 0.000000
vn 0.000000 1.000000 0.000000
vn 0.000000 0.000000 -1.000000
vn 0.000000 0.000000 -1.000000
vn 0.000000 0.000000 -1.000000
vn 0.000000 0.000000 -1.000000
vn 0.000000 -1.000000 0.000000
vn 0.000000 -1.000000 0.000000
vn 0.000000 -1.000000 0.000000
vn 0.000000 -1.000000 0.000000
vn 0.462110 0.886823 0.000000
vn 0.462110 0.886823 0.000000
vn 0.462110 0.886823 0.000000
vn 0.462110 0.886823 0.000000
vn -1.000000 0.000000 0.000000
vn -1.000000 0.000000 0.000000
vn -1.000000 0.000000 0.000000
vn -1.000000 0.000000 0.000000
vn 0.000000 0.000000 1.000000
vn 0.000000 0.000000 1.000000
vn 0.000000 0.000000 1.000000
vn 0.000000 0.000000 1.000000
vn 0.000000 1.000000 0.000000
vn 0.000000 1.000000 0.000000
vn 0.000000 1.000000 0.000000
vn 0.000000 1.000000 0.000000
vn 0.000000 0.000000 -1.000000
vn 0.000000 0.000000 -1.000000
vn 0.000000 0.000000 -1.000000
vn 0.000000 0.000000 -1.000000
vn 0.000000 -1.000000 0.000000
vn 0.000000 -1.000000 0.000000
vn 0.000000 -1.000000 0.000000
vn 0.000000 -1.000000 0.000000
vn 0.462110 0.886823 0.000000
vn 0.462110 0.886823 0.000000
vn 0.462110 0.886823 0.000000
vn 0.462110 0.886823 0.000000
vn -1.000000 0.000000 0.000000
vn -1.000000 0.000000 0.000000
vn -1.000000 0.000000 0.000000
vn -1.000000 0.000000 0.000000
vn 0.000000 0.000000 1.000000
vn 0.000000 0.000000 1.000000
vn 0.000000 0.000000 1.000000
vn 0.000000 0.000000 1.000000
vn 0.000000 1.000000 0.000000
vn 0.000000 1.000000 0.000000
vn 0.000000 1.000000 0.000000
vn 0.000000 1.000000 0.000000
vn 0.000000 0.000000 -1.000000
vn 0.000000 0.000000 -1.000000
vn 0.000000 0.000000 -1.000000
vn 0.000000 0.000000 -1.000000
vn 0.000000 -1.000000 0.000000
vn 0.000000 -1.000000 0.000000
vn 0.000000 -1.000000 0.000000
vn 0.000000 -1.000000 0.000000
vn 0.462110 0.886823 0.000000
vn 0.462110 0.886823 0.000000
vn 0.462110 0.886823 0.000000
vn 0.462110 0.886823 0.000000
vn -1.000000 0.000000 0.000000
vn -1.000000 0.000000 0.000000
vn -1.000000 0.000000 0.000000
vn -1.000000 0.000000 0.000000
vn 0.000000 0.000000 1.000000
vn 0.000000 0.000000 1.000000
vn 0.000000 0.000000 1.000000
vn 0.000000 0.000000 1.000000
vn 0.000000 1.000000 0.000000
vn 0.000000 1.000000 0.000000
vn 0.000000 1.000000 0.000000
vn 0.000000 1.000000 0.000000
vn 0.000000 0.000000 -1.000000
vn 0.000000 0.000000 -1.000000
vn 0.000000 0.000000 -1.000000
vn 0.000000 0.000000 -1.000000
vn 0.000000 -1.000000 -0.000000
vn 0.000000 -1.000000 -0.000000
vn 0.000000 -1.000000 -0.000000
vn 0.000000 -1.000000 -0.000000
vn 1.000000 0.000000 0.000000
vn 1.000000 0.000000 0.000000
vn 1.000000 0.000000 0.000000
vn 1.000000 0.000000 0.000000
vn -1.000000 0.000000 0.000000
vn -1.000000 0.000000 0.000000
vn -1.000000 0.000000 0.000000
vn -1.000000 0.000000 0.000000
vn 0.000000 0.000000 1.000000
vn 0.000000 0.000000 1.000000
vn 0.000000 0.000000 1.000000
vn 0.000000 0.000000 1.000000
vn 0.000000 1.000000 0.000000
vn 0.000000 1.000000 0.000000
vn 0.000000 1.000000 0.000000
vn 0.000000 1.000000 0.000000
vn 0.000000 0.000000 -1.000000
vn 0.000000 0.000000 -1.000000
vn 0.000000 0.000000 -1.000000
vn 0.000000 0.000000 -1.000000
vn 0.000000 -1.000000 0.000000
vn 0.000000 -1.000000 0.000000
vn 0.000000 -1.000000 0.000000
vn 0.000000 -1.000000 0.000000
vn 1.000000 -0.000000 0.000000
vn 1.000000 -0.000000 0.000000
vn 1.000000 -0.000000 0.000000
vn 1.000000 -0.000000 0.000000
vn -1.000000 0.000002 0.000000
vn -1.000000 0.000002 0.000000
vn -1.000000 0.000002 0.000000
vn -1.000000 0.000002 0.000000
vn 0.000000 0.000000 1.000000
vn 0.000000 0.000000 1.000000
vn 0.000000 0.000000 1.000000
vn 0.000000 0.000000 1.000000
vn 0.000000 1.000000 0.000000
vn 0.000000 1.000000 0.000000
vn 0.000000 1.000000 0.000000
vn 0.000000 1.000000 0.000000
vn 0.000000 0.000000 -1.000000
vn 0.000000 0.000000 -1.000000
vn 0.000000 0.000000 -1.000000
vn 0.000000 0.000000 -1.000000
vn 0.000000 -1.000000 0.000000
vn 0.000000 -1.000000 0.000000
vn 0.000000 -1.000000 0.000000
vn 0.000000 -1.000000 0.000000
vn 0.823054 0.567962 0.000000
vn 0.823054 0.567962 0.000000
vn 0.823054 0.567962 0.000000
vn 0.823054 0.567962 0.000000
vn -0.823054 0.567963 0.000000
vn -0.823054 0.567963 0.000000
vn -0.823054 0.567963 0.000000
vn -0.823054 0.567963 0.000000
vn 0.000000 0.000000 1.000000
vn 0.000000 0.000000 1.000000
vn 0.000000 0.000000 1.000000
vn 0.000000 0.000000 1.000000
vn 0.000000 1.000000 0.000000
vn 0.000000 1.000000 0.000000
vn 0.000000 1.000000 0.000000
vn 0.000000 1.000000 0.000000
vn 0.000000 0.000000 -1.000000
vn 0.000000 0.000000 -1.000000
vn 0.000000 0.000000 -1.000000
vn 0.000000 0.000000 -1.000000
vn 0.000000 -1.000000 0.000000
vn 0.000000 -1.000000 0.000000
vn 0.000000 -1.000000 0.000000
vn 0.000000 -1.000000 0.000000
vn 0.823054 0.567963 0.000000
vn 0.823054 0.567963 0.000000
vn 0.823054 0.567963 0.000000
vn 0.823054 0.567963 0.000000
vn -0.823054 0.567963 0.000000
vn -0.823054 0.567963 0.000000
vn -0.823054 0.567963 0.000000
vn -0.823054 0.567963 0.000000
vn 0.000000 0.000000 1.000000
vn 0.000000 0.000000 1.000000
vn 0.000000 0.000000 1.000000
vn 0.000000 0.000000 1.000000
vn 0.000000 1.000000 0.000000
vn 0.000000 1.000000 0.000000
vn 0.000000 1.000000 0.000000
vn 0.000000 1.000000 0.000000
vn 0.000000 0.000000 -1.000000
vn 0.000000 0.000000 -1.000000
vn 0.000000 0.000000 -1.000000
vn 0.000000 0.000000 -1.000000
vn 0.000000 -1.000000 0.000000
vn 0.000000 -1.000000 0.000000
vn 0.000000 -1.000000 0.000000
vn 0.000000 -1.000000 0.000000
vn 0.823054 0.567963 0.000000
vn 0.823054 0.567963 0.000000
vn 0.823054 0.567963 0.000000
vn 0.823054 0.567963 0.000000
vn -0.823054 0.567963 0.000000
vn -0.823054 0.567963 0.000000
vn -0.823054 0.567963 0.000000
vn -0.823054 0.567963 0.000000
vn 0.000000 0.000000 1.000000
vn 0.000000 0.000000 1.000000
vn 0.000000 0.000000 1.000000
vn 0.000000 0.000000 1.000000
vn 0.000000 1.000000 0.000000
vn 0.000000 1.000000 0.000000
vn 0.000000 1.000000 0.000000
vn 0.000000 1.000000 0.000000
vn 0.000000 0.000000 -1.000000
vn 0.000000 0.000000 -1.000000
vn 0.000000 0.000000 -1.000000
vn 0.000000 0.000000 -1.000000
vn 0.000000 -1.000000 0.000000
vn 0.000000 -1.000000 0.000000
vn 0.000000 -1.000000 0.000000
vn 0.000000 -1.000000 0.000000
vn 0.823054 0.567963 0.000000
vn 0.823054 0.567963 0.000000
vn 0.823054 0.567963 0.000000
vn 0.823054 0.567963 0.000000
vn -0.823054 0.567963 0.000000
vn -0.823054 0.567963 0.000000
vn -0.823054 0.567963 0.000000
vn -0.823054 0.567963 0.000000
vn 0.000000 0.000000 1.000000
vn 0.000000 0.000000 1.000000
vn 0.000000 0.000000 1.000000
vn 0.000000 0.000000 1.000000
vn 0.000000 1.000000 0.000000
vn 0.000000 1.000000 0.000000
vn 0.000000 1.000000 0.000000
vn 0.000000 1.000000 0.000000
vn 0.000000 0.000000 -1.000000
vn 0.000000 0.000000 -1.000000
vn 0.000000 0.000000 -1.000000
vn 0.000000 0.000000 -1.000000
vn 0.000000 -1.000000 0.000000
vn 0.000000 -1.000000 0.000000
vn 0.000000 -1.000000 0.000000
vn 0.000000 -1.000000 0.000000
vn 0.823054 0.567963 0.000000
vn 0.823054 0.567963 0.000000
vn 0.823054 0.567963 0.000000
vn 0.823054 0.567963 0.000000
vn -0.823054 0.567963 0.000000
vn -0.823054 0.567963 0.000000
vn -0.823054 0.567963 0.000000
vn -0.823054 0.567963 0.000000
vn 0.000000 0.000000 1.000000
vn 0.000000 0.000000 1.000000
vn 0.000000 0.000000 1.000000
vn 0.000000 0.000000 1.000000
vn 0.000000 1.000000 0.000000
vn 0.000000 1.000000 0.000000
vn 0.000000 1.000000 0.000000
vn 0.000000 1.000000 0.000000
vn 0.000000 0.000000 -1.000000
vn 0.000000 0.000000 -1.000000
vn 0.000000 0.000000 -1.000000
vn 0.000000 0.000000 -1.000000
vn 0.000000 -1.000000 0.000000
vn 0.000000 -1.000000 0.000000
vn 0.000000 -1.000000 0.000000
vn 0.000000 -1.000000 0.000000
vn 0.823054 0.567963 0.000000
vn 0.823054 0.567963 0.000000
vn 0.823054 0.567963 0.000000
vn 0.823054 0.567963 0.000000
vn -0.823054 0.567963 0.000000
vn -0.823054 0.567963 0.000000
vn -0.823054 0.567963 0.000000
vn -0.823054 0.567963 0.000000
vn 0.000000 0.000000 1.000000
vn 0.000000 0.000000 1.000000
vn 0.000000 0.000000 1.000000
vn 0.000000 0.000000 1.000000
vn 0.016466 0.908941 -0.416600
vn 0.016466 0.908941 -0.416600
vn 0.016466 0.908941 -0.416600
vn 0.016466 0.908941 -0.416600
vn 0.026993 -0.453746 -0.890722
vn 0.026993 -0.453746 -0.890722
vn 0.026993 -0.453746 -0.890722
vn 0.026993 -0.453746 -0.890722
vn 0.823054 0.567963 0.000000
vn 0.823054 0.567963 0.000000
vn 0.823054 0.567963 0.000000
vn -0.823054 0.567963 0.000000
vn -0.823054 0.567963 0.000000
vn -0.823054 0.567963 0.000000
vn -0.823054 0.567963 0.000000
vn 0.000000 0.000000 1.000000
vn 0.000000 0.000000 1.000000
vn 0.000000 0.000000 1.000000
vn 0.000000 0.000000 1.000000
vn 0.000000 1.000000 0.000000
vn 0.000000 1.000000 0.000000
vn 0.000000 1.000000 0.000000
vn 0.000000 1.000000 0.000000
vn 0.000000 0.000000 -1.000000
vn 0.000000 0.000000 -1.000000
vn 0.000000 0.000000 -1.000000
vn 0.000000 0.000000 -1.000000
vn 0.000000 -1.000000 0.000000
vn 0.000000 -1.000000 0.000000
vn 0.000000 -1.000000 0.000000
vn 0.000000 -1.000000 0.000000
vn 0.823054 0.567963 0.000000
vn 0.823054 0.567963 0.000000
vn 0.823054 0.567963 0.000000
vn 0.823054 0.567963 0.000000
vn -0.823054 0.567963 0.000000
vn -0.823054 0.567963 0.000000
vn -0.823054 0.567963 0.000000
vn -0.823054 0.567963 0.000000
vn 0.000000 0.000000 1.000000
vn 0.000000 0.000000 1.000000
vn 0.000000 0.000000 1.000000
vn 0.000000 0.000000 1.000000
vn 0.000000 1.000000 0.000000
vn 0.000000 1.000000 0.000000
vn 0.000000 1.000000 0.000000
vn 0.000000 1.000000 0.000000
vn 0.000000 0.000000 -1.000000
vn 0.000000 0.000000 -1.000000
vn 0.000000 0.000000 -1.000000
vn 0.000000 0.000000 -1.000000
vn 0.000000 -1.000000 0.000000
vn 0.000000 -1.000000 0.000000
vn 0.000000 -1.000000 0.000000
vn 0.000000 -1.000000 0.000000
vn 0.823054 0.567963 0.000000
vn 0.823054 0.567963 0.000000
vn 0.823054 0.567963 0.000000
vn 0.823054 0.567963 0.000000
vn -0.823054 0.567963 0.000000
vn -0.823054 0.567963 0.000000
vn -0.823054 0.567963 0.000000
vn -0.823054 0.567963 0.000000
vn 0.000000 0.000000 1.000000
vn 0.000000 0.000000 1.000000
vn 0.000000 0.000000 1.000000
vn 0.000000 0.000000 1.000000
vn 0.000000 1.000000 0.000000
vn 0.000000 1.000000 0.000000
vn 0.000000 1.000000 0.000000
vn 0.000000 1.000000 0.000000
vn 0.000000 0.000000 -1.000000
vn 0.000000 0.000000 -1.000000
vn 0.000000 0.000000 -1.000000
vn 0.000000 0.000000 -1.000000
vn 0.000000 -1.000000 0.000000
vn 0.000000 -1.000000 0.000000
vn 0.000000 -1.000000 0.000000
vn 0.000000 -1.000000 0.000000
vn 0.823054 0.567962 0.000000
vn 0.823054 0.567962 0.000000
vn 0.823054 0.567962 0.000000
vn 0.823054 0.567962 0.000000
vn -0.823054 0.567963 0.000000
vn -0.823054 0.567963 0.000000
vn -0.823054 0.567963 0.000000
vn -0.823054 0.567963 0.000000
vn 0.000000 0.000000 1.000000
vn 0.000000 0.000000 1.000000
vn 0.000000 0.000000 1.000000
vn 0.000000 0.000000 1.000000
vn 0.000000 1.000000 0.000000
vn 0.000000 1.000000 0.000000
vn 0.000000 1.000000 0.000000
vn 0.000000 1.000000 0.000000
vn 0.000000 0.000000 -1.000000
vn 0.000000 0.000000 -1.000000
vn 0.000000 0.000000 -1.000000
vn 0.000000 0.000000 -1.000000
vn 0.000000 -1.000000 0.000000
vn 0.000000 -1.000000 0.000000
vn 0.000000 -1.000000 0.000000
vn 0.000000 -1.000000 0.000000
vn 0.823054 0.567963 0.000000
vn 0.823054 0.567963 0.000000
vn 0.823054 0.567963 0.000000
vn 0.823054 0.567963 0.000000
vn -0.823054 0.567963 0.000000
vn -0.823054 0.567963 0.000000
vn -0.823054 0.567963 0.000000
vn -0.823054 0.567963 0.000000
vn 0.000000 -1.000000 0.000000
vn 0.000000 -1.000000 0.000000
vn 0.000000 -1.000000 0.000000
vn 0.000000 -1.000000 0.000000
vn -1.000000 0.000000 0.000000
vn -1.000000 0.000000 0.000000
vn -1.000000 0.000000 0.000000
vn -1.000000 0.000000 0.000000
vn 0.000000 -1.000000 -0.000000
vn 0.000000 -1.000000 -0.000000
vn 0.000000 -1.000000 -0.000000
vn 0.000000 -1.000000 -0.000000
vn -1.000000 0.000000 0.000000
vn -1.000000 0.000000 0.000000
vn -1.000000 0.000000 0.000000
vn -1.000000 0.000000 0.000000
vn 0.000000 -1.000000 0.000000
vn 0.000000 -1.000000 0.000000
vn 0.000000 -1.000000 0.000000
vn 0.000000 -1.000000 0.000000
vn -0.823054 0.567963 0.000000
vn -0.823054 0.567963 0.000000
vn -0.823054 0.567963 0.000000
vn 0.000000 1.000000 0.000000
vn 0.000000 1.000000 0.000000
vn 0.000000 1.000000 0.000000
vn 0.000000 1.000000 0.000000
vn 1.000000 0.000001 0.000000
vn 1.000000 0.000001 0.000000
vn 1.000000 0.000001 0.000000
vn 1.000000 0.000001 0.000000
vn 0.000000 1.000000 0.000000
vn 0.000000 1.000000 0.000000
vn 0.000000 1.000000 0.000000
vn 0.000000 1.000000 0.000000
vn 0.823054 0.567963 0.000000
vn 0.823054 0.567963 0.000000
vn 0.823054 0.567963 0.000000
vn -0.000000 1.000000 0.000000
vn -0.000000 1.000000 0.000000
vn -0.000000 1.000000 0.000000
vn -0.000000 1.000000 0.000000
vn 1.000000 0.000001 0.000000
vn 1.000000 0.000001 0.000000
vn 1.000000 0.000001 0.000000
vn 1.000000 0.000001 0.000000
vn 0.000000 0.000000 0.000000
vn 0.000000 0.000000 0.000000
vn 0.000000 0.000000 0.000000
vn 0.000000 0.000000 0.000000
vn 0.074833 0.151936 -0.985554
vn 0.074833 0.151936 -0.985554
vn 0.074833 0.151936 -0.985554
vn 0.074833 0.151936 -0.985554
vn -0.051610 -0.122710 0.991100
vn -0.051610 -0.122710 0.991100
vn -0.051610 -0.122710 0.991100
vn -0.051610 -0.122710 0.991100
vn -0.022698 -0.489685 0.871604
vn -0.022698 -0.489685 0.871604
vn -0.022698 -0.489685 0.871604
vn -0.022698 -0.489685 0.871604
vn 0.000000 0.000000 0.000000
vn 0.000000 0.000000 0.000000
vn 0.000000 0.000000 0.000000
vn 0.000000 0.000000 0.000000
vn 0.000000 0.000000 0.000000
vn 0.000000 0.000000 0.000000
vn 0.000000 0.000000 0.000000
vn 0.000000 0.000000 0.000000
vn 0.000000 0.000000 0.000000
vn 0.000000 0.000000 0.000000
vn 0.074836 0.152229 -0.985508
vn 0.074836 0.152229 -0.985508
vn 0.074836 0.152229 -0.985508
vn 0.074836 0.152229 -0.985508
vn -0.051575 -0.127443 0.990504
vn -0.051575 -0.127442 0.990504
vn -0.051575 -0.127443 0.990504
vn -0.051575 -0.127442 0.990504
vn 0.000000 -1.000000 0.000000
vn 0.000000 -0.000000 0.000000
vn 0.000000 -0.000000 0.000000
vn 0.000000 -1.000000 0.000000
s off
g TrainTrackPresent
usemtl initialShadingGroup
f 1/496/1 2/497/2 4/498/3 3/499/4
f 3/127/5 4/128/6 6/129/7 5/130/8
f 5/500/9 6/501/10 8/502/11 7/503/12
f 7/133/13 8/134/14 2/135/15 1/136/16
f 2/131/17 8/132/18 6/129/19 4/128/20
f 7/15/21 1/16/22 3/17/23 5/18/24
f 9/504/25 10/505/26 12/506/27 11/507/28
f 11/137/29 12/138/30 14/139/31 13/140/32
f 13/508/33 14/509/34 16/510/35 15/511/36
f 15/143/37 16/144/38 10/145/39 9/146/40
f 10/141/41 16/142/42 14/139/43 12/138/44
f 15/19/45 9/20/46 11/21/47 13/22/48
f 17/512/49 18/513/50 20/514/51 19/515/52
f 19/147/53 20/148/54 22/149/55 21/150/56
f 21/516/57 22/517/58 24/518/59 23/519/60
f 23/153/61 24/154/62 18/155/63 17/156/64
f 18/151/65 24/152/66 22/149/67 20/148/68
f 23/23/69 17/24/70 19/25/71 21/26/72
f 25/520/73 26/521/74 28/522/75 27/523/76
f 27/157/77 28/158/78 30/159/79 29/160/80
f 29/524/81 30/525/82 32/526/83 31/527/84
f 31/163/85 32/164/86 26/165/87 25/166/88
f 26/161/89 32/162/90 30/159/91 28/158/92
f 31/27/93 25/28/94 27/29/95 29/30/96
f 33/528/97 34/529/98 36/530/99 35/531/100
f 35/167/101 36/168/102 38/169/103 37/170/104
f 37/532/105 38/533/106 40/534/107 39/535/108
f 39/173/109 40/174/110 34/175/111 33/176/112
f 34/171/113 40/172/114 38/169/115 36/168/116
f 39/31/117 33/32/118 35/33/119 37/34/120
f 41/536/121 42/537/122 44/538/123 43/539/124
f 43/177/125 44/178/126 46/179/127 45/180/128
f 45/540/129 46/541/130 48/542/131 47/543/132
f 47/183/133 48/184/134 42/185/135 41/186/136
f 42/181/137 48/182/138 46/179/139 44/178/140
f 47/35/141 41/36/142 43/37/143 45/38/144
f 49/544/145 50/545/146 52/546/147 51/547/148
f 51/187/149 52/188/150 54/189/151 53/190/152
f 53/548/153 54/549/154 56/550/155 55/551/156
f 55/193/157 56/194/158 50/195/159 49/196/160
f 50/191/161 56/192/162 54/189/163 52/188/164
f 55/39/165 49/40/166 51/41/167 53/42/168
f 57/552/169 58/553/170 60/554/171 59/555/172
f 59/197/173 60/198/174 62/199/175 61/200/176
f 61/556/177 62/557/178 64/558/179 63/559/180
f 63/203/181 64/204/182 58/205/183 57/206/184
f 58/201/185 64/202/186 62/199/187 60/198/188
f 63/43/189 57/44/190 59/45/191 61/46/192
f 65/560/193 66/561/194 68/562/195 67/563/196
f 67/207/197 68/208/198 70/209/199 69/210/200
f 69/564/201 70/565/202 72/566/203 71/567/204
f 71/213/205 72/214/206 66/215/207 65/216/208
f 66/211/209 72/212/210 70/209/211 68/208/212
f 71/47/213 65/48/214 67/49/215 69/50/216
f 73/568/217 74/569/218 76/570/219 75/571/220
f 75/217/221 76/218/222 78/219/223 77/220/224
f 77/572/225 78/573/226 80/574/227 79/575/228
f 79/223/229 80/224/230 74/225/231 73/226/232
f 74/221/233 80/222/234 78/219/235 76/218/236
f 79/51/237 73/52/238 75/53/239 77/54/240
f 81/576/241 82/577/242 84/578/243 83/579/244
f 83/227/245 84/228/246 86/229/247 85/230/248
f 85/580/249 86/581/250 88/582/251 87/583/252
f 87/233/253 88/234/254 82/235/255 81/236/256
f 82/231/257 88/232/258 86/229/259 84/228/260
f 87/55/261 81/56/262 83/57/263 85/58/264
f 89/584/265 90/585/266 92/586/267 91/587/268
f 91/237/269 92/238/270 94/239/271 93/240/272
f 93/588/273 94/589/274 96/590/275 95/591/276
f 95/243/277 96/244/278 90/245/279 89/246/280
f 90/241/281 96/242/282 94/239/283 92/238/284
f 95/59/285 89/60/286 91/61/287 93/62/288
f 97/592/289 98/593/290 100/594/291 99/595/292
f 99/247/293 100/248/294 102/249/295 101/250/296
f 101/596/297 102/597/298 104/598/299 103/599/300
f 103/253/301 104/254/302 98/255/303 97/256/304
f 98/251/305 104/252/306 102/249/307 100/248/308
f 103/63/309 97/64/310 99/65/311 101/66/312
f 105/600/313 106/601/314 108/602/315 107/603/316
f 107/257/317 108/258/318 110/259/319 109/260/320
f 109/604/321 110/605/322 112/606/323 111/607/324
f 111/263/325 112/264/326 106/265/327 105/266/328
f 106/261/329 112/262/330 110/259/331 108/258/332
f 111/67/333 105/68/334 107/69/335 109/70/336
f 113/608/337 114/609/338 116/610/339 115/611/340
f 115/267/341 116/268/342 118/269/343 117/270/344
f 117/612/345 118/613/346 120/614/347 119/615/348
f 119/273/349 120/274/350 114/275/351 113/276/352
f 114/271/353 120/272/354 118/269/355 116/268/356
f 119/71/357 113/72/358 115/73/359 117/74/360
f 121/616/361 122/617/362 124/618/363 123/619/364
f 123/277/365 124/278/366 126/279/367 125/280/368
f 125/620/369 126/621/370 128/622/371 127/623/372
f 127/283/373 128/284/374 122/285/375 121/286/376
f 122/281/377 128/282/378 126/279/379 124/278/380
f 127/75/381 121/76/382 123/77/383 125/78/384
f 129/624/385 130/625/386 132/626/387 131/627/388
f 131/287/389 132/288/390 134/289/391 133/290/392
f 133/628/393 134/629/394 136/630/395 135/631/396
f 135/293/397 136/294/398 130/295/399 129/296/400
f 130/291/401 136/292/402 134/289/403 132/288/404
f 135/79/405 129/80/406 131/81/407 133/82/408
f 137/632/409 138/633/410 140/634/411 139/635/412
f 139/297/413 140/298/414 142/299/415 141/300/416
f 141/636/417 142/637/418 144/638/419 143/639/420
f 143/303/421 144/304/422 138/305/423 137/306/424
f 138/301/425 144/302/426 142/299/427 140/298/428
f 143/83/429 137/84/430 139/85/431 141/86/432
f 145/640/433 146/641/434 148/642/435 147/643/436
f 147/307/437 148/308/438 150/309/439 149/310/440
f 149/644/441 150/645/442 152/646/443 151/647/444
f 151/313/445 152/314/446 146/315/447 145/316/448
f 146/311/449 152/312/450 150/309/451 148/308/452
f 151/87/453 145/88/454 147/89/455 149/90/456
f 153/648/457 154/649/458 156/650/459 155/651/460
f 155/317/461 156/318/462 158/319/463 157/320/464
f 157/652/465 158/653/466 160/654/467 159/655/468
f 159/323/469 160/324/470 154/325/471 153/326/472
f 154/321/473 160/322/474 158/319/475 156/318/476
f 159/91/477 153/92/478 155/93/479 157/94/480
f 161/656/481 162/657/482 164/658/483 163/659/484
f 163/327/485 164/328/486 266/329/487 265/330/488
f 165/660/489 166/661/490 168/662/491 167/663/492
f 167/331/493 168/332/494 277/333/495 276/334/496
f 162/95/497 268/96/498 266/97/499 164/98/500
f 167/99/501 276/100/502 281/101/503 165/102/504
f 169/664/505 170/665/506 172/666/507 171/667/508
f 171/335/509 172/336/510 270/337/511 269/338/512
f 173/668/513 174/669/514 176/670/515 175/671/516
f 175/339/517 176/340/518 279/341/519 278/342/520
f 170/103/521 272/104/522 270/105/523 172/106/524
f 175/107/525 278/108/526 284/109/527 173/110/528
f 177/672/529 178/673/530 180/674/531 179/675/532
f 179/343/533 180/344/534 182/345/535 181/346/536
f 181/676/537 182/677/538 184/678/539 183/679/540
f 183/351/541 184/352/542 178/353/543 177/354/544
f 178/347/545 184/348/546 182/345/547 180/344/548
f 183/349/549 177/350/550 179/343/551 181/346/552
f 185/680/553 186/681/554 188/682/555 187/683/556
f 187/355/557 188/356/558 190/357/559 189/358/560
f 189/684/561 190/685/562 192/686/563 191/687/564
f 191/363/565 192/364/566 186/365/567 185/366/568
f 186/359/569 192/360/570 190/357/571 188/356/572
f 191/361/573 185/362/574 187/355/575 189/358/576
f 193/688/577 194/689/578 196/690/579 195/691/580
f 195/367/581 196/368/582 198/369/583 197/370/584
f 197/692/585 198/693/586 200/694/587 199/695/588
f 199/375/589 200/376/590 194/377/591 193/378/592
f 194/371/593 200/372/594 198/369/595 196/368/596
f 199/373/597 193/374/598 195/367/599 197/370/600
f 201/696/601 202/697/602 204/698/603 203/699/604
f 203/379/605 204/380/606 206/381/607 205/382/608
f 205/700/609 206/701/610 208/702/611 207/703/612
f 207/387/613 208/388/614 202/389/615 201/390/616
f 202/383/617 208/384/618 206/381/619 204/380/620
f 207/385/621 201/386/622 203/379/623 205/382/624
f 209/704/625 210/705/626 212/706/627 211/707/628
f 211/391/629 212/392/630 214/393/631 213/394/632
f 213/708/633 214/709/634 216/710/635 215/711/636
f 215/399/637 216/400/638 210/401/639 209/402/640
f 210/395/641 216/396/642 214/393/643 212/392/644
f 215/397/645 209/398/646 211/391/647 213/394/648
f 217/712/649 218/713/650 220/714/651 219/715/652
f 219/403/653 220/404/654 222/405/655 221/406/656
f 221/716/657 222/717/658 224/718/659 223/719/660
f 223/411/661 224/412/662 218/413/663 217/414/664
f 218/407/665 224/408/666 222/405/667 220/404/668
f 223/409/669 217/410/670 219/403/671 221/406/672
f 225/720/673 226/721/674 228/722/675 227/723/676
f 227/415/677 228/416/678 274/417/679 273/418/680
f 229/776/681 230/777/682 232/778/683 231/779/684
f 226/419/685 274/417/686 228/416/687
f 229/488/688 231/490/689 275/491/690 283/485/691
f 233/724/692 234/725/693 236/726/694 235/727/695
f 235/421/696 236/422/697 238/423/698 237/424/699
f 237/728/700 238/729/701 240/730/702 239/731/703
f 239/429/704 240/430/705 234/431/706 233/432/707
f 234/425/708 240/426/709 238/423/710 236/422/711
f 239/427/712 233/428/713 235/421/714 237/424/715
f 241/732/716 242/733/717 244/734/718 243/735/719
f 243/433/720 244/434/721 246/435/722 245/436/723
f 245/736/724 246/737/725 248/738/726 247/739/727
f 247/441/728 248/442/729 242/443/730 241/444/731
f 242/437/732 248/438/733 246/435/734 244/434/735
f 247/439/736 241/440/737 243/433/738 245/436/739
f 249/740/740 250/741/741 252/742/742 251/743/743
f 251/445/744 252/446/745 254/447/746 253/448/747
f 253/744/748 254/745/749 256/746/750 255/747/751
f 255/453/752 256/454/753 250/455/754 249/456/755
f 250/449/756 256/450/757 254/447/758 252/446/759
f 255/451/760 249/452/761 251/445/762 253/448/763
f 257/748/764 258/749/765 260/750/766 259/751/767
f 259/457/768 260/458/769 262/459/770 261/460/771
f 261/752/772 262/753/773 264/754/774 263/755/775
f 263/465/776 264/466/777 258/467/778 257/468/779
f 258/461/780 264/462/781 262/459/782 260/458/783
f 263/463/784 257/464/785 259/457/786 261/460/787
f 267/469/788 268/470/789 162/471/790 161/472/791
f 265/111/792 267/112/793 161/113/794 163/114/795
f 271/473/796 272/474/797 170/475/798 169/476/799
f 269/115/800 271/116/801 169/117/802 171/118/803
f 273/477/804 274/478/805 226/479/806 225/480/807
f 273/418/808 225/420/809 227/415/810
f 281/481/811 282/482/812 166/483/813 165/484/814
f 282/119/815 277/120/816 168/121/817 166/122/818
f 283/485/819 280/486/820 230/487/821 229/488/822
f 280/486/823 232/489/824 230/487/825
f 284/492/826 285/493/827 174/494/828 173/495/829
f 285/123/830 279/124/831 176/125/832 174/126/833
f 265/1/834 266/2/835 286/3/836 287/4/837
f 268/756/838 267/757/839 289/758/840 288/759/841
f 278/760/842 279/761/843 290/762/844 291/763/845
f 283/764/846 275/765/847 232/766/848 280/767/849
f 280/5/850 283/6/851 293/7/852 292/8/853
f 280/9/854 292/10/855 232/11/856
f 283/12/857 275/13/858 293/14/859
f 272/768/860 271/769/861 295/770/862 294/771/863
f 276/772/864 277/773/865 296/774/866 297/775/867
f 231/779/868 232/778/869 232/766/870 275/765/871
