# This file uses centimeters as units for non-parametric coordinates.

mtllib button.mtl
g default
v -2.500000 -0.450064 2.500000
v 2.500000 -0.450064 2.500000
v -2.500000 0.149936 2.500000
v 2.500000 0.149936 2.500000
v -2.500000 0.149936 -2.500000
v 2.500000 0.149936 -2.500000
v -2.500000 -0.450064 -2.500000
v 2.500000 -0.450064 -2.500000
v -1.750000 0.150064 1.750000
v 1.750000 0.150064 1.750000
v -1.750000 0.450064 1.750000
v 1.750000 0.450064 1.750000
v -1.750000 0.450064 -1.750000
v 1.750000 0.450064 -1.750000
v -1.750000 0.150064 -1.750000
v 1.750000 0.150064 -1.750000
vt 0.710164 0.490090
vt 0.642341 0.490090
vt 0.031695 0.021332
vt 0.516799 0.021348
vt 0.722708 0.489554
vt 0.500452 0.490090
vt 0.031695 0.507518
vt 0.778903 0.020790
vt 0.031695 0.976275
vt 0.500452 0.976275
vt 0.573178 0.490090
vt 0.516927 0.490105
vt 0.710036 0.021332
vt 0.653785 0.021347
vt 0.500452 0.507518
vt 0.573050 0.021332
vt 0.778959 0.489547
vt 0.642213 0.021332
vt 0.722652 0.020797
vt 0.031695 0.490090
vt 0.586090 0.490105
vt 0.500452 0.021332
vt 0.585962 0.021347
vt 0.653913 0.490105
vt 0.726744 0.978369
vt 0.726579 0.021644
vt 0.808584 0.021630
vt 0.808749 0.978355
vt 0.026128 0.510384
vt 0.491225 0.510384
vt 0.491225 0.975481
vt 0.026128 0.975481
vt 0.525637 0.978369
vt 0.525471 0.021644
vt 0.607476 0.021630
vt 0.607642 0.978355
vt 0.026128 0.024942
vt 0.491225 0.024941
vt 0.491225 0.490038
vt 0.026128 0.490039
vt 0.827298 0.978369
vt 0.827133 0.021644
vt 0.909137 0.021630
vt 0.909303 0.978355
vt 0.626191 0.978370
vt 0.626025 0.021644
vt 0.708030 0.021630
vt 0.708196 0.978356
vn 0.000000 0.000000 1.000000
vn 0.000000 0.000000 1.000000
vn 0.000000 0.000000 1.000000
vn 0.000000 0.000000 1.000000
vn 0.000000 1.000000 0.000000
vn 0.000000 1.000000 0.000000
vn 0.000000 1.000000 0.000000
vn 0.000000 1.000000 0.000000
vn 0.000000 0.000000 -1.000000
vn 0.000000 0.000000 -1.000000
vn 0.000000 0.000000 -1.000000
vn 0.000000 0.000000 -1.000000
vn 0.000000 -1.000000 0.000000
vn 0.000000 -1.000000 0.000000
vn 0.000000 -1.000000 0.000000
vn 0.000000 -1.000000 0.000000
vn 1.000000 0.000000 0.000000
vn 1.000000 0.000000 0.000000
vn 1.000000 0.000000 0.000000
vn 1.000000 0.000000 0.000000
vn -1.000000 0.000000 0.000000
vn -1.000000 0.000000 0.000000
vn -1.000000 0.000000 0.000000
vn -1.000000 0.000000 0.000000
vn 0.000000 0.000000 1.000000
vn 0.000000 0.000000 1.000000
vn 0.000000 0.000000 1.000000
vn 0.000000 0.000000 1.000000
vn 0.000000 1.000000 0.000000
vn 0.000000 1.000000 0.000000
vn 0.000000 1.000000 0.000000
vn 0.000000 1.000000 0.000000
vn 0.000000 0.000000 -1.000000
vn 0.000000 0.000000 -1.000000
vn 0.000000 0.000000 -1.000000
vn 0.000000 0.000000 -1.000000
vn 0.000000 -1.000000 0.000000
vn 0.000000 -1.000000 0.000000
vn 0.000000 -1.000000 0.000000
vn 0.000000 -1.000000 0.000000
vn 1.000000 0.000000 0.000000
vn 1.000000 0.000000 0.000000
vn 1.000000 0.000000 0.000000
vn 1.000000 0.000000 0.000000
vn -1.000000 0.000000 0.000000
vn -1.000000 0.000000 0.000000
vn -1.000000 0.000000 0.000000
vn -1.000000 0.000000 0.000000
s off
g button
usemtl button_base8
f 1/18/1 2/2/2 4/21/3 3/23/4
f 3/3/5 4/22/6 6/6/7 5/20/8
f 5/5/9 6/19/10 8/8/11 7/17/12
f 7/7/13 8/15/14 2/10/15 1/9/16
f 2/16/17 8/11/18 6/12/19 4/4/20
f 7/13/21 1/1/22 3/24/23 5/14/24
usemtl button_clicker8
f 9/25/25 10/26/26 12/27/27 11/28/28
f 11/29/29 12/30/30 14/31/31 13/32/32
f 13/33/33 14/34/34 16/35/35 15/36/36
f 15/37/37 16/38/38 10/39/39 9/40/40
f 10/41/41 16/42/42 14/43/43 12/44/44
f 15/45/45 9/46/46 11/47/47 13/48/48
