# This file uses centimeters as units for non-parametric coordinates.

mtllib button base.mtl
g default
v -2.500000 0.000000 2.500000
v 2.500000 0.000000 2.500000
v -2.500000 0.600000 2.500000
v 2.500000 0.600000 2.500000
v -2.500000 0.600000 -2.500000
v 2.500000 0.600000 -2.500000
v -2.500000 0.000000 -2.500000
v 2.500000 0.000000 -2.500000
vt 0.642213 0.021332
vt 0.642341 0.490090
vt 0.586090 0.490105
vt 0.585962 0.021347
vt 0.031695 0.021332
vt 0.500452 0.021332
vt 0.500452 0.490090
vt 0.031695 0.490090
vt 0.722708 0.489554
vt 0.722652 0.020797
vt 0.778903 0.020790
vt 0.778959 0.489547
vt 0.031695 0.507518
vt 0.500452 0.507518
vt 0.500452 0.976275
vt 0.031695 0.976275
vt 0.573050 0.021332
vt 0.573178 0.490090
vt 0.516927 0.490105
vt 0.516799 0.021348
vt 0.710036 0.021332
vt 0.710164 0.490090
vt 0.653913 0.490105
vt 0.653785 0.021347
vn 0.000000 0.000000 1.000000
vn 0.000000 0.000000 1.000000
vn 0.000000 0.000000 1.000000
vn 0.000000 0.000000 1.000000
vn 0.000000 1.000000 0.000000
vn 0.000000 1.000000 0.000000
vn 0.000000 1.000000 0.000000
vn 0.000000 1.000000 0.000000
vn 0.000000 0.000000 -1.000000
vn 0.000000 0.000000 -1.000000
vn 0.000000 0.000000 -1.000000
vn 0.000000 0.000000 -1.000000
vn 0.000000 -1.000000 0.000000
vn 0.000000 -1.000000 0.000000
vn 0.000000 -1.000000 0.000000
vn 0.000000 -1.000000 0.000000
vn 1.000000 0.000000 0.000000
vn 1.000000 0.000000 0.000000
vn 1.000000 0.000000 0.000000
vn 1.000000 0.000000 0.000000
vn -1.000000 0.000000 0.000000
vn -1.000000 0.000000 0.000000
vn -1.000000 0.000000 0.000000
vn -1.000000 0.000000 0.000000
s off
g polySurface3 button
usemtl button_base8
f 1/1/1 2/2/2 4/3/3 3/4/4
f 3/5/5 4/6/6 6/7/7 5/8/8
f 5/9/9 6/10/10 8/11/11 7/12/12
f 7/13/13 8/14/14 2/15/15 1/16/16
f 2/17/17 8/18/18 6/19/19 4/20/20
f 7/21/21 1/22/22 3/23/23 5/24/24
