# This file uses centimeters as units for non-parametric coordinates.

mtllib mirror path tile.mtl
g default
v -3.000000 -0.400000 3.000000
v 3.000000 -0.400000 3.000000
v -3.000000 0.400000 3.000000
v 3.000000 0.400000 3.000000
v -3.000000 0.400000 -3.000000
v 3.000000 0.400000 -3.000000
v -3.000000 -0.400000 -3.000000
v 3.000000 -0.400000 -3.000000
vt 0.710164 0.490090
vt 0.642341 0.490090
vt 0.031695 0.021332
vt 0.516799 0.021348
vt 0.722708 0.489554
vt 0.500452 0.490090
vt 0.031695 0.507518
vt 0.778903 0.020790
vt 0.031695 0.976275
vt 0.500452 0.976275
vt 0.573178 0.490090
vt 0.516927 0.490105
vt 0.710036 0.021332
vt 0.653785 0.021347
vt 0.500452 0.507518
vt 0.573050 0.021332
vt 0.778959 0.489547
vt 0.642213 0.021332
vt 0.722652 0.020797
vt 0.031695 0.490090
vt 0.586090 0.490105
vt 0.500452 0.021332
vt 0.585962 0.021347
vt 0.653913 0.490105
vn 0.000000 0.000000 1.000000
vn 0.000000 0.000000 1.000000
vn 0.000000 0.000000 1.000000
vn 0.000000 0.000000 1.000000
vn 0.000000 1.000000 0.000000
vn 0.000000 1.000000 0.000000
vn 0.000000 1.000000 0.000000
vn 0.000000 1.000000 0.000000
vn 0.000000 0.000000 -1.000000
vn 0.000000 0.000000 -1.000000
vn 0.000000 0.000000 -1.000000
vn 0.000000 0.000000 -1.000000
vn 0.000000 -1.000000 0.000000
vn 0.000000 -1.000000 0.000000
vn 0.000000 -1.000000 0.000000
vn 0.000000 -1.000000 0.000000
vn 1.000000 0.000000 0.000000
vn 1.000000 0.000000 0.000000
vn 1.000000 0.000000 0.000000
vn 1.000000 0.000000 0.000000
vn -1.000000 0.000000 0.000000
vn -1.000000 0.000000 0.000000
vn -1.000000 0.000000 0.000000
vn -1.000000 0.000000 0.000000
s off
g mirror_path_tile
usemtl initialShadingGroup
f 1/18/1 2/2/2 4/21/3 3/23/4
f 3/3/5 4/22/6 6/6/7 5/20/8
f 5/5/9 6/19/10 8/8/11 7/17/12
f 7/7/13 8/15/14 2/10/15 1/9/16
f 2/16/17 8/11/18 6/12/19 4/4/20
f 7/13/21 1/1/22 3/24/23 5/14/24
