# This file uses centimeters as units for non-parametric coordinates.

mtllib switch flip.mtl
g default
v 0.750000 1.338614 -0.676843
v 0.750000 1.063941 -1.057370
v 0.750000 0.685123 -1.334395
v 0.750000 0.239240 -1.480799
v 0.750000 -0.230061 -1.482253
v 0.750000 -0.676843 -1.338613
v 0.750000 -1.057370 -1.063941
v 0.750000 -1.334395 -0.685123
v 0.750000 -1.480799 -0.239240
v 0.750000 -1.482253 0.230061
v 0.750000 -1.338613 0.676843
v 0.750000 -1.063941 1.057370
v 0.750000 -0.685123 1.334394
v 0.750000 -0.239240 1.480799
v 0.750000 0.230061 1.482253
v 0.750000 0.676843 1.338613
v 0.750000 1.057370 1.063941
v 0.750000 1.334394 0.685123
v 0.750000 1.480799 0.239240
v 0.750000 1.482252 -0.230061
v -0.750000 1.338614 -0.676843
v -0.750000 1.063941 -1.057370
v -0.750000 0.685123 -1.334395
v -0.750000 0.239240 -1.480799
v -0.750000 -0.230061 -1.482253
v -0.750000 -0.676843 -1.338613
v -0.750000 -1.057370 -1.063941
v -0.750000 -1.334395 -0.685123
v -0.750000 -1.480799 -0.239240
v -0.750000 -1.482253 0.230061
v -0.750000 -1.338613 0.676843
v -0.750000 -1.063941 1.057370
v -0.750000 -0.685123 1.334394
v -0.750000 -0.239240 1.480799
v -0.750000 0.230061 1.482253
v -0.750000 0.676843 1.338613
v -0.750000 1.057370 1.063941
v -0.750000 1.334394 0.685123
v -0.750000 1.480799 0.239240
v -0.750000 1.482252 -0.230061
v 0.750000 0.000000 0.000000
v -0.750000 0.000000 0.000000
v 0.750000 2.680793 0.242957
v 0.750000 2.682247 -0.226344
v -0.750000 2.682247 -0.226344
v -0.750000 2.680793 0.242957
vt 0.959661 0.786580
vt 0.980621 0.722073
vt 0.980621 0.654246
vt 0.959661 0.589739
vt 0.919793 0.534866
vt 0.864920 0.494998
vt 0.800413 0.474038
vt 0.732586 0.474038
vt 0.668079 0.494998
vt 0.613205 0.534866
vt 0.573338 0.589739
vt 0.552378 0.654246
vt 0.552378 0.722073
vt 0.573338 0.786581
vt 0.613206 0.841454
vt 0.668079 0.881321
vt 0.732586 0.902281
vt 0.800413 0.902281
vt 0.864920 0.881321
vt 0.919793 0.841454
vt 0.021045 0.027562
vt 0.046632 0.027562
vt 0.072219 0.027562
vt 0.097806 0.027562
vt 0.123392 0.027562
vt 0.148979 0.027562
vt 0.174566 0.027562
vt 0.200152 0.027562
vt 0.225739 0.027562
vt 0.251326 0.027562
vt 0.276913 0.027562
vt 0.302499 0.027562
vt 0.328086 0.027562
vt 0.353673 0.027562
vt 0.379259 0.027562
vt 0.404846 0.027562
vt 0.430433 0.027562
vt 0.456019 0.027562
vt 0.481606 0.027562
vt 0.507193 0.027562
vt 0.532780 0.027562
vt 0.021045 0.795164
vt 0.046632 0.795164
vt 0.072219 0.795164
vt 0.097806 0.795164
vt 0.123392 0.795164
vt 0.148979 0.795164
vt 0.174566 0.795164
vt 0.200152 0.795164
vt 0.225739 0.795164
vt 0.251326 0.795164
vt 0.276913 0.795164
vt 0.302499 0.795164
vt 0.328086 0.795164
vt 0.353673 0.795164
vt 0.379259 0.795164
vt 0.404846 0.795164
vt 0.430433 0.795164
vt 0.456019 0.795164
vt 0.481606 0.795164
vt 0.507193 0.795164
vt 0.532780 0.795164
vt 0.959661 0.340104
vt 0.980621 0.275596
vt 0.980621 0.207769
vt 0.959661 0.143262
vt 0.919793 0.088389
vt 0.864920 0.048521
vt 0.800413 0.027562
vt 0.732586 0.027562
vt 0.668079 0.048521
vt 0.613205 0.088389
vt 0.573338 0.143262
vt 0.552378 0.207769
vt 0.552378 0.275596
vt 0.573338 0.340104
vt 0.613205 0.394977
vt 0.668079 0.434844
vt 0.732586 0.455804
vt 0.800413 0.455804
vt 0.864920 0.434845
vt 0.919793 0.394977
vt 0.766499 0.688160
vt 0.766499 0.241683
vt 0.481606 0.027562
vt 0.507193 0.027562
vt 0.507193 0.795164
vt 0.481606 0.795164
vn 0.000000 0.892409 -0.451228
vn 0.000000 0.709294 -0.704913
vn 0.000000 0.709294 -0.704913
vn 0.000000 0.892409 -0.451228
vn 0.000000 0.456748 -0.889596
vn 0.000000 0.456748 -0.889596
vn 0.000000 0.159493 -0.987199
vn 0.000000 0.159493 -0.987199
vn -0.000000 -0.153374 -0.988168
vn -0.000000 -0.153374 -0.988168
vn -0.000000 -0.451228 -0.892409
vn -0.000000 -0.451228 -0.892409
vn -0.000000 -0.704913 -0.709293
vn -0.000000 -0.704913 -0.709293
vn -0.000000 -0.889596 -0.456748
vn -0.000000 -0.889596 -0.456748
vn -0.000000 -0.987199 -0.159493
vn -0.000000 -0.987199 -0.159493
vn 0.000000 -0.988168 0.153374
vn 0.000000 -0.988168 0.153374
vn 0.000000 -0.892409 0.451228
vn 0.000000 -0.892409 0.451228
vn 0.000000 -0.709294 0.704913
vn 0.000000 -0.709294 0.704913
vn 0.000000 -0.456748 0.889596
vn 0.000000 -0.456748 0.889596
vn 0.000000 -0.159493 0.987199
vn 0.000000 -0.159493 0.987199
vn 0.000000 0.153374 0.988168
vn 0.000000 0.153374 0.988168
vn 0.000000 0.451229 0.892408
vn 0.000000 0.451229 0.892408
vn 0.000000 0.704913 0.709294
vn 0.000000 0.704913 0.709294
vn 0.000000 0.889596 0.456748
vn 0.000000 0.889596 0.456748
vn 0.000000 0.950095 0.311961
vn 0.000000 0.950095 0.311961
vn 0.000000 0.999995 0.003098
vn 0.000000 0.999995 0.003098
vn 0.000000 0.999995 0.003098
vn 0.000000 0.999995 0.003098
vn 0.000000 0.952010 -0.306068
vn 0.000000 0.952010 -0.306068
vn 1.000000 0.000000 0.000000
vn 1.000000 0.000000 0.000000
vn 1.000000 -0.000000 -0.000000
vn 1.000000 -0.000000 -0.000000
vn 1.000000 -0.000000 -0.000000
vn 1.000000 0.000000 0.000000
vn 1.000000 0.000000 0.000000
vn 1.000000 0.000000 0.000000
vn 1.000000 0.000000 0.000000
vn 1.000000 0.000000 0.000000
vn 1.000000 0.000000 0.000000
vn 1.000000 0.000000 0.000000
vn 1.000000 0.000000 0.000000
vn 1.000000 -0.000000 -0.000000
vn 1.000000 -0.000000 -0.000000
vn 1.000000 -0.000000 -0.000000
vn 1.000000 -0.000000 -0.000000
vn 1.000000 0.000000 0.000000
vn 1.000000 0.000000 0.000000
vn 1.000000 0.000000 0.000000
vn 1.000000 0.000000 0.000000
vn -1.000000 0.000000 0.000000
vn -1.000000 0.000000 0.000000
vn -1.000000 -0.000000 -0.000000
vn -1.000000 0.000000 0.000000
vn -1.000000 0.000000 0.000000
vn -1.000000 0.000000 0.000000
vn -1.000000 0.000000 0.000000
vn -1.000000 0.000000 0.000000
vn -1.000000 0.000000 0.000000
vn -1.000000 0.000000 0.000000
vn -1.000000 0.000000 0.000000
vn -1.000000 0.000000 0.000000
vn -1.000000 0.000000 0.000000
vn -1.000000 -0.000000 -0.000000
vn -1.000000 -0.000000 -0.000000
vn -1.000000 0.000000 0.000000
vn -1.000000 -0.000000 -0.000000
vn -1.000000 -0.000000 -0.000000
vn -1.000000 -0.000000 -0.000000
vn -1.000000 0.000000 0.000000
vn -1.000000 0.000000 0.000000
vn 1.000000 0.000000 0.000000
vn 1.000000 0.000000 0.000000
vn 0.000000 0.003098 -0.999995
vn 0.000000 0.003098 -0.999995
vn 0.000000 0.003098 -0.999995
vn 0.000000 0.003098 -0.999995
vn -1.000000 0.000000 0.000000
vn -1.000000 0.000000 0.000000
vn 0.000000 -0.003098 0.999995
vn 0.000000 -0.003098 0.999995
vn 0.000000 -0.003098 0.999995
vn 0.000000 -0.003098 0.999995
s 1
g switch_flip
usemtl Maya_Lambert1SG
f 1/21/1 2/22/2 22/43/3 21/42/4
f 2/22/2 3/23/5 23/44/6 22/43/3
f 3/23/5 4/24/7 24/45/8 23/44/6
f 4/24/7 5/25/9 25/46/10 24/45/8
f 5/25/9 6/26/11 26/47/12 25/46/10
f 6/26/11 7/27/13 27/48/14 26/47/12
f 7/27/13 8/28/15 28/49/16 27/48/14
f 8/28/15 9/29/17 29/50/18 28/49/16
f 9/29/17 10/30/19 30/51/20 29/50/18
f 10/30/19 11/31/21 31/52/22 30/51/20
f 11/31/21 12/32/23 32/53/24 31/52/22
f 12/32/23 13/33/25 33/54/26 32/53/24
f 13/33/25 14/34/27 34/55/28 33/54/26
f 14/34/27 15/35/29 35/56/30 34/55/28
f 15/35/29 16/36/31 36/57/32 35/56/30
f 16/36/31 17/37/33 37/58/34 36/57/32
f 17/37/33 18/38/35 38/59/36 37/58/34
f 18/38/35 19/39/37 39/60/38 38/59/36
s off
f 43/85/39 44/86/40 45/87/41 46/88/42
s 1
f 20/40/43 1/41/1 21/62/4 40/61/44
s 2
f 2/2/45 1/1/46 41/83/47
f 3/3/48 2/2/45 41/83/47
f 4/4/49 3/3/48 41/83/47
f 5/5/50 4/4/49 41/83/47
f 6/6/51 5/5/50 41/83/47
f 7/7/52 6/6/51 41/83/47
f 8/8/53 7/7/52 41/83/47
f 9/9/54 8/8/53 41/83/47
f 10/10/55 9/9/54 41/83/47
f 11/11/56 10/10/55 41/83/47
f 12/12/57 11/11/56 41/83/47
f 13/13/58 12/12/57 41/83/47
f 14/14/59 13/13/58 41/83/47
f 15/15/60 14/14/59 41/83/47
f 16/16/61 15/15/60 41/83/47
f 17/17/62 16/16/61 41/83/47
f 18/18/63 17/17/62 41/83/47
f 19/19/64 18/18/63 41/83/47
f 20/20/65 19/19/64 41/83/47
f 1/1/46 20/20/65 41/83/47
s 3
f 21/81/66 22/80/67 42/84/68
f 22/80/67 23/79/69 42/84/68
f 23/79/69 24/78/70 42/84/68
f 24/78/70 25/77/71 42/84/68
f 25/77/71 26/76/72 42/84/68
f 26/76/72 27/75/73 42/84/68
f 27/75/73 28/74/74 42/84/68
f 28/74/74 29/73/75 42/84/68
f 29/73/75 30/72/76 42/84/68
f 30/72/76 31/71/77 42/84/68
f 31/71/77 32/70/78 42/84/68
f 32/70/78 33/69/79 42/84/68
f 33/69/79 34/68/80 42/84/68
f 34/68/80 35/67/81 42/84/68
f 35/67/81 36/66/82 42/84/68
f 36/66/82 37/65/83 42/84/68
f 37/65/83 38/64/84 42/84/68
f 38/64/84 39/63/85 42/84/68
f 39/63/85 40/82/86 42/84/68
f 40/82/86 21/81/66 42/84/68
s 2
f 19/39/64 20/40/65 44/86/87 43/85/88
s off
f 20/40/89 40/61/90 45/87/91 44/86/92
s 3
f 40/61/86 39/60/85 46/88/93 45/87/94
s off
f 39/60/95 19/39/96 43/85/97 46/88/98
